<?xml version="1.0" encoding="utf-8"?>
<svg xmlns="http://www.w3.org/2000/svg" xmlns:xlink="http://www.w3.org/1999/xlink" width="600" height="400" viewBox="0 0 2400 1600">
<defs>
  <clipPath id="clip370">
    <rect x="0" y="0" width="2400" height="1600"/>
  </clipPath>
</defs>
<path clip-path="url(#clip370)" d="
M0 1600 L2400 1600 L2400 0 L0 0  Z
  " fill="#ffffff" fill-rule="evenodd" fill-opacity="1"/>
<defs>
  <clipPath id="clip371">
    <rect x="480" y="0" width="1681" height="1600"/>
  </clipPath>
</defs>
<path clip-path="url(#clip370)" d="
M174.862 1423.18 L2352.76 1423.18 L2352.76 114.832 L174.862 114.832  Z
  " fill="#ffffff" fill-rule="evenodd" fill-opacity="1"/>
<defs>
  <clipPath id="clip372">
    <rect x="174" y="114" width="2179" height="1309"/>
  </clipPath>
</defs>
<polyline clip-path="url(#clip372)" style="stroke:#000000; stroke-width:2; stroke-opacity:0.1; fill:none" points="
  231.007,1423.18 231.007,114.832 
  "/>
<polyline clip-path="url(#clip372)" style="stroke:#000000; stroke-width:2; stroke-opacity:0.1; fill:none" points="
  917.71,1423.18 917.71,114.832 
  "/>
<polyline clip-path="url(#clip372)" style="stroke:#000000; stroke-width:2; stroke-opacity:0.1; fill:none" points="
  1604.41,1423.18 1604.41,114.832 
  "/>
<polyline clip-path="url(#clip372)" style="stroke:#000000; stroke-width:2; stroke-opacity:0.1; fill:none" points="
  2291.12,1423.18 2291.12,114.832 
  "/>
<polyline clip-path="url(#clip372)" style="stroke:#000000; stroke-width:2; stroke-opacity:0.1; fill:none" points="
  174.862,1386.15 2352.76,1386.15 
  "/>
<polyline clip-path="url(#clip372)" style="stroke:#000000; stroke-width:2; stroke-opacity:0.1; fill:none" points="
  174.862,1072.33 2352.76,1072.33 
  "/>
<polyline clip-path="url(#clip372)" style="stroke:#000000; stroke-width:2; stroke-opacity:0.1; fill:none" points="
  174.862,758.515 2352.76,758.515 
  "/>
<polyline clip-path="url(#clip372)" style="stroke:#000000; stroke-width:2; stroke-opacity:0.1; fill:none" points="
  174.862,444.696 2352.76,444.696 
  "/>
<polyline clip-path="url(#clip372)" style="stroke:#000000; stroke-width:2; stroke-opacity:0.1; fill:none" points="
  174.862,130.878 2352.76,130.878 
  "/>
<polyline clip-path="url(#clip370)" style="stroke:#000000; stroke-width:4; stroke-opacity:1; fill:none" points="
  174.862,1423.18 2352.76,1423.18 
  "/>
<polyline clip-path="url(#clip370)" style="stroke:#000000; stroke-width:4; stroke-opacity:1; fill:none" points="
  174.862,1423.18 174.862,114.832 
  "/>
<polyline clip-path="url(#clip370)" style="stroke:#000000; stroke-width:4; stroke-opacity:1; fill:none" points="
  231.007,1423.18 231.007,1407.48 
  "/>
<polyline clip-path="url(#clip370)" style="stroke:#000000; stroke-width:4; stroke-opacity:1; fill:none" points="
  917.71,1423.18 917.71,1407.48 
  "/>
<polyline clip-path="url(#clip370)" style="stroke:#000000; stroke-width:4; stroke-opacity:1; fill:none" points="
  1604.41,1423.18 1604.41,1407.48 
  "/>
<polyline clip-path="url(#clip370)" style="stroke:#000000; stroke-width:4; stroke-opacity:1; fill:none" points="
  2291.12,1423.18 2291.12,1407.48 
  "/>
<polyline clip-path="url(#clip370)" style="stroke:#000000; stroke-width:4; stroke-opacity:1; fill:none" points="
  174.862,1386.15 200.997,1386.15 
  "/>
<polyline clip-path="url(#clip370)" style="stroke:#000000; stroke-width:4; stroke-opacity:1; fill:none" points="
  174.862,1072.33 200.997,1072.33 
  "/>
<polyline clip-path="url(#clip370)" style="stroke:#000000; stroke-width:4; stroke-opacity:1; fill:none" points="
  174.862,758.515 200.997,758.515 
  "/>
<polyline clip-path="url(#clip370)" style="stroke:#000000; stroke-width:4; stroke-opacity:1; fill:none" points="
  174.862,444.696 200.997,444.696 
  "/>
<polyline clip-path="url(#clip370)" style="stroke:#000000; stroke-width:4; stroke-opacity:1; fill:none" points="
  174.862,130.878 200.997,130.878 
  "/>
<path clip-path="url(#clip370)" d="M 0 0 M193.102 1461.77 L205.579 1461.77 L205.579 1465.56 L193.102 1465.56 L193.102 1461.77 Z" fill="#000000" fill-rule="evenodd" fill-opacity="1" /><path clip-path="url(#clip370)" d="M 0 0 M220.648 1445.17 Q217.037 1445.17 215.208 1448.74 Q213.403 1452.28 213.403 1459.41 Q213.403 1466.51 215.208 1470.08 Q217.037 1473.62 220.648 1473.62 Q224.282 1473.62 226.088 1470.08 Q227.917 1466.51 227.917 1459.41 Q227.917 1452.28 226.088 1448.74 Q224.282 1445.17 220.648 1445.17 M220.648 1441.47 Q226.458 1441.47 229.514 1446.07 Q232.593 1450.66 232.593 1459.41 Q232.593 1468.13 229.514 1472.74 Q226.458 1477.32 220.648 1477.32 Q214.838 1477.32 211.759 1472.74 Q208.704 1468.13 208.704 1459.41 Q208.704 1450.66 211.759 1446.07 Q214.838 1441.47 220.648 1441.47 Z" fill="#000000" fill-rule="evenodd" fill-opacity="1" /><path clip-path="url(#clip370)" d="M 0 0 M237.662 1470.77 L242.546 1470.77 L242.546 1476.65 L237.662 1476.65 L237.662 1470.77 Z" fill="#000000" fill-rule="evenodd" fill-opacity="1" /><path clip-path="url(#clip370)" d="M 0 0 M261.782 1458.02 Q265.139 1458.74 267.014 1461 Q268.912 1463.27 268.912 1466.61 Q268.912 1471.72 265.393 1474.52 Q261.875 1477.32 255.393 1477.32 Q253.217 1477.32 250.903 1476.88 Q248.611 1476.47 246.157 1475.61 L246.157 1471.1 Q248.102 1472.23 250.417 1472.81 Q252.731 1473.39 255.254 1473.39 Q259.653 1473.39 261.944 1471.65 Q264.259 1469.92 264.259 1466.61 Q264.259 1463.55 262.106 1461.84 Q259.977 1460.1 256.157 1460.1 L252.129 1460.1 L252.129 1456.26 L256.342 1456.26 Q259.791 1456.26 261.62 1454.89 Q263.449 1453.5 263.449 1450.91 Q263.449 1448.25 261.551 1446.84 Q259.676 1445.4 256.157 1445.4 Q254.236 1445.4 252.037 1445.82 Q249.838 1446.24 247.199 1447.11 L247.199 1442.95 Q249.861 1442.21 252.176 1441.84 Q254.514 1441.47 256.574 1441.47 Q261.898 1441.47 265 1443.9 Q268.102 1446.3 268.102 1450.43 Q268.102 1453.3 266.458 1455.29 Q264.815 1457.25 261.782 1458.02 Z" fill="#000000" fill-rule="evenodd" fill-opacity="1" /><path clip-path="url(#clip370)" d="M 0 0 M880.28 1461.77 L892.757 1461.77 L892.757 1465.56 L880.28 1465.56 L880.28 1461.77 Z" fill="#000000" fill-rule="evenodd" fill-opacity="1" /><path clip-path="url(#clip370)" d="M 0 0 M907.826 1445.17 Q904.215 1445.17 902.386 1448.74 Q900.581 1452.28 900.581 1459.41 Q900.581 1466.51 902.386 1470.08 Q904.215 1473.62 907.826 1473.62 Q911.46 1473.62 913.266 1470.08 Q915.095 1466.51 915.095 1459.41 Q915.095 1452.28 913.266 1448.74 Q911.46 1445.17 907.826 1445.17 M907.826 1441.47 Q913.636 1441.47 916.692 1446.07 Q919.771 1450.66 919.771 1459.41 Q919.771 1468.13 916.692 1472.74 Q913.636 1477.32 907.826 1477.32 Q902.016 1477.32 898.937 1472.74 Q895.882 1468.13 895.882 1459.41 Q895.882 1450.66 898.937 1446.07 Q902.016 1441.47 907.826 1441.47 Z" fill="#000000" fill-rule="evenodd" fill-opacity="1" /><path clip-path="url(#clip370)" d="M 0 0 M924.84 1470.77 L929.724 1470.77 L929.724 1476.65 L924.84 1476.65 L924.84 1470.77 Z" fill="#000000" fill-rule="evenodd" fill-opacity="1" /><path clip-path="url(#clip370)" d="M 0 0 M938.821 1472.72 L955.141 1472.72 L955.141 1476.65 L933.196 1476.65 L933.196 1472.72 Q935.858 1469.96 940.442 1465.33 Q945.048 1460.68 946.229 1459.34 Q948.474 1456.81 949.354 1455.08 Q950.257 1453.32 950.257 1451.63 Q950.257 1448.87 948.312 1447.14 Q946.391 1445.4 943.289 1445.4 Q941.09 1445.4 938.636 1446.17 Q936.206 1446.93 933.428 1448.48 L933.428 1443.76 Q936.252 1442.62 938.706 1442.05 Q941.159 1441.47 943.196 1441.47 Q948.567 1441.47 951.761 1444.15 Q954.956 1446.84 954.956 1451.33 Q954.956 1453.46 954.145 1455.38 Q953.358 1457.28 951.252 1459.87 Q950.673 1460.54 947.571 1463.76 Q944.47 1466.95 938.821 1472.72 Z" fill="#000000" fill-rule="evenodd" fill-opacity="1" /><path clip-path="url(#clip370)" d="M 0 0 M1566.8 1461.77 L1579.28 1461.77 L1579.28 1465.56 L1566.8 1465.56 L1566.8 1461.77 Z" fill="#000000" fill-rule="evenodd" fill-opacity="1" /><path clip-path="url(#clip370)" d="M 0 0 M1594.34 1445.17 Q1590.73 1445.17 1588.9 1448.74 Q1587.1 1452.28 1587.1 1459.41 Q1587.1 1466.51 1588.9 1470.08 Q1590.73 1473.62 1594.34 1473.62 Q1597.98 1473.62 1599.78 1470.08 Q1601.61 1466.51 1601.61 1459.41 Q1601.61 1452.28 1599.78 1448.74 Q1597.98 1445.17 1594.34 1445.17 M1594.34 1441.47 Q1600.15 1441.47 1603.21 1446.07 Q1606.29 1450.66 1606.29 1459.41 Q1606.29 1468.13 1603.21 1472.74 Q1600.15 1477.32 1594.34 1477.32 Q1588.53 1477.32 1585.46 1472.74 Q1582.4 1468.13 1582.4 1459.41 Q1582.4 1450.66 1585.46 1446.07 Q1588.53 1441.47 1594.34 1441.47 Z" fill="#000000" fill-rule="evenodd" fill-opacity="1" /><path clip-path="url(#clip370)" d="M 0 0 M1611.36 1470.77 L1616.24 1470.77 L1616.24 1476.65 L1611.36 1476.65 L1611.36 1470.77 Z" fill="#000000" fill-rule="evenodd" fill-opacity="1" /><path clip-path="url(#clip370)" d="M 0 0 M1622.12 1472.72 L1629.76 1472.72 L1629.76 1446.35 L1621.45 1448.02 L1621.45 1443.76 L1629.71 1442.09 L1634.39 1442.09 L1634.39 1472.72 L1642.03 1472.72 L1642.03 1476.65 L1622.12 1476.65 L1622.12 1472.72 Z" fill="#000000" fill-rule="evenodd" fill-opacity="1" /><path clip-path="url(#clip370)" d="M 0 0 M2272.63 1445.17 Q2269.02 1445.17 2267.19 1448.74 Q2265.39 1452.28 2265.39 1459.41 Q2265.39 1466.51 2267.19 1470.08 Q2269.02 1473.62 2272.63 1473.62 Q2276.27 1473.62 2278.07 1470.08 Q2279.9 1466.51 2279.9 1459.41 Q2279.9 1452.28 2278.07 1448.74 Q2276.27 1445.17 2272.63 1445.17 M2272.63 1441.47 Q2278.44 1441.47 2281.5 1446.07 Q2284.58 1450.66 2284.58 1459.41 Q2284.58 1468.13 2281.5 1472.74 Q2278.44 1477.32 2272.63 1477.32 Q2266.82 1477.32 2263.74 1472.74 Q2260.69 1468.13 2260.69 1459.41 Q2260.69 1450.66 2263.74 1446.07 Q2266.82 1441.47 2272.63 1441.47 Z" fill="#000000" fill-rule="evenodd" fill-opacity="1" /><path clip-path="url(#clip370)" d="M 0 0 M2289.65 1470.77 L2294.53 1470.77 L2294.53 1476.65 L2289.65 1476.65 L2289.65 1470.77 Z" fill="#000000" fill-rule="evenodd" fill-opacity="1" /><path clip-path="url(#clip370)" d="M 0 0 M2309.6 1445.17 Q2305.99 1445.17 2304.16 1448.74 Q2302.36 1452.28 2302.36 1459.41 Q2302.36 1466.51 2304.16 1470.08 Q2305.99 1473.62 2309.6 1473.62 Q2313.24 1473.62 2315.04 1470.08 Q2316.87 1466.51 2316.87 1459.41 Q2316.87 1452.28 2315.04 1448.74 Q2313.24 1445.17 2309.6 1445.17 M2309.6 1441.47 Q2315.41 1441.47 2318.47 1446.07 Q2321.55 1450.66 2321.55 1459.41 Q2321.55 1468.13 2318.47 1472.74 Q2315.41 1477.32 2309.6 1477.32 Q2303.79 1477.32 2300.71 1472.74 Q2297.66 1468.13 2297.66 1459.41 Q2297.66 1450.66 2300.71 1446.07 Q2303.79 1441.47 2309.6 1441.47 Z" fill="#000000" fill-rule="evenodd" fill-opacity="1" /><path clip-path="url(#clip370)" d="M 0 0 M74.9365 1371.95 Q71.3254 1371.95 69.4967 1375.52 Q67.6912 1379.06 67.6912 1386.19 Q67.6912 1393.29 69.4967 1396.86 Q71.3254 1400.4 74.9365 1400.4 Q78.5707 1400.4 80.3763 1396.86 Q82.205 1393.29 82.205 1386.19 Q82.205 1379.06 80.3763 1375.52 Q78.5707 1371.95 74.9365 1371.95 M74.9365 1368.25 Q80.7467 1368.25 83.8022 1372.85 Q86.8809 1377.44 86.8809 1386.19 Q86.8809 1394.91 83.8022 1399.52 Q80.7467 1404.1 74.9365 1404.1 Q69.1264 1404.1 66.0477 1399.52 Q62.9921 1394.91 62.9921 1386.19 Q62.9921 1377.44 66.0477 1372.85 Q69.1264 1368.25 74.9365 1368.25 Z" fill="#000000" fill-rule="evenodd" fill-opacity="1" /><path clip-path="url(#clip370)" d="M 0 0 M91.9503 1397.55 L96.8345 1397.55 L96.8345 1403.43 L91.9503 1403.43 L91.9503 1397.55 Z" fill="#000000" fill-rule="evenodd" fill-opacity="1" /><path clip-path="url(#clip370)" d="M 0 0 M111.904 1371.95 Q108.293 1371.95 106.464 1375.52 Q104.659 1379.06 104.659 1386.19 Q104.659 1393.29 106.464 1396.86 Q108.293 1400.4 111.904 1400.4 Q115.538 1400.4 117.344 1396.86 Q119.172 1393.29 119.172 1386.19 Q119.172 1379.06 117.344 1375.52 Q115.538 1371.95 111.904 1371.95 M111.904 1368.25 Q117.714 1368.25 120.77 1372.85 Q123.848 1377.44 123.848 1386.19 Q123.848 1394.91 120.77 1399.52 Q117.714 1404.1 111.904 1404.1 Q106.094 1404.1 103.015 1399.52 Q99.9595 1394.91 99.9595 1386.19 Q99.9595 1377.44 103.015 1372.85 Q106.094 1368.25 111.904 1368.25 Z" fill="#000000" fill-rule="evenodd" fill-opacity="1" /><path clip-path="url(#clip370)" d="M 0 0 M138.918 1371.95 Q135.307 1371.95 133.478 1375.52 Q131.672 1379.06 131.672 1386.19 Q131.672 1393.29 133.478 1396.86 Q135.307 1400.4 138.918 1400.4 Q142.552 1400.4 144.357 1396.86 Q146.186 1393.29 146.186 1386.19 Q146.186 1379.06 144.357 1375.52 Q142.552 1371.95 138.918 1371.95 M138.918 1368.25 Q144.728 1368.25 147.783 1372.85 Q150.862 1377.44 150.862 1386.19 Q150.862 1394.91 147.783 1399.52 Q144.728 1404.1 138.918 1404.1 Q133.107 1404.1 130.029 1399.52 Q126.973 1394.91 126.973 1386.19 Q126.973 1377.44 130.029 1372.85 Q133.107 1368.25 138.918 1368.25 Z" fill="#000000" fill-rule="evenodd" fill-opacity="1" /><path clip-path="url(#clip370)" d="M 0 0 M77.5291 1058.13 Q73.918 1058.13 72.0893 1061.7 Q70.2838 1065.24 70.2838 1072.37 Q70.2838 1079.47 72.0893 1083.04 Q73.918 1086.58 77.5291 1086.58 Q81.1633 1086.58 82.9689 1083.04 Q84.7976 1079.47 84.7976 1072.37 Q84.7976 1065.24 82.9689 1061.7 Q81.1633 1058.13 77.5291 1058.13 M77.5291 1054.43 Q83.3392 1054.43 86.3948 1059.03 Q89.4735 1063.62 89.4735 1072.37 Q89.4735 1081.09 86.3948 1085.7 Q83.3392 1090.28 77.5291 1090.28 Q71.7189 1090.28 68.6402 1085.7 Q65.5847 1081.09 65.5847 1072.37 Q65.5847 1063.62 68.6402 1059.03 Q71.7189 1054.43 77.5291 1054.43 Z" fill="#000000" fill-rule="evenodd" fill-opacity="1" /><path clip-path="url(#clip370)" d="M 0 0 M94.5429 1083.73 L99.4271 1083.73 L99.4271 1089.61 L94.5429 1089.61 L94.5429 1083.73 Z" fill="#000000" fill-rule="evenodd" fill-opacity="1" /><path clip-path="url(#clip370)" d="M 0 0 M108.524 1085.68 L124.844 1085.68 L124.844 1089.61 L102.899 1089.61 L102.899 1085.68 Q105.561 1082.92 110.145 1078.29 Q114.751 1073.64 115.932 1072.3 Q118.177 1069.78 119.057 1068.04 Q119.959 1066.28 119.959 1064.59 Q119.959 1061.84 118.015 1060.1 Q116.094 1058.36 112.992 1058.36 Q110.793 1058.36 108.339 1059.13 Q105.909 1059.89 103.131 1061.44 L103.131 1056.72 Q105.955 1055.59 108.409 1055.01 Q110.862 1054.43 112.899 1054.43 Q118.27 1054.43 121.464 1057.11 Q124.658 1059.8 124.658 1064.29 Q124.658 1066.42 123.848 1068.34 Q123.061 1070.24 120.955 1072.83 Q120.376 1073.5 117.274 1076.72 Q114.172 1079.91 108.524 1085.68 Z" fill="#000000" fill-rule="evenodd" fill-opacity="1" /><path clip-path="url(#clip370)" d="M 0 0 M129.959 1055.05 L148.316 1055.05 L148.316 1058.99 L134.242 1058.99 L134.242 1067.46 Q135.26 1067.11 136.279 1066.95 Q137.297 1066.77 138.316 1066.77 Q144.103 1066.77 147.482 1069.94 Q150.862 1073.11 150.862 1078.53 Q150.862 1084.1 147.39 1087.21 Q143.918 1090.28 137.598 1090.28 Q135.422 1090.28 133.154 1089.91 Q130.908 1089.54 128.501 1088.8 L128.501 1084.1 Q130.584 1085.24 132.807 1085.79 Q135.029 1086.35 137.506 1086.35 Q141.51 1086.35 143.848 1084.24 Q146.186 1082.14 146.186 1078.53 Q146.186 1074.91 143.848 1072.81 Q141.51 1070.7 137.506 1070.7 Q135.631 1070.7 133.756 1071.12 Q131.904 1071.53 129.959 1072.41 L129.959 1055.05 Z" fill="#000000" fill-rule="evenodd" fill-opacity="1" /><path clip-path="url(#clip370)" d="M 0 0 M75.9319 744.313 Q72.3208 744.313 70.4921 747.878 Q68.6865 751.42 68.6865 758.549 Q68.6865 765.656 70.4921 769.221 Q72.3208 772.762 75.9319 772.762 Q79.5661 772.762 81.3717 769.221 Q83.2004 765.656 83.2004 758.549 Q83.2004 751.42 81.3717 747.878 Q79.5661 744.313 75.9319 744.313 M75.9319 740.61 Q81.742 740.61 84.7976 745.216 Q87.8763 749.8 87.8763 758.549 Q87.8763 767.276 84.7976 771.883 Q81.742 776.466 75.9319 776.466 Q70.1217 776.466 67.043 771.883 Q63.9875 767.276 63.9875 758.549 Q63.9875 749.8 67.043 745.216 Q70.1217 740.61 75.9319 740.61 Z" fill="#000000" fill-rule="evenodd" fill-opacity="1" /><path clip-path="url(#clip370)" d="M 0 0 M92.9457 769.915 L97.8299 769.915 L97.8299 775.795 L92.9457 775.795 L92.9457 769.915 Z" fill="#000000" fill-rule="evenodd" fill-opacity="1" /><path clip-path="url(#clip370)" d="M 0 0 M102.946 741.235 L121.302 741.235 L121.302 745.17 L107.228 745.17 L107.228 753.642 Q108.247 753.295 109.265 753.133 Q110.284 752.948 111.302 752.948 Q117.089 752.948 120.469 756.119 Q123.848 759.29 123.848 764.707 Q123.848 770.286 120.376 773.387 Q116.904 776.466 110.584 776.466 Q108.409 776.466 106.14 776.096 Q103.895 775.725 101.487 774.985 L101.487 770.286 Q103.571 771.42 105.793 771.975 Q108.015 772.531 110.492 772.531 Q114.496 772.531 116.834 770.424 Q119.172 768.318 119.172 764.707 Q119.172 761.096 116.834 758.989 Q114.496 756.883 110.492 756.883 Q108.617 756.883 106.742 757.299 Q104.89 757.716 102.946 758.596 L102.946 741.235 Z" fill="#000000" fill-rule="evenodd" fill-opacity="1" /><path clip-path="url(#clip370)" d="M 0 0 M138.918 744.313 Q135.307 744.313 133.478 747.878 Q131.672 751.42 131.672 758.549 Q131.672 765.656 133.478 769.221 Q135.307 772.762 138.918 772.762 Q142.552 772.762 144.357 769.221 Q146.186 765.656 146.186 758.549 Q146.186 751.42 144.357 747.878 Q142.552 744.313 138.918 744.313 M138.918 740.61 Q144.728 740.61 147.783 745.216 Q150.862 749.8 150.862 758.549 Q150.862 767.276 147.783 771.883 Q144.728 776.466 138.918 776.466 Q133.107 776.466 130.029 771.883 Q126.973 767.276 126.973 758.549 Q126.973 749.8 130.029 745.216 Q133.107 740.61 138.918 740.61 Z" fill="#000000" fill-rule="evenodd" fill-opacity="1" /><path clip-path="url(#clip370)" d="M 0 0 M76.8346 430.495 Q73.2236 430.495 71.3949 434.06 Q69.5893 437.601 69.5893 444.731 Q69.5893 451.837 71.3949 455.402 Q73.2236 458.944 76.8346 458.944 Q80.4689 458.944 82.2744 455.402 Q84.1031 451.837 84.1031 444.731 Q84.1031 437.601 82.2744 434.06 Q80.4689 430.495 76.8346 430.495 M76.8346 426.791 Q82.6448 426.791 85.7003 431.398 Q88.779 435.981 88.779 444.731 Q88.779 453.458 85.7003 458.064 Q82.6448 462.648 76.8346 462.648 Q71.0245 462.648 67.9458 458.064 Q64.8903 453.458 64.8903 444.731 Q64.8903 435.981 67.9458 431.398 Q71.0245 426.791 76.8346 426.791 Z" fill="#000000" fill-rule="evenodd" fill-opacity="1" /><path clip-path="url(#clip370)" d="M 0 0 M93.8484 456.097 L98.7327 456.097 L98.7327 461.976 L93.8484 461.976 L93.8484 456.097 Z" fill="#000000" fill-rule="evenodd" fill-opacity="1" /><path clip-path="url(#clip370)" d="M 0 0 M102.622 427.416 L124.844 427.416 L124.844 429.407 L112.297 461.976 L107.413 461.976 L119.219 431.351 L102.622 431.351 L102.622 427.416 Z" fill="#000000" fill-rule="evenodd" fill-opacity="1" /><path clip-path="url(#clip370)" d="M 0 0 M129.959 427.416 L148.316 427.416 L148.316 431.351 L134.242 431.351 L134.242 439.824 Q135.26 439.476 136.279 439.314 Q137.297 439.129 138.316 439.129 Q144.103 439.129 147.482 442.3 Q150.862 445.472 150.862 450.888 Q150.862 456.467 147.39 459.569 Q143.918 462.648 137.598 462.648 Q135.422 462.648 133.154 462.277 Q130.908 461.907 128.501 461.166 L128.501 456.467 Q130.584 457.601 132.807 458.157 Q135.029 458.712 137.506 458.712 Q141.51 458.712 143.848 456.606 Q146.186 454.5 146.186 450.888 Q146.186 447.277 143.848 445.171 Q141.51 443.064 137.506 443.064 Q135.631 443.064 133.756 443.481 Q131.904 443.898 129.959 444.777 L129.959 427.416 Z" fill="#000000" fill-rule="evenodd" fill-opacity="1" /><path clip-path="url(#clip370)" d="M 0 0 M66.9736 144.223 L74.6124 144.223 L74.6124 117.857 L66.3023 119.524 L66.3023 115.265 L74.5661 113.598 L79.242 113.598 L79.242 144.223 L86.8809 144.223 L86.8809 148.158 L66.9736 148.158 L66.9736 144.223 Z" fill="#000000" fill-rule="evenodd" fill-opacity="1" /><path clip-path="url(#clip370)" d="M 0 0 M91.9503 142.278 L96.8345 142.278 L96.8345 148.158 L91.9503 148.158 L91.9503 142.278 Z" fill="#000000" fill-rule="evenodd" fill-opacity="1" /><path clip-path="url(#clip370)" d="M 0 0 M111.904 116.677 Q108.293 116.677 106.464 120.241 Q104.659 123.783 104.659 130.913 Q104.659 138.019 106.464 141.584 Q108.293 145.126 111.904 145.126 Q115.538 145.126 117.344 141.584 Q119.172 138.019 119.172 130.913 Q119.172 123.783 117.344 120.241 Q115.538 116.677 111.904 116.677 M111.904 112.973 Q117.714 112.973 120.77 117.579 Q123.848 122.163 123.848 130.913 Q123.848 139.639 120.77 144.246 Q117.714 148.829 111.904 148.829 Q106.094 148.829 103.015 144.246 Q99.9595 139.639 99.9595 130.913 Q99.9595 122.163 103.015 117.579 Q106.094 112.973 111.904 112.973 Z" fill="#000000" fill-rule="evenodd" fill-opacity="1" /><path clip-path="url(#clip370)" d="M 0 0 M138.918 116.677 Q135.307 116.677 133.478 120.241 Q131.672 123.783 131.672 130.913 Q131.672 138.019 133.478 141.584 Q135.307 145.126 138.918 145.126 Q142.552 145.126 144.357 141.584 Q146.186 138.019 146.186 130.913 Q146.186 123.783 144.357 120.241 Q142.552 116.677 138.918 116.677 M138.918 112.973 Q144.728 112.973 147.783 117.579 Q150.862 122.163 150.862 130.913 Q150.862 139.639 147.783 144.246 Q144.728 148.829 138.918 148.829 Q133.107 148.829 130.029 144.246 Q126.973 139.639 126.973 130.913 Q126.973 122.163 130.029 117.579 Q133.107 112.973 138.918 112.973 Z" fill="#000000" fill-rule="evenodd" fill-opacity="1" /><path clip-path="url(#clip370)" d="M 0 0 M844.714 37.4512 L844.714 56.4441 L855.964 56.4441 Q861.624 56.4441 864.332 54.1178 Q867.075 51.7567 867.075 46.9303 Q867.075 42.0692 864.332 39.7776 Q861.624 37.4512 855.964 37.4512 L844.714 37.4512 M844.714 16.1319 L844.714 31.7568 L855.096 31.7568 Q860.235 31.7568 862.735 29.8471 Q865.269 27.9026 865.269 23.9443 Q865.269 20.0207 862.735 18.0763 Q860.235 16.1319 855.096 16.1319 L844.714 16.1319 M837.7 10.368 L855.617 10.368 Q863.637 10.368 867.978 13.7013 Q872.318 17.0346 872.318 23.1804 Q872.318 27.9374 870.096 30.7498 Q867.874 33.5623 863.568 34.2568 Q868.742 35.3679 871.589 38.9095 Q874.471 42.4164 874.471 47.6942 Q874.471 54.6386 869.749 58.4233 Q865.026 62.208 856.311 62.208 L837.7 62.208 L837.7 10.368 Z" fill="#000000" fill-rule="evenodd" fill-opacity="1" /><path clip-path="url(#clip370)" d="M 0 0 M896.241 27.7985 Q891.103 27.7985 888.117 31.8262 Q885.13 35.8193 885.13 42.7984 Q885.13 49.7775 888.082 53.8053 Q891.068 57.7983 896.241 57.7983 Q901.346 57.7983 904.332 53.7705 Q907.318 49.7428 907.318 42.7984 Q907.318 35.8887 904.332 31.8609 Q901.346 27.7985 896.241 27.7985 M896.241 22.3818 Q904.575 22.3818 909.332 27.7985 Q914.089 33.2151 914.089 42.7984 Q914.089 52.3469 909.332 57.7983 Q904.575 63.2149 896.241 63.2149 Q887.873 63.2149 883.117 57.7983 Q878.394 52.3469 878.394 42.7984 Q878.394 33.2151 883.117 27.7985 Q887.873 22.3818 896.241 22.3818 Z" fill="#000000" fill-rule="evenodd" fill-opacity="1" /><path clip-path="url(#clip370)" d="M 0 0 M953.116 38.7359 L953.116 62.208 L946.727 62.208 L946.727 38.9442 Q946.727 33.4234 944.575 30.6804 Q942.422 27.9374 938.116 27.9374 Q932.943 27.9374 929.957 31.2359 Q926.97 34.5345 926.97 40.229 L926.97 62.208 L920.547 62.208 L920.547 23.3193 L926.97 23.3193 L926.97 29.361 Q929.262 25.854 932.352 24.1179 Q935.477 22.3818 939.54 22.3818 Q946.241 22.3818 949.679 26.5485 Q953.116 30.6804 953.116 38.7359 Z" fill="#000000" fill-rule="evenodd" fill-opacity="1" /><path clip-path="url(#clip370)" d="M 0 0 M985.408 29.2221 L985.408 8.18051 L991.797 8.18051 L991.797 62.208 L985.408 62.208 L985.408 56.3747 Q983.394 59.8469 980.304 61.5483 Q977.248 63.2149 972.942 63.2149 Q965.894 63.2149 961.449 57.59 Q957.04 51.965 957.04 42.7984 Q957.04 33.6318 961.449 28.0068 Q965.894 22.3818 972.942 22.3818 Q977.248 22.3818 980.304 24.0832 Q983.394 25.7499 985.408 29.2221 M963.637 42.7984 Q963.637 49.847 966.519 53.8747 Q969.436 57.8677 974.505 57.8677 Q979.574 57.8677 982.491 53.8747 Q985.408 49.847 985.408 42.7984 Q985.408 35.7498 982.491 31.7568 Q979.574 27.729 974.505 27.729 Q969.436 27.729 966.519 31.7568 Q963.637 35.7498 963.637 42.7984 Z" fill="#000000" fill-rule="evenodd" fill-opacity="1" /><path clip-path="url(#clip370)" d="M 0 0 M1027.28 56.3747 L1027.28 76.9996 L1020.86 76.9996 L1020.86 23.3193 L1027.28 23.3193 L1027.28 29.2221 Q1029.3 25.7499 1032.35 24.0832 Q1035.44 22.3818 1039.71 22.3818 Q1046.8 22.3818 1051.21 28.0068 Q1055.65 33.6318 1055.65 42.7984 Q1055.65 51.965 1051.21 57.59 Q1046.8 63.2149 1039.71 63.2149 Q1035.44 63.2149 1032.35 61.5483 Q1029.3 59.8469 1027.28 56.3747 M1049.02 42.7984 Q1049.02 35.7498 1046.1 31.7568 Q1043.22 27.729 1038.15 27.729 Q1033.08 27.729 1030.16 31.7568 Q1027.28 35.7498 1027.28 42.7984 Q1027.28 49.847 1030.16 53.8747 Q1033.08 57.8677 1038.15 57.8677 Q1043.22 57.8677 1046.1 53.8747 Q1049.02 49.847 1049.02 42.7984 Z" fill="#000000" fill-rule="evenodd" fill-opacity="1" /><path clip-path="url(#clip370)" d="M 0 0 M1084.89 29.2915 Q1083.81 28.6665 1082.53 28.3887 Q1081.28 28.0762 1079.75 28.0762 Q1074.33 28.0762 1071.41 31.6179 Q1068.53 35.1248 1068.53 41.722 L1068.53 62.208 L1062.11 62.208 L1062.11 23.3193 L1068.53 23.3193 L1068.53 29.361 Q1070.55 25.8193 1073.78 24.1179 Q1077 22.3818 1081.62 22.3818 Q1082.28 22.3818 1083.08 22.486 Q1083.88 22.5554 1084.85 22.729 L1084.89 29.2915 Z" fill="#000000" fill-rule="evenodd" fill-opacity="1" /><path clip-path="url(#clip370)" d="M 0 0 M1091.59 23.3193 L1097.98 23.3193 L1097.98 62.208 L1091.59 62.208 L1091.59 23.3193 M1091.59 8.18051 L1097.98 8.18051 L1097.98 16.2707 L1091.59 16.2707 L1091.59 8.18051 Z" fill="#000000" fill-rule="evenodd" fill-opacity="1" /><path clip-path="url(#clip370)" d="M 0 0 M1132.66 24.8124 L1132.66 30.7846 Q1129.96 29.2915 1127.21 28.5623 Q1124.5 27.7985 1121.73 27.7985 Q1115.51 27.7985 1112.07 31.7568 Q1108.64 35.6804 1108.64 42.7984 Q1108.64 49.9164 1112.07 53.8747 Q1115.51 57.7983 1121.73 57.7983 Q1124.5 57.7983 1127.21 57.0691 Q1129.96 56.3053 1132.66 54.8122 L1132.66 60.715 Q1129.99 61.9649 1127.11 62.5899 Q1124.26 63.2149 1121.03 63.2149 Q1112.25 63.2149 1107.07 57.6941 Q1101.9 52.1733 1101.9 42.7984 Q1101.9 33.2845 1107.11 27.8332 Q1112.35 22.3818 1121.45 22.3818 Q1124.4 22.3818 1127.21 23.0068 Q1130.02 23.5971 1132.66 24.8124 Z" fill="#000000" fill-rule="evenodd" fill-opacity="1" /><path clip-path="url(#clip370)" d="M 0 0 M1172.63 41.1664 L1172.63 44.2914 L1143.25 44.2914 Q1143.67 50.8886 1147.21 54.3608 Q1150.79 57.7983 1157.14 57.7983 Q1160.82 57.7983 1164.26 56.8955 Q1167.73 55.9928 1171.14 54.1872 L1171.14 60.2288 Q1167.7 61.6872 1164.09 62.4511 Q1160.48 63.2149 1156.76 63.2149 Q1147.46 63.2149 1142 57.7983 Q1136.59 52.3817 1136.59 43.1456 Q1136.59 33.597 1141.73 28.0068 Q1146.9 22.3818 1155.65 22.3818 Q1163.5 22.3818 1168.05 27.4512 Q1172.63 32.4859 1172.63 41.1664 M1166.24 39.2915 Q1166.17 34.0484 1163.29 30.9234 Q1160.44 27.7985 1155.72 27.7985 Q1150.37 27.7985 1147.14 30.8193 Q1143.95 33.8401 1143.46 39.3262 L1166.24 39.2915 Z" fill="#000000" fill-rule="evenodd" fill-opacity="1" /><path clip-path="url(#clip370)" d="M 0 0 M1226.73 24.4651 L1226.73 30.5068 Q1224.02 29.1179 1221.1 28.4235 Q1218.18 27.729 1215.06 27.729 Q1210.3 27.729 1207.91 29.1873 Q1205.55 30.6457 1205.55 33.5623 Q1205.55 35.7845 1207.25 37.0692 Q1208.95 38.3192 1214.09 39.4651 L1216.27 39.9512 Q1223.08 41.4095 1225.93 44.0831 Q1228.81 46.722 1228.81 51.4789 Q1228.81 56.8955 1224.5 60.0552 Q1220.23 63.2149 1212.73 63.2149 Q1209.61 63.2149 1206.21 62.5899 Q1202.84 61.9997 1199.09 60.7844 L1199.09 54.1872 Q1202.63 56.0275 1206.07 56.965 Q1209.5 57.8677 1212.87 57.8677 Q1217.39 57.8677 1219.82 56.34 Q1222.25 54.7775 1222.25 51.965 Q1222.25 49.3608 1220.48 47.972 Q1218.74 46.5831 1212.8 45.2984 L1210.58 44.7775 Q1204.64 43.5275 1202 40.9581 Q1199.36 38.354 1199.36 33.8401 Q1199.36 28.354 1203.25 25.3679 Q1207.14 22.3818 1214.3 22.3818 Q1217.84 22.3818 1220.96 22.9027 Q1224.09 23.4235 1226.73 24.4651 Z" fill="#000000" fill-rule="evenodd" fill-opacity="1" /><path clip-path="url(#clip370)" d="M 0 0 M1263.5 24.8124 L1263.5 30.7846 Q1260.79 29.2915 1258.05 28.5623 Q1255.34 27.7985 1252.56 27.7985 Q1246.34 27.7985 1242.91 31.7568 Q1239.47 35.6804 1239.47 42.7984 Q1239.47 49.9164 1242.91 53.8747 Q1246.34 57.7983 1252.56 57.7983 Q1255.34 57.7983 1258.05 57.0691 Q1260.79 56.3053 1263.5 54.8122 L1263.5 60.715 Q1260.82 61.9649 1257.94 62.5899 Q1255.09 63.2149 1251.86 63.2149 Q1243.08 63.2149 1237.91 57.6941 Q1232.73 52.1733 1232.73 42.7984 Q1232.73 33.2845 1237.94 27.8332 Q1243.18 22.3818 1252.28 22.3818 Q1255.23 22.3818 1258.05 23.0068 Q1260.86 23.5971 1263.5 24.8124 Z" fill="#000000" fill-rule="evenodd" fill-opacity="1" /><path clip-path="url(#clip370)" d="M 0 0 M1302.52 38.7359 L1302.52 62.208 L1296.14 62.208 L1296.14 38.9442 Q1296.14 33.4234 1293.98 30.6804 Q1291.83 27.9374 1287.52 27.9374 Q1282.35 27.9374 1279.36 31.2359 Q1276.38 34.5345 1276.38 40.229 L1276.38 62.208 L1269.95 62.208 L1269.95 8.18051 L1276.38 8.18051 L1276.38 29.361 Q1278.67 25.854 1281.76 24.1179 Q1284.89 22.3818 1288.95 22.3818 Q1295.65 22.3818 1299.09 26.5485 Q1302.52 30.6804 1302.52 38.7359 Z" fill="#000000" fill-rule="evenodd" fill-opacity="1" /><path clip-path="url(#clip370)" d="M 0 0 M1342.49 41.1664 L1342.49 44.2914 L1313.11 44.2914 Q1313.53 50.8886 1317.07 54.3608 Q1320.65 57.7983 1327 57.7983 Q1330.68 57.7983 1334.12 56.8955 Q1337.59 55.9928 1341 54.1872 L1341 60.2288 Q1337.56 61.6872 1333.95 62.4511 Q1330.34 63.2149 1326.62 63.2149 Q1317.32 63.2149 1311.86 57.7983 Q1306.45 52.3817 1306.45 43.1456 Q1306.45 33.597 1311.59 28.0068 Q1316.76 22.3818 1325.51 22.3818 Q1333.36 22.3818 1337.91 27.4512 Q1342.49 32.4859 1342.49 41.1664 M1336.1 39.2915 Q1336.03 34.0484 1333.15 30.9234 Q1330.3 27.7985 1325.58 27.7985 Q1320.23 27.7985 1317 30.8193 Q1313.81 33.8401 1313.32 39.3262 L1336.1 39.2915 Z" fill="#000000" fill-rule="evenodd" fill-opacity="1" /><path clip-path="url(#clip370)" d="M 0 0 M1374.78 29.2221 L1374.78 8.18051 L1381.17 8.18051 L1381.17 62.208 L1374.78 62.208 L1374.78 56.3747 Q1372.77 59.8469 1369.68 61.5483 Q1366.62 63.2149 1362.32 63.2149 Q1355.27 63.2149 1350.82 57.59 Q1346.41 51.965 1346.41 42.7984 Q1346.41 33.6318 1350.82 28.0068 Q1355.27 22.3818 1362.32 22.3818 Q1366.62 22.3818 1369.68 24.0832 Q1372.77 25.7499 1374.78 29.2221 M1353.01 42.7984 Q1353.01 49.847 1355.89 53.8747 Q1358.81 57.8677 1363.88 57.8677 Q1368.95 57.8677 1371.86 53.8747 Q1374.78 49.847 1374.78 42.7984 Q1374.78 35.7498 1371.86 31.7568 Q1368.95 27.729 1363.88 27.729 Q1358.81 27.729 1355.89 31.7568 Q1353.01 35.7498 1353.01 42.7984 Z" fill="#000000" fill-rule="evenodd" fill-opacity="1" /><path clip-path="url(#clip370)" d="M 0 0 M1387.21 46.8609 L1387.21 23.3193 L1393.6 23.3193 L1393.6 46.6178 Q1393.6 52.1386 1395.75 54.9164 Q1397.91 57.6594 1402.21 57.6594 Q1407.38 57.6594 1410.37 54.3608 Q1413.39 51.0622 1413.39 45.3678 L1413.39 23.3193 L1419.78 23.3193 L1419.78 62.208 L1413.39 62.208 L1413.39 56.2358 Q1411.07 59.7775 1407.97 61.5136 Q1404.92 63.2149 1400.86 63.2149 Q1394.16 63.2149 1390.68 59.0483 Q1387.21 54.8817 1387.21 46.8609 M1403.29 22.3818 L1403.29 22.3818 Z" fill="#000000" fill-rule="evenodd" fill-opacity="1" /><path clip-path="url(#clip370)" d="M 0 0 M1426.48 8.18051 L1432.87 8.18051 L1432.87 62.208 L1426.48 62.208 L1426.48 8.18051 Z" fill="#000000" fill-rule="evenodd" fill-opacity="1" /><path clip-path="url(#clip370)" d="M 0 0 M1472.84 41.1664 L1472.84 44.2914 L1443.46 44.2914 Q1443.88 50.8886 1447.42 54.3608 Q1451 57.7983 1457.35 57.7983 Q1461.03 57.7983 1464.47 56.8955 Q1467.94 55.9928 1471.34 54.1872 L1471.34 60.2288 Q1467.91 61.6872 1464.29 62.4511 Q1460.68 63.2149 1456.97 63.2149 Q1447.66 63.2149 1442.21 57.7983 Q1436.79 52.3817 1436.79 43.1456 Q1436.79 33.597 1441.93 28.0068 Q1447.11 22.3818 1455.86 22.3818 Q1463.7 22.3818 1468.25 27.4512 Q1472.84 32.4859 1472.84 41.1664 M1466.45 39.2915 Q1466.38 34.0484 1463.5 30.9234 Q1460.65 27.7985 1455.93 27.7985 Q1450.58 27.7985 1447.35 30.8193 Q1444.16 33.8401 1443.67 39.3262 L1466.45 39.2915 Z" fill="#000000" fill-rule="evenodd" fill-opacity="1" /><path clip-path="url(#clip370)" d="M 0 0 M1505.96 42.7984 Q1505.96 49.847 1508.84 53.8747 Q1511.76 57.8677 1516.83 57.8677 Q1521.9 57.8677 1524.81 53.8747 Q1527.73 49.847 1527.73 42.7984 Q1527.73 35.7498 1524.81 31.7568 Q1521.9 27.729 1516.83 27.729 Q1511.76 27.729 1508.84 31.7568 Q1505.96 35.7498 1505.96 42.7984 M1527.73 56.3747 Q1525.72 59.8469 1522.63 61.5483 Q1519.57 63.2149 1515.27 63.2149 Q1508.22 63.2149 1503.77 57.59 Q1499.36 51.965 1499.36 42.7984 Q1499.36 33.6318 1503.77 28.0068 Q1508.22 22.3818 1515.27 22.3818 Q1519.57 22.3818 1522.63 24.0832 Q1525.72 25.7499 1527.73 29.2221 L1527.73 23.3193 L1534.12 23.3193 L1534.12 76.9996 L1527.73 76.9996 L1527.73 56.3747 Z" fill="#000000" fill-rule="evenodd" fill-opacity="1" /><path clip-path="url(#clip370)" d="M 0 0 M1556.17 8.24996 Q1551.52 16.236 1549.26 24.0485 Q1547 31.8609 1547 39.8817 Q1547 47.9025 1549.26 55.7844 Q1551.55 63.6316 1556.17 71.5829 L1550.61 71.5829 Q1545.4 63.4233 1542.8 55.5414 Q1540.23 47.6595 1540.23 39.8817 Q1540.23 32.1387 1542.8 24.2915 Q1545.37 16.4444 1550.61 8.24996 L1556.17 8.24996 Z" fill="#000000" fill-rule="evenodd" fill-opacity="1" /><path clip-path="url(#clip370)" d="M 0 0 M1570.16 37.4512 L1570.16 56.4441 L1581.41 56.4441 Q1587.07 56.4441 1589.78 54.1178 Q1592.52 51.7567 1592.52 46.9303 Q1592.52 42.0692 1589.78 39.7776 Q1587.07 37.4512 1581.41 37.4512 L1570.16 37.4512 M1570.16 16.1319 L1570.16 31.7568 L1580.54 31.7568 Q1585.68 31.7568 1588.18 29.8471 Q1590.72 27.9026 1590.72 23.9443 Q1590.72 20.0207 1588.18 18.0763 Q1585.68 16.1319 1580.54 16.1319 L1570.16 16.1319 M1563.15 10.368 L1581.06 10.368 Q1589.09 10.368 1593.43 13.7013 Q1597.77 17.0346 1597.77 23.1804 Q1597.77 27.9374 1595.54 30.7498 Q1593.32 33.5623 1589.02 34.2568 Q1594.19 35.3679 1597.04 38.9095 Q1599.92 42.4164 1599.92 47.6942 Q1599.92 54.6386 1595.2 58.4233 Q1590.47 62.208 1581.76 62.208 L1563.15 62.208 L1563.15 10.368 Z" fill="#000000" fill-rule="evenodd" fill-opacity="1" /><path clip-path="url(#clip370)" d="M 0 0 M1612.66 10.368 L1612.66 29.6387 L1606.76 29.6387 L1606.76 10.368 L1612.66 10.368 Z" fill="#000000" fill-rule="evenodd" fill-opacity="1" /><path clip-path="url(#clip370)" d="M 0 0 M1620.99 53.3886 L1628.32 53.3886 L1628.32 59.3608 L1622.63 70.4718 L1618.15 70.4718 L1620.99 59.3608 L1620.99 53.3886 Z" fill="#000000" fill-rule="evenodd" fill-opacity="1" /><path clip-path="url(#clip370)" d="M 0 0 M1651.2 65.8191 Q1648.49 72.7635 1645.92 74.8815 Q1643.36 76.9996 1639.05 76.9996 L1633.95 76.9996 L1633.95 71.6524 L1637.7 71.6524 Q1640.33 71.6524 1641.79 70.4024 Q1643.25 69.1524 1645.02 64.4997 L1646.17 61.583 L1630.44 23.3193 L1637.21 23.3193 L1649.36 53.7358 L1661.52 23.3193 L1668.29 23.3193 L1651.2 65.8191 Z" fill="#000000" fill-rule="evenodd" fill-opacity="1" /><path clip-path="url(#clip370)" d="M 0 0 M1673.98 8.24996 L1679.54 8.24996 Q1684.74 16.4444 1687.31 24.2915 Q1689.92 32.1387 1689.92 39.8817 Q1689.92 47.6595 1687.31 55.5414 Q1684.74 63.4233 1679.54 71.5829 L1673.98 71.5829 Q1678.6 63.6316 1680.86 55.7844 Q1683.15 47.9025 1683.15 39.8817 Q1683.15 31.8609 1680.86 24.0485 Q1678.6 16.236 1673.98 8.24996 Z" fill="#000000" fill-rule="evenodd" fill-opacity="1" /><path clip-path="url(#clip370)" d="M 0 0 M1247.54 1533.35 L1247.54 1550.76 L1257.86 1550.76 Q1263.05 1550.76 1265.53 1548.63 Q1268.04 1546.46 1268.04 1542.04 Q1268.04 1537.58 1265.53 1535.48 Q1263.05 1533.35 1257.86 1533.35 L1247.54 1533.35 M1247.54 1513.81 L1247.54 1528.13 L1257.06 1528.13 Q1261.77 1528.13 1264.06 1526.38 Q1266.39 1524.6 1266.39 1520.97 Q1266.39 1517.37 1264.06 1515.59 Q1261.77 1513.81 1257.06 1513.81 L1247.54 1513.81 M1241.12 1508.52 L1257.54 1508.52 Q1264.89 1508.52 1268.87 1511.58 Q1272.85 1514.63 1272.85 1520.27 Q1272.85 1524.63 1270.81 1527.21 Q1268.77 1529.79 1264.83 1530.42 Q1269.57 1531.44 1272.18 1534.69 Q1274.82 1537.9 1274.82 1542.74 Q1274.82 1549.11 1270.49 1552.57 Q1266.16 1556.04 1258.18 1556.04 L1241.12 1556.04 L1241.12 1508.52 Z" fill="#000000" fill-rule="evenodd" fill-opacity="1" /><path clip-path="url(#clip370)" d="M 0 0 M1286.5 1508.52 L1286.5 1526.19 L1281.09 1526.19 L1281.09 1508.52 L1286.5 1508.52 Z" fill="#000000" fill-rule="evenodd" fill-opacity="1" /><polyline clip-path="url(#clip372)" style="stroke:#ff0000; stroke-width:4.6; stroke-opacity:1; fill:none" points="
  236.501,1386.15 247.488,1386.15 258.475,1386.15 269.462,1386.15 280.45,1386.15 291.437,1386.15 302.424,1386.15 313.411,1386.15 324.399,1386.15 335.386,1386.15 
  346.373,1386.15 357.36,1386.15 368.348,1386.15 379.335,1386.12 390.322,1386.12 401.309,1386.12 412.297,1386.12 423.284,1386.12 434.271,1386.12 445.258,1386.12 
  456.246,1386.12 467.233,1386.12 478.22,1386.12 489.207,1386.12 500.195,1386.12 511.182,1386.12 522.169,1386.12 533.156,1386.12 544.144,1386.12 555.131,1386.12 
  566.118,1386.12 577.105,1386.12 588.093,1386.12 599.08,1386.12 610.067,1386.12 621.054,1386.12 632.042,1386.12 643.029,1386.12 654.016,1386.12 665.004,1386.12 
  675.991,1386.12 686.978,1386.12 697.965,1386.12 708.953,1386.12 719.94,1386.12 730.927,1386.12 741.914,1386.12 752.902,1386.12 763.889,1386.12 774.876,1386.12 
  785.863,1386.12 796.851,1386.12 807.838,1386.12 818.825,1386.12 829.812,1386.12 840.8,1386.12 851.787,1386.12 862.774,1386.12 873.761,1384.99 884.749,1384.99 
  895.736,1384.99 906.723,1384.99 917.71,1384.99 928.698,1384.99 939.685,1384.99 950.672,1384.99 961.659,1384.99 972.647,1384.99 983.634,1384.99 994.621,1384.99 
  1005.61,1384.99 1016.6,1384.99 1027.58,1384.99 1038.57,1384.99 1049.56,1384.99 1060.54,1384.99 1071.53,1384.99 1082.52,1384.99 1093.51,1384.99 1104.49,1384.99 
  1115.48,1384.99 1126.47,1384.99 1137.46,1384.99 1148.44,1384.99 1159.43,1384.99 1170.42,1384.99 1181.4,1384.99 1192.39,1384.99 1203.38,1384.99 1214.37,1384.99 
  1225.35,1384.99 1236.34,1384.99 1247.33,1384.99 1258.32,1384.99 1269.3,1384.99 1280.29,1384.99 1291.28,1384.99 1302.26,1384.99 1313.25,1384.99 1324.24,1368.65 
  1335.23,1368.65 1346.21,1368.65 1357.2,1368.65 1368.19,1368.65 1379.18,1368.65 1390.16,1368.65 1401.15,1368.65 1412.14,1368.65 1423.12,1368.65 1434.11,1368.65 
  1445.1,1368.65 1456.09,1368.65 1467.07,1368.65 1478.06,1368.65 1489.05,1368.65 1500.03,1368.65 1511.02,1368.65 1522.01,1368.65 1533,1368.65 1543.98,1368.65 
  1554.97,1368.65 1565.96,1368.65 1576.95,1368.65 1587.93,1368.65 1598.92,1368.65 1609.91,1368.65 1620.89,1368.65 1631.88,1368.65 1642.87,1368.65 1653.86,1368.65 
  1664.84,1368.65 1675.83,1368.65 1686.82,1368.65 1697.81,1368.65 1708.79,1368.65 1719.78,1368.65 1730.77,1261.29 1741.75,1261.29 1752.74,1261.29 1763.73,1261.29 
  1774.72,1261.29 1785.7,1261.29 1796.69,1261.29 1807.68,1261.29 1818.67,1261.29 1829.65,1261.29 1840.64,1261.29 1851.63,1261.29 1862.61,1261.29 1873.6,1261.29 
  1884.59,1261.29 1895.58,1261.29 1906.56,1261.29 1917.55,1261.29 1928.54,1261.29 1939.53,1261.29 1950.51,1261.29 1961.5,1261.29 1972.49,1261.29 1983.47,1261.29 
  1994.46,1261.29 2005.45,1261.29 2016.44,1261.29 2027.42,1261.29 2038.41,1261.29 2049.4,1261.29 2060.39,941.466 2071.37,941.466 2082.36,941.466 2093.35,941.466 
  2104.33,941.466 2115.32,941.466 2126.31,941.466 2137.3,941.466 2148.28,941.466 2159.27,941.466 2170.26,507.22 2181.24,507.22 2192.23,507.22 2203.22,507.22 
  2214.21,507.22 2225.19,507.22 2236.18,238.103 2247.17,238.103 2258.16,238.103 2269.14,162.147 2280.13,152.434 2291.12,151.861 
  "/>
<polyline clip-path="url(#clip372)" style="stroke:#0000ff; stroke-width:4.6; stroke-opacity:1; fill:none" stroke-dasharray="18, 12" points="
  236.501,1051.73 247.488,1051.73 258.475,1051.73 269.462,1051.73 280.45,1051.73 291.437,1051.73 302.424,1051.73 313.411,1051.73 324.399,1051.73 335.386,1051.73 
  346.373,1051.73 357.36,1051.73 368.348,1051.73 379.335,620.049 390.322,620.049 401.309,620.049 412.297,620.049 423.284,620.049 434.271,620.049 445.258,620.049 
  456.246,620.049 467.233,620.049 478.22,620.049 489.207,620.049 500.195,620.049 511.182,620.049 522.169,620.049 533.156,620.049 544.144,620.049 555.131,620.049 
  566.118,620.049 577.105,620.049 588.093,620.049 599.08,620.049 610.067,620.049 621.054,620.049 632.042,620.049 643.029,620.049 654.016,620.049 665.004,620.049 
  675.991,620.049 686.978,620.049 697.965,620.049 708.953,620.049 719.94,620.049 730.927,620.049 741.914,620.049 752.902,620.049 763.889,620.049 774.876,620.049 
  785.863,620.049 796.851,620.049 807.838,620.049 818.825,620.049 829.812,620.049 840.8,620.049 851.787,620.049 862.774,620.049 873.761,288.102 884.749,288.102 
  895.736,288.102 906.723,288.102 917.71,288.102 928.698,288.102 939.685,288.102 950.672,288.102 961.659,288.102 972.647,288.102 983.634,288.102 994.621,288.102 
  1005.61,288.102 1016.6,288.102 1027.58,288.102 1038.57,288.102 1049.56,288.102 1060.54,288.102 1071.53,288.102 1082.52,288.102 1093.51,288.102 1104.49,288.102 
  1115.48,288.102 1126.47,288.102 1137.46,288.102 1148.44,288.102 1159.43,288.102 1170.42,288.102 1181.4,288.102 1192.39,288.102 1203.38,288.102 1214.37,288.102 
  1225.35,288.102 1236.34,288.102 1247.33,288.102 1258.32,288.102 1269.3,288.102 1280.29,288.102 1291.28,288.102 1302.26,288.102 1313.25,288.102 1324.24,171.742 
  1335.23,171.742 1346.21,171.742 1357.2,171.742 1368.19,171.742 1379.18,171.742 1390.16,171.742 1401.15,171.742 1412.14,171.742 1423.12,171.742 1434.11,171.742 
  1445.1,171.742 1456.09,171.742 1467.07,171.742 1478.06,171.742 1489.05,171.742 1500.03,171.742 1511.02,171.742 1522.01,171.742 1533,171.742 1543.98,171.742 
  1554.97,171.742 1565.96,171.742 1576.95,171.742 1587.93,171.742 1598.92,171.742 1609.91,171.742 1620.89,171.742 1631.88,171.742 1642.87,171.742 1653.86,171.742 
  1664.84,171.742 1675.83,171.742 1686.82,171.742 1697.81,171.742 1708.79,171.742 1719.78,171.742 1730.77,153.231 1741.75,153.231 1752.74,153.231 1763.73,153.231 
  1774.72,153.231 1785.7,153.231 1796.69,153.231 1807.68,153.231 1818.67,153.231 1829.65,153.231 1840.64,153.231 1851.63,153.231 1862.61,153.231 1873.6,153.231 
  1884.59,153.231 1895.58,153.231 1906.56,153.231 1917.55,153.231 1928.54,153.231 1939.53,153.231 1950.51,153.231 1961.5,153.231 1972.49,153.231 1983.47,153.231 
  1994.46,153.231 2005.45,153.231 2016.44,153.231 2027.42,153.231 2038.41,153.231 2049.4,153.231 2060.39,151.904 2071.37,151.904 2082.36,151.904 2093.35,151.904 
  2104.33,151.904 2115.32,151.904 2126.31,151.904 2137.3,151.904 2148.28,151.904 2159.27,151.904 2170.26,151.861 2181.24,151.861 2192.23,151.861 2203.22,151.861 
  2214.21,151.861 2225.19,151.861 2236.18,151.861 2247.17,151.861 2258.16,151.861 2269.14,151.861 2280.13,151.861 2291.12,151.861 
  "/>
<path clip-path="url(#clip370)" d="
M246.862 379.792 L612.602 379.792 L612.602 198.352 L246.862 198.352  Z
  " fill="#000000" fill-rule="evenodd" fill-opacity="0"/>
<polyline clip-path="url(#clip370)" style="stroke:#000000; stroke-width:4; stroke-opacity:0; fill:none" points="
  246.862,379.792 612.602,379.792 612.602,198.352 246.862,198.352 246.862,379.792 
  "/>
<polyline clip-path="url(#clip370)" style="stroke:#ff0000; stroke-width:4; stroke-opacity:1; fill:none" points="
  270.862,258.832 414.862,258.832 
  "/>
<path clip-path="url(#clip370)" d="M 0 0 M452.705 278.52 Q450.899 283.149 449.186 284.561 Q447.473 285.973 444.603 285.973 L441.2 285.973 L441.2 282.408 L443.7 282.408 Q445.459 282.408 446.431 281.575 Q447.404 280.742 448.584 277.64 L449.348 275.695 L438.862 250.186 L443.376 250.186 L451.478 270.464 L459.58 250.186 L464.093 250.186 L452.705 278.52 Z" fill="#000000" fill-rule="evenodd" fill-opacity="1" /><path clip-path="url(#clip370)" d="M 0 0 M465.575 261.228 L478.052 261.228 L478.052 265.024 L465.575 265.024 L465.575 261.228 Z" fill="#000000" fill-rule="evenodd" fill-opacity="1" /><path clip-path="url(#clip370)" d="M 0 0 M482.519 240.094 L486.778 240.094 L486.778 276.112 L482.519 276.112 L482.519 240.094 Z" fill="#000000" fill-rule="evenodd" fill-opacity="1" /><path clip-path="url(#clip370)" d="M 0 0 M501.292 253.172 Q497.866 253.172 495.876 255.858 Q493.885 258.52 493.885 263.172 Q493.885 267.825 495.852 270.51 Q497.843 273.172 501.292 273.172 Q504.695 273.172 506.686 270.487 Q508.676 267.802 508.676 263.172 Q508.676 258.566 506.686 255.881 Q504.695 253.172 501.292 253.172 M501.292 249.561 Q506.848 249.561 510.019 253.172 Q513.19 256.784 513.19 263.172 Q513.19 269.538 510.019 273.172 Q506.848 276.783 501.292 276.783 Q495.714 276.783 492.542 273.172 Q489.394 269.538 489.394 263.172 Q489.394 256.784 492.542 253.172 Q495.714 249.561 501.292 249.561 Z" fill="#000000" fill-rule="evenodd" fill-opacity="1" /><path clip-path="url(#clip370)" d="M 0 0 M515.181 250.186 L519.44 250.186 L524.764 270.418 L530.065 250.186 L535.088 250.186 L540.412 270.418 L545.713 250.186 L549.973 250.186 L543.19 276.112 L538.167 276.112 L532.588 254.862 L526.987 276.112 L521.963 276.112 L515.181 250.186 Z" fill="#000000" fill-rule="evenodd" fill-opacity="1" /><path clip-path="url(#clip370)" d="M 0 0 M550.69 270.233 L555.574 270.233 L555.574 276.112 L550.69 276.112 L550.69 270.233 Z" fill="#000000" fill-rule="evenodd" fill-opacity="1" /><polyline clip-path="url(#clip370)" style="stroke:#0000ff; stroke-width:4; stroke-opacity:1; fill:none" stroke-dasharray="16, 10" points="
  270.862,319.312 414.862,319.312 
  "/>
<path clip-path="url(#clip370)" d="M 0 0 M452.705 339 Q450.899 343.629 449.186 345.041 Q447.473 346.453 444.603 346.453 L441.2 346.453 L441.2 342.888 L443.7 342.888 Q445.459 342.888 446.431 342.055 Q447.404 341.222 448.584 338.12 L449.348 336.175 L438.862 310.666 L443.376 310.666 L451.478 330.944 L459.58 310.666 L464.093 310.666 L452.705 339 Z" fill="#000000" fill-rule="evenodd" fill-opacity="1" /><path clip-path="url(#clip370)" d="M 0 0 M465.575 321.708 L478.052 321.708 L478.052 325.504 L465.575 325.504 L465.575 321.708 Z" fill="#000000" fill-rule="evenodd" fill-opacity="1" /><path clip-path="url(#clip370)" d="M 0 0 M504.07 320.944 L504.07 336.592 L499.811 336.592 L499.811 321.083 Q499.811 317.402 498.376 315.574 Q496.94 313.745 494.07 313.745 Q490.621 313.745 488.63 315.944 Q486.64 318.143 486.64 321.939 L486.64 336.592 L482.357 336.592 L482.357 300.574 L486.64 300.574 L486.64 314.694 Q488.167 312.356 490.227 311.199 Q492.311 310.041 495.019 310.041 Q499.487 310.041 501.778 312.819 Q504.07 315.574 504.07 320.944 Z" fill="#000000" fill-rule="evenodd" fill-opacity="1" /><path clip-path="url(#clip370)" d="M 0 0 M508.538 310.666 L512.797 310.666 L512.797 336.592 L508.538 336.592 L508.538 310.666 M508.538 300.574 L512.797 300.574 L512.797 305.967 L508.538 305.967 L508.538 300.574 Z" fill="#000000" fill-rule="evenodd" fill-opacity="1" /><path clip-path="url(#clip370)" d="M 0 0 M534.324 323.328 Q534.324 318.699 532.403 316.152 Q530.505 313.606 527.056 313.606 Q523.63 313.606 521.709 316.152 Q519.811 318.699 519.811 323.328 Q519.811 327.935 521.709 330.481 Q523.63 333.027 527.056 333.027 Q530.505 333.027 532.403 330.481 Q534.324 327.935 534.324 323.328 M538.584 333.375 Q538.584 339.995 535.644 343.212 Q532.704 346.453 526.639 346.453 Q524.394 346.453 522.403 346.106 Q520.413 345.782 518.538 345.087 L518.538 340.944 Q520.413 341.962 522.241 342.449 Q524.07 342.935 525.968 342.935 Q530.158 342.935 532.241 340.736 Q534.324 338.56 534.324 334.138 L534.324 332.032 Q533.005 334.324 530.945 335.458 Q528.885 336.592 526.014 336.592 Q521.246 336.592 518.329 332.958 Q515.413 329.324 515.413 323.328 Q515.413 317.31 518.329 313.676 Q521.246 310.041 526.014 310.041 Q528.885 310.041 530.945 311.176 Q533.005 312.31 534.324 314.602 L534.324 310.666 L538.584 310.666 L538.584 333.375 Z" fill="#000000" fill-rule="evenodd" fill-opacity="1" /><path clip-path="url(#clip370)" d="M 0 0 M564.602 320.944 L564.602 336.592 L560.343 336.592 L560.343 321.083 Q560.343 317.402 558.908 315.574 Q557.473 313.745 554.602 313.745 Q551.153 313.745 549.162 315.944 Q547.172 318.143 547.172 321.939 L547.172 336.592 L542.889 336.592 L542.889 300.574 L547.172 300.574 L547.172 314.694 Q548.699 312.356 550.76 311.199 Q552.843 310.041 555.551 310.041 Q560.019 310.041 562.31 312.819 Q564.602 315.574 564.602 320.944 Z" fill="#000000" fill-rule="evenodd" fill-opacity="1" /></svg>
