<?xml version="1.0" encoding="utf-8"?>
<svg xmlns="http://www.w3.org/2000/svg" xmlns:xlink="http://www.w3.org/1999/xlink" width="600" height="400" viewBox="0 0 2400 1600">
<defs>
  <clipPath id="clip290">
    <rect x="0" y="0" width="2400" height="1600"/>
  </clipPath>
</defs>
<path clip-path="url(#clip290)" d="
M0 1600 L2400 1600 L2400 0 L0 0  Z
  " fill="#ffffff" fill-rule="evenodd" fill-opacity="1"/>
<defs>
  <clipPath id="clip291">
    <rect x="480" y="0" width="1681" height="1600"/>
  </clipPath>
</defs>
<path clip-path="url(#clip290)" d="
M216.251 1486.45 L2352.76 1486.45 L2352.76 47.2441 L216.251 47.2441  Z
  " fill="#ffffff" fill-rule="evenodd" fill-opacity="1"/>
<defs>
  <clipPath id="clip292">
    <rect x="216" y="47" width="2138" height="1440"/>
  </clipPath>
</defs>
<polyline clip-path="url(#clip292)" style="stroke:#000000; stroke-width:2; stroke-opacity:0.1; fill:none" points="
  276.718,1486.45 276.718,47.2441 
  "/>
<polyline clip-path="url(#clip292)" style="stroke:#000000; stroke-width:2; stroke-opacity:0.1; fill:none" points="
  814.203,1486.45 814.203,47.2441 
  "/>
<polyline clip-path="url(#clip292)" style="stroke:#000000; stroke-width:2; stroke-opacity:0.1; fill:none" points="
  1351.69,1486.45 1351.69,47.2441 
  "/>
<polyline clip-path="url(#clip292)" style="stroke:#000000; stroke-width:2; stroke-opacity:0.1; fill:none" points="
  1889.17,1486.45 1889.17,47.2441 
  "/>
<polyline clip-path="url(#clip292)" style="stroke:#000000; stroke-width:2; stroke-opacity:0.1; fill:none" points="
  216.251,1285.69 2352.76,1285.69 
  "/>
<polyline clip-path="url(#clip292)" style="stroke:#000000; stroke-width:2; stroke-opacity:0.1; fill:none" points="
  216.251,1008.81 2352.76,1008.81 
  "/>
<polyline clip-path="url(#clip292)" style="stroke:#000000; stroke-width:2; stroke-opacity:0.1; fill:none" points="
  216.251,731.926 2352.76,731.926 
  "/>
<polyline clip-path="url(#clip292)" style="stroke:#000000; stroke-width:2; stroke-opacity:0.1; fill:none" points="
  216.251,455.046 2352.76,455.046 
  "/>
<polyline clip-path="url(#clip292)" style="stroke:#000000; stroke-width:2; stroke-opacity:0.1; fill:none" points="
  216.251,178.165 2352.76,178.165 
  "/>
<polyline clip-path="url(#clip290)" style="stroke:#000000; stroke-width:4; stroke-opacity:1; fill:none" points="
  216.251,1008.81 2352.76,1008.81 
  "/>
<polyline clip-path="url(#clip290)" style="stroke:#000000; stroke-width:4; stroke-opacity:1; fill:none" points="
  276.718,1486.45 276.718,47.2441 
  "/>
<polyline clip-path="url(#clip290)" style="stroke:#000000; stroke-width:4; stroke-opacity:0; fill:none" points="
  276.718,1008.81 276.718,1008.81 
  "/>
<polyline clip-path="url(#clip290)" style="stroke:#000000; stroke-width:4; stroke-opacity:0; fill:none" points="
  814.203,1008.81 814.203,1008.81 
  "/>
<polyline clip-path="url(#clip290)" style="stroke:#000000; stroke-width:4; stroke-opacity:0; fill:none" points="
  1351.69,1008.81 1351.69,1008.81 
  "/>
<polyline clip-path="url(#clip290)" style="stroke:#000000; stroke-width:4; stroke-opacity:0; fill:none" points="
  1889.17,1008.81 1889.17,1008.81 
  "/>
<polyline clip-path="url(#clip290)" style="stroke:#000000; stroke-width:4; stroke-opacity:0; fill:none" points="
  276.718,1285.69 276.718,1285.69 
  "/>
<polyline clip-path="url(#clip290)" style="stroke:#000000; stroke-width:4; stroke-opacity:0; fill:none" points="
  276.718,1008.81 276.718,1008.81 
  "/>
<polyline clip-path="url(#clip290)" style="stroke:#000000; stroke-width:4; stroke-opacity:0; fill:none" points="
  276.718,731.926 276.718,731.926 
  "/>
<polyline clip-path="url(#clip290)" style="stroke:#000000; stroke-width:4; stroke-opacity:0; fill:none" points="
  276.718,455.046 276.718,455.046 
  "/>
<polyline clip-path="url(#clip290)" style="stroke:#000000; stroke-width:4; stroke-opacity:0; fill:none" points="
  276.718,178.165 276.718,178.165 
  "/>
<path clip-path="url(#clip290)" d="M 0 0 M276.718 1508.44 Q273.107 1508.44 271.278 1512 Q269.472 1515.55 269.472 1522.67 Q269.472 1529.78 271.278 1533.35 Q273.107 1536.89 276.718 1536.89 Q280.352 1536.89 282.158 1533.35 Q283.986 1529.78 283.986 1522.67 Q283.986 1515.55 282.158 1512 Q280.352 1508.44 276.718 1508.44 M276.718 1504.73 Q282.528 1504.73 285.584 1509.34 Q288.662 1513.92 288.662 1522.67 Q288.662 1531.4 285.584 1536.01 Q282.528 1540.59 276.718 1540.59 Q270.908 1540.59 267.829 1536.01 Q264.773 1531.4 264.773 1522.67 Q264.773 1513.92 267.829 1509.34 Q270.908 1504.73 276.718 1504.73 Z" fill="#000000" fill-rule="evenodd" fill-opacity="1" /><path clip-path="url(#clip290)" d="M 0 0 M795.349 1535.98 L811.669 1535.98 L811.669 1539.92 L789.724 1539.92 L789.724 1535.98 Q792.386 1533.23 796.97 1528.6 Q801.576 1523.95 802.757 1522.61 Q805.002 1520.08 805.882 1518.35 Q806.784 1516.59 806.784 1514.9 Q806.784 1512.14 804.84 1510.41 Q802.919 1508.67 799.817 1508.67 Q797.618 1508.67 795.164 1509.43 Q792.734 1510.2 789.956 1511.75 L789.956 1507.03 Q792.78 1505.89 795.234 1505.31 Q797.687 1504.73 799.724 1504.73 Q805.095 1504.73 808.289 1507.42 Q811.484 1510.11 811.484 1514.6 Q811.484 1516.73 810.673 1518.65 Q809.886 1520.54 807.78 1523.14 Q807.201 1523.81 804.099 1527.03 Q800.997 1530.22 795.349 1535.98 Z" fill="#000000" fill-rule="evenodd" fill-opacity="1" /><path clip-path="url(#clip290)" d="M 0 0 M826.738 1508.44 Q823.127 1508.44 821.298 1512 Q819.493 1515.55 819.493 1522.67 Q819.493 1529.78 821.298 1533.35 Q823.127 1536.89 826.738 1536.89 Q830.372 1536.89 832.178 1533.35 Q834.007 1529.78 834.007 1522.67 Q834.007 1515.55 832.178 1512 Q830.372 1508.44 826.738 1508.44 M826.738 1504.73 Q832.548 1504.73 835.604 1509.34 Q838.682 1513.92 838.682 1522.67 Q838.682 1531.4 835.604 1536.01 Q832.548 1540.59 826.738 1540.59 Q820.928 1540.59 817.849 1536.01 Q814.794 1531.4 814.794 1522.67 Q814.794 1513.92 817.849 1509.34 Q820.928 1504.73 826.738 1504.73 Z" fill="#000000" fill-rule="evenodd" fill-opacity="1" /><path clip-path="url(#clip290)" d="M 0 0 M1341.19 1509.43 L1329.39 1527.88 L1341.19 1527.88 L1341.19 1509.43 M1339.96 1505.36 L1345.84 1505.36 L1345.84 1527.88 L1350.77 1527.88 L1350.77 1531.77 L1345.84 1531.77 L1345.84 1539.92 L1341.19 1539.92 L1341.19 1531.77 L1325.59 1531.77 L1325.59 1527.26 L1339.96 1505.36 Z" fill="#000000" fill-rule="evenodd" fill-opacity="1" /><path clip-path="url(#clip290)" d="M 0 0 M1365.84 1508.44 Q1362.23 1508.44 1360.4 1512 Q1358.6 1515.55 1358.6 1522.67 Q1358.6 1529.78 1360.4 1533.35 Q1362.23 1536.89 1365.84 1536.89 Q1369.48 1536.89 1371.28 1533.35 Q1373.11 1529.78 1373.11 1522.67 Q1373.11 1515.55 1371.28 1512 Q1369.48 1508.44 1365.84 1508.44 M1365.84 1504.73 Q1371.65 1504.73 1374.71 1509.34 Q1377.79 1513.92 1377.79 1522.67 Q1377.79 1531.4 1374.71 1536.01 Q1371.65 1540.59 1365.84 1540.59 Q1360.03 1540.59 1356.96 1536.01 Q1353.9 1531.4 1353.9 1522.67 Q1353.9 1513.92 1356.96 1509.34 Q1360.03 1504.73 1365.84 1504.73 Z" fill="#000000" fill-rule="evenodd" fill-opacity="1" /><path clip-path="url(#clip290)" d="M 0 0 M1876.07 1520.78 Q1872.92 1520.78 1871.07 1522.93 Q1869.24 1525.08 1869.24 1528.83 Q1869.24 1532.56 1871.07 1534.73 Q1872.92 1536.89 1876.07 1536.89 Q1879.22 1536.89 1881.05 1534.73 Q1882.9 1532.56 1882.9 1528.83 Q1882.9 1525.08 1881.05 1522.93 Q1879.22 1520.78 1876.07 1520.78 M1885.36 1506.12 L1885.36 1510.38 Q1883.6 1509.55 1881.79 1509.11 Q1880.01 1508.67 1878.25 1508.67 Q1873.62 1508.67 1871.17 1511.8 Q1868.73 1514.92 1868.39 1521.24 Q1869.75 1519.23 1871.81 1518.16 Q1873.87 1517.07 1876.35 1517.07 Q1881.56 1517.07 1884.57 1520.24 Q1887.6 1523.39 1887.6 1528.83 Q1887.6 1534.16 1884.45 1537.37 Q1881.3 1540.59 1876.07 1540.59 Q1870.08 1540.59 1866.91 1536.01 Q1863.73 1531.4 1863.73 1522.67 Q1863.73 1514.48 1867.62 1509.62 Q1871.51 1504.73 1878.06 1504.73 Q1879.82 1504.73 1881.61 1505.08 Q1883.41 1505.43 1885.36 1506.12 Z" fill="#000000" fill-rule="evenodd" fill-opacity="1" /><path clip-path="url(#clip290)" d="M 0 0 M1902.67 1508.44 Q1899.06 1508.44 1897.23 1512 Q1895.42 1515.55 1895.42 1522.67 Q1895.42 1529.78 1897.23 1533.35 Q1899.06 1536.89 1902.67 1536.89 Q1906.3 1536.89 1908.11 1533.35 Q1909.94 1529.78 1909.94 1522.67 Q1909.94 1515.55 1908.11 1512 Q1906.3 1508.44 1902.67 1508.44 M1902.67 1504.73 Q1908.48 1504.73 1911.54 1509.34 Q1914.61 1513.92 1914.61 1522.67 Q1914.61 1531.4 1911.54 1536.01 Q1908.48 1540.59 1902.67 1540.59 Q1896.86 1540.59 1893.78 1536.01 Q1890.73 1531.4 1890.73 1522.67 Q1890.73 1513.92 1893.78 1509.34 Q1896.86 1504.73 1902.67 1504.73 Z" fill="#000000" fill-rule="evenodd" fill-opacity="1" /><path clip-path="url(#clip290)" d="M 0 0 M62.9921 1288.08 L75.4689 1288.08 L75.4689 1291.88 L62.9921 1291.88 L62.9921 1288.08 Z" fill="#000000" fill-rule="evenodd" fill-opacity="1" /><path clip-path="url(#clip290)" d="M 0 0 M90.5383 1271.49 Q86.9272 1271.49 85.0985 1275.05 Q83.2929 1278.59 83.2929 1285.72 Q83.2929 1292.83 85.0985 1296.39 Q86.9272 1299.94 90.5383 1299.94 Q94.1725 1299.94 95.9781 1296.39 Q97.8068 1292.83 97.8068 1285.72 Q97.8068 1278.59 95.9781 1275.05 Q94.1725 1271.49 90.5383 1271.49 M90.5383 1267.78 Q96.3484 1267.78 99.404 1272.39 Q102.483 1276.97 102.483 1285.72 Q102.483 1294.45 99.404 1299.06 Q96.3484 1303.64 90.5383 1303.64 Q84.7281 1303.64 81.6494 1299.06 Q78.5939 1294.45 78.5939 1285.72 Q78.5939 1276.97 81.6494 1272.39 Q84.7281 1267.78 90.5383 1267.78 Z" fill="#000000" fill-rule="evenodd" fill-opacity="1" /><path clip-path="url(#clip290)" d="M 0 0 M107.552 1297.09 L112.436 1297.09 L112.436 1302.97 L107.552 1302.97 L107.552 1297.09 Z" fill="#000000" fill-rule="evenodd" fill-opacity="1" /><path clip-path="url(#clip290)" d="M 0 0 M127.506 1271.49 Q123.895 1271.49 122.066 1275.05 Q120.26 1278.59 120.26 1285.72 Q120.26 1292.83 122.066 1296.39 Q123.895 1299.94 127.506 1299.94 Q131.14 1299.94 132.945 1296.39 Q134.774 1292.83 134.774 1285.72 Q134.774 1278.59 132.945 1275.05 Q131.14 1271.49 127.506 1271.49 M127.506 1267.78 Q133.316 1267.78 136.371 1272.39 Q139.45 1276.97 139.45 1285.72 Q139.45 1294.45 136.371 1299.06 Q133.316 1303.64 127.506 1303.64 Q121.696 1303.64 118.617 1299.06 Q115.561 1294.45 115.561 1285.72 Q115.561 1276.97 118.617 1272.39 Q121.696 1267.78 127.506 1267.78 Z" fill="#000000" fill-rule="evenodd" fill-opacity="1" /><path clip-path="url(#clip290)" d="M 0 0 M154.519 1271.49 Q150.908 1271.49 149.08 1275.05 Q147.274 1278.59 147.274 1285.72 Q147.274 1292.83 149.08 1296.39 Q150.908 1299.94 154.519 1299.94 Q158.154 1299.94 159.959 1296.39 Q161.788 1292.83 161.788 1285.72 Q161.788 1278.59 159.959 1275.05 Q158.154 1271.49 154.519 1271.49 M154.519 1267.78 Q160.33 1267.78 163.385 1272.39 Q166.464 1276.97 166.464 1285.72 Q166.464 1294.45 163.385 1299.06 Q160.33 1303.64 154.519 1303.64 Q148.709 1303.64 145.631 1299.06 Q142.575 1294.45 142.575 1285.72 Q142.575 1276.97 145.631 1272.39 Q148.709 1267.78 154.519 1267.78 Z" fill="#000000" fill-rule="evenodd" fill-opacity="1" /><path clip-path="url(#clip290)" d="M 0 0 M172.343 1299.03 L179.982 1299.03 L179.982 1272.67 L171.672 1274.33 L171.672 1270.07 L179.936 1268.41 L184.612 1268.41 L184.612 1299.03 L192.251 1299.03 L192.251 1302.97 L172.343 1302.97 L172.343 1299.03 Z" fill="#000000" fill-rule="evenodd" fill-opacity="1" /><path clip-path="url(#clip290)" d="M 0 0 M89.3114 994.606 Q85.7003 994.606 83.8716 998.171 Q82.0661 1001.71 82.0661 1008.84 Q82.0661 1015.95 83.8716 1019.51 Q85.7003 1023.05 89.3114 1023.05 Q92.9457 1023.05 94.7512 1019.51 Q96.5799 1015.95 96.5799 1008.84 Q96.5799 1001.71 94.7512 998.171 Q92.9457 994.606 89.3114 994.606 M89.3114 990.902 Q95.1216 990.902 98.1771 995.509 Q101.256 1000.09 101.256 1008.84 Q101.256 1017.57 98.1771 1022.18 Q95.1216 1026.76 89.3114 1026.76 Q83.5013 1026.76 80.4226 1022.18 Q77.367 1017.57 77.367 1008.84 Q77.367 1000.09 80.4226 995.509 Q83.5013 990.902 89.3114 990.902 Z" fill="#000000" fill-rule="evenodd" fill-opacity="1" /><path clip-path="url(#clip290)" d="M 0 0 M106.325 1020.21 L111.209 1020.21 L111.209 1026.09 L106.325 1026.09 L106.325 1020.21 Z" fill="#000000" fill-rule="evenodd" fill-opacity="1" /><path clip-path="url(#clip290)" d="M 0 0 M126.279 994.606 Q122.668 994.606 120.839 998.171 Q119.033 1001.71 119.033 1008.84 Q119.033 1015.95 120.839 1019.51 Q122.668 1023.05 126.279 1023.05 Q129.913 1023.05 131.719 1019.51 Q133.547 1015.95 133.547 1008.84 Q133.547 1001.71 131.719 998.171 Q129.913 994.606 126.279 994.606 M126.279 990.902 Q132.089 990.902 135.145 995.509 Q138.223 1000.09 138.223 1008.84 Q138.223 1017.57 135.145 1022.18 Q132.089 1026.76 126.279 1026.76 Q120.469 1026.76 117.39 1022.18 Q114.334 1017.57 114.334 1008.84 Q114.334 1000.09 117.39 995.509 Q120.469 990.902 126.279 990.902 Z" fill="#000000" fill-rule="evenodd" fill-opacity="1" /><path clip-path="url(#clip290)" d="M 0 0 M153.293 994.606 Q149.681 994.606 147.853 998.171 Q146.047 1001.71 146.047 1008.84 Q146.047 1015.95 147.853 1019.51 Q149.681 1023.05 153.293 1023.05 Q156.927 1023.05 158.732 1019.51 Q160.561 1015.95 160.561 1008.84 Q160.561 1001.71 158.732 998.171 Q156.927 994.606 153.293 994.606 M153.293 990.902 Q159.103 990.902 162.158 995.509 Q165.237 1000.09 165.237 1008.84 Q165.237 1017.57 162.158 1022.18 Q159.103 1026.76 153.293 1026.76 Q147.482 1026.76 144.404 1022.18 Q141.348 1017.57 141.348 1008.84 Q141.348 1000.09 144.404 995.509 Q147.482 990.902 153.293 990.902 Z" fill="#000000" fill-rule="evenodd" fill-opacity="1" /><path clip-path="url(#clip290)" d="M 0 0 M180.306 994.606 Q176.695 994.606 174.867 998.171 Q173.061 1001.71 173.061 1008.84 Q173.061 1015.95 174.867 1019.51 Q176.695 1023.05 180.306 1023.05 Q183.941 1023.05 185.746 1019.51 Q187.575 1015.95 187.575 1008.84 Q187.575 1001.71 185.746 998.171 Q183.941 994.606 180.306 994.606 M180.306 990.902 Q186.116 990.902 189.172 995.509 Q192.251 1000.09 192.251 1008.84 Q192.251 1017.57 189.172 1022.18 Q186.116 1026.76 180.306 1026.76 Q174.496 1026.76 171.417 1022.18 Q168.362 1017.57 168.362 1008.84 Q168.362 1000.09 171.417 995.509 Q174.496 990.902 180.306 990.902 Z" fill="#000000" fill-rule="evenodd" fill-opacity="1" /><path clip-path="url(#clip290)" d="M 0 0 M90.5383 717.725 Q86.9272 717.725 85.0985 721.29 Q83.2929 724.832 83.2929 731.961 Q83.2929 739.068 85.0985 742.632 Q86.9272 746.174 90.5383 746.174 Q94.1725 746.174 95.9781 742.632 Q97.8068 739.068 97.8068 731.961 Q97.8068 724.832 95.9781 721.29 Q94.1725 717.725 90.5383 717.725 M90.5383 714.021 Q96.3484 714.021 99.404 718.628 Q102.483 723.211 102.483 731.961 Q102.483 740.688 99.404 745.294 Q96.3484 749.878 90.5383 749.878 Q84.7281 749.878 81.6494 745.294 Q78.5939 740.688 78.5939 731.961 Q78.5939 723.211 81.6494 718.628 Q84.7281 714.021 90.5383 714.021 Z" fill="#000000" fill-rule="evenodd" fill-opacity="1" /><path clip-path="url(#clip290)" d="M 0 0 M107.552 743.327 L112.436 743.327 L112.436 749.206 L107.552 749.206 L107.552 743.327 Z" fill="#000000" fill-rule="evenodd" fill-opacity="1" /><path clip-path="url(#clip290)" d="M 0 0 M127.506 717.725 Q123.895 717.725 122.066 721.29 Q120.26 724.832 120.26 731.961 Q120.26 739.068 122.066 742.632 Q123.895 746.174 127.506 746.174 Q131.14 746.174 132.945 742.632 Q134.774 739.068 134.774 731.961 Q134.774 724.832 132.945 721.29 Q131.14 717.725 127.506 717.725 M127.506 714.021 Q133.316 714.021 136.371 718.628 Q139.45 723.211 139.45 731.961 Q139.45 740.688 136.371 745.294 Q133.316 749.878 127.506 749.878 Q121.696 749.878 118.617 745.294 Q115.561 740.688 115.561 731.961 Q115.561 723.211 118.617 718.628 Q121.696 714.021 127.506 714.021 Z" fill="#000000" fill-rule="evenodd" fill-opacity="1" /><path clip-path="url(#clip290)" d="M 0 0 M154.519 717.725 Q150.908 717.725 149.08 721.29 Q147.274 724.832 147.274 731.961 Q147.274 739.068 149.08 742.632 Q150.908 746.174 154.519 746.174 Q158.154 746.174 159.959 742.632 Q161.788 739.068 161.788 731.961 Q161.788 724.832 159.959 721.29 Q158.154 717.725 154.519 717.725 M154.519 714.021 Q160.33 714.021 163.385 718.628 Q166.464 723.211 166.464 731.961 Q166.464 740.688 163.385 745.294 Q160.33 749.878 154.519 749.878 Q148.709 749.878 145.631 745.294 Q142.575 740.688 142.575 731.961 Q142.575 723.211 145.631 718.628 Q148.709 714.021 154.519 714.021 Z" fill="#000000" fill-rule="evenodd" fill-opacity="1" /><path clip-path="url(#clip290)" d="M 0 0 M172.343 745.271 L179.982 745.271 L179.982 718.906 L171.672 720.572 L171.672 716.313 L179.936 714.646 L184.612 714.646 L184.612 745.271 L192.251 745.271 L192.251 749.206 L172.343 749.206 L172.343 745.271 Z" fill="#000000" fill-rule="evenodd" fill-opacity="1" /><path clip-path="url(#clip290)" d="M 0 0 M90.9086 440.844 Q87.2976 440.844 85.4689 444.409 Q83.6633 447.951 83.6633 455.08 Q83.6633 462.187 85.4689 465.752 Q87.2976 469.293 90.9086 469.293 Q94.5429 469.293 96.3484 465.752 Q98.1771 462.187 98.1771 455.08 Q98.1771 447.951 96.3484 444.409 Q94.5429 440.844 90.9086 440.844 M90.9086 437.141 Q96.7188 437.141 99.7743 441.747 Q102.853 446.33 102.853 455.08 Q102.853 463.807 99.7743 468.414 Q96.7188 472.997 90.9086 472.997 Q85.0985 472.997 82.0198 468.414 Q78.9643 463.807 78.9643 455.08 Q78.9643 446.33 82.0198 441.747 Q85.0985 437.141 90.9086 437.141 Z" fill="#000000" fill-rule="evenodd" fill-opacity="1" /><path clip-path="url(#clip290)" d="M 0 0 M107.922 466.446 L112.807 466.446 L112.807 472.326 L107.922 472.326 L107.922 466.446 Z" fill="#000000" fill-rule="evenodd" fill-opacity="1" /><path clip-path="url(#clip290)" d="M 0 0 M127.876 440.844 Q124.265 440.844 122.436 444.409 Q120.631 447.951 120.631 455.08 Q120.631 462.187 122.436 465.752 Q124.265 469.293 127.876 469.293 Q131.51 469.293 133.316 465.752 Q135.145 462.187 135.145 455.08 Q135.145 447.951 133.316 444.409 Q131.51 440.844 127.876 440.844 M127.876 437.141 Q133.686 437.141 136.742 441.747 Q139.82 446.33 139.82 455.08 Q139.82 463.807 136.742 468.414 Q133.686 472.997 127.876 472.997 Q122.066 472.997 118.987 468.414 Q115.932 463.807 115.932 455.08 Q115.932 446.33 118.987 441.747 Q122.066 437.141 127.876 437.141 Z" fill="#000000" fill-rule="evenodd" fill-opacity="1" /><path clip-path="url(#clip290)" d="M 0 0 M154.89 440.844 Q151.279 440.844 149.45 444.409 Q147.644 447.951 147.644 455.08 Q147.644 462.187 149.45 465.752 Q151.279 469.293 154.89 469.293 Q158.524 469.293 160.33 465.752 Q162.158 462.187 162.158 455.08 Q162.158 447.951 160.33 444.409 Q158.524 440.844 154.89 440.844 M154.89 437.141 Q160.7 437.141 163.755 441.747 Q166.834 446.33 166.834 455.08 Q166.834 463.807 163.755 468.414 Q160.7 472.997 154.89 472.997 Q149.08 472.997 146.001 468.414 Q142.945 463.807 142.945 455.08 Q142.945 446.33 146.001 441.747 Q149.08 437.141 154.89 437.141 Z" fill="#000000" fill-rule="evenodd" fill-opacity="1" /><path clip-path="url(#clip290)" d="M 0 0 M175.931 468.39 L192.251 468.39 L192.251 472.326 L170.306 472.326 L170.306 468.39 Q172.968 465.636 177.552 461.006 Q182.158 456.353 183.339 455.011 Q185.584 452.488 186.464 450.752 Q187.366 448.992 187.366 447.303 Q187.366 444.548 185.422 442.812 Q183.501 441.076 180.399 441.076 Q178.2 441.076 175.746 441.84 Q173.316 442.604 170.538 444.154 L170.538 439.432 Q173.362 438.298 175.816 437.719 Q178.269 437.141 180.306 437.141 Q185.677 437.141 188.871 439.826 Q192.066 442.511 192.066 447.002 Q192.066 449.131 191.255 451.053 Q190.468 452.951 188.362 455.543 Q187.783 456.215 184.681 459.432 Q181.579 462.627 175.931 468.39 Z" fill="#000000" fill-rule="evenodd" fill-opacity="1" /><path clip-path="url(#clip290)" d="M 0 0 M89.9596 163.964 Q86.3485 163.964 84.5198 167.528 Q82.7142 171.07 82.7142 178.2 Q82.7142 185.306 84.5198 188.871 Q86.3485 192.412 89.9596 192.412 Q93.5938 192.412 95.3994 188.871 Q97.2281 185.306 97.2281 178.2 Q97.2281 171.07 95.3994 167.528 Q93.5938 163.964 89.9596 163.964 M89.9596 160.26 Q95.7697 160.26 98.8253 164.866 Q101.904 169.45 101.904 178.2 Q101.904 186.926 98.8253 191.533 Q95.7697 196.116 89.9596 196.116 Q84.1494 196.116 81.0707 191.533 Q78.0152 186.926 78.0152 178.2 Q78.0152 169.45 81.0707 164.866 Q84.1494 160.26 89.9596 160.26 Z" fill="#000000" fill-rule="evenodd" fill-opacity="1" /><path clip-path="url(#clip290)" d="M 0 0 M106.973 189.565 L111.858 189.565 L111.858 195.445 L106.973 195.445 L106.973 189.565 Z" fill="#000000" fill-rule="evenodd" fill-opacity="1" /><path clip-path="url(#clip290)" d="M 0 0 M126.927 163.964 Q123.316 163.964 121.487 167.528 Q119.682 171.07 119.682 178.2 Q119.682 185.306 121.487 188.871 Q123.316 192.412 126.927 192.412 Q130.561 192.412 132.367 188.871 Q134.195 185.306 134.195 178.2 Q134.195 171.07 132.367 167.528 Q130.561 163.964 126.927 163.964 M126.927 160.26 Q132.737 160.26 135.793 164.866 Q138.871 169.45 138.871 178.2 Q138.871 186.926 135.793 191.533 Q132.737 196.116 126.927 196.116 Q121.117 196.116 118.038 191.533 Q114.983 186.926 114.983 178.2 Q114.983 169.45 118.038 164.866 Q121.117 160.26 126.927 160.26 Z" fill="#000000" fill-rule="evenodd" fill-opacity="1" /><path clip-path="url(#clip290)" d="M 0 0 M153.941 163.964 Q150.33 163.964 148.501 167.528 Q146.695 171.07 146.695 178.2 Q146.695 185.306 148.501 188.871 Q150.33 192.412 153.941 192.412 Q157.575 192.412 159.38 188.871 Q161.209 185.306 161.209 178.2 Q161.209 171.07 159.38 167.528 Q157.575 163.964 153.941 163.964 M153.941 160.26 Q159.751 160.26 162.806 164.866 Q165.885 169.45 165.885 178.2 Q165.885 186.926 162.806 191.533 Q159.751 196.116 153.941 196.116 Q148.131 196.116 145.052 191.533 Q141.996 186.926 141.996 178.2 Q141.996 169.45 145.052 164.866 Q148.131 160.26 153.941 160.26 Z" fill="#000000" fill-rule="evenodd" fill-opacity="1" /><path clip-path="url(#clip290)" d="M 0 0 M185.121 176.811 Q188.478 177.528 190.353 179.797 Q192.251 182.065 192.251 185.399 Q192.251 190.514 188.732 193.315 Q185.214 196.116 178.732 196.116 Q176.556 196.116 174.242 195.676 Q171.95 195.26 169.496 194.403 L169.496 189.889 Q171.441 191.024 173.755 191.602 Q176.07 192.181 178.593 192.181 Q182.991 192.181 185.283 190.445 Q187.598 188.709 187.598 185.399 Q187.598 182.343 185.445 180.63 Q183.316 178.894 179.496 178.894 L175.468 178.894 L175.468 175.051 L179.681 175.051 Q183.13 175.051 184.959 173.686 Q186.788 172.297 186.788 169.704 Q186.788 167.042 184.89 165.63 Q183.015 164.195 179.496 164.195 Q177.575 164.195 175.376 164.612 Q173.177 165.028 170.538 165.908 L170.538 161.741 Q173.2 161.001 175.515 160.63 Q177.853 160.26 179.913 160.26 Q185.237 160.26 188.339 162.69 Q191.441 165.098 191.441 169.218 Q191.441 172.088 189.797 174.079 Q188.153 176.047 185.121 176.811 Z" fill="#000000" fill-rule="evenodd" fill-opacity="1" /><circle clip-path="url(#clip292)" cx="303.592" cy="1136.15" r="14" fill="#ff0000" fill-rule="evenodd" fill-opacity="1" stroke="#000000" stroke-opacity="1" stroke-width="0.32"/>
<circle clip-path="url(#clip292)" cx="330.466" cy="1445.72" r="14" fill="#ff0000" fill-rule="evenodd" fill-opacity="1" stroke="#000000" stroke-opacity="1" stroke-width="0.32"/>
<circle clip-path="url(#clip292)" cx="357.341" cy="862.257" r="14" fill="#ff0000" fill-rule="evenodd" fill-opacity="1" stroke="#000000" stroke-opacity="1" stroke-width="0.32"/>
<circle clip-path="url(#clip292)" cx="384.215" cy="723.317" r="14" fill="#ff0000" fill-rule="evenodd" fill-opacity="1" stroke="#000000" stroke-opacity="1" stroke-width="0.32"/>
<circle clip-path="url(#clip292)" cx="411.089" cy="1268.05" r="14" fill="#ff0000" fill-rule="evenodd" fill-opacity="1" stroke="#000000" stroke-opacity="1" stroke-width="0.32"/>
<circle clip-path="url(#clip292)" cx="437.963" cy="945.987" r="14" fill="#ff0000" fill-rule="evenodd" fill-opacity="1" stroke="#000000" stroke-opacity="1" stroke-width="0.32"/>
<circle clip-path="url(#clip292)" cx="464.838" cy="1211.56" r="14" fill="#ff0000" fill-rule="evenodd" fill-opacity="1" stroke="#000000" stroke-opacity="1" stroke-width="0.32"/>
<circle clip-path="url(#clip292)" cx="491.712" cy="925.424" r="14" fill="#ff0000" fill-rule="evenodd" fill-opacity="1" stroke="#000000" stroke-opacity="1" stroke-width="0.32"/>
<circle clip-path="url(#clip292)" cx="518.586" cy="941.076" r="14" fill="#ff0000" fill-rule="evenodd" fill-opacity="1" stroke="#000000" stroke-opacity="1" stroke-width="0.32"/>
<circle clip-path="url(#clip292)" cx="545.461" cy="971.32" r="14" fill="#ff0000" fill-rule="evenodd" fill-opacity="1" stroke="#000000" stroke-opacity="1" stroke-width="0.32"/>
<circle clip-path="url(#clip292)" cx="572.335" cy="1017.56" r="14" fill="#ff0000" fill-rule="evenodd" fill-opacity="1" stroke="#000000" stroke-opacity="1" stroke-width="0.32"/>
<circle clip-path="url(#clip292)" cx="599.209" cy="1313.35" r="14" fill="#ff0000" fill-rule="evenodd" fill-opacity="1" stroke="#000000" stroke-opacity="1" stroke-width="0.32"/>
<circle clip-path="url(#clip292)" cx="626.083" cy="973.317" r="14" fill="#ff0000" fill-rule="evenodd" fill-opacity="1" stroke="#000000" stroke-opacity="1" stroke-width="0.32"/>
<circle clip-path="url(#clip292)" cx="652.958" cy="758.232" r="14" fill="#ff0000" fill-rule="evenodd" fill-opacity="1" stroke="#000000" stroke-opacity="1" stroke-width="0.32"/>
<circle clip-path="url(#clip292)" cx="679.832" cy="919.38" r="14" fill="#ff0000" fill-rule="evenodd" fill-opacity="1" stroke="#000000" stroke-opacity="1" stroke-width="0.32"/>
<circle clip-path="url(#clip292)" cx="706.706" cy="682.898" r="14" fill="#ff0000" fill-rule="evenodd" fill-opacity="1" stroke="#000000" stroke-opacity="1" stroke-width="0.32"/>
<circle clip-path="url(#clip292)" cx="733.581" cy="1032.61" r="14" fill="#ff0000" fill-rule="evenodd" fill-opacity="1" stroke="#000000" stroke-opacity="1" stroke-width="0.32"/>
<circle clip-path="url(#clip292)" cx="760.455" cy="1086.93" r="14" fill="#ff0000" fill-rule="evenodd" fill-opacity="1" stroke="#000000" stroke-opacity="1" stroke-width="0.32"/>
<circle clip-path="url(#clip292)" cx="787.329" cy="979.233" r="14" fill="#ff0000" fill-rule="evenodd" fill-opacity="1" stroke="#000000" stroke-opacity="1" stroke-width="0.32"/>
<circle clip-path="url(#clip292)" cx="814.203" cy="948.883" r="14" fill="#ff0000" fill-rule="evenodd" fill-opacity="1" stroke="#000000" stroke-opacity="1" stroke-width="0.32"/>
<circle clip-path="url(#clip292)" cx="841.078" cy="1057.69" r="14" fill="#ff0000" fill-rule="evenodd" fill-opacity="1" stroke="#000000" stroke-opacity="1" stroke-width="0.32"/>
<circle clip-path="url(#clip292)" cx="867.952" cy="996.669" r="14" fill="#ff0000" fill-rule="evenodd" fill-opacity="1" stroke="#000000" stroke-opacity="1" stroke-width="0.32"/>
<circle clip-path="url(#clip292)" cx="894.826" cy="1046.55" r="14" fill="#ff0000" fill-rule="evenodd" fill-opacity="1" stroke="#000000" stroke-opacity="1" stroke-width="0.32"/>
<circle clip-path="url(#clip292)" cx="921.701" cy="992.815" r="14" fill="#ff0000" fill-rule="evenodd" fill-opacity="1" stroke="#000000" stroke-opacity="1" stroke-width="0.32"/>
<circle clip-path="url(#clip292)" cx="948.575" cy="995.343" r="14" fill="#ff0000" fill-rule="evenodd" fill-opacity="1" stroke="#000000" stroke-opacity="1" stroke-width="0.32"/>
<circle clip-path="url(#clip292)" cx="975.449" cy="1000.96" r="14" fill="#ff0000" fill-rule="evenodd" fill-opacity="1" stroke="#000000" stroke-opacity="1" stroke-width="0.32"/>
<circle clip-path="url(#clip292)" cx="1002.32" cy="1010.6" r="14" fill="#ff0000" fill-rule="evenodd" fill-opacity="1" stroke="#000000" stroke-opacity="1" stroke-width="0.32"/>
<circle clip-path="url(#clip292)" cx="1029.2" cy="1062.58" r="14" fill="#ff0000" fill-rule="evenodd" fill-opacity="1" stroke="#000000" stroke-opacity="1" stroke-width="0.32"/>
<circle clip-path="url(#clip292)" cx="1056.07" cy="1001.74" r="14" fill="#ff0000" fill-rule="evenodd" fill-opacity="1" stroke="#000000" stroke-opacity="1" stroke-width="0.32"/>
<circle clip-path="url(#clip292)" cx="1082.95" cy="955.468" r="14" fill="#ff0000" fill-rule="evenodd" fill-opacity="1" stroke="#000000" stroke-opacity="1" stroke-width="0.32"/>
<circle clip-path="url(#clip292)" cx="1109.82" cy="990.623" r="14" fill="#ff0000" fill-rule="evenodd" fill-opacity="1" stroke="#000000" stroke-opacity="1" stroke-width="0.32"/>
<circle clip-path="url(#clip292)" cx="1136.69" cy="940.128" r="14" fill="#ff0000" fill-rule="evenodd" fill-opacity="1" stroke="#000000" stroke-opacity="1" stroke-width="0.32"/>
<circle clip-path="url(#clip292)" cx="1163.57" cy="1066.65" r="14" fill="#ff0000" fill-rule="evenodd" fill-opacity="1" stroke="#000000" stroke-opacity="1" stroke-width="0.32"/>
<circle clip-path="url(#clip292)" cx="1190.44" cy="1259.8" r="14" fill="#ff0000" fill-rule="evenodd" fill-opacity="1" stroke="#000000" stroke-opacity="1" stroke-width="0.32"/>
<circle clip-path="url(#clip292)" cx="1217.32" cy="939.526" r="14" fill="#ff0000" fill-rule="evenodd" fill-opacity="1" stroke="#000000" stroke-opacity="1" stroke-width="0.32"/>
<circle clip-path="url(#clip292)" cx="1244.19" cy="835.381" r="14" fill="#ff0000" fill-rule="evenodd" fill-opacity="1" stroke="#000000" stroke-opacity="1" stroke-width="0.32"/>
<circle clip-path="url(#clip292)" cx="1271.07" cy="1171.44" r="14" fill="#ff0000" fill-rule="evenodd" fill-opacity="1" stroke="#000000" stroke-opacity="1" stroke-width="0.32"/>
<circle clip-path="url(#clip292)" cx="1297.94" cy="979.794" r="14" fill="#ff0000" fill-rule="evenodd" fill-opacity="1" stroke="#000000" stroke-opacity="1" stroke-width="0.32"/>
<circle clip-path="url(#clip292)" cx="1324.81" cy="1100.32" r="14" fill="#ff0000" fill-rule="evenodd" fill-opacity="1" stroke="#000000" stroke-opacity="1" stroke-width="0.32"/>
<circle clip-path="url(#clip292)" cx="1351.69" cy="971.468" r="14" fill="#ff0000" fill-rule="evenodd" fill-opacity="1" stroke="#000000" stroke-opacity="1" stroke-width="0.32"/>
<circle clip-path="url(#clip292)" cx="1378.56" cy="967.078" r="14" fill="#ff0000" fill-rule="evenodd" fill-opacity="1" stroke="#000000" stroke-opacity="1" stroke-width="0.32"/>
<circle clip-path="url(#clip292)" cx="1405.44" cy="981.684" r="14" fill="#ff0000" fill-rule="evenodd" fill-opacity="1" stroke="#000000" stroke-opacity="1" stroke-width="0.32"/>
<circle clip-path="url(#clip292)" cx="1432.31" cy="1014.35" r="14" fill="#ff0000" fill-rule="evenodd" fill-opacity="1" stroke="#000000" stroke-opacity="1" stroke-width="0.32"/>
<circle clip-path="url(#clip292)" cx="1459.19" cy="1131.38" r="14" fill="#ff0000" fill-rule="evenodd" fill-opacity="1" stroke="#000000" stroke-opacity="1" stroke-width="0.32"/>
<circle clip-path="url(#clip292)" cx="1486.06" cy="991.132" r="14" fill="#ff0000" fill-rule="evenodd" fill-opacity="1" stroke="#000000" stroke-opacity="1" stroke-width="0.32"/>
<circle clip-path="url(#clip292)" cx="1512.93" cy="832.667" r="14" fill="#ff0000" fill-rule="evenodd" fill-opacity="1" stroke="#000000" stroke-opacity="1" stroke-width="0.32"/>
<circle clip-path="url(#clip292)" cx="1539.81" cy="951.557" r="14" fill="#ff0000" fill-rule="evenodd" fill-opacity="1" stroke="#000000" stroke-opacity="1" stroke-width="0.32"/>
<circle clip-path="url(#clip292)" cx="1566.68" cy="784.287" r="14" fill="#ff0000" fill-rule="evenodd" fill-opacity="1" stroke="#000000" stroke-opacity="1" stroke-width="0.32"/>
<circle clip-path="url(#clip292)" cx="1593.56" cy="740.891" r="14" fill="#ff0000" fill-rule="evenodd" fill-opacity="1" stroke="#000000" stroke-opacity="1" stroke-width="0.32"/>
<circle clip-path="url(#clip292)" cx="1620.43" cy="577.343" r="14" fill="#ff0000" fill-rule="evenodd" fill-opacity="1" stroke="#000000" stroke-opacity="1" stroke-width="0.32"/>
<circle clip-path="url(#clip292)" cx="1647.31" cy="732.153" r="14" fill="#ff0000" fill-rule="evenodd" fill-opacity="1" stroke="#000000" stroke-opacity="1" stroke-width="0.32"/>
<circle clip-path="url(#clip292)" cx="1674.18" cy="556.532" r="14" fill="#ff0000" fill-rule="evenodd" fill-opacity="1" stroke="#000000" stroke-opacity="1" stroke-width="0.32"/>
<circle clip-path="url(#clip292)" cx="1701.05" cy="499.571" r="14" fill="#ff0000" fill-rule="evenodd" fill-opacity="1" stroke="#000000" stroke-opacity="1" stroke-width="0.32"/>
<circle clip-path="url(#clip292)" cx="1727.93" cy="733.081" r="14" fill="#ff0000" fill-rule="evenodd" fill-opacity="1" stroke="#000000" stroke-opacity="1" stroke-width="0.32"/>
<circle clip-path="url(#clip292)" cx="1754.8" cy="757.18" r="14" fill="#ff0000" fill-rule="evenodd" fill-opacity="1" stroke="#000000" stroke-opacity="1" stroke-width="0.32"/>
<circle clip-path="url(#clip292)" cx="1781.68" cy="752.506" r="14" fill="#ff0000" fill-rule="evenodd" fill-opacity="1" stroke="#000000" stroke-opacity="1" stroke-width="0.32"/>
<circle clip-path="url(#clip292)" cx="1808.55" cy="515.106" r="14" fill="#ff0000" fill-rule="evenodd" fill-opacity="1" stroke="#000000" stroke-opacity="1" stroke-width="0.32"/>
<circle clip-path="url(#clip292)" cx="1835.43" cy="330" r="14" fill="#ff0000" fill-rule="evenodd" fill-opacity="1" stroke="#000000" stroke-opacity="1" stroke-width="0.32"/>
<circle clip-path="url(#clip292)" cx="1862.3" cy="521.49" r="14" fill="#ff0000" fill-rule="evenodd" fill-opacity="1" stroke="#000000" stroke-opacity="1" stroke-width="0.32"/>
<circle clip-path="url(#clip292)" cx="1889.17" cy="793.521" r="14" fill="#ff0000" fill-rule="evenodd" fill-opacity="1" stroke="#000000" stroke-opacity="1" stroke-width="0.32"/>
<circle clip-path="url(#clip292)" cx="1916.05" cy="699.932" r="14" fill="#ff0000" fill-rule="evenodd" fill-opacity="1" stroke="#000000" stroke-opacity="1" stroke-width="0.32"/>
<circle clip-path="url(#clip292)" cx="1942.92" cy="347.673" r="14" fill="#ff0000" fill-rule="evenodd" fill-opacity="1" stroke="#000000" stroke-opacity="1" stroke-width="0.32"/>
<circle clip-path="url(#clip292)" cx="1969.8" cy="470.05" r="14" fill="#ff0000" fill-rule="evenodd" fill-opacity="1" stroke="#000000" stroke-opacity="1" stroke-width="0.32"/>
<circle clip-path="url(#clip292)" cx="1996.67" cy="378.956" r="14" fill="#ff0000" fill-rule="evenodd" fill-opacity="1" stroke="#000000" stroke-opacity="1" stroke-width="0.32"/>
<circle clip-path="url(#clip292)" cx="2023.55" cy="87.9763" r="14" fill="#ff0000" fill-rule="evenodd" fill-opacity="1" stroke="#000000" stroke-opacity="1" stroke-width="0.32"/>
<circle clip-path="url(#clip292)" cx="2050.42" cy="1000.88" r="14" fill="#ff0000" fill-rule="evenodd" fill-opacity="1" stroke="#000000" stroke-opacity="1" stroke-width="0.32"/>
<circle clip-path="url(#clip292)" cx="2077.29" cy="909.853" r="14" fill="#ff0000" fill-rule="evenodd" fill-opacity="1" stroke="#000000" stroke-opacity="1" stroke-width="0.32"/>
<circle clip-path="url(#clip292)" cx="2104.17" cy="947.101" r="14" fill="#ff0000" fill-rule="evenodd" fill-opacity="1" stroke="#000000" stroke-opacity="1" stroke-width="0.32"/>
<circle clip-path="url(#clip292)" cx="2131.04" cy="1037.56" r="14" fill="#ff0000" fill-rule="evenodd" fill-opacity="1" stroke="#000000" stroke-opacity="1" stroke-width="0.32"/>
<circle clip-path="url(#clip292)" cx="2157.92" cy="1343.75" r="14" fill="#ff0000" fill-rule="evenodd" fill-opacity="1" stroke="#000000" stroke-opacity="1" stroke-width="0.32"/>
<circle clip-path="url(#clip292)" cx="2184.79" cy="1224.87" r="14" fill="#ff0000" fill-rule="evenodd" fill-opacity="1" stroke="#000000" stroke-opacity="1" stroke-width="0.32"/>
<circle clip-path="url(#clip292)" cx="2211.67" cy="602.849" r="14" fill="#ff0000" fill-rule="evenodd" fill-opacity="1" stroke="#000000" stroke-opacity="1" stroke-width="0.32"/>
<circle clip-path="url(#clip292)" cx="2238.54" cy="532.635" r="14" fill="#ff0000" fill-rule="evenodd" fill-opacity="1" stroke="#000000" stroke-opacity="1" stroke-width="0.32"/>
<circle clip-path="url(#clip292)" cx="2265.41" cy="609.755" r="14" fill="#ff0000" fill-rule="evenodd" fill-opacity="1" stroke="#000000" stroke-opacity="1" stroke-width="0.32"/>
<circle clip-path="url(#clip292)" cx="2292.29" cy="342.929" r="14" fill="#ff0000" fill-rule="evenodd" fill-opacity="1" stroke="#000000" stroke-opacity="1" stroke-width="0.32"/>
<path clip-path="url(#clip290)" d="
M1825.72 236.604 L2280.76 236.604 L2280.76 145.884 L1825.72 145.884  Z
  " fill="#000000" fill-rule="evenodd" fill-opacity="0"/>
<polyline clip-path="url(#clip290)" style="stroke:#000000; stroke-width:4; stroke-opacity:0; fill:none" points="
  1825.72,236.604 2280.76,236.604 2280.76,145.884 1825.72,145.884 1825.72,236.604 
  "/>
<circle clip-path="url(#clip290)" cx="1933.72" cy="191.244" r="17" fill="#ff0000" fill-rule="evenodd" fill-opacity="1" stroke="#000000" stroke-opacity="1" stroke-width="0.384"/>
<path clip-path="url(#clip290)" d="M 0 0 M2027.98 204.204 Q2028 201.878 2027.98 198.822 Q2024.27 198.822 2021 195.176 Q2017.81 191.635 2017.72 185.385 L2017.72 178.284 L2021.42 178.284 L2021.42 185.385 Q2021.42 190.281 2023.68 193.128 Q2025.59 195.558 2027.98 195.801 L2027.98 178.284 L2031.49 178.284 L2031.49 195.801 Q2033.89 195.558 2035.8 193.128 Q2038.05 190.281 2038.05 185.385 L2038.05 178.284 L2041.75 178.284 L2041.75 185.385 Q2041.66 191.635 2038.47 195.176 Q2035.2 198.822 2031.49 198.822 Q2031.47 200.072 2031.49 204.204 L2027.98 204.204 Z" fill="#000000" fill-rule="evenodd" fill-opacity="1" /><path clip-path="url(#clip290)" d="M 0 0 M2069.2 187.711 L2069.2 177.19 L2072.39 177.19 L2072.39 204.204 L2069.2 204.204 L2069.2 201.287 Q2068.19 203.024 2066.65 203.874 Q2065.12 204.708 2062.97 204.708 Q2059.44 204.708 2057.22 201.895 Q2055.01 199.083 2055.01 194.499 Q2055.01 189.916 2057.22 187.103 Q2059.44 184.291 2062.97 184.291 Q2065.12 184.291 2066.65 185.142 Q2068.19 185.975 2069.2 187.711 M2058.31 194.499 Q2058.31 198.024 2059.75 200.037 Q2061.21 202.034 2063.75 202.034 Q2066.28 202.034 2067.74 200.037 Q2069.2 198.024 2069.2 194.499 Q2069.2 190.975 2067.74 188.978 Q2066.28 186.965 2063.75 186.965 Q2061.21 186.965 2059.75 188.978 Q2058.31 190.975 2058.31 194.499 Z" fill="#000000" fill-rule="evenodd" fill-opacity="1" /><path clip-path="url(#clip290)" d="M 0 0 M2075.74 184.76 L2078.94 184.76 L2078.94 204.204 L2075.74 204.204 L2075.74 184.76 M2075.74 177.19 L2078.94 177.19 L2078.94 181.235 L2075.74 181.235 L2075.74 177.19 Z" fill="#000000" fill-rule="evenodd" fill-opacity="1" /><path clip-path="url(#clip290)" d="M 0 0 M2092.13 177.19 L2092.13 179.847 L2089.08 179.847 Q2087.36 179.847 2086.68 180.541 Q2086.02 181.235 2086.02 183.041 L2086.02 184.76 L2091.28 184.76 L2091.28 187.242 L2086.02 187.242 L2086.02 204.204 L2082.81 204.204 L2082.81 187.242 L2079.75 187.242 L2079.75 184.76 L2082.81 184.76 L2082.81 183.406 Q2082.81 180.159 2084.32 178.683 Q2085.83 177.19 2089.11 177.19 L2092.13 177.19 Z" fill="#000000" fill-rule="evenodd" fill-opacity="1" /><path clip-path="url(#clip290)" d="M 0 0 M2105.33 177.19 L2105.33 179.847 L2102.27 179.847 Q2100.55 179.847 2099.87 180.541 Q2099.21 181.235 2099.21 183.041 L2099.21 184.76 L2104.48 184.76 L2104.48 187.242 L2099.21 187.242 L2099.21 204.204 L2096 204.204 L2096 187.242 L2092.95 187.242 L2092.95 184.76 L2096 184.76 L2096 183.406 Q2096 180.159 2097.51 178.683 Q2099.02 177.19 2102.31 177.19 L2105.33 177.19 Z" fill="#000000" fill-rule="evenodd" fill-opacity="1" /><path clip-path="url(#clip290)" d="M 0 0 M2125.31 193.683 L2125.31 195.246 L2110.62 195.246 Q2110.83 198.544 2112.6 200.281 Q2114.39 201.999 2117.57 201.999 Q2119.41 201.999 2121.12 201.548 Q2122.86 201.096 2124.56 200.194 L2124.56 203.215 Q2122.84 203.944 2121.04 204.326 Q2119.23 204.708 2117.37 204.708 Q2112.72 204.708 2110 201.999 Q2107.29 199.291 2107.29 194.673 Q2107.29 189.899 2109.86 187.103 Q2112.44 184.291 2116.82 184.291 Q2120.74 184.291 2123.02 186.826 Q2125.31 189.343 2125.31 193.683 M2122.11 192.746 Q2122.08 190.124 2120.64 188.562 Q2119.21 186.999 2116.85 186.999 Q2114.18 186.999 2112.57 188.51 Q2110.97 190.02 2110.73 192.763 L2122.11 192.746 Z" fill="#000000" fill-rule="evenodd" fill-opacity="1" /><path clip-path="url(#clip290)" d="M 0 0 M2139.93 187.746 Q2139.39 187.433 2138.75 187.294 Q2138.12 187.138 2137.36 187.138 Q2134.65 187.138 2133.19 188.909 Q2131.75 190.663 2131.75 193.961 L2131.75 204.204 L2128.54 204.204 L2128.54 184.76 L2131.75 184.76 L2131.75 187.781 Q2132.76 186.01 2134.37 185.159 Q2135.99 184.291 2138.29 184.291 Q2138.62 184.291 2139.02 184.343 Q2139.42 184.378 2139.91 184.465 L2139.93 187.746 Z" fill="#000000" fill-rule="evenodd" fill-opacity="1" /><path clip-path="url(#clip290)" d="M 0 0 M2159.13 193.683 L2159.13 195.246 L2144.44 195.246 Q2144.65 198.544 2146.42 200.281 Q2148.21 201.999 2151.38 201.999 Q2153.23 201.999 2154.94 201.548 Q2156.68 201.096 2158.38 200.194 L2158.38 203.215 Q2156.66 203.944 2154.86 204.326 Q2153.05 204.708 2151.19 204.708 Q2146.54 204.708 2143.82 201.999 Q2141.11 199.291 2141.11 194.673 Q2141.11 189.899 2143.68 187.103 Q2146.26 184.291 2150.64 184.291 Q2154.56 184.291 2156.84 186.826 Q2159.13 189.343 2159.13 193.683 M2155.93 192.746 Q2155.9 190.124 2154.46 188.562 Q2153.03 186.999 2150.67 186.999 Q2148 186.999 2146.38 188.51 Q2144.79 190.02 2144.54 192.763 L2155.93 192.746 Z" fill="#000000" fill-rule="evenodd" fill-opacity="1" /><path clip-path="url(#clip290)" d="M 0 0 M2178.64 192.468 L2178.64 204.204 L2175.45 204.204 L2175.45 192.572 Q2175.45 189.812 2174.37 188.44 Q2173.29 187.069 2171.14 187.069 Q2168.55 187.069 2167.06 188.718 Q2165.57 190.367 2165.57 193.215 L2165.57 204.204 L2162.36 204.204 L2162.36 184.76 L2165.57 184.76 L2165.57 187.781 Q2166.71 186.027 2168.26 185.159 Q2169.82 184.291 2171.85 184.291 Q2175.2 184.291 2176.92 186.374 Q2178.64 188.44 2178.64 192.468 Z" fill="#000000" fill-rule="evenodd" fill-opacity="1" /><path clip-path="url(#clip290)" d="M 0 0 M2195.99 185.506 L2195.99 188.492 Q2194.63 187.746 2193.26 187.381 Q2191.91 186.999 2190.52 186.999 Q2187.41 186.999 2185.69 188.978 Q2183.97 190.94 2183.97 194.499 Q2183.97 198.058 2185.69 200.037 Q2187.41 201.999 2190.52 201.999 Q2191.91 201.999 2193.26 201.635 Q2194.63 201.253 2195.99 200.506 L2195.99 203.458 Q2194.65 204.083 2193.21 204.395 Q2191.78 204.708 2190.17 204.708 Q2185.78 204.708 2183.19 201.947 Q2180.6 199.187 2180.6 194.499 Q2180.6 189.742 2183.21 187.017 Q2185.83 184.291 2190.38 184.291 Q2191.85 184.291 2193.26 184.604 Q2194.67 184.899 2195.99 185.506 Z" fill="#000000" fill-rule="evenodd" fill-opacity="1" /><path clip-path="url(#clip290)" d="M 0 0 M2215.97 193.683 L2215.97 195.246 L2201.28 195.246 Q2201.49 198.544 2203.26 200.281 Q2205.05 201.999 2208.22 201.999 Q2210.07 201.999 2211.78 201.548 Q2213.52 201.096 2215.22 200.194 L2215.22 203.215 Q2213.5 203.944 2211.7 204.326 Q2209.89 204.708 2208.03 204.708 Q2203.38 204.708 2200.66 201.999 Q2197.95 199.291 2197.95 194.673 Q2197.95 189.899 2200.52 187.103 Q2203.1 184.291 2207.48 184.291 Q2211.4 184.291 2213.68 186.826 Q2215.97 189.343 2215.97 193.683 M2212.77 192.746 Q2212.74 190.124 2211.3 188.562 Q2209.87 186.999 2207.51 186.999 Q2204.84 186.999 2203.22 188.51 Q2201.63 190.02 2201.38 192.763 L2212.77 192.746 Z" fill="#000000" fill-rule="evenodd" fill-opacity="1" /><path clip-path="url(#clip290)" d="M 0 0 M2231.71 185.333 L2231.71 188.353 Q2230.36 187.659 2228.9 187.312 Q2227.44 186.965 2225.88 186.965 Q2223.5 186.965 2222.3 187.694 Q2221.12 188.423 2221.12 189.881 Q2221.12 190.992 2221.97 191.635 Q2222.83 192.26 2225.39 192.833 L2226.49 193.076 Q2229.89 193.805 2231.31 195.142 Q2232.76 196.461 2232.76 198.84 Q2232.76 201.548 2230.6 203.128 Q2228.47 204.708 2224.72 204.708 Q2223.16 204.708 2221.45 204.395 Q2219.77 204.1 2217.89 203.492 L2217.89 200.194 Q2219.67 201.114 2221.38 201.583 Q2223.1 202.034 2224.79 202.034 Q2227.04 202.034 2228.26 201.27 Q2229.47 200.489 2229.47 199.083 Q2229.47 197.781 2228.59 197.086 Q2227.72 196.392 2224.75 195.749 L2223.64 195.489 Q2220.67 194.864 2219.35 193.579 Q2218.03 192.277 2218.03 190.02 Q2218.03 187.277 2219.98 185.784 Q2221.92 184.291 2225.5 184.291 Q2227.27 184.291 2228.83 184.551 Q2230.39 184.812 2231.71 185.333 Z" fill="#000000" fill-rule="evenodd" fill-opacity="1" /></svg>
