<?xml version="1.0" encoding="utf-8"?>
<svg xmlns="http://www.w3.org/2000/svg" xmlns:xlink="http://www.w3.org/1999/xlink" width="600" height="400" viewBox="0 0 2400 1600">
<defs>
  <clipPath id="clip450">
    <rect x="0" y="0" width="2400" height="1600"/>
  </clipPath>
</defs>
<path clip-path="url(#clip450)" d="
M0 1600 L2400 1600 L2400 0 L0 0  Z
  " fill="#ffffff" fill-rule="evenodd" fill-opacity="1"/>
<defs>
  <clipPath id="clip451">
    <rect x="480" y="0" width="1681" height="1600"/>
  </clipPath>
</defs>
<path clip-path="url(#clip450)" d="
M214.653 1423.18 L2352.76 1423.18 L2352.76 114.832 L214.653 114.832  Z
  " fill="#ffffff" fill-rule="evenodd" fill-opacity="1"/>
<defs>
  <clipPath id="clip452">
    <rect x="214" y="114" width="2139" height="1309"/>
  </clipPath>
</defs>
<polyline clip-path="url(#clip452)" style="stroke:#000000; stroke-width:2; stroke-opacity:0.1; fill:none" points="
  269.773,1423.18 269.773,114.832 
  "/>
<polyline clip-path="url(#clip452)" style="stroke:#000000; stroke-width:2; stroke-opacity:0.1; fill:none" points="
  943.93,1423.18 943.93,114.832 
  "/>
<polyline clip-path="url(#clip452)" style="stroke:#000000; stroke-width:2; stroke-opacity:0.1; fill:none" points="
  1618.09,1423.18 1618.09,114.832 
  "/>
<polyline clip-path="url(#clip452)" style="stroke:#000000; stroke-width:2; stroke-opacity:0.1; fill:none" points="
  2292.24,1423.18 2292.24,114.832 
  "/>
<polyline clip-path="url(#clip452)" style="stroke:#000000; stroke-width:2; stroke-opacity:0.1; fill:none" points="
  214.653,1330.3 2352.76,1330.3 
  "/>
<polyline clip-path="url(#clip452)" style="stroke:#000000; stroke-width:2; stroke-opacity:0.1; fill:none" points="
  214.653,1066.39 2352.76,1066.39 
  "/>
<polyline clip-path="url(#clip452)" style="stroke:#000000; stroke-width:2; stroke-opacity:0.1; fill:none" points="
  214.653,802.491 2352.76,802.491 
  "/>
<polyline clip-path="url(#clip452)" style="stroke:#000000; stroke-width:2; stroke-opacity:0.1; fill:none" points="
  214.653,538.587 2352.76,538.587 
  "/>
<polyline clip-path="url(#clip452)" style="stroke:#000000; stroke-width:2; stroke-opacity:0.1; fill:none" points="
  214.653,274.684 2352.76,274.684 
  "/>
<polyline clip-path="url(#clip450)" style="stroke:#000000; stroke-width:4; stroke-opacity:1; fill:none" points="
  214.653,1423.18 2352.76,1423.18 
  "/>
<polyline clip-path="url(#clip450)" style="stroke:#000000; stroke-width:4; stroke-opacity:1; fill:none" points="
  214.653,1423.18 214.653,114.832 
  "/>
<polyline clip-path="url(#clip450)" style="stroke:#000000; stroke-width:4; stroke-opacity:1; fill:none" points="
  269.773,1423.18 269.773,1407.48 
  "/>
<polyline clip-path="url(#clip450)" style="stroke:#000000; stroke-width:4; stroke-opacity:1; fill:none" points="
  943.93,1423.18 943.93,1407.48 
  "/>
<polyline clip-path="url(#clip450)" style="stroke:#000000; stroke-width:4; stroke-opacity:1; fill:none" points="
  1618.09,1423.18 1618.09,1407.48 
  "/>
<polyline clip-path="url(#clip450)" style="stroke:#000000; stroke-width:4; stroke-opacity:1; fill:none" points="
  2292.24,1423.18 2292.24,1407.48 
  "/>
<polyline clip-path="url(#clip450)" style="stroke:#000000; stroke-width:4; stroke-opacity:1; fill:none" points="
  214.653,1330.3 240.311,1330.3 
  "/>
<polyline clip-path="url(#clip450)" style="stroke:#000000; stroke-width:4; stroke-opacity:1; fill:none" points="
  214.653,1066.39 240.311,1066.39 
  "/>
<polyline clip-path="url(#clip450)" style="stroke:#000000; stroke-width:4; stroke-opacity:1; fill:none" points="
  214.653,802.491 240.311,802.491 
  "/>
<polyline clip-path="url(#clip450)" style="stroke:#000000; stroke-width:4; stroke-opacity:1; fill:none" points="
  214.653,538.587 240.311,538.587 
  "/>
<polyline clip-path="url(#clip450)" style="stroke:#000000; stroke-width:4; stroke-opacity:1; fill:none" points="
  214.653,274.684 240.311,274.684 
  "/>
<path clip-path="url(#clip450)" d="M 0 0 M231.868 1461.77 L244.344 1461.77 L244.344 1465.56 L231.868 1465.56 L231.868 1461.77 Z" fill="#000000" fill-rule="evenodd" fill-opacity="1" /><path clip-path="url(#clip450)" d="M 0 0 M259.414 1445.17 Q255.803 1445.17 253.974 1448.74 Q252.168 1452.28 252.168 1459.41 Q252.168 1466.51 253.974 1470.08 Q255.803 1473.62 259.414 1473.62 Q263.048 1473.62 264.854 1470.08 Q266.682 1466.51 266.682 1459.41 Q266.682 1452.28 264.854 1448.74 Q263.048 1445.17 259.414 1445.17 M259.414 1441.47 Q265.224 1441.47 268.28 1446.07 Q271.358 1450.66 271.358 1459.41 Q271.358 1468.13 268.28 1472.74 Q265.224 1477.32 259.414 1477.32 Q253.604 1477.32 250.525 1472.74 Q247.469 1468.13 247.469 1459.41 Q247.469 1450.66 250.525 1446.07 Q253.604 1441.47 259.414 1441.47 Z" fill="#000000" fill-rule="evenodd" fill-opacity="1" /><path clip-path="url(#clip450)" d="M 0 0 M276.428 1470.77 L281.312 1470.77 L281.312 1476.65 L276.428 1476.65 L276.428 1470.77 Z" fill="#000000" fill-rule="evenodd" fill-opacity="1" /><path clip-path="url(#clip450)" d="M 0 0 M300.548 1458.02 Q303.904 1458.74 305.779 1461 Q307.677 1463.27 307.677 1466.61 Q307.677 1471.72 304.159 1474.52 Q300.64 1477.32 294.159 1477.32 Q291.983 1477.32 289.668 1476.88 Q287.377 1476.47 284.923 1475.61 L284.923 1471.1 Q286.867 1472.23 289.182 1472.81 Q291.497 1473.39 294.02 1473.39 Q298.418 1473.39 300.71 1471.65 Q303.025 1469.92 303.025 1466.61 Q303.025 1463.55 300.872 1461.84 Q298.742 1460.1 294.923 1460.1 L290.895 1460.1 L290.895 1456.26 L295.108 1456.26 Q298.557 1456.26 300.386 1454.89 Q302.215 1453.5 302.215 1450.91 Q302.215 1448.25 300.316 1446.84 Q298.441 1445.4 294.923 1445.4 Q293.002 1445.4 290.803 1445.82 Q288.603 1446.24 285.965 1447.11 L285.965 1442.95 Q288.627 1442.21 290.941 1441.84 Q293.279 1441.47 295.34 1441.47 Q300.664 1441.47 303.765 1443.9 Q306.867 1446.3 306.867 1450.43 Q306.867 1453.3 305.224 1455.29 Q303.58 1457.25 300.548 1458.02 Z" fill="#000000" fill-rule="evenodd" fill-opacity="1" /><path clip-path="url(#clip450)" d="M 0 0 M906.499 1461.77 L918.976 1461.77 L918.976 1465.56 L906.499 1465.56 L906.499 1461.77 Z" fill="#000000" fill-rule="evenodd" fill-opacity="1" /><path clip-path="url(#clip450)" d="M 0 0 M934.045 1445.17 Q930.434 1445.17 928.606 1448.74 Q926.8 1452.28 926.8 1459.41 Q926.8 1466.51 928.606 1470.08 Q930.434 1473.62 934.045 1473.62 Q937.68 1473.62 939.485 1470.08 Q941.314 1466.51 941.314 1459.41 Q941.314 1452.28 939.485 1448.74 Q937.68 1445.17 934.045 1445.17 M934.045 1441.47 Q939.856 1441.47 942.911 1446.07 Q945.99 1450.66 945.99 1459.41 Q945.99 1468.13 942.911 1472.74 Q939.856 1477.32 934.045 1477.32 Q928.235 1477.32 925.157 1472.74 Q922.101 1468.13 922.101 1459.41 Q922.101 1450.66 925.157 1446.07 Q928.235 1441.47 934.045 1441.47 Z" fill="#000000" fill-rule="evenodd" fill-opacity="1" /><path clip-path="url(#clip450)" d="M 0 0 M951.059 1470.77 L955.943 1470.77 L955.943 1476.65 L951.059 1476.65 L951.059 1470.77 Z" fill="#000000" fill-rule="evenodd" fill-opacity="1" /><path clip-path="url(#clip450)" d="M 0 0 M965.041 1472.72 L981.36 1472.72 L981.36 1476.65 L959.416 1476.65 L959.416 1472.72 Q962.078 1469.96 966.661 1465.33 Q971.267 1460.68 972.448 1459.34 Q974.693 1456.81 975.573 1455.08 Q976.476 1453.32 976.476 1451.63 Q976.476 1448.87 974.531 1447.14 Q972.61 1445.4 969.508 1445.4 Q967.309 1445.4 964.855 1446.17 Q962.425 1446.93 959.647 1448.48 L959.647 1443.76 Q962.471 1442.62 964.925 1442.05 Q967.379 1441.47 969.416 1441.47 Q974.786 1441.47 977.98 1444.15 Q981.175 1446.84 981.175 1451.33 Q981.175 1453.46 980.365 1455.38 Q979.578 1457.28 977.471 1459.87 Q976.892 1460.54 973.791 1463.76 Q970.689 1466.95 965.041 1472.72 Z" fill="#000000" fill-rule="evenodd" fill-opacity="1" /><path clip-path="url(#clip450)" d="M 0 0 M1580.47 1461.77 L1592.95 1461.77 L1592.95 1465.56 L1580.47 1465.56 L1580.47 1461.77 Z" fill="#000000" fill-rule="evenodd" fill-opacity="1" /><path clip-path="url(#clip450)" d="M 0 0 M1608.02 1445.17 Q1604.41 1445.17 1602.58 1448.74 Q1600.77 1452.28 1600.77 1459.41 Q1600.77 1466.51 1602.58 1470.08 Q1604.41 1473.62 1608.02 1473.62 Q1611.65 1473.62 1613.46 1470.08 Q1615.29 1466.51 1615.29 1459.41 Q1615.29 1452.28 1613.46 1448.74 Q1611.65 1445.17 1608.02 1445.17 M1608.02 1441.47 Q1613.83 1441.47 1616.88 1446.07 Q1619.96 1450.66 1619.96 1459.41 Q1619.96 1468.13 1616.88 1472.74 Q1613.83 1477.32 1608.02 1477.32 Q1602.21 1477.32 1599.13 1472.74 Q1596.07 1468.13 1596.07 1459.41 Q1596.07 1450.66 1599.13 1446.07 Q1602.21 1441.47 1608.02 1441.47 Z" fill="#000000" fill-rule="evenodd" fill-opacity="1" /><path clip-path="url(#clip450)" d="M 0 0 M1625.03 1470.77 L1629.92 1470.77 L1629.92 1476.65 L1625.03 1476.65 L1625.03 1470.77 Z" fill="#000000" fill-rule="evenodd" fill-opacity="1" /><path clip-path="url(#clip450)" d="M 0 0 M1635.79 1472.72 L1643.43 1472.72 L1643.43 1446.35 L1635.12 1448.02 L1635.12 1443.76 L1643.39 1442.09 L1648.06 1442.09 L1648.06 1472.72 L1655.7 1472.72 L1655.7 1476.65 L1635.79 1476.65 L1635.79 1472.72 Z" fill="#000000" fill-rule="evenodd" fill-opacity="1" /><path clip-path="url(#clip450)" d="M 0 0 M2273.76 1445.17 Q2270.15 1445.17 2268.32 1448.74 Q2266.51 1452.28 2266.51 1459.41 Q2266.51 1466.51 2268.32 1470.08 Q2270.15 1473.62 2273.76 1473.62 Q2277.39 1473.62 2279.2 1470.08 Q2281.03 1466.51 2281.03 1459.41 Q2281.03 1452.28 2279.2 1448.74 Q2277.39 1445.17 2273.76 1445.17 M2273.76 1441.47 Q2279.57 1441.47 2282.63 1446.07 Q2285.7 1450.66 2285.7 1459.41 Q2285.7 1468.13 2282.63 1472.74 Q2279.57 1477.32 2273.76 1477.32 Q2267.95 1477.32 2264.87 1472.74 Q2261.82 1468.13 2261.82 1459.41 Q2261.82 1450.66 2264.87 1446.07 Q2267.95 1441.47 2273.76 1441.47 Z" fill="#000000" fill-rule="evenodd" fill-opacity="1" /><path clip-path="url(#clip450)" d="M 0 0 M2290.77 1470.77 L2295.66 1470.77 L2295.66 1476.65 L2290.77 1476.65 L2290.77 1470.77 Z" fill="#000000" fill-rule="evenodd" fill-opacity="1" /><path clip-path="url(#clip450)" d="M 0 0 M2310.73 1445.17 Q2307.12 1445.17 2305.29 1448.74 Q2303.48 1452.28 2303.48 1459.41 Q2303.48 1466.51 2305.29 1470.08 Q2307.12 1473.62 2310.73 1473.62 Q2314.36 1473.62 2316.17 1470.08 Q2318 1466.51 2318 1459.41 Q2318 1452.28 2316.17 1448.74 Q2314.36 1445.17 2310.73 1445.17 M2310.73 1441.47 Q2316.54 1441.47 2319.59 1446.07 Q2322.67 1450.66 2322.67 1459.41 Q2322.67 1468.13 2319.59 1472.74 Q2316.54 1477.32 2310.73 1477.32 Q2304.92 1477.32 2301.84 1472.74 Q2298.78 1468.13 2298.78 1459.41 Q2298.78 1450.66 2301.84 1446.07 Q2304.92 1441.47 2310.73 1441.47 Z" fill="#000000" fill-rule="evenodd" fill-opacity="1" /><path clip-path="url(#clip450)" d="M 0 0 M64.8903 1332.69 L77.367 1332.69 L77.367 1336.49 L64.8903 1336.49 L64.8903 1332.69 Z" fill="#000000" fill-rule="evenodd" fill-opacity="1" /><path clip-path="url(#clip450)" d="M 0 0 M86.4642 1343.64 L102.784 1343.64 L102.784 1347.58 L80.8393 1347.58 L80.8393 1343.64 Q83.5013 1340.89 88.0846 1336.26 Q92.691 1331.61 93.8716 1330.26 Q96.1169 1327.74 96.9966 1326 Q97.8993 1324.25 97.8993 1322.56 Q97.8993 1319.8 95.9549 1318.06 Q94.0336 1316.33 90.9318 1316.33 Q88.7327 1316.33 86.279 1317.09 Q83.8485 1317.86 81.0707 1319.41 L81.0707 1314.69 Q83.8948 1313.55 86.3485 1312.97 Q88.8022 1312.39 90.8392 1312.39 Q96.2095 1312.39 99.404 1315.08 Q102.598 1317.76 102.598 1322.25 Q102.598 1324.38 101.788 1326.31 Q101.001 1328.2 98.8947 1330.8 Q98.316 1331.47 95.2142 1334.69 Q92.1123 1337.88 86.4642 1343.64 Z" fill="#000000" fill-rule="evenodd" fill-opacity="1" /><path clip-path="url(#clip450)" d="M 0 0 M108.663 1343.64 L116.302 1343.64 L116.302 1317.28 L107.992 1318.94 L107.992 1314.69 L116.256 1313.02 L120.932 1313.02 L120.932 1343.64 L128.57 1343.64 L128.57 1347.58 L108.663 1347.58 L108.663 1343.64 Z" fill="#000000" fill-rule="evenodd" fill-opacity="1" /><path clip-path="url(#clip450)" d="M 0 0 M133.64 1341.7 L138.524 1341.7 L138.524 1347.58 L133.64 1347.58 L133.64 1341.7 Z" fill="#000000" fill-rule="evenodd" fill-opacity="1" /><path clip-path="url(#clip450)" d="M 0 0 M142.413 1313.02 L164.635 1313.02 L164.635 1315.01 L152.089 1347.58 L147.205 1347.58 L159.01 1316.95 L142.413 1316.95 L142.413 1313.02 Z" fill="#000000" fill-rule="evenodd" fill-opacity="1" /><path clip-path="url(#clip450)" d="M 0 0 M169.751 1313.02 L188.107 1313.02 L188.107 1316.95 L174.033 1316.95 L174.033 1325.43 Q175.052 1325.08 176.07 1324.92 Q177.089 1324.73 178.107 1324.73 Q183.894 1324.73 187.274 1327.9 Q190.653 1331.07 190.653 1336.49 Q190.653 1342.07 187.181 1345.17 Q183.709 1348.25 177.39 1348.25 Q175.214 1348.25 172.945 1347.88 Q170.7 1347.51 168.292 1346.77 L168.292 1342.07 Q170.376 1343.2 172.598 1343.76 Q174.82 1344.31 177.297 1344.31 Q181.302 1344.31 183.64 1342.21 Q185.978 1340.1 185.978 1336.49 Q185.978 1332.88 183.64 1330.77 Q181.302 1328.67 177.297 1328.67 Q175.422 1328.67 173.547 1329.08 Q171.695 1329.5 169.751 1330.38 L169.751 1313.02 Z" fill="#000000" fill-rule="evenodd" fill-opacity="1" /><path clip-path="url(#clip450)" d="M 0 0 M63.9875 1068.79 L76.4643 1068.79 L76.4643 1072.59 L63.9875 1072.59 L63.9875 1068.79 Z" fill="#000000" fill-rule="evenodd" fill-opacity="1" /><path clip-path="url(#clip450)" d="M 0 0 M85.5614 1079.74 L101.881 1079.74 L101.881 1083.67 L79.9365 1083.67 L79.9365 1079.74 Q82.5985 1076.99 87.1818 1072.36 Q91.7883 1067.7 92.9688 1066.36 Q95.2142 1063.84 96.0938 1062.1 Q96.9966 1060.34 96.9966 1058.65 Q96.9966 1055.9 95.0521 1054.16 Q93.1309 1052.42 90.029 1052.42 Q87.83 1052.42 85.3763 1053.19 Q82.9457 1053.95 80.168 1055.5 L80.168 1050.78 Q82.992 1049.65 85.4457 1049.07 Q87.8994 1048.49 89.9364 1048.49 Q95.3068 1048.49 98.5012 1051.17 Q101.696 1053.86 101.696 1058.35 Q101.696 1060.48 100.885 1062.4 Q100.098 1064.3 97.9919 1066.89 Q97.4132 1067.56 94.3114 1070.78 Q91.2096 1073.98 85.5614 1079.74 Z" fill="#000000" fill-rule="evenodd" fill-opacity="1" /><path clip-path="url(#clip450)" d="M 0 0 M107.76 1079.74 L115.399 1079.74 L115.399 1053.37 L107.089 1055.04 L107.089 1050.78 L115.353 1049.11 L120.029 1049.11 L120.029 1079.74 L127.668 1079.74 L127.668 1083.67 L107.76 1083.67 L107.76 1079.74 Z" fill="#000000" fill-rule="evenodd" fill-opacity="1" /><path clip-path="url(#clip450)" d="M 0 0 M132.737 1077.8 L137.621 1077.8 L137.621 1083.67 L132.737 1083.67 L132.737 1077.8 Z" fill="#000000" fill-rule="evenodd" fill-opacity="1" /><path clip-path="url(#clip450)" d="M 0 0 M142.737 1049.11 L161.093 1049.11 L161.093 1053.05 L147.019 1053.05 L147.019 1061.52 Q148.038 1061.17 149.056 1061.01 Q150.075 1060.83 151.094 1060.83 Q156.881 1060.83 160.26 1064 Q163.64 1067.17 163.64 1072.59 Q163.64 1078.17 160.168 1081.27 Q156.695 1084.35 150.376 1084.35 Q148.2 1084.35 145.931 1083.98 Q143.686 1083.61 141.279 1082.86 L141.279 1078.17 Q143.362 1079.3 145.584 1079.86 Q147.806 1080.41 150.283 1080.41 Q154.288 1080.41 156.626 1078.3 Q158.964 1076.2 158.964 1072.59 Q158.964 1068.98 156.626 1066.87 Q154.288 1064.76 150.283 1064.76 Q148.408 1064.76 146.533 1065.18 Q144.682 1065.6 142.737 1066.48 L142.737 1049.11 Z" fill="#000000" fill-rule="evenodd" fill-opacity="1" /><path clip-path="url(#clip450)" d="M 0 0 M178.709 1052.19 Q175.098 1052.19 173.269 1055.76 Q171.464 1059.3 171.464 1066.43 Q171.464 1073.54 173.269 1077.1 Q175.098 1080.64 178.709 1080.64 Q182.343 1080.64 184.149 1077.1 Q185.978 1073.54 185.978 1066.43 Q185.978 1059.3 184.149 1055.76 Q182.343 1052.19 178.709 1052.19 M178.709 1048.49 Q184.519 1048.49 187.575 1053.1 Q190.653 1057.68 190.653 1066.43 Q190.653 1075.16 187.575 1079.76 Q184.519 1084.35 178.709 1084.35 Q172.899 1084.35 169.82 1079.76 Q166.765 1075.16 166.765 1066.43 Q166.765 1057.68 169.82 1053.1 Q172.899 1048.49 178.709 1048.49 Z" fill="#000000" fill-rule="evenodd" fill-opacity="1" /><path clip-path="url(#clip450)" d="M 0 0 M65.5847 804.887 L78.0615 804.887 L78.0615 808.683 L65.5847 808.683 L65.5847 804.887 Z" fill="#000000" fill-rule="evenodd" fill-opacity="1" /><path clip-path="url(#clip450)" d="M 0 0 M87.1587 815.836 L103.478 815.836 L103.478 819.771 L81.5337 819.771 L81.5337 815.836 Q84.1957 813.081 88.779 808.452 Q93.3855 803.799 94.566 802.456 Q96.8114 799.933 97.691 798.197 Q98.5938 796.438 98.5938 794.748 Q98.5938 791.993 96.6494 790.257 Q94.7281 788.521 91.6262 788.521 Q89.4272 788.521 86.9735 789.285 Q84.5429 790.049 81.7652 791.6 L81.7652 786.878 Q84.5892 785.744 87.0429 785.165 Q89.4966 784.586 91.5336 784.586 Q96.904 784.586 100.098 787.271 Q103.293 789.956 103.293 794.447 Q103.293 796.577 102.483 798.498 Q101.696 800.396 99.5892 802.989 Q99.0105 803.66 95.9086 806.878 Q92.8068 810.072 87.1587 815.836 Z" fill="#000000" fill-rule="evenodd" fill-opacity="1" /><path clip-path="url(#clip450)" d="M 0 0 M109.358 815.836 L116.996 815.836 L116.996 789.47 L108.686 791.137 L108.686 786.878 L116.95 785.211 L121.626 785.211 L121.626 815.836 L129.265 815.836 L129.265 819.771 L109.358 819.771 L109.358 815.836 Z" fill="#000000" fill-rule="evenodd" fill-opacity="1" /><path clip-path="url(#clip450)" d="M 0 0 M134.334 813.892 L139.219 813.892 L139.219 819.771 L134.334 819.771 L134.334 813.892 Z" fill="#000000" fill-rule="evenodd" fill-opacity="1" /><path clip-path="url(#clip450)" d="M 0 0 M148.316 815.836 L164.635 815.836 L164.635 819.771 L142.691 819.771 L142.691 815.836 Q145.353 813.081 149.936 808.452 Q154.543 803.799 155.723 802.456 Q157.968 799.933 158.848 798.197 Q159.751 796.438 159.751 794.748 Q159.751 791.993 157.806 790.257 Q155.885 788.521 152.783 788.521 Q150.584 788.521 148.131 789.285 Q145.7 790.049 142.922 791.6 L142.922 786.878 Q145.746 785.744 148.2 785.165 Q150.654 784.586 152.691 784.586 Q158.061 784.586 161.255 787.271 Q164.45 789.956 164.45 794.447 Q164.45 796.577 163.64 798.498 Q162.853 800.396 160.746 802.989 Q160.168 803.66 157.066 806.878 Q153.964 810.072 148.316 815.836 Z" fill="#000000" fill-rule="evenodd" fill-opacity="1" /><path clip-path="url(#clip450)" d="M 0 0 M169.751 785.211 L188.107 785.211 L188.107 789.146 L174.033 789.146 L174.033 797.618 Q175.052 797.271 176.07 797.109 Q177.089 796.924 178.107 796.924 Q183.894 796.924 187.274 800.095 Q190.653 803.267 190.653 808.683 Q190.653 814.262 187.181 817.364 Q183.709 820.442 177.39 820.442 Q175.214 820.442 172.945 820.072 Q170.7 819.702 168.292 818.961 L168.292 814.262 Q170.376 815.396 172.598 815.952 Q174.82 816.507 177.297 816.507 Q181.302 816.507 183.64 814.401 Q185.978 812.294 185.978 808.683 Q185.978 805.072 183.64 802.966 Q181.302 800.859 177.297 800.859 Q175.422 800.859 173.547 801.276 Q171.695 801.692 169.751 802.572 L169.751 785.211 Z" fill="#000000" fill-rule="evenodd" fill-opacity="1" /><path clip-path="url(#clip450)" d="M 0 0 M62.9921 540.983 L75.4689 540.983 L75.4689 544.779 L62.9921 544.779 L62.9921 540.983 Z" fill="#000000" fill-rule="evenodd" fill-opacity="1" /><path clip-path="url(#clip450)" d="M 0 0 M84.5661 551.932 L100.885 551.932 L100.885 555.867 L78.9411 555.867 L78.9411 551.932 Q81.6031 549.178 86.1864 544.548 Q90.7929 539.895 91.9735 538.553 Q94.2188 536.03 95.0984 534.293 Q96.0012 532.534 96.0012 530.844 Q96.0012 528.09 94.0568 526.354 Q92.1355 524.618 89.0337 524.618 Q86.8346 524.618 84.3809 525.381 Q81.9504 526.145 79.1726 527.696 L79.1726 522.974 Q81.9967 521.84 84.4503 521.261 Q86.904 520.682 88.9411 520.682 Q94.3114 520.682 97.5058 523.368 Q100.7 526.053 100.7 530.543 Q100.7 532.673 99.8901 534.594 Q99.103 536.492 96.9966 539.085 Q96.4179 539.756 93.316 542.974 Q90.2142 546.168 84.5661 551.932 Z" fill="#000000" fill-rule="evenodd" fill-opacity="1" /><path clip-path="url(#clip450)" d="M 0 0 M106.765 551.932 L114.404 551.932 L114.404 525.567 L106.094 527.233 L106.094 522.974 L114.358 521.307 L119.033 521.307 L119.033 551.932 L126.672 551.932 L126.672 555.867 L106.765 555.867 L106.765 551.932 Z" fill="#000000" fill-rule="evenodd" fill-opacity="1" /><path clip-path="url(#clip450)" d="M 0 0 M131.742 549.988 L136.626 549.988 L136.626 555.867 L131.742 555.867 L131.742 549.988 Z" fill="#000000" fill-rule="evenodd" fill-opacity="1" /><path clip-path="url(#clip450)" d="M 0 0 M151.695 524.386 Q148.084 524.386 146.256 527.951 Q144.45 531.493 144.45 538.622 Q144.45 545.729 146.256 549.293 Q148.084 552.835 151.695 552.835 Q155.33 552.835 157.135 549.293 Q158.964 545.729 158.964 538.622 Q158.964 531.493 157.135 527.951 Q155.33 524.386 151.695 524.386 M151.695 520.682 Q157.506 520.682 160.561 525.289 Q163.64 529.872 163.64 538.622 Q163.64 547.349 160.561 551.955 Q157.506 556.539 151.695 556.539 Q145.885 556.539 142.807 551.955 Q139.751 547.349 139.751 538.622 Q139.751 529.872 142.807 525.289 Q145.885 520.682 151.695 520.682 Z" fill="#000000" fill-rule="evenodd" fill-opacity="1" /><path clip-path="url(#clip450)" d="M 0 0 M178.709 524.386 Q175.098 524.386 173.269 527.951 Q171.464 531.493 171.464 538.622 Q171.464 545.729 173.269 549.293 Q175.098 552.835 178.709 552.835 Q182.343 552.835 184.149 549.293 Q185.978 545.729 185.978 538.622 Q185.978 531.493 184.149 527.951 Q182.343 524.386 178.709 524.386 M178.709 520.682 Q184.519 520.682 187.575 525.289 Q190.653 529.872 190.653 538.622 Q190.653 547.349 187.575 551.955 Q184.519 556.539 178.709 556.539 Q172.899 556.539 169.82 551.955 Q166.765 547.349 166.765 538.622 Q166.765 529.872 169.82 525.289 Q172.899 520.682 178.709 520.682 Z" fill="#000000" fill-rule="evenodd" fill-opacity="1" /><path clip-path="url(#clip450)" d="M 0 0 M63.6634 277.08 L76.1402 277.08 L76.1402 280.876 L63.6634 280.876 L63.6634 277.08 Z" fill="#000000" fill-rule="evenodd" fill-opacity="1" /><path clip-path="url(#clip450)" d="M 0 0 M85.2374 288.029 L101.557 288.029 L101.557 291.964 L79.6124 291.964 L79.6124 288.029 Q82.2744 285.274 86.8577 280.644 Q91.4642 275.992 92.6447 274.649 Q94.8901 272.126 95.7697 270.39 Q96.6725 268.63 96.6725 266.941 Q96.6725 264.186 94.7281 262.45 Q92.8068 260.714 89.7049 260.714 Q87.5059 260.714 85.0522 261.478 Q82.6217 262.242 79.8439 263.793 L79.8439 259.07 Q82.6679 257.936 85.1216 257.357 Q87.5753 256.779 89.6124 256.779 Q94.9827 256.779 98.1771 259.464 Q101.372 262.149 101.372 266.64 Q101.372 268.769 100.561 270.691 Q99.7743 272.589 97.6679 275.181 Q97.0892 275.853 93.9873 279.07 Q90.8855 282.265 85.2374 288.029 Z" fill="#000000" fill-rule="evenodd" fill-opacity="1" /><path clip-path="url(#clip450)" d="M 0 0 M116.626 260.482 Q113.015 260.482 111.186 264.047 Q109.381 267.589 109.381 274.718 Q109.381 281.825 111.186 285.39 Q113.015 288.931 116.626 288.931 Q120.26 288.931 122.066 285.39 Q123.895 281.825 123.895 274.718 Q123.895 267.589 122.066 264.047 Q120.26 260.482 116.626 260.482 M116.626 256.779 Q122.436 256.779 125.492 261.385 Q128.57 265.968 128.57 274.718 Q128.57 283.445 125.492 288.052 Q122.436 292.635 116.626 292.635 Q110.816 292.635 107.737 288.052 Q104.682 283.445 104.682 274.718 Q104.682 265.968 107.737 261.385 Q110.816 256.779 116.626 256.779 Z" fill="#000000" fill-rule="evenodd" fill-opacity="1" /><path clip-path="url(#clip450)" d="M 0 0 M133.64 286.084 L138.524 286.084 L138.524 291.964 L133.64 291.964 L133.64 286.084 Z" fill="#000000" fill-rule="evenodd" fill-opacity="1" /><path clip-path="url(#clip450)" d="M 0 0 M142.413 257.404 L164.635 257.404 L164.635 259.394 L152.089 291.964 L147.205 291.964 L159.01 261.339 L142.413 261.339 L142.413 257.404 Z" fill="#000000" fill-rule="evenodd" fill-opacity="1" /><path clip-path="url(#clip450)" d="M 0 0 M169.751 257.404 L188.107 257.404 L188.107 261.339 L174.033 261.339 L174.033 269.811 Q175.052 269.464 176.07 269.302 Q177.089 269.117 178.107 269.117 Q183.894 269.117 187.274 272.288 Q190.653 275.459 190.653 280.876 Q190.653 286.454 187.181 289.556 Q183.709 292.635 177.39 292.635 Q175.214 292.635 172.945 292.265 Q170.7 291.894 168.292 291.154 L168.292 286.454 Q170.376 287.589 172.598 288.144 Q174.82 288.7 177.297 288.7 Q181.302 288.7 183.64 286.593 Q185.978 284.487 185.978 280.876 Q185.978 277.265 183.64 275.158 Q181.302 273.052 177.297 273.052 Q175.422 273.052 173.547 273.468 Q171.695 273.885 169.751 274.765 L169.751 257.404 Z" fill="#000000" fill-rule="evenodd" fill-opacity="1" /><path clip-path="url(#clip450)" d="M 0 0 M955.877 62.208 L936.085 10.368 L943.411 10.368 L959.835 54.0136 L976.293 10.368 L983.585 10.368 L963.828 62.208 L955.877 62.208 Z" fill="#000000" fill-rule="evenodd" fill-opacity="1" /><path clip-path="url(#clip450)" d="M 0 0 M1002.44 42.6595 Q994.696 42.6595 991.71 44.4303 Q988.724 46.2011 988.724 50.472 Q988.724 53.8747 990.946 55.8886 Q993.203 57.8677 997.057 57.8677 Q1002.37 57.8677 1005.56 54.1178 Q1008.79 50.3331 1008.79 44.0831 L1008.79 42.6595 L1002.44 42.6595 M1015.18 40.0206 L1015.18 62.208 L1008.79 62.208 L1008.79 56.3053 Q1006.61 59.8469 1003.34 61.5483 Q1000.08 63.2149 995.356 63.2149 Q989.383 63.2149 985.842 59.8816 Q982.335 56.5136 982.335 50.8886 Q982.335 44.3262 986.71 40.9928 Q991.119 37.6595 999.835 37.6595 L1008.79 37.6595 L1008.79 37.0345 Q1008.79 32.6248 1005.88 30.229 Q1002.99 27.7985 997.751 27.7985 Q994.418 27.7985 991.258 28.5971 Q988.099 29.3957 985.182 30.9929 L985.182 25.0901 Q988.689 23.736 991.988 23.0763 Q995.286 22.3818 998.411 22.3818 Q1006.85 22.3818 1011.02 26.7568 Q1015.18 31.1318 1015.18 40.0206 Z" fill="#000000" fill-rule="evenodd" fill-opacity="1" /><path clip-path="url(#clip450)" d="M 0 0 M1021.88 8.18051 L1028.27 8.18051 L1028.27 62.208 L1021.88 62.208 L1021.88 8.18051 Z" fill="#000000" fill-rule="evenodd" fill-opacity="1" /><path clip-path="url(#clip450)" d="M 0 0 M1034.31 46.8609 L1034.31 23.3193 L1040.7 23.3193 L1040.7 46.6178 Q1040.7 52.1386 1042.86 54.9164 Q1045.01 57.6594 1049.31 57.6594 Q1054.49 57.6594 1057.47 54.3608 Q1060.49 51.0622 1060.49 45.3678 L1060.49 23.3193 L1066.88 23.3193 L1066.88 62.208 L1060.49 62.208 L1060.49 56.2358 Q1058.17 59.7775 1055.08 61.5136 Q1052.02 63.2149 1047.96 63.2149 Q1041.26 63.2149 1037.79 59.0483 Q1034.31 54.8817 1034.31 46.8609 M1050.39 22.3818 L1050.39 22.3818 Z" fill="#000000" fill-rule="evenodd" fill-opacity="1" /><path clip-path="url(#clip450)" d="M 0 0 M1106.85 41.1664 L1106.85 44.2914 L1077.47 44.2914 Q1077.89 50.8886 1081.43 54.3608 Q1085.01 57.7983 1091.36 57.7983 Q1095.04 57.7983 1098.48 56.8955 Q1101.95 55.9928 1105.35 54.1872 L1105.35 60.2288 Q1101.92 61.6872 1098.31 62.4511 Q1094.7 63.2149 1090.98 63.2149 Q1081.67 63.2149 1076.22 57.7983 Q1070.81 52.3817 1070.81 43.1456 Q1070.81 33.597 1075.95 28.0068 Q1081.12 22.3818 1089.87 22.3818 Q1097.72 22.3818 1102.26 27.4512 Q1106.85 32.4859 1106.85 41.1664 M1100.46 39.2915 Q1100.39 34.0484 1097.51 30.9234 Q1094.66 27.7985 1089.94 27.7985 Q1084.59 27.7985 1081.36 30.8193 Q1078.17 33.8401 1077.68 39.3262 L1100.46 39.2915 Z" fill="#000000" fill-rule="evenodd" fill-opacity="1" /><path clip-path="url(#clip450)" d="M 0 0 M1155.84 8.18051 L1155.84 13.493 L1149.73 13.493 Q1146.29 13.493 1144.94 14.8819 Q1143.62 16.2707 1143.62 19.8818 L1143.62 23.3193 L1154.14 23.3193 L1154.14 28.2846 L1143.62 28.2846 L1143.62 62.208 L1137.2 62.208 L1137.2 28.2846 L1131.08 28.2846 L1131.08 23.3193 L1137.2 23.3193 L1137.2 20.611 Q1137.2 14.118 1140.22 11.1666 Q1143.24 8.18051 1149.8 8.18051 L1155.84 8.18051 Z" fill="#000000" fill-rule="evenodd" fill-opacity="1" /><path clip-path="url(#clip450)" d="M 0 0 M1161.88 46.8609 L1161.88 23.3193 L1168.27 23.3193 L1168.27 46.6178 Q1168.27 52.1386 1170.42 54.9164 Q1172.58 57.6594 1176.88 57.6594 Q1182.06 57.6594 1185.04 54.3608 Q1188.06 51.0622 1188.06 45.3678 L1188.06 23.3193 L1194.45 23.3193 L1194.45 62.208 L1188.06 62.208 L1188.06 56.2358 Q1185.74 59.7775 1182.65 61.5136 Q1179.59 63.2149 1175.53 63.2149 Q1168.83 63.2149 1165.35 59.0483 Q1161.88 54.8817 1161.88 46.8609 M1177.96 22.3818 L1177.96 22.3818 Z" fill="#000000" fill-rule="evenodd" fill-opacity="1" /><path clip-path="url(#clip450)" d="M 0 0 M1233.48 38.7359 L1233.48 62.208 L1227.09 62.208 L1227.09 38.9442 Q1227.09 33.4234 1224.94 30.6804 Q1222.78 27.9374 1218.48 27.9374 Q1213.31 27.9374 1210.32 31.2359 Q1207.33 34.5345 1207.33 40.229 L1207.33 62.208 L1200.91 62.208 L1200.91 23.3193 L1207.33 23.3193 L1207.33 29.361 Q1209.63 25.854 1212.72 24.1179 Q1215.84 22.3818 1219.9 22.3818 Q1226.6 22.3818 1230.04 26.5485 Q1233.48 30.6804 1233.48 38.7359 Z" fill="#000000" fill-rule="evenodd" fill-opacity="1" /><path clip-path="url(#clip450)" d="M 0 0 M1268.17 24.8124 L1268.17 30.7846 Q1265.46 29.2915 1262.72 28.5623 Q1260.01 27.7985 1257.23 27.7985 Q1251.01 27.7985 1247.58 31.7568 Q1244.14 35.6804 1244.14 42.7984 Q1244.14 49.9164 1247.58 53.8747 Q1251.01 57.7983 1257.23 57.7983 Q1260.01 57.7983 1262.72 57.0691 Q1265.46 56.3053 1268.17 54.8122 L1268.17 60.715 Q1265.49 61.9649 1262.61 62.5899 Q1259.76 63.2149 1256.53 63.2149 Q1247.75 63.2149 1242.58 57.6941 Q1237.4 52.1733 1237.4 42.7984 Q1237.4 33.2845 1242.61 27.8332 Q1247.85 22.3818 1256.95 22.3818 Q1259.9 22.3818 1262.72 23.0068 Q1265.53 23.5971 1268.17 24.8124 Z" fill="#000000" fill-rule="evenodd" fill-opacity="1" /><path clip-path="url(#clip450)" d="M 0 0 M1281.19 12.2777 L1281.19 23.3193 L1294.35 23.3193 L1294.35 28.2846 L1281.19 28.2846 L1281.19 49.3956 Q1281.19 54.1525 1282.47 55.5066 Q1283.79 56.8608 1287.78 56.8608 L1294.35 56.8608 L1294.35 62.208 L1287.78 62.208 Q1280.39 62.208 1277.58 59.465 Q1274.76 56.6872 1274.76 49.3956 L1274.76 28.2846 L1270.08 28.2846 L1270.08 23.3193 L1274.76 23.3193 L1274.76 12.2777 L1281.19 12.2777 Z" fill="#000000" fill-rule="evenodd" fill-opacity="1" /><path clip-path="url(#clip450)" d="M 0 0 M1301.05 23.3193 L1307.44 23.3193 L1307.44 62.208 L1301.05 62.208 L1301.05 23.3193 M1301.05 8.18051 L1307.44 8.18051 L1307.44 16.2707 L1301.05 16.2707 L1301.05 8.18051 Z" fill="#000000" fill-rule="evenodd" fill-opacity="1" /><path clip-path="url(#clip450)" d="M 0 0 M1329.21 27.7985 Q1324.07 27.7985 1321.08 31.8262 Q1318.1 35.8193 1318.1 42.7984 Q1318.1 49.7775 1321.05 53.8053 Q1324.03 57.7983 1329.21 57.7983 Q1334.31 57.7983 1337.3 53.7705 Q1340.28 49.7428 1340.28 42.7984 Q1340.28 35.8887 1337.3 31.8609 Q1334.31 27.7985 1329.21 27.7985 M1329.21 22.3818 Q1337.54 22.3818 1342.3 27.7985 Q1347.06 33.2151 1347.06 42.7984 Q1347.06 52.3469 1342.3 57.7983 Q1337.54 63.2149 1329.21 63.2149 Q1320.84 63.2149 1316.08 57.7983 Q1311.36 52.3469 1311.36 42.7984 Q1311.36 33.2151 1316.08 27.7985 Q1320.84 22.3818 1329.21 22.3818 Z" fill="#000000" fill-rule="evenodd" fill-opacity="1" /><path clip-path="url(#clip450)" d="M 0 0 M1386.08 38.7359 L1386.08 62.208 L1379.69 62.208 L1379.69 38.9442 Q1379.69 33.4234 1377.54 30.6804 Q1375.39 27.9374 1371.08 27.9374 Q1365.91 27.9374 1362.92 31.2359 Q1359.94 34.5345 1359.94 40.229 L1359.94 62.208 L1353.51 62.208 L1353.51 23.3193 L1359.94 23.3193 L1359.94 29.361 Q1362.23 25.854 1365.32 24.1179 Q1368.44 22.3818 1372.51 22.3818 Q1379.21 22.3818 1382.65 26.5485 Q1386.08 30.6804 1386.08 38.7359 Z" fill="#000000" fill-rule="evenodd" fill-opacity="1" /><path clip-path="url(#clip450)" d="M 0 0 M1410.8 23.3193 L1417.58 23.3193 L1429.73 55.958 L1441.88 23.3193 L1448.65 23.3193 L1434.07 62.208 L1425.39 62.208 L1410.8 23.3193 Z" fill="#000000" fill-rule="evenodd" fill-opacity="1" /><path clip-path="url(#clip450)" d="M 0 0 M1470.42 27.7985 Q1465.28 27.7985 1462.3 31.8262 Q1459.31 35.8193 1459.31 42.7984 Q1459.31 49.7775 1462.26 53.8053 Q1465.25 57.7983 1470.42 57.7983 Q1475.53 57.7983 1478.51 53.7705 Q1481.5 49.7428 1481.5 42.7984 Q1481.5 35.8887 1478.51 31.8609 Q1475.53 27.7985 1470.42 27.7985 M1470.42 22.3818 Q1478.76 22.3818 1483.51 27.7985 Q1488.27 33.2151 1488.27 42.7984 Q1488.27 52.3469 1483.51 57.7983 Q1478.76 63.2149 1470.42 63.2149 Q1462.05 63.2149 1457.3 57.7983 Q1452.58 52.3469 1452.58 42.7984 Q1452.58 33.2151 1457.3 27.7985 Q1462.05 22.3818 1470.42 22.3818 Z" fill="#000000" fill-rule="evenodd" fill-opacity="1" /><path clip-path="url(#clip450)" d="M 0 0 M1510.32 8.24996 Q1505.67 16.236 1503.41 24.0485 Q1501.15 31.8609 1501.15 39.8817 Q1501.15 47.9025 1503.41 55.7844 Q1505.7 63.6316 1510.32 71.5829 L1504.76 71.5829 Q1499.55 63.4233 1496.95 55.5414 Q1494.38 47.6595 1494.38 39.8817 Q1494.38 32.1387 1496.95 24.2915 Q1499.52 16.4444 1504.76 8.24996 L1510.32 8.24996 Z" fill="#000000" fill-rule="evenodd" fill-opacity="1" /><path clip-path="url(#clip450)" d="M 0 0 M1524.31 37.4512 L1524.31 56.4441 L1535.56 56.4441 Q1541.22 56.4441 1543.93 54.1178 Q1546.67 51.7567 1546.67 46.9303 Q1546.67 42.0692 1543.93 39.7776 Q1541.22 37.4512 1535.56 37.4512 L1524.31 37.4512 M1524.31 16.1319 L1524.31 31.7568 L1534.69 31.7568 Q1539.83 31.7568 1542.33 29.8471 Q1544.87 27.9026 1544.87 23.9443 Q1544.87 20.0207 1542.33 18.0763 Q1539.83 16.1319 1534.69 16.1319 L1524.31 16.1319 M1517.3 10.368 L1535.21 10.368 Q1543.23 10.368 1547.57 13.7013 Q1551.92 17.0346 1551.92 23.1804 Q1551.92 27.9374 1549.69 30.7498 Q1547.47 33.5623 1543.17 34.2568 Q1548.34 35.3679 1551.19 38.9095 Q1554.07 42.4164 1554.07 47.6942 Q1554.07 54.6386 1549.35 58.4233 Q1544.62 62.208 1535.91 62.208 L1517.3 62.208 L1517.3 10.368 Z" fill="#000000" fill-rule="evenodd" fill-opacity="1" /><path clip-path="url(#clip450)" d="M 0 0 M1562.4 53.3886 L1569.73 53.3886 L1569.73 59.3608 L1564.03 70.4718 L1559.55 70.4718 L1562.4 59.3608 L1562.4 53.3886 Z" fill="#000000" fill-rule="evenodd" fill-opacity="1" /><path clip-path="url(#clip450)" d="M 0 0 M1592.61 65.8191 Q1589.9 72.7635 1587.33 74.8815 Q1584.76 76.9996 1580.46 76.9996 L1575.35 76.9996 L1575.35 71.6524 L1579.1 71.6524 Q1581.74 71.6524 1583.2 70.4024 Q1584.66 69.1524 1586.43 64.4997 L1587.57 61.583 L1571.85 23.3193 L1578.62 23.3193 L1590.77 53.7358 L1602.92 23.3193 L1609.69 23.3193 L1592.61 65.8191 Z" fill="#000000" fill-rule="evenodd" fill-opacity="1" /><path clip-path="url(#clip450)" d="M 0 0 M1615.39 8.24996 L1620.94 8.24996 Q1626.15 16.4444 1628.72 24.2915 Q1631.32 32.1387 1631.32 39.8817 Q1631.32 47.6595 1628.72 55.5414 Q1626.15 63.4233 1620.94 71.5829 L1615.39 71.5829 Q1620 63.6316 1622.26 55.7844 Q1624.55 47.9025 1624.55 39.8817 Q1624.55 31.8609 1622.26 24.0485 Q1620 16.236 1615.39 8.24996 Z" fill="#000000" fill-rule="evenodd" fill-opacity="1" /><path clip-path="url(#clip450)" d="M 0 0 M1273.28 1533.35 L1273.28 1550.76 L1283.59 1550.76 Q1288.78 1550.76 1291.26 1548.63 Q1293.78 1546.46 1293.78 1542.04 Q1293.78 1537.58 1291.26 1535.48 Q1288.78 1533.35 1283.59 1533.35 L1273.28 1533.35 M1273.28 1513.81 L1273.28 1528.13 L1282.8 1528.13 Q1287.51 1528.13 1289.8 1526.38 Q1292.12 1524.6 1292.12 1520.97 Q1292.12 1517.37 1289.8 1515.59 Q1287.51 1513.81 1282.8 1513.81 L1273.28 1513.81 M1266.85 1508.52 L1283.28 1508.52 Q1290.63 1508.52 1294.61 1511.58 Q1298.58 1514.63 1298.58 1520.27 Q1298.58 1524.63 1296.55 1527.21 Q1294.51 1529.79 1290.56 1530.42 Q1295.31 1531.44 1297.92 1534.69 Q1300.56 1537.9 1300.56 1542.74 Q1300.56 1549.11 1296.23 1552.57 Q1291.9 1556.04 1283.91 1556.04 L1266.85 1556.04 L1266.85 1508.52 Z" fill="#000000" fill-rule="evenodd" fill-opacity="1" /><polyline clip-path="url(#clip452)" style="stroke:#ff0000; stroke-width:4.6; stroke-opacity:1; fill:none" points="
  275.166,1386.15 285.952,1386.15 296.739,1386.15 307.525,1386.15 318.312,1386.15 329.098,1386.15 339.885,1386.15 350.671,1386.15 361.458,1386.15 372.244,1386.15 
  383.031,1386.15 393.817,1386.15 404.604,1386.15 415.39,1386.15 426.177,1386.15 436.963,1386.15 447.75,1386.15 458.537,1386.15 469.323,1386.15 480.11,1386.15 
  490.896,1386.15 501.683,1386.15 512.469,1386.15 523.256,1386.15 534.042,1386.15 544.829,1386.15 555.615,1386.15 566.402,1386.15 577.188,1386.15 587.975,1386.15 
  598.761,1386.15 609.548,1386.15 620.334,1386.15 631.121,1386.15 641.907,1386.15 652.694,1386.15 663.48,1386.15 674.267,1386.15 685.053,1386.15 695.84,1386.15 
  706.626,1386.15 717.413,1386.15 728.199,1386.15 738.986,1386.15 749.772,1386.15 760.559,1386.15 771.345,1386.15 782.132,1386.15 792.918,1386.15 803.705,1386.15 
  814.491,1386.15 825.278,1386.15 836.064,1386.15 846.851,1386.15 857.637,1386.15 868.424,1386.15 879.21,1386.15 889.997,1386.15 900.784,1386.15 911.57,1386.15 
  922.357,1386.15 933.143,1386.15 943.93,1386.15 954.716,1386.15 965.503,1386.15 976.289,1386.15 987.076,1386.15 997.862,1386.15 1008.65,1386.15 1019.44,1386.15 
  1030.22,1386.15 1041.01,1386.15 1051.79,1386.15 1062.58,1386.15 1073.37,1386.15 1084.15,1386.15 1094.94,1386.15 1105.73,1386.15 1116.51,1386.15 1127.3,1386.15 
  1138.09,1386.15 1148.87,1386.15 1159.66,1386.15 1170.45,1386.15 1181.23,1386.15 1192.02,1386.15 1202.81,1386.15 1213.59,1386.15 1224.38,1386.15 1235.17,1386.15 
  1245.95,1386.15 1256.74,1386.15 1267.52,1386.15 1278.31,1386.15 1289.1,1386.15 1299.88,1386.15 1310.67,1386.15 1321.46,1386.15 1332.24,1386.15 1343.03,1386.15 
  1353.82,1386.15 1364.6,1386.15 1375.39,1386.15 1386.18,1386.15 1396.96,1386.15 1407.75,1386.15 1418.54,1386.15 1429.32,1386.15 1440.11,1386.15 1450.9,1386.15 
  1461.68,1386.15 1472.47,1386.15 1483.26,1386.15 1494.04,1386.15 1504.83,1386.15 1515.61,1386.15 1526.4,1386.15 1537.19,1386.15 1547.97,1386.15 1558.76,1386.15 
  1569.55,1386.15 1580.33,1386.15 1591.12,1386.15 1601.91,1386.15 1612.69,1386.15 1623.48,1386.15 1634.27,1386.15 1645.05,1386.15 1655.84,1386.15 1666.63,1386.15 
  1677.41,1386.15 1688.2,1386.15 1698.99,1386.15 1709.77,1386.15 1720.56,1386.15 1731.34,1386.15 1742.13,1386.15 1752.92,1386.15 1763.7,1386.15 1774.49,1386.15 
  1785.28,1386.15 1796.06,1386.15 1806.85,1386.15 1817.64,1386.15 1828.42,1386.15 1839.21,1386.15 1850,1386.15 1860.78,1386.15 1871.57,1386.15 1882.36,1386.15 
  1893.14,1386.15 1903.93,1386.15 1914.72,1386.15 1925.5,1386.15 1936.29,1386.15 1947.08,1386.15 1957.86,1386.15 1968.65,1386.15 1979.43,1386.15 1990.22,1386.15 
  2001.01,1386.15 2011.79,1386.15 2022.58,1386.15 2033.37,1386.15 2044.15,1386.15 2054.94,1386.15 2065.73,1386.15 2076.51,1386.15 2087.3,1386.15 2098.09,1386.15 
  2108.87,1386.15 2119.66,1386.15 2130.45,1386.15 2141.23,1386.15 2152.02,1386.15 2162.81,1386.15 2173.59,1385.92 2184.38,1384.01 2195.16,1382.12 2205.95,1380.22 
  2216.74,1378.34 2227.52,1376.46 2238.31,1374.58 2249.1,1372.72 2259.88,1370.86 2270.67,1369 2281.46,1367.15 2292.24,1365.31 
  "/>
<polyline clip-path="url(#clip452)" style="stroke:#0000ff; stroke-width:4.6; stroke-opacity:1; fill:none" stroke-dasharray="18, 12" points="
  275.166,428.029 285.952,428.029 296.739,428.029 307.525,428.029 318.312,428.029 329.098,428.029 339.885,428.029 350.671,428.029 361.458,428.029 372.244,428.029 
  383.031,428.029 393.817,428.029 404.604,428.029 415.39,427.349 426.177,425.395 436.963,423.449 447.75,421.509 458.537,419.575 469.323,417.648 480.11,415.728 
  490.896,413.814 501.683,411.907 512.469,410.006 523.256,408.111 534.042,406.223 544.829,404.342 555.615,402.467 566.402,400.598 577.188,398.735 587.975,396.878 
  598.761,395.028 609.548,393.184 620.334,391.346 631.121,389.514 641.907,387.689 652.694,385.869 663.48,384.056 674.267,382.248 685.053,380.446 695.84,378.651 
  706.626,376.861 717.413,375.077 728.199,373.299 738.986,371.527 749.772,369.76 760.559,367.999 771.345,366.245 782.132,364.495 792.918,362.752 803.705,361.014 
  814.491,359.282 825.278,357.555 836.064,355.834 846.851,354.118 857.637,352.408 868.424,350.704 879.21,349.005 889.997,347.311 900.784,345.623 911.57,343.94 
  922.357,342.263 933.143,340.59 943.93,338.924 954.716,337.262 965.503,335.606 976.289,333.955 987.076,332.309 997.862,330.668 1008.65,329.033 1019.44,327.403 
  1030.22,325.777 1041.01,324.157 1051.79,322.542 1062.58,320.932 1073.37,319.327 1084.15,317.727 1094.94,316.132 1105.73,314.542 1116.51,312.957 1127.3,311.377 
  1138.09,309.801 1148.87,308.231 1159.66,306.665 1170.45,305.104 1181.23,303.548 1192.02,301.997 1202.81,300.45 1213.59,298.908 1224.38,297.371 1235.17,295.839 
  1245.95,294.311 1256.74,292.788 1267.52,291.265 1278.31,289.745 1289.1,288.227 1299.88,286.71 1310.67,285.196 1321.46,283.683 1332.24,282.173 1343.03,280.664 
  1353.82,279.157 1364.6,277.653 1375.39,276.149 1386.18,274.648 1396.96,273.149 1407.75,271.651 1418.54,270.156 1429.32,268.661 1440.11,267.169 1450.9,265.678 
  1461.68,264.188 1472.47,262.698 1483.26,261.2 1494.04,259.698 1504.83,258.199 1515.61,256.67 1526.4,255.099 1537.19,253.533 1547.97,251.972 1558.76,250.416 
  1569.55,248.864 1580.33,247.317 1591.12,245.775 1601.91,244.238 1612.69,242.705 1623.48,241.177 1634.27,239.654 1645.05,238.135 1655.84,236.621 1666.63,235.112 
  1677.41,233.607 1688.2,232.106 1698.99,230.61 1709.77,229.119 1720.56,227.632 1731.34,226.149 1742.13,224.671 1752.92,223.197 1763.7,221.728 1774.49,220.263 
  1785.28,218.803 1796.06,217.346 1806.85,215.893 1817.64,214.442 1828.42,212.992 1839.21,211.544 1850,210.098 1860.78,208.65 1871.57,207.206 1882.36,205.763 
  1893.14,204.321 1903.93,202.882 1914.72,201.444 1925.5,200.007 1936.29,198.573 1947.08,197.139 1957.86,195.708 1968.65,194.278 1979.43,192.848 1990.22,191.421 
  2001.01,189.995 2011.79,188.57 2022.58,187.147 2033.37,185.726 2044.15,184.305 2054.94,182.885 2065.73,181.466 2076.51,180.05 2087.3,178.633 2098.09,177.218 
  2108.87,175.805 2119.66,174.393 2130.45,172.982 2141.23,171.572 2152.02,170.164 2162.81,168.757 2173.59,167.351 2184.38,165.947 2195.16,164.524 2205.95,163.104 
  2216.74,161.689 2227.52,160.277 2238.31,158.87 2249.1,157.465 2259.88,156.062 2270.67,154.66 2281.46,153.26 2292.24,151.861 
  "/>
<path clip-path="url(#clip450)" d="
M286.653 379.792 L652.394 379.792 L652.394 198.352 L286.653 198.352  Z
  " fill="#000000" fill-rule="evenodd" fill-opacity="0"/>
<polyline clip-path="url(#clip450)" style="stroke:#000000; stroke-width:4; stroke-opacity:0; fill:none" points="
  286.653,379.792 652.394,379.792 652.394,198.352 286.653,198.352 286.653,379.792 
  "/>
<polyline clip-path="url(#clip450)" style="stroke:#ff0000; stroke-width:4; stroke-opacity:1; fill:none" points="
  310.653,258.832 454.653,258.832 
  "/>
<path clip-path="url(#clip450)" d="M 0 0 M492.496 278.52 Q490.69 283.149 488.977 284.561 Q487.265 285.973 484.394 285.973 L480.991 285.973 L480.991 282.408 L483.491 282.408 Q485.251 282.408 486.223 281.575 Q487.195 280.742 488.376 277.64 L489.14 275.695 L478.653 250.186 L483.167 250.186 L491.269 270.464 L499.371 250.186 L503.885 250.186 L492.496 278.52 Z" fill="#000000" fill-rule="evenodd" fill-opacity="1" /><path clip-path="url(#clip450)" d="M 0 0 M505.366 261.228 L517.843 261.228 L517.843 265.024 L505.366 265.024 L505.366 261.228 Z" fill="#000000" fill-rule="evenodd" fill-opacity="1" /><path clip-path="url(#clip450)" d="M 0 0 M522.311 240.094 L526.57 240.094 L526.57 276.112 L522.311 276.112 L522.311 240.094 Z" fill="#000000" fill-rule="evenodd" fill-opacity="1" /><path clip-path="url(#clip450)" d="M 0 0 M541.084 253.172 Q537.658 253.172 535.667 255.858 Q533.676 258.52 533.676 263.172 Q533.676 267.825 535.644 270.51 Q537.635 273.172 541.084 273.172 Q544.486 273.172 546.477 270.487 Q548.468 267.802 548.468 263.172 Q548.468 258.566 546.477 255.881 Q544.486 253.172 541.084 253.172 M541.084 249.561 Q546.639 249.561 549.811 253.172 Q552.982 256.784 552.982 263.172 Q552.982 269.538 549.811 273.172 Q546.639 276.783 541.084 276.783 Q535.505 276.783 532.334 273.172 Q529.186 269.538 529.186 263.172 Q529.186 256.784 532.334 253.172 Q535.505 249.561 541.084 249.561 Z" fill="#000000" fill-rule="evenodd" fill-opacity="1" /><path clip-path="url(#clip450)" d="M 0 0 M554.973 250.186 L559.232 250.186 L564.556 270.418 L569.857 250.186 L574.88 250.186 L580.204 270.418 L585.505 250.186 L589.764 250.186 L582.982 276.112 L577.959 276.112 L572.38 254.862 L566.778 276.112 L561.755 276.112 L554.973 250.186 Z" fill="#000000" fill-rule="evenodd" fill-opacity="1" /><path clip-path="url(#clip450)" d="M 0 0 M590.482 270.233 L595.366 270.233 L595.366 276.112 L590.482 276.112 L590.482 270.233 Z" fill="#000000" fill-rule="evenodd" fill-opacity="1" /><polyline clip-path="url(#clip450)" style="stroke:#0000ff; stroke-width:4; stroke-opacity:1; fill:none" stroke-dasharray="16, 10" points="
  310.653,319.312 454.653,319.312 
  "/>
<path clip-path="url(#clip450)" d="M 0 0 M492.496 339 Q490.69 343.629 488.977 345.041 Q487.265 346.453 484.394 346.453 L480.991 346.453 L480.991 342.888 L483.491 342.888 Q485.251 342.888 486.223 342.055 Q487.195 341.222 488.376 338.12 L489.14 336.175 L478.653 310.666 L483.167 310.666 L491.269 330.944 L499.371 310.666 L503.885 310.666 L492.496 339 Z" fill="#000000" fill-rule="evenodd" fill-opacity="1" /><path clip-path="url(#clip450)" d="M 0 0 M505.366 321.708 L517.843 321.708 L517.843 325.504 L505.366 325.504 L505.366 321.708 Z" fill="#000000" fill-rule="evenodd" fill-opacity="1" /><path clip-path="url(#clip450)" d="M 0 0 M543.861 320.944 L543.861 336.592 L539.602 336.592 L539.602 321.083 Q539.602 317.402 538.167 315.574 Q536.732 313.745 533.862 313.745 Q530.412 313.745 528.422 315.944 Q526.431 318.143 526.431 321.939 L526.431 336.592 L522.149 336.592 L522.149 300.574 L526.431 300.574 L526.431 314.694 Q527.959 312.356 530.019 311.199 Q532.102 310.041 534.811 310.041 Q539.278 310.041 541.57 312.819 Q543.861 315.574 543.861 320.944 Z" fill="#000000" fill-rule="evenodd" fill-opacity="1" /><path clip-path="url(#clip450)" d="M 0 0 M548.329 310.666 L552.588 310.666 L552.588 336.592 L548.329 336.592 L548.329 310.666 M548.329 300.574 L552.588 300.574 L552.588 305.967 L548.329 305.967 L548.329 300.574 Z" fill="#000000" fill-rule="evenodd" fill-opacity="1" /><path clip-path="url(#clip450)" d="M 0 0 M574.116 323.328 Q574.116 318.699 572.195 316.152 Q570.297 313.606 566.847 313.606 Q563.422 313.606 561.5 316.152 Q559.602 318.699 559.602 323.328 Q559.602 327.935 561.5 330.481 Q563.422 333.027 566.847 333.027 Q570.297 333.027 572.195 330.481 Q574.116 327.935 574.116 323.328 M578.375 333.375 Q578.375 339.995 575.435 343.212 Q572.496 346.453 566.431 346.453 Q564.185 346.453 562.195 346.106 Q560.204 345.782 558.329 345.087 L558.329 340.944 Q560.204 341.962 562.033 342.449 Q563.861 342.935 565.759 342.935 Q569.949 342.935 572.033 340.736 Q574.116 338.56 574.116 334.138 L574.116 332.032 Q572.796 334.324 570.736 335.458 Q568.676 336.592 565.806 336.592 Q561.037 336.592 558.121 332.958 Q555.204 329.324 555.204 323.328 Q555.204 317.31 558.121 313.676 Q561.037 310.041 565.806 310.041 Q568.676 310.041 570.736 311.176 Q572.796 312.31 574.116 314.602 L574.116 310.666 L578.375 310.666 L578.375 333.375 Z" fill="#000000" fill-rule="evenodd" fill-opacity="1" /><path clip-path="url(#clip450)" d="M 0 0 M604.394 320.944 L604.394 336.592 L600.134 336.592 L600.134 321.083 Q600.134 317.402 598.699 315.574 Q597.264 313.745 594.394 313.745 Q590.945 313.745 588.954 315.944 Q586.963 318.143 586.963 321.939 L586.963 336.592 L582.681 336.592 L582.681 300.574 L586.963 300.574 L586.963 314.694 Q588.491 312.356 590.551 311.199 Q592.634 310.041 595.343 310.041 Q599.81 310.041 602.102 312.819 Q604.394 315.574 604.394 320.944 Z" fill="#000000" fill-rule="evenodd" fill-opacity="1" /></svg>
