<?xml version="1.0" encoding="utf-8"?>
<svg xmlns="http://www.w3.org/2000/svg" xmlns:xlink="http://www.w3.org/1999/xlink" width="600" height="400" viewBox="0 0 2400 1600">
<defs>
  <clipPath id="clip470">
    <rect x="0" y="0" width="2400" height="1600"/>
  </clipPath>
</defs>
<path clip-path="url(#clip470)" d="
M0 1600 L2400 1600 L2400 0 L0 0  Z
  " fill="#ffffff" fill-rule="evenodd" fill-opacity="1"/>
<defs>
  <clipPath id="clip471">
    <rect x="480" y="0" width="1681" height="1600"/>
  </clipPath>
</defs>
<path clip-path="url(#clip470)" d="
M151.899 1423.18 L2352.76 1423.18 L2352.76 47.2441 L151.899 47.2441  Z
  " fill="#ffffff" fill-rule="evenodd" fill-opacity="1"/>
<defs>
  <clipPath id="clip472">
    <rect x="151" y="47" width="2202" height="1377"/>
  </clipPath>
</defs>
<polyline clip-path="url(#clip472)" style="stroke:#000000; stroke-width:2; stroke-opacity:0.1; fill:none" points="
  629.444,1423.18 629.444,47.2441 
  "/>
<polyline clip-path="url(#clip472)" style="stroke:#000000; stroke-width:2; stroke-opacity:0.1; fill:none" points="
  1148.51,1423.18 1148.51,47.2441 
  "/>
<polyline clip-path="url(#clip472)" style="stroke:#000000; stroke-width:2; stroke-opacity:0.1; fill:none" points="
  1667.58,1423.18 1667.58,47.2441 
  "/>
<polyline clip-path="url(#clip472)" style="stroke:#000000; stroke-width:2; stroke-opacity:0.1; fill:none" points="
  2186.65,1423.18 2186.65,47.2441 
  "/>
<polyline clip-path="url(#clip472)" style="stroke:#000000; stroke-width:2; stroke-opacity:0.1; fill:none" points="
  151.899,1135.19 2352.76,1135.19 
  "/>
<polyline clip-path="url(#clip472)" style="stroke:#000000; stroke-width:2; stroke-opacity:0.1; fill:none" points="
  151.899,804.388 2352.76,804.388 
  "/>
<polyline clip-path="url(#clip472)" style="stroke:#000000; stroke-width:2; stroke-opacity:0.1; fill:none" points="
  151.899,473.591 2352.76,473.591 
  "/>
<polyline clip-path="url(#clip472)" style="stroke:#000000; stroke-width:2; stroke-opacity:0.1; fill:none" points="
  151.899,142.793 2352.76,142.793 
  "/>
<polyline clip-path="url(#clip470)" style="stroke:#000000; stroke-width:4; stroke-opacity:1; fill:none" points="
  151.899,1423.18 2352.76,1423.18 
  "/>
<polyline clip-path="url(#clip470)" style="stroke:#000000; stroke-width:4; stroke-opacity:1; fill:none" points="
  151.899,1423.18 151.899,47.2441 
  "/>
<polyline clip-path="url(#clip470)" style="stroke:#000000; stroke-width:4; stroke-opacity:1; fill:none" points="
  629.444,1423.18 629.444,1406.67 
  "/>
<polyline clip-path="url(#clip470)" style="stroke:#000000; stroke-width:4; stroke-opacity:1; fill:none" points="
  1148.51,1423.18 1148.51,1406.67 
  "/>
<polyline clip-path="url(#clip470)" style="stroke:#000000; stroke-width:4; stroke-opacity:1; fill:none" points="
  1667.58,1423.18 1667.58,1406.67 
  "/>
<polyline clip-path="url(#clip470)" style="stroke:#000000; stroke-width:4; stroke-opacity:1; fill:none" points="
  2186.65,1423.18 2186.65,1406.67 
  "/>
<polyline clip-path="url(#clip470)" style="stroke:#000000; stroke-width:4; stroke-opacity:1; fill:none" points="
  151.899,1135.19 178.309,1135.19 
  "/>
<polyline clip-path="url(#clip470)" style="stroke:#000000; stroke-width:4; stroke-opacity:1; fill:none" points="
  151.899,804.388 178.309,804.388 
  "/>
<polyline clip-path="url(#clip470)" style="stroke:#000000; stroke-width:4; stroke-opacity:1; fill:none" points="
  151.899,473.591 178.309,473.591 
  "/>
<polyline clip-path="url(#clip470)" style="stroke:#000000; stroke-width:4; stroke-opacity:1; fill:none" points="
  151.899,142.793 178.309,142.793 
  "/>
<path clip-path="url(#clip470)" d="M 0 0 M619.721 1442.09 L638.078 1442.09 L638.078 1446.03 L624.004 1446.03 L624.004 1454.5 Q625.022 1454.15 626.041 1453.99 Q627.059 1453.8 628.078 1453.8 Q633.865 1453.8 637.244 1456.98 Q640.624 1460.15 640.624 1465.56 Q640.624 1471.14 637.152 1474.24 Q633.68 1477.32 627.36 1477.32 Q625.184 1477.32 622.916 1476.95 Q620.67 1476.58 618.263 1475.84 L618.263 1471.14 Q620.346 1472.28 622.569 1472.83 Q624.791 1473.39 627.268 1473.39 Q631.272 1473.39 633.61 1471.28 Q635.948 1469.18 635.948 1465.56 Q635.948 1461.95 633.61 1459.85 Q631.272 1457.74 627.268 1457.74 Q625.393 1457.74 623.518 1458.16 Q621.666 1458.57 619.721 1459.45 L619.721 1442.09 Z" fill="#000000" fill-rule="evenodd" fill-opacity="1" /><path clip-path="url(#clip470)" d="M 0 0 M1125.39 1472.72 L1133.03 1472.72 L1133.03 1446.35 L1124.72 1448.02 L1124.72 1443.76 L1132.98 1442.09 L1137.66 1442.09 L1137.66 1472.72 L1145.3 1472.72 L1145.3 1476.65 L1125.39 1476.65 L1125.39 1472.72 Z" fill="#000000" fill-rule="evenodd" fill-opacity="1" /><path clip-path="url(#clip470)" d="M 0 0 M1160.37 1445.17 Q1156.75 1445.17 1154.93 1448.74 Q1153.12 1452.28 1153.12 1459.41 Q1153.12 1466.51 1154.93 1470.08 Q1156.75 1473.62 1160.37 1473.62 Q1164 1473.62 1165.81 1470.08 Q1167.63 1466.51 1167.63 1459.41 Q1167.63 1452.28 1165.81 1448.74 Q1164 1445.17 1160.37 1445.17 M1160.37 1441.47 Q1166.18 1441.47 1169.23 1446.07 Q1172.31 1450.66 1172.31 1459.41 Q1172.31 1468.13 1169.23 1472.74 Q1166.18 1477.32 1160.37 1477.32 Q1154.56 1477.32 1151.48 1472.74 Q1148.42 1468.13 1148.42 1459.41 Q1148.42 1450.66 1151.48 1446.07 Q1154.56 1441.47 1160.37 1441.47 Z" fill="#000000" fill-rule="evenodd" fill-opacity="1" /><path clip-path="url(#clip470)" d="M 0 0 M1644.96 1472.72 L1652.6 1472.72 L1652.6 1446.35 L1644.29 1448.02 L1644.29 1443.76 L1652.55 1442.09 L1657.22 1442.09 L1657.22 1472.72 L1664.86 1472.72 L1664.86 1476.65 L1644.96 1476.65 L1644.96 1472.72 Z" fill="#000000" fill-rule="evenodd" fill-opacity="1" /><path clip-path="url(#clip470)" d="M 0 0 M1669.98 1442.09 L1688.34 1442.09 L1688.34 1446.03 L1674.26 1446.03 L1674.26 1454.5 Q1675.28 1454.15 1676.3 1453.99 Q1677.32 1453.8 1678.34 1453.8 Q1684.12 1453.8 1687.5 1456.98 Q1690.88 1460.15 1690.88 1465.56 Q1690.88 1471.14 1687.41 1474.24 Q1683.94 1477.32 1677.62 1477.32 Q1675.44 1477.32 1673.17 1476.95 Q1670.93 1476.58 1668.52 1475.84 L1668.52 1471.14 Q1670.6 1472.28 1672.83 1472.83 Q1675.05 1473.39 1677.53 1473.39 Q1681.53 1473.39 1683.87 1471.28 Q1686.21 1469.18 1686.21 1465.56 Q1686.21 1461.95 1683.87 1459.85 Q1681.53 1457.74 1677.53 1457.74 Q1675.65 1457.74 1673.78 1458.16 Q1671.92 1458.57 1669.98 1459.45 L1669.98 1442.09 Z" fill="#000000" fill-rule="evenodd" fill-opacity="1" /><path clip-path="url(#clip470)" d="M 0 0 M2167.8 1472.72 L2184.12 1472.72 L2184.12 1476.65 L2162.17 1476.65 L2162.17 1472.72 Q2164.84 1469.96 2169.42 1465.33 Q2174.03 1460.68 2175.21 1459.34 Q2177.45 1456.81 2178.33 1455.08 Q2179.23 1453.32 2179.23 1451.63 Q2179.23 1448.87 2177.29 1447.14 Q2175.37 1445.4 2172.27 1445.4 Q2170.07 1445.4 2167.61 1446.17 Q2165.18 1446.93 2162.41 1448.48 L2162.41 1443.76 Q2165.23 1442.62 2167.68 1442.05 Q2170.14 1441.47 2172.17 1441.47 Q2177.54 1441.47 2180.74 1444.15 Q2183.93 1446.84 2183.93 1451.33 Q2183.93 1453.46 2183.12 1455.38 Q2182.34 1457.28 2180.23 1459.87 Q2179.65 1460.54 2176.55 1463.76 Q2173.45 1466.95 2167.8 1472.72 Z" fill="#000000" fill-rule="evenodd" fill-opacity="1" /><path clip-path="url(#clip470)" d="M 0 0 M2199.19 1445.17 Q2195.58 1445.17 2193.75 1448.74 Q2191.94 1452.28 2191.94 1459.41 Q2191.94 1466.51 2193.75 1470.08 Q2195.58 1473.62 2199.19 1473.62 Q2202.82 1473.62 2204.63 1470.08 Q2206.46 1466.51 2206.46 1459.41 Q2206.46 1452.28 2204.63 1448.74 Q2202.82 1445.17 2199.19 1445.17 M2199.19 1441.47 Q2205 1441.47 2208.05 1446.07 Q2211.13 1450.66 2211.13 1459.41 Q2211.13 1468.13 2208.05 1472.74 Q2205 1477.32 2199.19 1477.32 Q2193.38 1477.32 2190.3 1472.74 Q2187.24 1468.13 2187.24 1459.41 Q2187.24 1450.66 2190.3 1446.07 Q2193.38 1441.47 2199.19 1441.47 Z" fill="#000000" fill-rule="evenodd" fill-opacity="1" /><path clip-path="url(#clip470)" d="M 0 0 M63.6403 1137.58 L76.1171 1137.58 L76.1171 1141.38 L63.6403 1141.38 L63.6403 1137.58 Z" fill="#000000" fill-rule="evenodd" fill-opacity="1" /><path clip-path="url(#clip470)" d="M 0 0 M85.2142 1148.53 L101.534 1148.53 L101.534 1152.47 L79.5893 1152.47 L79.5893 1148.53 Q82.2513 1145.78 86.8346 1141.15 Q91.441 1136.49 92.6216 1135.15 Q94.867 1132.63 95.7466 1130.89 Q96.6494 1129.13 96.6494 1127.44 Q96.6494 1124.69 94.7049 1122.95 Q92.7836 1121.22 89.6818 1121.22 Q87.4827 1121.22 85.029 1121.98 Q82.5985 1122.74 79.8207 1124.3 L79.8207 1119.57 Q82.6448 1118.44 85.0985 1117.86 Q87.5522 1117.28 89.5892 1117.28 Q94.9595 1117.28 98.154 1119.97 Q101.348 1122.65 101.348 1127.14 Q101.348 1129.27 100.538 1131.19 Q99.7512 1133.09 97.6447 1135.68 Q97.066 1136.36 93.9642 1139.57 Q90.8623 1142.77 85.2142 1148.53 Z" fill="#000000" fill-rule="evenodd" fill-opacity="1" /><path clip-path="url(#clip470)" d="M 0 0 M120.77 1133.83 Q124.126 1134.55 126.001 1136.82 Q127.899 1139.09 127.899 1142.42 Q127.899 1147.54 124.381 1150.34 Q120.862 1153.14 114.381 1153.14 Q112.205 1153.14 109.89 1152.7 Q107.598 1152.28 105.145 1151.42 L105.145 1146.91 Q107.089 1148.05 109.404 1148.62 Q111.719 1149.2 114.242 1149.2 Q118.64 1149.2 120.932 1147.47 Q123.246 1145.73 123.246 1142.42 Q123.246 1139.36 121.094 1137.65 Q118.964 1135.92 115.145 1135.92 L111.117 1135.92 L111.117 1132.07 L115.33 1132.07 Q118.779 1132.07 120.608 1130.71 Q122.436 1129.32 122.436 1126.73 Q122.436 1124.06 120.538 1122.65 Q118.663 1121.22 115.145 1121.22 Q113.223 1121.22 111.024 1121.63 Q108.825 1122.05 106.186 1122.93 L106.186 1118.76 Q108.848 1118.02 111.163 1117.65 Q113.501 1117.28 115.561 1117.28 Q120.885 1117.28 123.987 1119.71 Q127.089 1122.12 127.089 1126.24 Q127.089 1129.11 125.445 1131.1 Q123.802 1133.07 120.77 1133.83 Z" fill="#000000" fill-rule="evenodd" fill-opacity="1" /><path clip-path="url(#clip470)" d="M 0 0 M64.5893 806.784 L77.0661 806.784 L77.0661 810.581 L64.5893 810.581 L64.5893 806.784 Z" fill="#000000" fill-rule="evenodd" fill-opacity="1" /><path clip-path="url(#clip470)" d="M 0 0 M86.1633 817.733 L102.483 817.733 L102.483 821.668 L80.5383 821.668 L80.5383 817.733 Q83.2004 814.979 87.7837 810.349 Q92.3901 805.696 93.5707 804.354 Q95.816 801.831 96.6956 800.094 Q97.5984 798.335 97.5984 796.645 Q97.5984 793.891 95.654 792.155 Q93.7327 790.419 90.6309 790.419 Q88.4318 790.419 85.9781 791.182 Q83.5476 791.946 80.7698 793.497 L80.7698 788.775 Q83.5939 787.641 86.0476 787.062 Q88.5012 786.483 90.5383 786.483 Q95.9086 786.483 99.103 789.169 Q102.297 791.854 102.297 796.345 Q102.297 798.474 101.487 800.395 Q100.7 802.294 98.5938 804.886 Q98.0151 805.557 94.9133 808.775 Q91.8114 811.969 86.1633 817.733 Z" fill="#000000" fill-rule="evenodd" fill-opacity="1" /><path clip-path="url(#clip470)" d="M 0 0 M111.58 817.733 L127.899 817.733 L127.899 821.668 L105.955 821.668 L105.955 817.733 Q108.617 814.979 113.2 810.349 Q117.807 805.696 118.987 804.354 Q121.233 801.831 122.112 800.094 Q123.015 798.335 123.015 796.645 Q123.015 793.891 121.071 792.155 Q119.149 790.419 116.047 790.419 Q113.848 790.419 111.395 791.182 Q108.964 791.946 106.186 793.497 L106.186 788.775 Q109.01 787.641 111.464 787.062 Q113.918 786.483 115.955 786.483 Q121.325 786.483 124.52 789.169 Q127.714 791.854 127.714 796.345 Q127.714 798.474 126.904 800.395 Q126.117 802.294 124.01 804.886 Q123.432 805.557 120.33 808.775 Q117.228 811.969 111.58 817.733 Z" fill="#000000" fill-rule="evenodd" fill-opacity="1" /><path clip-path="url(#clip470)" d="M 0 0 M64.219 475.986 L76.6958 475.986 L76.6958 479.783 L64.219 479.783 L64.219 475.986 Z" fill="#000000" fill-rule="evenodd" fill-opacity="1" /><path clip-path="url(#clip470)" d="M 0 0 M85.7929 486.935 L102.112 486.935 L102.112 490.871 L80.168 490.871 L80.168 486.935 Q82.83 484.181 87.4133 479.551 Q92.0197 474.898 93.2003 473.556 Q95.4457 471.033 96.3253 469.297 Q97.2281 467.537 97.2281 465.847 Q97.2281 463.093 95.2836 461.357 Q93.3623 459.621 90.2605 459.621 Q88.0614 459.621 85.6077 460.385 Q83.1772 461.148 80.3994 462.699 L80.3994 457.977 Q83.2235 456.843 85.6772 456.264 Q88.1309 455.686 90.1679 455.686 Q95.5382 455.686 98.7327 458.371 Q101.927 461.056 101.927 465.547 Q101.927 467.676 101.117 469.597 Q100.33 471.496 98.2234 474.088 Q97.6447 474.759 94.5429 477.977 Q91.441 481.171 85.7929 486.935 Z" fill="#000000" fill-rule="evenodd" fill-opacity="1" /><path clip-path="url(#clip470)" d="M 0 0 M107.992 486.935 L115.631 486.935 L115.631 460.57 L107.321 462.236 L107.321 457.977 L115.584 456.311 L120.26 456.311 L120.26 486.935 L127.899 486.935 L127.899 490.871 L107.992 490.871 L107.992 486.935 Z" fill="#000000" fill-rule="evenodd" fill-opacity="1" /><path clip-path="url(#clip470)" d="M 0 0 M62.9921 145.188 L75.4689 145.188 L75.4689 148.985 L62.9921 148.985 L62.9921 145.188 Z" fill="#000000" fill-rule="evenodd" fill-opacity="1" /><path clip-path="url(#clip470)" d="M 0 0 M84.5661 156.137 L100.885 156.137 L100.885 160.073 L78.9411 160.073 L78.9411 156.137 Q81.6031 153.383 86.1864 148.753 Q90.7929 144.1 91.9735 142.758 Q94.2188 140.235 95.0984 138.499 Q96.0012 136.739 96.0012 135.05 Q96.0012 132.295 94.0568 130.559 Q92.1355 128.823 89.0337 128.823 Q86.8346 128.823 84.3809 129.587 Q81.9504 130.351 79.1726 131.901 L79.1726 127.179 Q81.9967 126.045 84.4503 125.466 Q86.904 124.888 88.9411 124.888 Q94.3114 124.888 97.5058 127.573 Q100.7 130.258 100.7 134.749 Q100.7 136.878 99.8901 138.8 Q99.103 140.698 96.9966 143.29 Q96.4179 143.962 93.316 147.179 Q90.2142 150.374 84.5661 156.137 Z" fill="#000000" fill-rule="evenodd" fill-opacity="1" /><path clip-path="url(#clip470)" d="M 0 0 M115.955 128.591 Q112.344 128.591 110.515 132.156 Q108.709 135.698 108.709 142.827 Q108.709 149.934 110.515 153.499 Q112.344 157.04 115.955 157.04 Q119.589 157.04 121.395 153.499 Q123.223 149.934 123.223 142.827 Q123.223 135.698 121.395 132.156 Q119.589 128.591 115.955 128.591 M115.955 124.888 Q121.765 124.888 124.82 129.494 Q127.899 134.077 127.899 142.827 Q127.899 151.554 124.82 156.161 Q121.765 160.744 115.955 160.744 Q110.145 160.744 107.066 156.161 Q104.01 151.554 104.01 142.827 Q104.01 134.077 107.066 129.494 Q110.145 124.888 115.955 124.888 Z" fill="#000000" fill-rule="evenodd" fill-opacity="1" /><path clip-path="url(#clip470)" d="M 0 0 M1189.56 1559.35 Q1187.08 1565.72 1184.72 1567.66 Q1182.37 1569.6 1178.42 1569.6 L1173.74 1569.6 L1173.74 1564.7 L1177.18 1564.7 Q1179.6 1564.7 1180.94 1563.56 Q1182.27 1562.41 1183.9 1558.14 L1184.95 1555.47 L1170.53 1520.4 L1176.73 1520.4 L1187.87 1548.28 L1199.01 1520.4 L1205.22 1520.4 L1189.56 1559.35 Z" fill="#000000" fill-rule="evenodd" fill-opacity="1" /><path clip-path="url(#clip470)" d="M 0 0 M1207.26 1535.58 L1224.41 1535.58 L1224.41 1540.8 L1207.26 1540.8 L1207.26 1535.58 Z" fill="#000000" fill-rule="evenodd" fill-opacity="1" /><path clip-path="url(#clip470)" d="M 0 0 M1254.01 1537.81 Q1254.01 1531.44 1251.37 1527.94 Q1248.76 1524.44 1244.02 1524.44 Q1239.31 1524.44 1236.67 1527.94 Q1234.06 1531.44 1234.06 1537.81 Q1234.06 1544.14 1236.67 1547.64 Q1239.31 1551.14 1244.02 1551.14 Q1248.76 1551.14 1251.37 1547.64 Q1254.01 1544.14 1254.01 1537.81 M1259.87 1551.62 Q1259.87 1560.72 1255.83 1565.15 Q1251.79 1569.6 1243.45 1569.6 Q1240.36 1569.6 1237.62 1569.13 Q1234.89 1568.68 1232.31 1567.72 L1232.31 1562.03 Q1234.89 1563.43 1237.4 1564.1 Q1239.91 1564.76 1242.52 1564.76 Q1248.29 1564.76 1251.15 1561.74 Q1254.01 1558.75 1254.01 1552.67 L1254.01 1549.77 Q1252.2 1552.92 1249.37 1554.48 Q1246.53 1556.04 1242.59 1556.04 Q1236.03 1556.04 1232.02 1551.05 Q1228.01 1546.05 1228.01 1537.81 Q1228.01 1529.53 1232.02 1524.53 Q1236.03 1519.54 1242.59 1519.54 Q1246.53 1519.54 1249.37 1521.1 Q1252.2 1522.66 1254.01 1525.81 L1254.01 1520.4 L1259.87 1520.4 L1259.87 1551.62 Z" fill="#000000" fill-rule="evenodd" fill-opacity="1" /><path clip-path="url(#clip470)" d="M 0 0 M1286.67 1525.87 Q1285.68 1525.3 1284.51 1525.04 Q1283.36 1524.76 1281.96 1524.76 Q1276.99 1524.76 1274.32 1528 Q1271.68 1531.22 1271.68 1537.27 L1271.68 1556.04 L1265.79 1556.04 L1265.79 1520.4 L1271.68 1520.4 L1271.68 1525.93 Q1273.53 1522.69 1276.49 1521.13 Q1279.45 1519.54 1283.68 1519.54 Q1284.28 1519.54 1285.02 1519.63 Q1285.75 1519.7 1286.64 1519.85 L1286.67 1525.87 Z" fill="#000000" fill-rule="evenodd" fill-opacity="1" /><path clip-path="url(#clip470)" d="M 0 0 M1292.81 1520.4 L1298.67 1520.4 L1298.67 1556.04 L1292.81 1556.04 L1292.81 1520.4 M1292.81 1506.52 L1298.67 1506.52 L1298.67 1513.93 L1292.81 1513.93 L1292.81 1506.52 Z" fill="#000000" fill-rule="evenodd" fill-opacity="1" /><path clip-path="url(#clip470)" d="M 0 0 M1328.27 1525.81 L1328.27 1506.52 L1334.13 1506.52 L1334.13 1556.04 L1328.27 1556.04 L1328.27 1550.7 Q1326.42 1553.88 1323.59 1555.44 Q1320.79 1556.97 1316.84 1556.97 Q1310.38 1556.97 1306.31 1551.81 Q1302.27 1546.65 1302.27 1538.25 Q1302.27 1529.85 1306.31 1524.69 Q1310.38 1519.54 1316.84 1519.54 Q1320.79 1519.54 1323.59 1521.1 Q1326.42 1522.62 1328.27 1525.81 M1308.31 1538.25 Q1308.31 1544.71 1310.96 1548.4 Q1313.63 1552.07 1318.28 1552.07 Q1322.92 1552.07 1325.6 1548.4 Q1328.27 1544.71 1328.27 1538.25 Q1328.27 1531.79 1325.6 1528.13 Q1322.92 1524.44 1318.28 1524.44 Q1313.63 1524.44 1310.96 1528.13 Q1308.31 1531.79 1308.31 1538.25 Z" fill="#000000" fill-rule="evenodd" fill-opacity="1" /><polyline clip-path="url(#clip472)" style="stroke:#0000ff; stroke-width:4.6; stroke-opacity:1; fill:none" points="
  214.188,1357.07 318.002,1294.14 421.816,1218.6 525.63,1138.13 629.444,1056.37 733.258,974.86 837.072,894.373 940.886,815.528 1044.7,739.191 1148.51,666.536 
  1252.33,605.452 1356.14,548.051 1459.96,492.79 1563.77,438.945 1667.58,386.228 1771.4,334.583 1875.21,284.136 1979.03,235.262 2082.84,188.869 2186.65,147.109 
  2290.47,114.302 
  "/>
<polyline clip-path="url(#clip472)" style="stroke:#800080; stroke-width:6; stroke-opacity:1; fill:none" stroke-dasharray="3, 6" points="
  214.188,1368.54 318.002,1296.43 421.816,1214.64 525.63,1131.6 629.444,1049.67 733.258,969.329 837.072,890.682 940.886,813.699 1044.7,738.407 1148.51,665.058 
  1252.33,601.264 1356.14,540.103 1459.96,481.361 1563.77,425.148 1667.58,371.542 1771.4,320.59 1875.21,272.303 1979.03,226.668 2082.84,183.749 2186.65,144.417 
  2290.47,112.185 
  "/>
<polyline clip-path="url(#clip472)" style="stroke:#ff0000; stroke-width:4.6; stroke-opacity:1; fill:none" stroke-dasharray="18, 12" points="
  214.188,1384.24 318.002,1309.77 421.816,1225.23 525.63,1139.39 629.444,1054.7 733.258,971.678 837.072,890.563 940.886,811.498 1044.7,734.431 1148.51,659.247 
  1252.33,593.368 1356.14,529.994 1459.96,469.066 1563.77,410.754 1667.58,355.148 1771.4,302.297 1875.21,252.216 1979.03,204.889 2082.84,160.383 2186.65,119.602 
  2290.47,86.1857 
  "/>
<path clip-path="url(#clip470)" d="
M1795.06 1279.18 L2280.76 1279.18 L2280.76 1037.26 L1795.06 1037.26  Z
  " fill="#ffffff" fill-rule="evenodd" fill-opacity="1"/>
<polyline clip-path="url(#clip470)" style="stroke:#000000; stroke-width:4; stroke-opacity:0; fill:none" points="
  1795.06,1279.18 2280.76,1279.18 2280.76,1037.26 1795.06,1037.26 1795.06,1279.18 
  "/>
<polyline clip-path="url(#clip470)" style="stroke:#0000ff; stroke-width:4; stroke-opacity:1; fill:none" points="
  1819.06,1097.74 1963.06,1097.74 
  "/>
<path clip-path="url(#clip470)" d="M 0 0 M2000.47 1101.99 Q1995.3 1101.99 1993.31 1103.17 Q1991.32 1104.35 1991.32 1107.2 Q1991.32 1109.46 1992.8 1110.81 Q1994.31 1112.13 1996.88 1112.13 Q2000.42 1112.13 2002.55 1109.63 Q2004.7 1107.1 2004.7 1102.94 L2004.7 1101.99 L2000.47 1101.99 M2008.96 1100.23 L2008.96 1115.02 L2004.7 1115.02 L2004.7 1111.08 Q2003.24 1113.45 2001.07 1114.58 Q1998.89 1115.69 1995.74 1115.69 Q1991.76 1115.69 1989.4 1113.47 Q1987.06 1111.22 1987.06 1107.47 Q1987.06 1103.1 1989.98 1100.88 Q1992.92 1098.65 1998.73 1098.65 L2004.7 1098.65 L2004.7 1098.24 Q2004.7 1095.3 2002.76 1093.7 Q2000.84 1092.08 1997.34 1092.08 Q1995.12 1092.08 1993.01 1092.61 Q1990.91 1093.14 1988.96 1094.21 L1988.96 1090.27 Q1991.3 1089.37 1993.5 1088.93 Q1995.7 1088.47 1997.78 1088.47 Q2003.41 1088.47 2006.18 1091.39 Q2008.96 1094.3 2008.96 1100.23 Z" fill="#000000" fill-rule="evenodd" fill-opacity="1" /><path clip-path="url(#clip470)" d="M 0 0 M2032.09 1090.09 L2032.09 1094.07 Q2030.28 1093.08 2028.45 1092.59 Q2026.65 1092.08 2024.79 1092.08 Q2020.65 1092.08 2018.36 1094.72 Q2016.07 1097.33 2016.07 1102.08 Q2016.07 1106.83 2018.36 1109.46 Q2020.65 1112.08 2024.79 1112.08 Q2026.65 1112.08 2028.45 1111.59 Q2030.28 1111.08 2032.09 1110.09 L2032.09 1114.02 Q2030.3 1114.86 2028.38 1115.27 Q2026.48 1115.69 2024.33 1115.69 Q2018.47 1115.69 2015.03 1112.01 Q2011.58 1108.33 2011.58 1102.08 Q2011.58 1095.74 2015.05 1092.1 Q2018.54 1088.47 2024.61 1088.47 Q2026.58 1088.47 2028.45 1088.89 Q2030.33 1089.28 2032.09 1090.09 Z" fill="#000000" fill-rule="evenodd" fill-opacity="1" /><path clip-path="url(#clip470)" d="M 0 0 M2040.77 1081.73 L2040.77 1089.09 L2049.54 1089.09 L2049.54 1092.4 L2040.77 1092.4 L2040.77 1106.48 Q2040.77 1109.65 2041.62 1110.55 Q2042.5 1111.46 2045.16 1111.46 L2049.54 1111.46 L2049.54 1115.02 L2045.16 1115.02 Q2040.23 1115.02 2038.36 1113.19 Q2036.48 1111.34 2036.48 1106.48 L2036.48 1092.4 L2033.36 1092.4 L2033.36 1089.09 L2036.48 1089.09 L2036.48 1081.73 L2040.77 1081.73 Z" fill="#000000" fill-rule="evenodd" fill-opacity="1" /><path clip-path="url(#clip470)" d="M 0 0 M2053.57 1104.79 L2053.57 1089.09 L2057.83 1089.09 L2057.83 1104.63 Q2057.83 1108.31 2059.26 1110.16 Q2060.7 1111.99 2063.57 1111.99 Q2067.02 1111.99 2069.01 1109.79 Q2071.02 1107.59 2071.02 1103.79 L2071.02 1089.09 L2075.28 1089.09 L2075.28 1115.02 L2071.02 1115.02 L2071.02 1111.04 Q2069.47 1113.4 2067.41 1114.56 Q2065.37 1115.69 2062.66 1115.69 Q2058.2 1115.69 2055.88 1112.91 Q2053.57 1110.14 2053.57 1104.79 M2064.28 1088.47 L2064.28 1088.47 Z" fill="#000000" fill-rule="evenodd" fill-opacity="1" /><path clip-path="url(#clip470)" d="M 0 0 M2091.53 1101.99 Q2086.37 1101.99 2084.38 1103.17 Q2082.39 1104.35 2082.39 1107.2 Q2082.39 1109.46 2083.87 1110.81 Q2085.37 1112.13 2087.94 1112.13 Q2091.48 1112.13 2093.61 1109.63 Q2095.77 1107.1 2095.77 1102.94 L2095.77 1101.99 L2091.53 1101.99 M2100.03 1100.23 L2100.03 1115.02 L2095.77 1115.02 L2095.77 1111.08 Q2094.31 1113.45 2092.13 1114.58 Q2089.96 1115.69 2086.81 1115.69 Q2082.83 1115.69 2080.47 1113.47 Q2078.13 1111.22 2078.13 1107.47 Q2078.13 1103.1 2081.04 1100.88 Q2083.98 1098.65 2089.79 1098.65 L2095.77 1098.65 L2095.77 1098.24 Q2095.77 1095.3 2093.82 1093.7 Q2091.9 1092.08 2088.4 1092.08 Q2086.18 1092.08 2084.08 1092.61 Q2081.97 1093.14 2080.03 1094.21 L2080.03 1090.27 Q2082.36 1089.37 2084.56 1088.93 Q2086.76 1088.47 2088.84 1088.47 Q2094.47 1088.47 2097.25 1091.39 Q2100.03 1094.3 2100.03 1100.23 Z" fill="#000000" fill-rule="evenodd" fill-opacity="1" /><path clip-path="url(#clip470)" d="M 0 0 M2104.49 1079 L2108.75 1079 L2108.75 1115.02 L2104.49 1115.02 L2104.49 1079 Z" fill="#000000" fill-rule="evenodd" fill-opacity="1" /><polyline clip-path="url(#clip470)" style="stroke:#800080; stroke-width:4; stroke-opacity:1; fill:none" stroke-dasharray="2, 4" points="
  1819.06,1158.22 1963.06,1158.22 
  "/>
<path clip-path="url(#clip470)" d="M 0 0 M1987.06 1140.94 L1993.36 1140.94 L2008.68 1169.85 L2008.68 1140.94 L2013.22 1140.94 L2013.22 1175.5 L2006.92 1175.5 L1991.6 1146.59 L1991.6 1175.5 L1987.06 1175.5 L1987.06 1140.94 Z" fill="#000000" fill-rule="evenodd" fill-opacity="1" /><path clip-path="url(#clip470)" d="M 0 0 M2017.87 1140.94 L2024.17 1140.94 L2039.49 1169.85 L2039.49 1140.94 L2044.03 1140.94 L2044.03 1175.5 L2037.73 1175.5 L2022.41 1146.59 L2022.41 1175.5 L2017.87 1175.5 L2017.87 1140.94 Z" fill="#000000" fill-rule="evenodd" fill-opacity="1" /><path clip-path="url(#clip470)" d="M 0 0 M2082.18 1162.56 Q2082.18 1157.86 2080.23 1155.2 Q2078.31 1152.51 2074.93 1152.51 Q2071.55 1152.51 2069.61 1155.2 Q2067.69 1157.86 2067.69 1162.56 Q2067.69 1167.26 2069.61 1169.94 Q2071.55 1172.61 2074.93 1172.61 Q2078.31 1172.61 2080.23 1169.94 Q2082.18 1167.26 2082.18 1162.56 M2067.69 1153.51 Q2069.03 1151.19 2071.07 1150.08 Q2073.13 1148.95 2075.97 1148.95 Q2080.7 1148.95 2083.64 1152.7 Q2086.6 1156.45 2086.6 1162.56 Q2086.6 1168.67 2083.64 1172.42 Q2080.7 1176.17 2075.97 1176.17 Q2073.13 1176.17 2071.07 1175.06 Q2069.03 1173.93 2067.69 1171.61 L2067.69 1175.5 L2063.4 1175.5 L2063.4 1139.48 L2067.69 1139.48 L2067.69 1153.51 Z" fill="#000000" fill-rule="evenodd" fill-opacity="1" /><path clip-path="url(#clip470)" d="M 0 0 M2102.85 1162.47 Q2097.69 1162.47 2095.7 1163.65 Q2093.71 1164.83 2093.71 1167.68 Q2093.71 1169.94 2095.19 1171.29 Q2096.69 1172.61 2099.26 1172.61 Q2102.8 1172.61 2104.93 1170.11 Q2107.09 1167.58 2107.09 1163.42 L2107.09 1162.47 L2102.85 1162.47 M2111.34 1160.71 L2111.34 1175.5 L2107.09 1175.5 L2107.09 1171.56 Q2105.63 1173.93 2103.45 1175.06 Q2101.28 1176.17 2098.13 1176.17 Q2094.15 1176.17 2091.78 1173.95 Q2089.45 1171.7 2089.45 1167.95 Q2089.45 1163.58 2092.36 1161.36 Q2095.3 1159.13 2101.11 1159.13 L2107.09 1159.13 L2107.09 1158.72 Q2107.09 1155.78 2105.14 1154.18 Q2103.22 1152.56 2099.72 1152.56 Q2097.5 1152.56 2095.4 1153.09 Q2093.29 1153.62 2091.34 1154.69 L2091.34 1150.75 Q2093.68 1149.85 2095.88 1149.41 Q2098.08 1148.95 2100.16 1148.95 Q2105.79 1148.95 2108.57 1151.87 Q2111.34 1154.78 2111.34 1160.71 Z" fill="#000000" fill-rule="evenodd" fill-opacity="1" /><path clip-path="url(#clip470)" d="M 0 0 M2132.34 1150.34 L2132.34 1154.37 Q2130.53 1153.44 2128.59 1152.98 Q2126.65 1152.51 2124.56 1152.51 Q2121.39 1152.51 2119.79 1153.49 Q2118.22 1154.46 2118.22 1156.4 Q2118.22 1157.88 2119.35 1158.74 Q2120.49 1159.57 2123.91 1160.34 L2125.37 1160.66 Q2129.91 1161.63 2131.81 1163.42 Q2133.73 1165.18 2133.73 1168.35 Q2133.73 1171.96 2130.86 1174.06 Q2128.01 1176.17 2123.01 1176.17 Q2120.93 1176.17 2118.66 1175.75 Q2116.41 1175.36 2113.91 1174.55 L2113.91 1170.15 Q2116.28 1171.38 2118.57 1172 Q2120.86 1172.61 2123.1 1172.61 Q2126.11 1172.61 2127.73 1171.59 Q2129.35 1170.55 2129.35 1168.67 Q2129.35 1166.94 2128.17 1166.01 Q2127.02 1165.08 2123.06 1164.23 L2121.58 1163.88 Q2117.62 1163.05 2115.86 1161.33 Q2114.1 1159.6 2114.1 1156.59 Q2114.1 1152.93 2116.69 1150.94 Q2119.28 1148.95 2124.05 1148.95 Q2126.41 1148.95 2128.5 1149.3 Q2130.58 1149.64 2132.34 1150.34 Z" fill="#000000" fill-rule="evenodd" fill-opacity="1" /><path clip-path="url(#clip470)" d="M 0 0 M2160.37 1161.47 L2160.37 1163.56 L2140.79 1163.56 Q2141.07 1167.95 2143.43 1170.27 Q2145.81 1172.56 2150.05 1172.56 Q2152.5 1172.56 2154.79 1171.96 Q2157.11 1171.36 2159.38 1170.15 L2159.38 1174.18 Q2157.09 1175.15 2154.68 1175.66 Q2152.27 1176.17 2149.79 1176.17 Q2143.59 1176.17 2139.96 1172.56 Q2136.34 1168.95 2136.34 1162.79 Q2136.34 1156.43 2139.77 1152.7 Q2143.22 1148.95 2149.05 1148.95 Q2154.28 1148.95 2157.32 1152.33 Q2160.37 1155.69 2160.37 1161.47 M2156.11 1160.22 Q2156.07 1156.73 2154.15 1154.64 Q2152.25 1152.56 2149.1 1152.56 Q2145.53 1152.56 2143.38 1154.57 Q2141.25 1156.59 2140.93 1160.25 L2156.11 1160.22 Z" fill="#000000" fill-rule="evenodd" fill-opacity="1" /><polyline clip-path="url(#clip470)" style="stroke:#ff0000; stroke-width:4; stroke-opacity:1; fill:none" stroke-dasharray="16, 10" points="
  1819.06,1218.7 1963.06,1218.7 
  "/>
<path clip-path="url(#clip470)" d="M 0 0 M1987.06 1201.42 L1993.36 1201.42 L2008.68 1230.33 L2008.68 1201.42 L2013.22 1201.42 L2013.22 1235.98 L2006.92 1235.98 L1991.6 1207.07 L1991.6 1235.98 L1987.06 1235.98 L1987.06 1201.42 Z" fill="#000000" fill-rule="evenodd" fill-opacity="1" /><path clip-path="url(#clip470)" d="M 0 0 M2017.87 1201.42 L2024.17 1201.42 L2039.49 1230.33 L2039.49 1201.42 L2044.03 1201.42 L2044.03 1235.98 L2037.73 1235.98 L2022.41 1207.07 L2022.41 1235.98 L2017.87 1235.98 L2017.87 1201.42 Z" fill="#000000" fill-rule="evenodd" fill-opacity="1" /><path clip-path="url(#clip470)" d="M 0 0 M2063.13 1225.75 L2063.13 1210.05 L2067.39 1210.05 L2067.39 1225.59 Q2067.39 1229.27 2068.82 1231.12 Q2070.26 1232.95 2073.13 1232.95 Q2076.58 1232.95 2078.57 1230.75 Q2080.58 1228.55 2080.58 1224.75 L2080.58 1210.05 L2084.84 1210.05 L2084.84 1235.98 L2080.58 1235.98 L2080.58 1232 Q2079.03 1234.36 2076.97 1235.52 Q2074.93 1236.65 2072.22 1236.65 Q2067.76 1236.65 2065.44 1233.87 Q2063.13 1231.1 2063.13 1225.75 M2073.84 1209.43 L2073.84 1209.43 Z" fill="#000000" fill-rule="evenodd" fill-opacity="1" /><path clip-path="url(#clip470)" d="M 0 0 M2093.43 1232.09 L2093.43 1245.84 L2089.15 1245.84 L2089.15 1210.05 L2093.43 1210.05 L2093.43 1213.99 Q2094.77 1211.67 2096.81 1210.56 Q2098.87 1209.43 2101.71 1209.43 Q2106.44 1209.43 2109.38 1213.18 Q2112.34 1216.93 2112.34 1223.04 Q2112.34 1229.15 2109.38 1232.9 Q2106.44 1236.65 2101.71 1236.65 Q2098.87 1236.65 2096.81 1235.54 Q2094.77 1234.41 2093.43 1232.09 M2107.92 1223.04 Q2107.92 1218.34 2105.97 1215.68 Q2104.05 1212.99 2100.67 1212.99 Q2097.29 1212.99 2095.35 1215.68 Q2093.43 1218.34 2093.43 1223.04 Q2093.43 1227.74 2095.35 1230.42 Q2097.29 1233.09 2100.67 1233.09 Q2104.05 1233.09 2105.97 1230.42 Q2107.92 1227.74 2107.92 1223.04 Z" fill="#000000" fill-rule="evenodd" fill-opacity="1" /><path clip-path="url(#clip470)" d="M 0 0 M2133.87 1213.99 L2133.87 1199.96 L2138.13 1199.96 L2138.13 1235.98 L2133.87 1235.98 L2133.87 1232.09 Q2132.52 1234.41 2130.46 1235.54 Q2128.43 1236.65 2125.56 1236.65 Q2120.86 1236.65 2117.9 1232.9 Q2114.96 1229.15 2114.96 1223.04 Q2114.96 1216.93 2117.9 1213.18 Q2120.86 1209.43 2125.56 1209.43 Q2128.43 1209.43 2130.46 1210.56 Q2132.52 1211.67 2133.87 1213.99 M2119.35 1223.04 Q2119.35 1227.74 2121.28 1230.42 Q2123.22 1233.09 2126.6 1233.09 Q2129.98 1233.09 2131.92 1230.42 Q2133.87 1227.74 2133.87 1223.04 Q2133.87 1218.34 2131.92 1215.68 Q2129.98 1212.99 2126.6 1212.99 Q2123.22 1212.99 2121.28 1215.68 Q2119.35 1218.34 2119.35 1223.04 Z" fill="#000000" fill-rule="evenodd" fill-opacity="1" /><path clip-path="url(#clip470)" d="M 0 0 M2154.38 1222.95 Q2149.21 1222.95 2147.22 1224.13 Q2145.23 1225.31 2145.23 1228.16 Q2145.23 1230.42 2146.71 1231.77 Q2148.22 1233.09 2150.79 1233.09 Q2154.33 1233.09 2156.46 1230.59 Q2158.61 1228.06 2158.61 1223.9 L2158.61 1222.95 L2154.38 1222.95 M2162.87 1221.19 L2162.87 1235.98 L2158.61 1235.98 L2158.61 1232.04 Q2157.15 1234.41 2154.98 1235.54 Q2152.8 1236.65 2149.65 1236.65 Q2145.67 1236.65 2143.31 1234.43 Q2140.97 1232.18 2140.97 1228.43 Q2140.97 1224.06 2143.89 1221.84 Q2146.83 1219.61 2152.64 1219.61 L2158.61 1219.61 L2158.61 1219.2 Q2158.61 1216.26 2156.67 1214.66 Q2154.75 1213.04 2151.25 1213.04 Q2149.03 1213.04 2146.92 1213.57 Q2144.82 1214.1 2142.87 1215.17 L2142.87 1211.23 Q2145.21 1210.33 2147.41 1209.89 Q2149.61 1209.43 2151.69 1209.43 Q2157.32 1209.43 2160.09 1212.35 Q2162.87 1215.26 2162.87 1221.19 Z" fill="#000000" fill-rule="evenodd" fill-opacity="1" /><path clip-path="url(#clip470)" d="M 0 0 M2171.55 1202.69 L2171.55 1210.05 L2180.33 1210.05 L2180.33 1213.36 L2171.55 1213.36 L2171.55 1227.44 Q2171.55 1230.61 2172.41 1231.51 Q2173.29 1232.42 2175.95 1232.42 L2180.33 1232.42 L2180.33 1235.98 L2175.95 1235.98 Q2171.02 1235.98 2169.15 1234.15 Q2167.27 1232.3 2167.27 1227.44 L2167.27 1213.36 L2164.15 1213.36 L2164.15 1210.05 L2167.27 1210.05 L2167.27 1202.69 L2171.55 1202.69 Z" fill="#000000" fill-rule="evenodd" fill-opacity="1" /><path clip-path="url(#clip470)" d="M 0 0 M2206.97 1221.95 L2206.97 1224.04 L2187.39 1224.04 Q2187.66 1228.43 2190.02 1230.75 Q2192.41 1233.04 2196.64 1233.04 Q2199.1 1233.04 2201.39 1232.44 Q2203.71 1231.84 2205.97 1230.63 L2205.97 1234.66 Q2203.68 1235.63 2201.27 1236.14 Q2198.87 1236.65 2196.39 1236.65 Q2190.19 1236.65 2186.55 1233.04 Q2182.94 1229.43 2182.94 1223.27 Q2182.94 1216.91 2186.37 1213.18 Q2189.82 1209.43 2195.65 1209.43 Q2200.88 1209.43 2203.91 1212.81 Q2206.97 1216.17 2206.97 1221.95 M2202.71 1220.7 Q2202.66 1217.21 2200.74 1215.12 Q2198.84 1213.04 2195.7 1213.04 Q2192.13 1213.04 2189.98 1215.05 Q2187.85 1217.07 2187.52 1220.73 L2202.71 1220.7 Z" fill="#000000" fill-rule="evenodd" fill-opacity="1" /><path clip-path="url(#clip470)" d="M 0 0 M2228.5 1213.99 L2228.5 1199.96 L2232.76 1199.96 L2232.76 1235.98 L2228.5 1235.98 L2228.5 1232.09 Q2227.15 1234.41 2225.09 1235.54 Q2223.06 1236.65 2220.19 1236.65 Q2215.49 1236.65 2212.52 1232.9 Q2209.58 1229.15 2209.58 1223.04 Q2209.58 1216.93 2212.52 1213.18 Q2215.49 1209.43 2220.19 1209.43 Q2223.06 1209.43 2225.09 1210.56 Q2227.15 1211.67 2228.5 1213.99 M2213.98 1223.04 Q2213.98 1227.74 2215.9 1230.42 Q2217.85 1233.09 2221.23 1233.09 Q2224.61 1233.09 2226.55 1230.42 Q2228.5 1227.74 2228.5 1223.04 Q2228.5 1218.34 2226.55 1215.68 Q2224.61 1212.99 2221.23 1212.99 Q2217.85 1212.99 2215.9 1215.68 Q2213.98 1218.34 2213.98 1223.04 Z" fill="#000000" fill-rule="evenodd" fill-opacity="1" /></svg>
