<?xml version="1.0" encoding="utf-8"?>
<svg xmlns="http://www.w3.org/2000/svg" xmlns:xlink="http://www.w3.org/1999/xlink" width="600" height="400" viewBox="0 0 2400 1600">
<defs>
  <clipPath id="clip430">
    <rect x="0" y="0" width="2400" height="1600"/>
  </clipPath>
</defs>
<path clip-path="url(#clip430)" d="
M0 1600 L2400 1600 L2400 0 L0 0  Z
  " fill="#ffffff" fill-rule="evenodd" fill-opacity="1"/>
<defs>
  <clipPath id="clip431">
    <rect x="480" y="0" width="1681" height="1600"/>
  </clipPath>
</defs>
<path clip-path="url(#clip430)" d="
M151.899 1423.18 L2352.76 1423.18 L2352.76 47.2441 L151.899 47.2441  Z
  " fill="#ffffff" fill-rule="evenodd" fill-opacity="1"/>
<defs>
  <clipPath id="clip432">
    <rect x="151" y="47" width="2202" height="1377"/>
  </clipPath>
</defs>
<polyline clip-path="url(#clip432)" style="stroke:#000000; stroke-width:2; stroke-opacity:0.1; fill:none" points="
  629.444,1423.18 629.444,47.2441 
  "/>
<polyline clip-path="url(#clip432)" style="stroke:#000000; stroke-width:2; stroke-opacity:0.1; fill:none" points="
  1148.51,1423.18 1148.51,47.2441 
  "/>
<polyline clip-path="url(#clip432)" style="stroke:#000000; stroke-width:2; stroke-opacity:0.1; fill:none" points="
  1667.58,1423.18 1667.58,47.2441 
  "/>
<polyline clip-path="url(#clip432)" style="stroke:#000000; stroke-width:2; stroke-opacity:0.1; fill:none" points="
  2186.65,1423.18 2186.65,47.2441 
  "/>
<polyline clip-path="url(#clip432)" style="stroke:#000000; stroke-width:2; stroke-opacity:0.1; fill:none" points="
  151.899,1120.78 2352.76,1120.78 
  "/>
<polyline clip-path="url(#clip432)" style="stroke:#000000; stroke-width:2; stroke-opacity:0.1; fill:none" points="
  151.899,792.988 2352.76,792.988 
  "/>
<polyline clip-path="url(#clip432)" style="stroke:#000000; stroke-width:2; stroke-opacity:0.1; fill:none" points="
  151.899,465.199 2352.76,465.199 
  "/>
<polyline clip-path="url(#clip432)" style="stroke:#000000; stroke-width:2; stroke-opacity:0.1; fill:none" points="
  151.899,137.41 2352.76,137.41 
  "/>
<polyline clip-path="url(#clip430)" style="stroke:#000000; stroke-width:4; stroke-opacity:1; fill:none" points="
  151.899,1423.18 2352.76,1423.18 
  "/>
<polyline clip-path="url(#clip430)" style="stroke:#000000; stroke-width:4; stroke-opacity:1; fill:none" points="
  151.899,1423.18 151.899,47.2441 
  "/>
<polyline clip-path="url(#clip430)" style="stroke:#000000; stroke-width:4; stroke-opacity:1; fill:none" points="
  629.444,1423.18 629.444,1406.67 
  "/>
<polyline clip-path="url(#clip430)" style="stroke:#000000; stroke-width:4; stroke-opacity:1; fill:none" points="
  1148.51,1423.18 1148.51,1406.67 
  "/>
<polyline clip-path="url(#clip430)" style="stroke:#000000; stroke-width:4; stroke-opacity:1; fill:none" points="
  1667.58,1423.18 1667.58,1406.67 
  "/>
<polyline clip-path="url(#clip430)" style="stroke:#000000; stroke-width:4; stroke-opacity:1; fill:none" points="
  2186.65,1423.18 2186.65,1406.67 
  "/>
<polyline clip-path="url(#clip430)" style="stroke:#000000; stroke-width:4; stroke-opacity:1; fill:none" points="
  151.899,1120.78 178.309,1120.78 
  "/>
<polyline clip-path="url(#clip430)" style="stroke:#000000; stroke-width:4; stroke-opacity:1; fill:none" points="
  151.899,792.988 178.309,792.988 
  "/>
<polyline clip-path="url(#clip430)" style="stroke:#000000; stroke-width:4; stroke-opacity:1; fill:none" points="
  151.899,465.199 178.309,465.199 
  "/>
<polyline clip-path="url(#clip430)" style="stroke:#000000; stroke-width:4; stroke-opacity:1; fill:none" points="
  151.899,137.41 178.309,137.41 
  "/>
<path clip-path="url(#clip430)" d="M 0 0 M619.721 1442.09 L638.078 1442.09 L638.078 1446.03 L624.004 1446.03 L624.004 1454.5 Q625.022 1454.15 626.041 1453.99 Q627.059 1453.8 628.078 1453.8 Q633.865 1453.8 637.244 1456.98 Q640.624 1460.15 640.624 1465.56 Q640.624 1471.14 637.152 1474.24 Q633.68 1477.32 627.36 1477.32 Q625.184 1477.32 622.916 1476.95 Q620.67 1476.58 618.263 1475.84 L618.263 1471.14 Q620.346 1472.28 622.569 1472.83 Q624.791 1473.39 627.268 1473.39 Q631.272 1473.39 633.61 1471.28 Q635.948 1469.18 635.948 1465.56 Q635.948 1461.95 633.61 1459.85 Q631.272 1457.74 627.268 1457.74 Q625.393 1457.74 623.518 1458.16 Q621.666 1458.57 619.721 1459.45 L619.721 1442.09 Z" fill="#000000" fill-rule="evenodd" fill-opacity="1" /><path clip-path="url(#clip430)" d="M 0 0 M1125.39 1472.72 L1133.03 1472.72 L1133.03 1446.35 L1124.72 1448.02 L1124.72 1443.76 L1132.98 1442.09 L1137.66 1442.09 L1137.66 1472.72 L1145.3 1472.72 L1145.3 1476.65 L1125.39 1476.65 L1125.39 1472.72 Z" fill="#000000" fill-rule="evenodd" fill-opacity="1" /><path clip-path="url(#clip430)" d="M 0 0 M1160.37 1445.17 Q1156.75 1445.17 1154.93 1448.74 Q1153.12 1452.28 1153.12 1459.41 Q1153.12 1466.51 1154.93 1470.08 Q1156.75 1473.62 1160.37 1473.62 Q1164 1473.62 1165.81 1470.08 Q1167.63 1466.51 1167.63 1459.41 Q1167.63 1452.28 1165.81 1448.74 Q1164 1445.17 1160.37 1445.17 M1160.37 1441.47 Q1166.18 1441.47 1169.23 1446.07 Q1172.31 1450.66 1172.31 1459.41 Q1172.31 1468.13 1169.23 1472.74 Q1166.18 1477.32 1160.37 1477.32 Q1154.56 1477.32 1151.48 1472.74 Q1148.42 1468.13 1148.42 1459.41 Q1148.42 1450.66 1151.48 1446.07 Q1154.56 1441.47 1160.37 1441.47 Z" fill="#000000" fill-rule="evenodd" fill-opacity="1" /><path clip-path="url(#clip430)" d="M 0 0 M1644.96 1472.72 L1652.6 1472.72 L1652.6 1446.35 L1644.29 1448.02 L1644.29 1443.76 L1652.55 1442.09 L1657.22 1442.09 L1657.22 1472.72 L1664.86 1472.72 L1664.86 1476.65 L1644.96 1476.65 L1644.96 1472.72 Z" fill="#000000" fill-rule="evenodd" fill-opacity="1" /><path clip-path="url(#clip430)" d="M 0 0 M1669.98 1442.09 L1688.34 1442.09 L1688.34 1446.03 L1674.26 1446.03 L1674.26 1454.5 Q1675.28 1454.15 1676.3 1453.99 Q1677.32 1453.8 1678.34 1453.8 Q1684.12 1453.8 1687.5 1456.98 Q1690.88 1460.15 1690.88 1465.56 Q1690.88 1471.14 1687.41 1474.24 Q1683.94 1477.32 1677.62 1477.32 Q1675.44 1477.32 1673.17 1476.95 Q1670.93 1476.58 1668.52 1475.84 L1668.52 1471.14 Q1670.6 1472.28 1672.83 1472.83 Q1675.05 1473.39 1677.53 1473.39 Q1681.53 1473.39 1683.87 1471.28 Q1686.21 1469.18 1686.21 1465.56 Q1686.21 1461.95 1683.87 1459.85 Q1681.53 1457.74 1677.53 1457.74 Q1675.65 1457.74 1673.78 1458.16 Q1671.92 1458.57 1669.98 1459.45 L1669.98 1442.09 Z" fill="#000000" fill-rule="evenodd" fill-opacity="1" /><path clip-path="url(#clip430)" d="M 0 0 M2167.8 1472.72 L2184.12 1472.72 L2184.12 1476.65 L2162.17 1476.65 L2162.17 1472.72 Q2164.84 1469.96 2169.42 1465.33 Q2174.03 1460.68 2175.21 1459.34 Q2177.45 1456.81 2178.33 1455.08 Q2179.23 1453.32 2179.23 1451.63 Q2179.23 1448.87 2177.29 1447.14 Q2175.37 1445.4 2172.27 1445.4 Q2170.07 1445.4 2167.61 1446.17 Q2165.18 1446.93 2162.41 1448.48 L2162.41 1443.76 Q2165.23 1442.62 2167.68 1442.05 Q2170.14 1441.47 2172.17 1441.47 Q2177.54 1441.47 2180.74 1444.15 Q2183.93 1446.84 2183.93 1451.33 Q2183.93 1453.46 2183.12 1455.38 Q2182.34 1457.28 2180.23 1459.87 Q2179.65 1460.54 2176.55 1463.76 Q2173.45 1466.95 2167.8 1472.72 Z" fill="#000000" fill-rule="evenodd" fill-opacity="1" /><path clip-path="url(#clip430)" d="M 0 0 M2199.19 1445.17 Q2195.58 1445.17 2193.75 1448.74 Q2191.94 1452.28 2191.94 1459.41 Q2191.94 1466.51 2193.75 1470.08 Q2195.58 1473.62 2199.19 1473.62 Q2202.82 1473.62 2204.63 1470.08 Q2206.46 1466.51 2206.46 1459.41 Q2206.46 1452.28 2204.63 1448.74 Q2202.82 1445.17 2199.19 1445.17 M2199.19 1441.47 Q2205 1441.47 2208.05 1446.07 Q2211.13 1450.66 2211.13 1459.41 Q2211.13 1468.13 2208.05 1472.74 Q2205 1477.32 2199.19 1477.32 Q2193.38 1477.32 2190.3 1472.74 Q2187.24 1468.13 2187.24 1459.41 Q2187.24 1450.66 2190.3 1446.07 Q2193.38 1441.47 2199.19 1441.47 Z" fill="#000000" fill-rule="evenodd" fill-opacity="1" /><path clip-path="url(#clip430)" d="M 0 0 M63.6403 1123.17 L76.1171 1123.17 L76.1171 1126.97 L63.6403 1126.97 L63.6403 1123.17 Z" fill="#000000" fill-rule="evenodd" fill-opacity="1" /><path clip-path="url(#clip430)" d="M 0 0 M85.2142 1134.12 L101.534 1134.12 L101.534 1138.06 L79.5893 1138.06 L79.5893 1134.12 Q82.2513 1131.37 86.8346 1126.74 Q91.441 1122.08 92.6216 1120.74 Q94.867 1118.22 95.7466 1116.48 Q96.6494 1114.72 96.6494 1113.03 Q96.6494 1110.28 94.7049 1108.54 Q92.7836 1106.81 89.6818 1106.81 Q87.4827 1106.81 85.029 1107.57 Q82.5985 1108.33 79.8207 1109.89 L79.8207 1105.16 Q82.6448 1104.03 85.0985 1103.45 Q87.5522 1102.87 89.5892 1102.87 Q94.9595 1102.87 98.154 1105.56 Q101.348 1108.24 101.348 1112.73 Q101.348 1114.86 100.538 1116.78 Q99.7512 1118.68 97.6447 1121.27 Q97.066 1121.95 93.9642 1125.16 Q90.8623 1128.36 85.2142 1134.12 Z" fill="#000000" fill-rule="evenodd" fill-opacity="1" /><path clip-path="url(#clip430)" d="M 0 0 M120.77 1119.42 Q124.126 1120.14 126.001 1122.41 Q127.899 1124.68 127.899 1128.01 Q127.899 1133.13 124.381 1135.93 Q120.862 1138.73 114.381 1138.73 Q112.205 1138.73 109.89 1138.29 Q107.598 1137.87 105.145 1137.01 L105.145 1132.5 Q107.089 1133.64 109.404 1134.21 Q111.719 1134.79 114.242 1134.79 Q118.64 1134.79 120.932 1133.06 Q123.246 1131.32 123.246 1128.01 Q123.246 1124.95 121.094 1123.24 Q118.964 1121.51 115.145 1121.51 L111.117 1121.51 L111.117 1117.66 L115.33 1117.66 Q118.779 1117.66 120.608 1116.3 Q122.436 1114.91 122.436 1112.32 Q122.436 1109.65 120.538 1108.24 Q118.663 1106.81 115.145 1106.81 Q113.223 1106.81 111.024 1107.22 Q108.825 1107.64 106.186 1108.52 L106.186 1104.35 Q108.848 1103.61 111.163 1103.24 Q113.501 1102.87 115.561 1102.87 Q120.885 1102.87 123.987 1105.3 Q127.089 1107.71 127.089 1111.83 Q127.089 1114.7 125.445 1116.69 Q123.802 1118.66 120.77 1119.42 Z" fill="#000000" fill-rule="evenodd" fill-opacity="1" /><path clip-path="url(#clip430)" d="M 0 0 M64.5893 795.383 L77.0661 795.383 L77.0661 799.18 L64.5893 799.18 L64.5893 795.383 Z" fill="#000000" fill-rule="evenodd" fill-opacity="1" /><path clip-path="url(#clip430)" d="M 0 0 M86.1633 806.332 L102.483 806.332 L102.483 810.268 L80.5383 810.268 L80.5383 806.332 Q83.2004 803.578 87.7837 798.948 Q92.3901 794.295 93.5707 792.953 Q95.816 790.43 96.6956 788.694 Q97.5984 786.934 97.5984 785.244 Q97.5984 782.49 95.654 780.754 Q93.7327 779.018 90.6309 779.018 Q88.4318 779.018 85.9781 779.782 Q83.5476 780.545 80.7698 782.096 L80.7698 777.374 Q83.5939 776.24 86.0476 775.661 Q88.5012 775.083 90.5383 775.083 Q95.9086 775.083 99.103 777.768 Q102.297 780.453 102.297 784.944 Q102.297 787.073 101.487 788.994 Q100.7 790.893 98.5938 793.485 Q98.0151 794.156 94.9133 797.374 Q91.8114 800.568 86.1633 806.332 Z" fill="#000000" fill-rule="evenodd" fill-opacity="1" /><path clip-path="url(#clip430)" d="M 0 0 M111.58 806.332 L127.899 806.332 L127.899 810.268 L105.955 810.268 L105.955 806.332 Q108.617 803.578 113.2 798.948 Q117.807 794.295 118.987 792.953 Q121.233 790.43 122.112 788.694 Q123.015 786.934 123.015 785.244 Q123.015 782.49 121.071 780.754 Q119.149 779.018 116.047 779.018 Q113.848 779.018 111.395 779.782 Q108.964 780.545 106.186 782.096 L106.186 777.374 Q109.01 776.24 111.464 775.661 Q113.918 775.083 115.955 775.083 Q121.325 775.083 124.52 777.768 Q127.714 780.453 127.714 784.944 Q127.714 787.073 126.904 788.994 Q126.117 790.893 124.01 793.485 Q123.432 794.156 120.33 797.374 Q117.228 800.568 111.58 806.332 Z" fill="#000000" fill-rule="evenodd" fill-opacity="1" /><path clip-path="url(#clip430)" d="M 0 0 M64.219 467.594 L76.6958 467.594 L76.6958 471.391 L64.219 471.391 L64.219 467.594 Z" fill="#000000" fill-rule="evenodd" fill-opacity="1" /><path clip-path="url(#clip430)" d="M 0 0 M85.7929 478.543 L102.112 478.543 L102.112 482.479 L80.168 482.479 L80.168 478.543 Q82.83 475.789 87.4133 471.159 Q92.0197 466.506 93.2003 465.164 Q95.4457 462.641 96.3253 460.905 Q97.2281 459.145 97.2281 457.456 Q97.2281 454.701 95.2836 452.965 Q93.3623 451.229 90.2605 451.229 Q88.0614 451.229 85.6077 451.993 Q83.1772 452.756 80.3994 454.307 L80.3994 449.585 Q83.2235 448.451 85.6772 447.872 Q88.1309 447.294 90.1679 447.294 Q95.5382 447.294 98.7327 449.979 Q101.927 452.664 101.927 457.155 Q101.927 459.284 101.117 461.206 Q100.33 463.104 98.2234 465.696 Q97.6447 466.368 94.5429 469.585 Q91.441 472.78 85.7929 478.543 Z" fill="#000000" fill-rule="evenodd" fill-opacity="1" /><path clip-path="url(#clip430)" d="M 0 0 M107.992 478.543 L115.631 478.543 L115.631 452.178 L107.321 453.844 L107.321 449.585 L115.584 447.919 L120.26 447.919 L120.26 478.543 L127.899 478.543 L127.899 482.479 L107.992 482.479 L107.992 478.543 Z" fill="#000000" fill-rule="evenodd" fill-opacity="1" /><path clip-path="url(#clip430)" d="M 0 0 M62.9921 139.805 L75.4689 139.805 L75.4689 143.602 L62.9921 143.602 L62.9921 139.805 Z" fill="#000000" fill-rule="evenodd" fill-opacity="1" /><path clip-path="url(#clip430)" d="M 0 0 M84.5661 150.754 L100.885 150.754 L100.885 154.69 L78.9411 154.69 L78.9411 150.754 Q81.6031 148 86.1864 143.37 Q90.7929 138.717 91.9735 137.375 Q94.2188 134.852 95.0984 133.116 Q96.0012 131.356 96.0012 129.667 Q96.0012 126.912 94.0568 125.176 Q92.1355 123.44 89.0337 123.44 Q86.8346 123.44 84.3809 124.204 Q81.9504 124.968 79.1726 126.518 L79.1726 121.796 Q81.9967 120.662 84.4503 120.083 Q86.904 119.505 88.9411 119.505 Q94.3114 119.505 97.5058 122.19 Q100.7 124.875 100.7 129.366 Q100.7 131.495 99.8901 133.417 Q99.103 135.315 96.9966 137.907 Q96.4179 138.579 93.316 141.796 Q90.2142 144.991 84.5661 150.754 Z" fill="#000000" fill-rule="evenodd" fill-opacity="1" /><path clip-path="url(#clip430)" d="M 0 0 M115.955 123.208 Q112.344 123.208 110.515 126.773 Q108.709 130.315 108.709 137.444 Q108.709 144.551 110.515 148.116 Q112.344 151.657 115.955 151.657 Q119.589 151.657 121.395 148.116 Q123.223 144.551 123.223 137.444 Q123.223 130.315 121.395 126.773 Q119.589 123.208 115.955 123.208 M115.955 119.505 Q121.765 119.505 124.82 124.111 Q127.899 128.694 127.899 137.444 Q127.899 146.171 124.82 150.778 Q121.765 155.361 115.955 155.361 Q110.145 155.361 107.066 150.778 Q104.01 146.171 104.01 137.444 Q104.01 128.694 107.066 124.111 Q110.145 119.505 115.955 119.505 Z" fill="#000000" fill-rule="evenodd" fill-opacity="1" /><path clip-path="url(#clip430)" d="M 0 0 M1189.56 1559.35 Q1187.08 1565.72 1184.72 1567.66 Q1182.37 1569.6 1178.42 1569.6 L1173.74 1569.6 L1173.74 1564.7 L1177.18 1564.7 Q1179.6 1564.7 1180.94 1563.56 Q1182.27 1562.41 1183.9 1558.14 L1184.95 1555.47 L1170.53 1520.4 L1176.73 1520.4 L1187.87 1548.28 L1199.01 1520.4 L1205.22 1520.4 L1189.56 1559.35 Z" fill="#000000" fill-rule="evenodd" fill-opacity="1" /><path clip-path="url(#clip430)" d="M 0 0 M1207.26 1535.58 L1224.41 1535.58 L1224.41 1540.8 L1207.26 1540.8 L1207.26 1535.58 Z" fill="#000000" fill-rule="evenodd" fill-opacity="1" /><path clip-path="url(#clip430)" d="M 0 0 M1254.01 1537.81 Q1254.01 1531.44 1251.37 1527.94 Q1248.76 1524.44 1244.02 1524.44 Q1239.31 1524.44 1236.67 1527.94 Q1234.06 1531.44 1234.06 1537.81 Q1234.06 1544.14 1236.67 1547.64 Q1239.31 1551.14 1244.02 1551.14 Q1248.76 1551.14 1251.37 1547.64 Q1254.01 1544.14 1254.01 1537.81 M1259.87 1551.62 Q1259.87 1560.72 1255.83 1565.15 Q1251.79 1569.6 1243.45 1569.6 Q1240.36 1569.6 1237.62 1569.13 Q1234.89 1568.68 1232.31 1567.72 L1232.31 1562.03 Q1234.89 1563.43 1237.4 1564.1 Q1239.91 1564.76 1242.52 1564.76 Q1248.29 1564.76 1251.15 1561.74 Q1254.01 1558.75 1254.01 1552.67 L1254.01 1549.77 Q1252.2 1552.92 1249.37 1554.48 Q1246.53 1556.04 1242.59 1556.04 Q1236.03 1556.04 1232.02 1551.05 Q1228.01 1546.05 1228.01 1537.81 Q1228.01 1529.53 1232.02 1524.53 Q1236.03 1519.54 1242.59 1519.54 Q1246.53 1519.54 1249.37 1521.1 Q1252.2 1522.66 1254.01 1525.81 L1254.01 1520.4 L1259.87 1520.4 L1259.87 1551.62 Z" fill="#000000" fill-rule="evenodd" fill-opacity="1" /><path clip-path="url(#clip430)" d="M 0 0 M1286.67 1525.87 Q1285.68 1525.3 1284.51 1525.04 Q1283.36 1524.76 1281.96 1524.76 Q1276.99 1524.76 1274.32 1528 Q1271.68 1531.22 1271.68 1537.27 L1271.68 1556.04 L1265.79 1556.04 L1265.79 1520.4 L1271.68 1520.4 L1271.68 1525.93 Q1273.53 1522.69 1276.49 1521.13 Q1279.45 1519.54 1283.68 1519.54 Q1284.28 1519.54 1285.02 1519.63 Q1285.75 1519.7 1286.64 1519.85 L1286.67 1525.87 Z" fill="#000000" fill-rule="evenodd" fill-opacity="1" /><path clip-path="url(#clip430)" d="M 0 0 M1292.81 1520.4 L1298.67 1520.4 L1298.67 1556.04 L1292.81 1556.04 L1292.81 1520.4 M1292.81 1506.52 L1298.67 1506.52 L1298.67 1513.93 L1292.81 1513.93 L1292.81 1506.52 Z" fill="#000000" fill-rule="evenodd" fill-opacity="1" /><path clip-path="url(#clip430)" d="M 0 0 M1328.27 1525.81 L1328.27 1506.52 L1334.13 1506.52 L1334.13 1556.04 L1328.27 1556.04 L1328.27 1550.7 Q1326.42 1553.88 1323.59 1555.44 Q1320.79 1556.97 1316.84 1556.97 Q1310.38 1556.97 1306.31 1551.81 Q1302.27 1546.65 1302.27 1538.25 Q1302.27 1529.85 1306.31 1524.69 Q1310.38 1519.54 1316.84 1519.54 Q1320.79 1519.54 1323.59 1521.1 Q1326.42 1522.62 1328.27 1525.81 M1308.31 1538.25 Q1308.31 1544.71 1310.96 1548.4 Q1313.63 1552.07 1318.28 1552.07 Q1322.92 1552.07 1325.6 1548.4 Q1328.27 1544.71 1328.27 1538.25 Q1328.27 1531.79 1325.6 1528.13 Q1322.92 1524.44 1318.28 1524.44 Q1313.63 1524.44 1310.96 1528.13 Q1308.31 1531.79 1308.31 1538.25 Z" fill="#000000" fill-rule="evenodd" fill-opacity="1" /><polyline clip-path="url(#clip432)" style="stroke:#0000ff; stroke-width:4.6; stroke-opacity:1; fill:none" points="
  214.188,1340.64 318.002,1278.28 421.816,1203.43 525.63,1123.69 629.444,1042.68 733.258,961.909 837.072,882.153 940.886,804.026 1044.7,728.384 1148.51,656.389 
  1252.33,595.86 1356.14,538.982 1459.96,484.223 1563.77,430.868 1667.58,378.631 1771.4,327.456 1875.21,277.467 1979.03,229.038 2082.84,183.067 2186.65,141.687 
  2290.47,109.178 
  "/>
<polyline clip-path="url(#clip432)" style="stroke:#800080; stroke-width:6; stroke-opacity:1; fill:none" stroke-dasharray="3, 6" points="
  214.188,1365.54 318.002,1281.42 421.816,1198.01 525.63,1115.58 629.444,1034.4 733.258,954.782 837.072,877.031 940.886,801.457 1044.7,728.364 1148.51,658.045 
  1252.33,590.769 1356.14,526.773 1459.96,466.258 1563.77,409.375 1667.58,356.229 1771.4,306.867 1875.21,261.286 1979.03,219.429 2082.84,181.195 2186.65,146.443 
  2290.47,114.998 
  "/>
<polyline clip-path="url(#clip432)" style="stroke:#ff0000; stroke-width:4.6; stroke-opacity:1; fill:none" stroke-dasharray="18, 12" points="
  214.188,1384.24 318.002,1296.95 421.816,1210.39 525.63,1124.84 629.444,1040.59 733.258,957.953 837.072,877.254 940.886,798.813 1044.7,722.945 1148.51,649.953 
  1252.33,580.117 1356.14,513.685 1459.96,450.864 1563.77,391.813 1667.58,336.639 1771.4,285.392 1875.21,238.07 1979.03,194.613 2082.84,154.916 2186.65,118.834 
  2290.47,86.1857 
  "/>
<path clip-path="url(#clip430)" d="
M1783.7 1279.18 L2280.76 1279.18 L2280.76 1037.26 L1783.7 1037.26  Z
  " fill="#ffffff" fill-rule="evenodd" fill-opacity="1"/>
<polyline clip-path="url(#clip430)" style="stroke:#000000; stroke-width:4; stroke-opacity:0; fill:none" points="
  1783.7,1279.18 2280.76,1279.18 2280.76,1037.26 1783.7,1037.26 1783.7,1279.18 
  "/>
<polyline clip-path="url(#clip430)" style="stroke:#0000ff; stroke-width:4; stroke-opacity:1; fill:none" points="
  1807.7,1097.74 1951.7,1097.74 
  "/>
<path clip-path="url(#clip430)" d="M 0 0 M1989.1 1101.99 Q1983.94 1101.99 1981.95 1103.17 Q1979.96 1104.35 1979.96 1107.2 Q1979.96 1109.46 1981.44 1110.81 Q1982.94 1112.13 1985.51 1112.13 Q1989.05 1112.13 1991.18 1109.63 Q1993.34 1107.1 1993.34 1102.94 L1993.34 1101.99 L1989.1 1101.99 M1997.6 1100.23 L1997.6 1115.02 L1993.34 1115.02 L1993.34 1111.08 Q1991.88 1113.45 1989.7 1114.58 Q1987.53 1115.69 1984.38 1115.69 Q1980.4 1115.69 1978.04 1113.47 Q1975.7 1111.22 1975.7 1107.47 Q1975.7 1103.1 1978.61 1100.88 Q1981.55 1098.65 1987.36 1098.65 L1993.34 1098.65 L1993.34 1098.24 Q1993.34 1095.3 1991.39 1093.7 Q1989.47 1092.08 1985.97 1092.08 Q1983.75 1092.08 1981.65 1092.61 Q1979.54 1093.14 1977.6 1094.21 L1977.6 1090.27 Q1979.93 1089.37 1982.13 1088.93 Q1984.33 1088.47 1986.41 1088.47 Q1992.04 1088.47 1994.82 1091.39 Q1997.6 1094.3 1997.6 1100.23 Z" fill="#000000" fill-rule="evenodd" fill-opacity="1" /><path clip-path="url(#clip430)" d="M 0 0 M2020.72 1090.09 L2020.72 1094.07 Q2018.91 1093.08 2017.09 1092.59 Q2015.28 1092.08 2013.43 1092.08 Q2009.28 1092.08 2006.99 1094.72 Q2004.7 1097.33 2004.7 1102.08 Q2004.7 1106.83 2006.99 1109.46 Q2009.28 1112.08 2013.43 1112.08 Q2015.28 1112.08 2017.09 1111.59 Q2018.91 1111.08 2020.72 1110.09 L2020.72 1114.02 Q2018.94 1114.86 2017.02 1115.27 Q2015.12 1115.69 2012.97 1115.69 Q2007.11 1115.69 2003.66 1112.01 Q2000.21 1108.33 2000.21 1102.08 Q2000.21 1095.74 2003.68 1092.1 Q2007.18 1088.47 2013.24 1088.47 Q2015.21 1088.47 2017.09 1088.89 Q2018.96 1089.28 2020.72 1090.09 Z" fill="#000000" fill-rule="evenodd" fill-opacity="1" /><path clip-path="url(#clip430)" d="M 0 0 M2029.4 1081.73 L2029.4 1089.09 L2038.17 1089.09 L2038.17 1092.4 L2029.4 1092.4 L2029.4 1106.48 Q2029.4 1109.65 2030.26 1110.55 Q2031.14 1111.46 2033.8 1111.46 L2038.17 1111.46 L2038.17 1115.02 L2033.8 1115.02 Q2028.87 1115.02 2026.99 1113.19 Q2025.12 1111.34 2025.12 1106.48 L2025.12 1092.4 L2021.99 1092.4 L2021.99 1089.09 L2025.12 1089.09 L2025.12 1081.73 L2029.4 1081.73 Z" fill="#000000" fill-rule="evenodd" fill-opacity="1" /><path clip-path="url(#clip430)" d="M 0 0 M2042.2 1104.79 L2042.2 1089.09 L2046.46 1089.09 L2046.46 1104.63 Q2046.46 1108.31 2047.9 1110.16 Q2049.33 1111.99 2052.2 1111.99 Q2055.65 1111.99 2057.64 1109.79 Q2059.65 1107.59 2059.65 1103.79 L2059.65 1089.09 L2063.91 1089.09 L2063.91 1115.02 L2059.65 1115.02 L2059.65 1111.04 Q2058.1 1113.4 2056.04 1114.56 Q2054.01 1115.69 2051.3 1115.69 Q2046.83 1115.69 2044.52 1112.91 Q2042.2 1110.14 2042.2 1104.79 M2052.92 1088.47 L2052.92 1088.47 Z" fill="#000000" fill-rule="evenodd" fill-opacity="1" /><path clip-path="url(#clip430)" d="M 0 0 M2080.16 1101.99 Q2075 1101.99 2073.01 1103.17 Q2071.02 1104.35 2071.02 1107.2 Q2071.02 1109.46 2072.5 1110.81 Q2074.01 1112.13 2076.58 1112.13 Q2080.12 1112.13 2082.25 1109.63 Q2084.4 1107.1 2084.4 1102.94 L2084.4 1101.99 L2080.16 1101.99 M2088.66 1100.23 L2088.66 1115.02 L2084.4 1115.02 L2084.4 1111.08 Q2082.94 1113.45 2080.77 1114.58 Q2078.59 1115.69 2075.44 1115.69 Q2071.46 1115.69 2069.1 1113.47 Q2066.76 1111.22 2066.76 1107.47 Q2066.76 1103.1 2069.68 1100.88 Q2072.62 1098.65 2078.43 1098.65 L2084.4 1098.65 L2084.4 1098.24 Q2084.4 1095.3 2082.46 1093.7 Q2080.53 1092.08 2077.04 1092.08 Q2074.82 1092.08 2072.71 1092.61 Q2070.6 1093.14 2068.66 1094.21 L2068.66 1090.27 Q2071 1089.37 2073.2 1088.93 Q2075.4 1088.47 2077.48 1088.47 Q2083.1 1088.47 2085.88 1091.39 Q2088.66 1094.3 2088.66 1100.23 Z" fill="#000000" fill-rule="evenodd" fill-opacity="1" /><path clip-path="url(#clip430)" d="M 0 0 M2093.13 1079 L2097.39 1079 L2097.39 1115.02 L2093.13 1115.02 L2093.13 1079 Z" fill="#000000" fill-rule="evenodd" fill-opacity="1" /><polyline clip-path="url(#clip430)" style="stroke:#800080; stroke-width:4; stroke-opacity:1; fill:none" stroke-dasharray="2, 4" points="
  1807.7,1158.22 1951.7,1158.22 
  "/>
<path clip-path="url(#clip430)" d="M 0 0 M1975.7 1140.94 L1981.99 1140.94 L1997.32 1169.85 L1997.32 1140.94 L2001.85 1140.94 L2001.85 1175.5 L1995.56 1175.5 L1980.23 1146.59 L1980.23 1175.5 L1975.7 1175.5 L1975.7 1140.94 Z" fill="#000000" fill-rule="evenodd" fill-opacity="1" /><path clip-path="url(#clip430)" d="M 0 0 M2006.51 1140.94 L2012.8 1140.94 L2028.13 1169.85 L2028.13 1140.94 L2032.66 1140.94 L2032.66 1175.5 L2026.37 1175.5 L2011.04 1146.59 L2011.04 1175.5 L2006.51 1175.5 L2006.51 1140.94 Z" fill="#000000" fill-rule="evenodd" fill-opacity="1" /><path clip-path="url(#clip430)" d="M 0 0 M2038.54 1171.56 L2046.18 1171.56 L2046.18 1145.2 L2037.87 1146.87 L2037.87 1142.61 L2046.14 1140.94 L2050.81 1140.94 L2050.81 1171.56 L2058.45 1171.56 L2058.45 1175.5 L2038.54 1175.5 L2038.54 1171.56 Z" fill="#000000" fill-rule="evenodd" fill-opacity="1" /><path clip-path="url(#clip430)" d="M 0 0 M2060.77 1160.62 L2073.24 1160.62 L2073.24 1164.41 L2060.77 1164.41 L2060.77 1160.62 Z" fill="#000000" fill-rule="evenodd" fill-opacity="1" /><path clip-path="url(#clip430)" d="M 0 0 M2092.78 1149.57 L2097.04 1149.57 L2097.04 1175.5 L2092.78 1175.5 L2092.78 1149.57 M2092.78 1139.48 L2097.04 1139.48 L2097.04 1144.88 L2092.78 1144.88 L2092.78 1139.48 Z" fill="#000000" fill-rule="evenodd" fill-opacity="1" /><path clip-path="url(#clip430)" d="M 0 0 M2123.06 1159.85 L2123.06 1175.5 L2118.8 1175.5 L2118.8 1159.99 Q2118.8 1156.31 2117.36 1154.48 Q2115.93 1152.65 2113.06 1152.65 Q2109.61 1152.65 2107.62 1154.85 Q2105.63 1157.05 2105.63 1160.85 L2105.63 1175.5 L2101.34 1175.5 L2101.34 1149.57 L2105.63 1149.57 L2105.63 1153.6 Q2107.15 1151.26 2109.21 1150.11 Q2111.3 1148.95 2114.01 1148.95 Q2118.47 1148.95 2120.77 1151.73 Q2123.06 1154.48 2123.06 1159.85 Z" fill="#000000" fill-rule="evenodd" fill-opacity="1" /><path clip-path="url(#clip430)" d="M 0 0 M2131.74 1142.21 L2131.74 1149.57 L2140.51 1149.57 L2140.51 1152.88 L2131.74 1152.88 L2131.74 1166.96 Q2131.74 1170.13 2132.59 1171.03 Q2133.47 1171.94 2136.14 1171.94 L2140.51 1171.94 L2140.51 1175.5 L2136.14 1175.5 Q2131.21 1175.5 2129.33 1173.67 Q2127.46 1171.82 2127.46 1166.96 L2127.46 1152.88 L2124.33 1152.88 L2124.33 1149.57 L2127.46 1149.57 L2127.46 1142.21 L2131.74 1142.21 Z" fill="#000000" fill-rule="evenodd" fill-opacity="1" /><path clip-path="url(#clip430)" d="M 0 0 M2167.15 1161.47 L2167.15 1163.56 L2147.57 1163.56 Q2147.85 1167.95 2150.21 1170.27 Q2152.59 1172.56 2156.83 1172.56 Q2159.28 1172.56 2161.58 1171.96 Q2163.89 1171.36 2166.16 1170.15 L2166.16 1174.18 Q2163.87 1175.15 2161.46 1175.66 Q2159.05 1176.17 2156.58 1176.17 Q2150.37 1176.17 2146.74 1172.56 Q2143.13 1168.95 2143.13 1162.79 Q2143.13 1156.43 2146.55 1152.7 Q2150 1148.95 2155.84 1148.95 Q2161.07 1148.95 2164.1 1152.33 Q2167.15 1155.69 2167.15 1161.47 M2162.9 1160.22 Q2162.85 1156.73 2160.93 1154.64 Q2159.03 1152.56 2155.88 1152.56 Q2152.32 1152.56 2150.16 1154.57 Q2148.03 1156.59 2147.71 1160.25 L2162.9 1160.22 Z" fill="#000000" fill-rule="evenodd" fill-opacity="1" /><path clip-path="url(#clip430)" d="M 0 0 M2186.65 1153.56 Q2185.93 1153.14 2185.07 1152.95 Q2184.24 1152.75 2183.22 1152.75 Q2179.61 1152.75 2177.66 1155.11 Q2175.74 1157.44 2175.74 1161.84 L2175.74 1175.5 L2171.46 1175.5 L2171.46 1149.57 L2175.74 1149.57 L2175.74 1153.6 Q2177.08 1151.24 2179.24 1150.11 Q2181.39 1148.95 2184.47 1148.95 Q2184.91 1148.95 2185.44 1149.02 Q2185.97 1149.06 2186.62 1149.18 L2186.65 1153.56 Z" fill="#000000" fill-rule="evenodd" fill-opacity="1" /><path clip-path="url(#clip430)" d="M 0 0 M2210.46 1154.55 Q2212.06 1151.68 2214.28 1150.31 Q2216.51 1148.95 2219.52 1148.95 Q2223.57 1148.95 2225.77 1151.8 Q2227.96 1154.62 2227.96 1159.85 L2227.96 1175.5 L2223.68 1175.5 L2223.68 1159.99 Q2223.68 1156.26 2222.36 1154.46 Q2221.04 1152.65 2218.33 1152.65 Q2215.02 1152.65 2213.1 1154.85 Q2211.18 1157.05 2211.18 1160.85 L2211.18 1175.5 L2206.9 1175.5 L2206.9 1159.99 Q2206.9 1156.24 2205.58 1154.46 Q2204.26 1152.65 2201.51 1152.65 Q2198.24 1152.65 2196.32 1154.87 Q2194.4 1157.07 2194.4 1160.85 L2194.4 1175.5 L2190.12 1175.5 L2190.12 1149.57 L2194.4 1149.57 L2194.4 1153.6 Q2195.86 1151.22 2197.89 1150.08 Q2199.93 1148.95 2202.73 1148.95 Q2205.56 1148.95 2207.52 1150.38 Q2209.52 1151.82 2210.46 1154.55 Z" fill="#000000" fill-rule="evenodd" fill-opacity="1" /><polyline clip-path="url(#clip430)" style="stroke:#ff0000; stroke-width:4; stroke-opacity:1; fill:none" stroke-dasharray="16, 10" points="
  1807.7,1218.7 1951.7,1218.7 
  "/>
<path clip-path="url(#clip430)" d="M 0 0 M1975.7 1201.42 L1981.99 1201.42 L1997.32 1230.33 L1997.32 1201.42 L2001.85 1201.42 L2001.85 1235.98 L1995.56 1235.98 L1980.23 1207.07 L1980.23 1235.98 L1975.7 1235.98 L1975.7 1201.42 Z" fill="#000000" fill-rule="evenodd" fill-opacity="1" /><path clip-path="url(#clip430)" d="M 0 0 M2006.51 1201.42 L2012.8 1201.42 L2028.13 1230.33 L2028.13 1201.42 L2032.66 1201.42 L2032.66 1235.98 L2026.37 1235.98 L2011.04 1207.07 L2011.04 1235.98 L2006.51 1235.98 L2006.51 1201.42 Z" fill="#000000" fill-rule="evenodd" fill-opacity="1" /><path clip-path="url(#clip430)" d="M 0 0 M2036.78 1201.42 L2041.48 1201.42 L2041.48 1222.42 Q2041.48 1227.97 2043.5 1230.42 Q2045.51 1232.85 2050.03 1232.85 Q2054.52 1232.85 2056.53 1230.42 Q2058.54 1227.97 2058.54 1222.42 L2058.54 1201.42 L2063.24 1201.42 L2063.24 1222.99 Q2063.24 1229.75 2059.89 1233.2 Q2056.55 1236.65 2050.03 1236.65 Q2043.47 1236.65 2040.12 1233.2 Q2036.78 1229.75 2036.78 1222.99 L2036.78 1201.42 Z" fill="#000000" fill-rule="evenodd" fill-opacity="1" /><path clip-path="url(#clip430)" d="M 0 0 M2065.56 1221.1 L2078.03 1221.1 L2078.03 1224.89 L2065.56 1224.89 L2065.56 1221.1 Z" fill="#000000" fill-rule="evenodd" fill-opacity="1" /><path clip-path="url(#clip430)" d="M 0 0 M2097.57 1210.05 L2101.83 1210.05 L2101.83 1235.98 L2097.57 1235.98 L2097.57 1210.05 M2097.57 1199.96 L2101.83 1199.96 L2101.83 1205.36 L2097.57 1205.36 L2097.57 1199.96 Z" fill="#000000" fill-rule="evenodd" fill-opacity="1" /><path clip-path="url(#clip430)" d="M 0 0 M2127.85 1220.33 L2127.85 1235.98 L2123.59 1235.98 L2123.59 1220.47 Q2123.59 1216.79 2122.15 1214.96 Q2120.72 1213.13 2117.85 1213.13 Q2114.4 1213.13 2112.41 1215.33 Q2110.42 1217.53 2110.42 1221.33 L2110.42 1235.98 L2106.14 1235.98 L2106.14 1210.05 L2110.42 1210.05 L2110.42 1214.08 Q2111.95 1211.74 2114.01 1210.59 Q2116.09 1209.43 2118.8 1209.43 Q2123.27 1209.43 2125.56 1212.21 Q2127.85 1214.96 2127.85 1220.33 Z" fill="#000000" fill-rule="evenodd" fill-opacity="1" /><path clip-path="url(#clip430)" d="M 0 0 M2136.53 1202.69 L2136.53 1210.05 L2145.3 1210.05 L2145.3 1213.36 L2136.53 1213.36 L2136.53 1227.44 Q2136.53 1230.61 2137.39 1231.51 Q2138.27 1232.42 2140.93 1232.42 L2145.3 1232.42 L2145.3 1235.98 L2140.93 1235.98 Q2136 1235.98 2134.12 1234.15 Q2132.25 1232.3 2132.25 1227.44 L2132.25 1213.36 L2129.12 1213.36 L2129.12 1210.05 L2132.25 1210.05 L2132.25 1202.69 L2136.53 1202.69 Z" fill="#000000" fill-rule="evenodd" fill-opacity="1" /><path clip-path="url(#clip430)" d="M 0 0 M2171.95 1221.95 L2171.95 1224.04 L2152.36 1224.04 Q2152.64 1228.43 2155 1230.75 Q2157.39 1233.04 2161.62 1233.04 Q2164.08 1233.04 2166.37 1232.44 Q2168.68 1231.84 2170.95 1230.63 L2170.95 1234.66 Q2168.66 1235.63 2166.25 1236.14 Q2163.84 1236.65 2161.37 1236.65 Q2155.16 1236.65 2151.53 1233.04 Q2147.92 1229.43 2147.92 1223.27 Q2147.92 1216.91 2151.34 1213.18 Q2154.79 1209.43 2160.63 1209.43 Q2165.86 1209.43 2168.89 1212.81 Q2171.95 1216.17 2171.95 1221.95 M2167.69 1220.7 Q2167.64 1217.21 2165.72 1215.12 Q2163.82 1213.04 2160.67 1213.04 Q2157.11 1213.04 2154.96 1215.05 Q2152.83 1217.07 2152.5 1220.73 L2167.69 1220.7 Z" fill="#000000" fill-rule="evenodd" fill-opacity="1" /><path clip-path="url(#clip430)" d="M 0 0 M2191.44 1214.04 Q2190.72 1213.62 2189.86 1213.43 Q2189.03 1213.23 2188.01 1213.23 Q2184.4 1213.23 2182.46 1215.59 Q2180.53 1217.92 2180.53 1222.32 L2180.53 1235.98 L2176.25 1235.98 L2176.25 1210.05 L2180.53 1210.05 L2180.53 1214.08 Q2181.88 1211.72 2184.03 1210.59 Q2186.18 1209.43 2189.26 1209.43 Q2189.7 1209.43 2190.23 1209.5 Q2190.77 1209.54 2191.41 1209.66 L2191.44 1214.04 Z" fill="#000000" fill-rule="evenodd" fill-opacity="1" /><path clip-path="url(#clip430)" d="M 0 0 M2215.26 1215.03 Q2216.85 1212.16 2219.08 1210.79 Q2221.3 1209.43 2224.31 1209.43 Q2228.36 1209.43 2230.56 1212.28 Q2232.76 1215.1 2232.76 1220.33 L2232.76 1235.98 L2228.47 1235.98 L2228.47 1220.47 Q2228.47 1216.74 2227.15 1214.94 Q2225.83 1213.13 2223.13 1213.13 Q2219.82 1213.13 2217.89 1215.33 Q2215.97 1217.53 2215.97 1221.33 L2215.97 1235.98 L2211.69 1235.98 L2211.69 1220.47 Q2211.69 1216.72 2210.37 1214.94 Q2209.05 1213.13 2206.3 1213.13 Q2203.03 1213.13 2201.11 1215.35 Q2199.19 1217.55 2199.19 1221.33 L2199.19 1235.98 L2194.91 1235.98 L2194.91 1210.05 L2199.19 1210.05 L2199.19 1214.08 Q2200.65 1211.7 2202.69 1210.56 Q2204.72 1209.43 2207.52 1209.43 Q2210.35 1209.43 2212.32 1210.86 Q2214.31 1212.3 2215.26 1215.03 Z" fill="#000000" fill-rule="evenodd" fill-opacity="1" /></svg>
