<?xml version="1.0" encoding="utf-8"?>
<svg xmlns="http://www.w3.org/2000/svg" xmlns:xlink="http://www.w3.org/1999/xlink" width="600" height="400" viewBox="0 0 2400 1600">
<defs>
  <clipPath id="clip100">
    <rect x="0" y="0" width="2400" height="1600"/>
  </clipPath>
</defs>
<path clip-path="url(#clip100)" d="
M0 1600 L2400 1600 L2400 0 L0 0  Z
  " fill="#ffffff" fill-rule="evenodd" fill-opacity="1"/>
<defs>
  <clipPath id="clip101">
    <rect x="480" y="0" width="1681" height="1600"/>
  </clipPath>
</defs>
<path clip-path="url(#clip100)" d="
M151.899 1423.18 L2352.76 1423.18 L2352.76 47.2441 L151.899 47.2441  Z
  " fill="#ffffff" fill-rule="evenodd" fill-opacity="1"/>
<defs>
  <clipPath id="clip102">
    <rect x="151" y="47" width="2202" height="1377"/>
  </clipPath>
</defs>
<polyline clip-path="url(#clip102)" style="stroke:#000000; stroke-width:2; stroke-opacity:0.1; fill:none" points="
  629.444,1423.18 629.444,47.2441 
  "/>
<polyline clip-path="url(#clip102)" style="stroke:#000000; stroke-width:2; stroke-opacity:0.1; fill:none" points="
  1148.51,1423.18 1148.51,47.2441 
  "/>
<polyline clip-path="url(#clip102)" style="stroke:#000000; stroke-width:2; stroke-opacity:0.1; fill:none" points="
  1667.58,1423.18 1667.58,47.2441 
  "/>
<polyline clip-path="url(#clip102)" style="stroke:#000000; stroke-width:2; stroke-opacity:0.1; fill:none" points="
  2186.65,1423.18 2186.65,47.2441 
  "/>
<polyline clip-path="url(#clip102)" style="stroke:#000000; stroke-width:2; stroke-opacity:0.1; fill:none" points="
  151.899,1121.9 2352.76,1121.9 
  "/>
<polyline clip-path="url(#clip102)" style="stroke:#000000; stroke-width:2; stroke-opacity:0.1; fill:none" points="
  151.899,786.298 2352.76,786.298 
  "/>
<polyline clip-path="url(#clip102)" style="stroke:#000000; stroke-width:2; stroke-opacity:0.1; fill:none" points="
  151.899,450.694 2352.76,450.694 
  "/>
<polyline clip-path="url(#clip102)" style="stroke:#000000; stroke-width:2; stroke-opacity:0.1; fill:none" points="
  151.899,115.09 2352.76,115.09 
  "/>
<polyline clip-path="url(#clip100)" style="stroke:#000000; stroke-width:4; stroke-opacity:1; fill:none" points="
  151.899,1423.18 2352.76,1423.18 
  "/>
<polyline clip-path="url(#clip100)" style="stroke:#000000; stroke-width:4; stroke-opacity:1; fill:none" points="
  151.899,1423.18 151.899,47.2441 
  "/>
<polyline clip-path="url(#clip100)" style="stroke:#000000; stroke-width:4; stroke-opacity:1; fill:none" points="
  629.444,1423.18 629.444,1406.67 
  "/>
<polyline clip-path="url(#clip100)" style="stroke:#000000; stroke-width:4; stroke-opacity:1; fill:none" points="
  1148.51,1423.18 1148.51,1406.67 
  "/>
<polyline clip-path="url(#clip100)" style="stroke:#000000; stroke-width:4; stroke-opacity:1; fill:none" points="
  1667.58,1423.18 1667.58,1406.67 
  "/>
<polyline clip-path="url(#clip100)" style="stroke:#000000; stroke-width:4; stroke-opacity:1; fill:none" points="
  2186.65,1423.18 2186.65,1406.67 
  "/>
<polyline clip-path="url(#clip100)" style="stroke:#000000; stroke-width:4; stroke-opacity:1; fill:none" points="
  151.899,1121.9 178.309,1121.9 
  "/>
<polyline clip-path="url(#clip100)" style="stroke:#000000; stroke-width:4; stroke-opacity:1; fill:none" points="
  151.899,786.298 178.309,786.298 
  "/>
<polyline clip-path="url(#clip100)" style="stroke:#000000; stroke-width:4; stroke-opacity:1; fill:none" points="
  151.899,450.694 178.309,450.694 
  "/>
<polyline clip-path="url(#clip100)" style="stroke:#000000; stroke-width:4; stroke-opacity:1; fill:none" points="
  151.899,115.09 178.309,115.09 
  "/>
<path clip-path="url(#clip100)" d="M 0 0 M619.721 1442.09 L638.078 1442.09 L638.078 1446.03 L624.004 1446.03 L624.004 1454.5 Q625.022 1454.15 626.041 1453.99 Q627.059 1453.8 628.078 1453.8 Q633.865 1453.8 637.244 1456.98 Q640.624 1460.15 640.624 1465.56 Q640.624 1471.14 637.152 1474.24 Q633.68 1477.32 627.36 1477.32 Q625.184 1477.32 622.916 1476.95 Q620.67 1476.58 618.263 1475.84 L618.263 1471.14 Q620.346 1472.28 622.569 1472.83 Q624.791 1473.39 627.268 1473.39 Q631.272 1473.39 633.61 1471.28 Q635.948 1469.18 635.948 1465.56 Q635.948 1461.95 633.61 1459.85 Q631.272 1457.74 627.268 1457.74 Q625.393 1457.74 623.518 1458.16 Q621.666 1458.57 619.721 1459.45 L619.721 1442.09 Z" fill="#000000" fill-rule="evenodd" fill-opacity="1" /><path clip-path="url(#clip100)" d="M 0 0 M1125.39 1472.72 L1133.03 1472.72 L1133.03 1446.35 L1124.72 1448.02 L1124.72 1443.76 L1132.98 1442.09 L1137.66 1442.09 L1137.66 1472.72 L1145.3 1472.72 L1145.3 1476.65 L1125.39 1476.65 L1125.39 1472.72 Z" fill="#000000" fill-rule="evenodd" fill-opacity="1" /><path clip-path="url(#clip100)" d="M 0 0 M1160.37 1445.17 Q1156.75 1445.17 1154.93 1448.74 Q1153.12 1452.28 1153.12 1459.41 Q1153.12 1466.51 1154.93 1470.08 Q1156.75 1473.62 1160.37 1473.62 Q1164 1473.62 1165.81 1470.08 Q1167.63 1466.51 1167.63 1459.41 Q1167.63 1452.28 1165.81 1448.74 Q1164 1445.17 1160.37 1445.17 M1160.37 1441.47 Q1166.18 1441.47 1169.23 1446.07 Q1172.31 1450.66 1172.31 1459.41 Q1172.31 1468.13 1169.23 1472.74 Q1166.18 1477.32 1160.37 1477.32 Q1154.56 1477.32 1151.48 1472.74 Q1148.42 1468.13 1148.42 1459.41 Q1148.42 1450.66 1151.48 1446.07 Q1154.56 1441.47 1160.37 1441.47 Z" fill="#000000" fill-rule="evenodd" fill-opacity="1" /><path clip-path="url(#clip100)" d="M 0 0 M1644.96 1472.72 L1652.6 1472.72 L1652.6 1446.35 L1644.29 1448.02 L1644.29 1443.76 L1652.55 1442.09 L1657.22 1442.09 L1657.22 1472.72 L1664.86 1472.72 L1664.86 1476.65 L1644.96 1476.65 L1644.96 1472.72 Z" fill="#000000" fill-rule="evenodd" fill-opacity="1" /><path clip-path="url(#clip100)" d="M 0 0 M1669.98 1442.09 L1688.34 1442.09 L1688.34 1446.03 L1674.26 1446.03 L1674.26 1454.5 Q1675.28 1454.15 1676.3 1453.99 Q1677.32 1453.8 1678.34 1453.8 Q1684.12 1453.8 1687.5 1456.98 Q1690.88 1460.15 1690.88 1465.56 Q1690.88 1471.14 1687.41 1474.24 Q1683.94 1477.32 1677.62 1477.32 Q1675.44 1477.32 1673.17 1476.95 Q1670.93 1476.58 1668.52 1475.84 L1668.52 1471.14 Q1670.6 1472.28 1672.83 1472.83 Q1675.05 1473.39 1677.53 1473.39 Q1681.53 1473.39 1683.87 1471.28 Q1686.21 1469.18 1686.21 1465.56 Q1686.21 1461.95 1683.87 1459.85 Q1681.53 1457.74 1677.53 1457.74 Q1675.65 1457.74 1673.78 1458.16 Q1671.92 1458.57 1669.98 1459.45 L1669.98 1442.09 Z" fill="#000000" fill-rule="evenodd" fill-opacity="1" /><path clip-path="url(#clip100)" d="M 0 0 M2167.8 1472.72 L2184.12 1472.72 L2184.12 1476.65 L2162.17 1476.65 L2162.17 1472.72 Q2164.84 1469.96 2169.42 1465.33 Q2174.03 1460.68 2175.21 1459.34 Q2177.45 1456.81 2178.33 1455.08 Q2179.23 1453.32 2179.23 1451.63 Q2179.23 1448.87 2177.29 1447.14 Q2175.37 1445.4 2172.27 1445.4 Q2170.07 1445.4 2167.61 1446.17 Q2165.18 1446.93 2162.41 1448.48 L2162.41 1443.76 Q2165.23 1442.62 2167.68 1442.05 Q2170.14 1441.47 2172.17 1441.47 Q2177.54 1441.47 2180.74 1444.15 Q2183.93 1446.84 2183.93 1451.33 Q2183.93 1453.46 2183.12 1455.38 Q2182.34 1457.28 2180.23 1459.87 Q2179.65 1460.54 2176.55 1463.76 Q2173.45 1466.95 2167.8 1472.72 Z" fill="#000000" fill-rule="evenodd" fill-opacity="1" /><path clip-path="url(#clip100)" d="M 0 0 M2199.19 1445.17 Q2195.58 1445.17 2193.75 1448.74 Q2191.94 1452.28 2191.94 1459.41 Q2191.94 1466.51 2193.75 1470.08 Q2195.58 1473.62 2199.19 1473.62 Q2202.82 1473.62 2204.63 1470.08 Q2206.46 1466.51 2206.46 1459.41 Q2206.46 1452.28 2204.63 1448.74 Q2202.82 1445.17 2199.19 1445.17 M2199.19 1441.47 Q2205 1441.47 2208.05 1446.07 Q2211.13 1450.66 2211.13 1459.41 Q2211.13 1468.13 2208.05 1472.74 Q2205 1477.32 2199.19 1477.32 Q2193.38 1477.32 2190.3 1472.74 Q2187.24 1468.13 2187.24 1459.41 Q2187.24 1450.66 2190.3 1446.07 Q2193.38 1441.47 2199.19 1441.47 Z" fill="#000000" fill-rule="evenodd" fill-opacity="1" /><path clip-path="url(#clip100)" d="M 0 0 M63.6403 1124.3 L76.1171 1124.3 L76.1171 1128.09 L63.6403 1128.09 L63.6403 1124.3 Z" fill="#000000" fill-rule="evenodd" fill-opacity="1" /><path clip-path="url(#clip100)" d="M 0 0 M85.2142 1135.25 L101.534 1135.25 L101.534 1139.18 L79.5893 1139.18 L79.5893 1135.25 Q82.2513 1132.49 86.8346 1127.86 Q91.441 1123.21 92.6216 1121.87 Q94.867 1119.34 95.7466 1117.61 Q96.6494 1115.85 96.6494 1114.16 Q96.6494 1111.4 94.7049 1109.67 Q92.7836 1107.93 89.6818 1107.93 Q87.4827 1107.93 85.029 1108.7 Q82.5985 1109.46 79.8207 1111.01 L79.8207 1106.29 Q82.6448 1105.15 85.0985 1104.58 Q87.5522 1104 89.5892 1104 Q94.9595 1104 98.154 1106.68 Q101.348 1109.37 101.348 1113.86 Q101.348 1115.99 100.538 1117.91 Q99.7512 1119.81 97.6447 1122.4 Q97.066 1123.07 93.9642 1126.29 Q90.8623 1129.48 85.2142 1135.25 Z" fill="#000000" fill-rule="evenodd" fill-opacity="1" /><path clip-path="url(#clip100)" d="M 0 0 M120.77 1120.55 Q124.126 1121.26 126.001 1123.53 Q127.899 1125.8 127.899 1129.14 Q127.899 1134.25 124.381 1137.05 Q120.862 1139.85 114.381 1139.85 Q112.205 1139.85 109.89 1139.41 Q107.598 1139 105.145 1138.14 L105.145 1133.63 Q107.089 1134.76 109.404 1135.34 Q111.719 1135.92 114.242 1135.92 Q118.64 1135.92 120.932 1134.18 Q123.246 1132.45 123.246 1129.14 Q123.246 1126.08 121.094 1124.37 Q118.964 1122.63 115.145 1122.63 L111.117 1122.63 L111.117 1118.79 L115.33 1118.79 Q118.779 1118.79 120.608 1117.42 Q122.436 1116.03 122.436 1113.44 Q122.436 1110.78 120.538 1109.37 Q118.663 1107.93 115.145 1107.93 Q113.223 1107.93 111.024 1108.35 Q108.825 1108.76 106.186 1109.64 L106.186 1105.48 Q108.848 1104.74 111.163 1104.37 Q113.501 1104 115.561 1104 Q120.885 1104 123.987 1106.43 Q127.089 1108.83 127.089 1112.95 Q127.089 1115.83 125.445 1117.82 Q123.802 1119.78 120.77 1120.55 Z" fill="#000000" fill-rule="evenodd" fill-opacity="1" /><path clip-path="url(#clip100)" d="M 0 0 M64.5893 788.694 L77.0661 788.694 L77.0661 792.49 L64.5893 792.49 L64.5893 788.694 Z" fill="#000000" fill-rule="evenodd" fill-opacity="1" /><path clip-path="url(#clip100)" d="M 0 0 M86.1633 799.643 L102.483 799.643 L102.483 803.578 L80.5383 803.578 L80.5383 799.643 Q83.2004 796.888 87.7837 792.258 Q92.3901 787.606 93.5707 786.263 Q95.816 783.74 96.6956 782.004 Q97.5984 780.245 97.5984 778.555 Q97.5984 775.8 95.654 774.064 Q93.7327 772.328 90.6309 772.328 Q88.4318 772.328 85.9781 773.092 Q83.5476 773.856 80.7698 775.407 L80.7698 770.684 Q83.5939 769.55 86.0476 768.972 Q88.5012 768.393 90.5383 768.393 Q95.9086 768.393 99.103 771.078 Q102.297 773.763 102.297 778.254 Q102.297 780.383 101.487 782.305 Q100.7 784.203 98.5938 786.795 Q98.0151 787.467 94.9133 790.684 Q91.8114 793.879 86.1633 799.643 Z" fill="#000000" fill-rule="evenodd" fill-opacity="1" /><path clip-path="url(#clip100)" d="M 0 0 M111.58 799.643 L127.899 799.643 L127.899 803.578 L105.955 803.578 L105.955 799.643 Q108.617 796.888 113.2 792.258 Q117.807 787.606 118.987 786.263 Q121.233 783.74 122.112 782.004 Q123.015 780.245 123.015 778.555 Q123.015 775.8 121.071 774.064 Q119.149 772.328 116.047 772.328 Q113.848 772.328 111.395 773.092 Q108.964 773.856 106.186 775.407 L106.186 770.684 Q109.01 769.55 111.464 768.972 Q113.918 768.393 115.955 768.393 Q121.325 768.393 124.52 771.078 Q127.714 773.763 127.714 778.254 Q127.714 780.383 126.904 782.305 Q126.117 784.203 124.01 786.795 Q123.432 787.467 120.33 790.684 Q117.228 793.879 111.58 799.643 Z" fill="#000000" fill-rule="evenodd" fill-opacity="1" /><path clip-path="url(#clip100)" d="M 0 0 M64.219 453.09 L76.6958 453.09 L76.6958 456.886 L64.219 456.886 L64.219 453.09 Z" fill="#000000" fill-rule="evenodd" fill-opacity="1" /><path clip-path="url(#clip100)" d="M 0 0 M85.7929 464.039 L102.112 464.039 L102.112 467.974 L80.168 467.974 L80.168 464.039 Q82.83 461.284 87.4133 456.655 Q92.0197 452.002 93.2003 450.659 Q95.4457 448.136 96.3253 446.4 Q97.2281 444.641 97.2281 442.951 Q97.2281 440.197 95.2836 438.46 Q93.3623 436.724 90.2605 436.724 Q88.0614 436.724 85.6077 437.488 Q83.1772 438.252 80.3994 439.803 L80.3994 435.081 Q83.2235 433.947 85.6772 433.368 Q88.1309 432.789 90.1679 432.789 Q95.5382 432.789 98.7327 435.474 Q101.927 438.159 101.927 442.65 Q101.927 444.78 101.117 446.701 Q100.33 448.599 98.2234 451.192 Q97.6447 451.863 94.5429 455.081 Q91.441 458.275 85.7929 464.039 Z" fill="#000000" fill-rule="evenodd" fill-opacity="1" /><path clip-path="url(#clip100)" d="M 0 0 M107.992 464.039 L115.631 464.039 L115.631 437.673 L107.321 439.34 L107.321 435.081 L115.584 433.414 L120.26 433.414 L120.26 464.039 L127.899 464.039 L127.899 467.974 L107.992 467.974 L107.992 464.039 Z" fill="#000000" fill-rule="evenodd" fill-opacity="1" /><path clip-path="url(#clip100)" d="M 0 0 M62.9921 117.486 L75.4689 117.486 L75.4689 121.283 L62.9921 121.283 L62.9921 117.486 Z" fill="#000000" fill-rule="evenodd" fill-opacity="1" /><path clip-path="url(#clip100)" d="M 0 0 M84.5661 128.435 L100.885 128.435 L100.885 132.37 L78.9411 132.37 L78.9411 128.435 Q81.6031 125.681 86.1864 121.051 Q90.7929 116.398 91.9735 115.056 Q94.2188 112.533 95.0984 110.797 Q96.0012 109.037 96.0012 107.347 Q96.0012 104.593 94.0568 102.857 Q92.1355 101.121 89.0337 101.121 Q86.8346 101.121 84.3809 101.885 Q81.9504 102.648 79.1726 104.199 L79.1726 99.4771 Q81.9967 98.3429 84.4503 97.7642 Q86.904 97.1855 88.9411 97.1855 Q94.3114 97.1855 97.5058 99.8707 Q100.7 102.556 100.7 107.047 Q100.7 109.176 99.8901 111.097 Q99.103 112.996 96.9966 115.588 Q96.4179 116.259 93.316 119.477 Q90.2142 122.671 84.5661 128.435 Z" fill="#000000" fill-rule="evenodd" fill-opacity="1" /><path clip-path="url(#clip100)" d="M 0 0 M115.955 100.889 Q112.344 100.889 110.515 104.454 Q108.709 107.996 108.709 115.125 Q108.709 122.232 110.515 125.796 Q112.344 129.338 115.955 129.338 Q119.589 129.338 121.395 125.796 Q123.223 122.232 123.223 115.125 Q123.223 107.996 121.395 104.454 Q119.589 100.889 115.955 100.889 M115.955 97.1855 Q121.765 97.1855 124.82 101.792 Q127.899 106.375 127.899 115.125 Q127.899 123.852 124.82 128.458 Q121.765 133.042 115.955 133.042 Q110.145 133.042 107.066 128.458 Q104.01 123.852 104.01 115.125 Q104.01 106.375 107.066 101.792 Q110.145 97.1855 115.955 97.1855 Z" fill="#000000" fill-rule="evenodd" fill-opacity="1" /><path clip-path="url(#clip100)" d="M 0 0 M1189.56 1559.35 Q1187.08 1565.72 1184.72 1567.66 Q1182.37 1569.6 1178.42 1569.6 L1173.74 1569.6 L1173.74 1564.7 L1177.18 1564.7 Q1179.6 1564.7 1180.94 1563.56 Q1182.27 1562.41 1183.9 1558.14 L1184.95 1555.47 L1170.53 1520.4 L1176.73 1520.4 L1187.87 1548.28 L1199.01 1520.4 L1205.22 1520.4 L1189.56 1559.35 Z" fill="#000000" fill-rule="evenodd" fill-opacity="1" /><path clip-path="url(#clip100)" d="M 0 0 M1207.26 1535.58 L1224.41 1535.58 L1224.41 1540.8 L1207.26 1540.8 L1207.26 1535.58 Z" fill="#000000" fill-rule="evenodd" fill-opacity="1" /><path clip-path="url(#clip100)" d="M 0 0 M1254.01 1537.81 Q1254.01 1531.44 1251.37 1527.94 Q1248.76 1524.44 1244.02 1524.44 Q1239.31 1524.44 1236.67 1527.94 Q1234.06 1531.44 1234.06 1537.81 Q1234.06 1544.14 1236.67 1547.64 Q1239.31 1551.14 1244.02 1551.14 Q1248.76 1551.14 1251.37 1547.64 Q1254.01 1544.14 1254.01 1537.81 M1259.87 1551.62 Q1259.87 1560.72 1255.83 1565.15 Q1251.79 1569.6 1243.45 1569.6 Q1240.36 1569.6 1237.62 1569.13 Q1234.89 1568.68 1232.31 1567.72 L1232.31 1562.03 Q1234.89 1563.43 1237.4 1564.1 Q1239.91 1564.76 1242.52 1564.76 Q1248.29 1564.76 1251.15 1561.74 Q1254.01 1558.75 1254.01 1552.67 L1254.01 1549.77 Q1252.2 1552.92 1249.37 1554.48 Q1246.53 1556.04 1242.59 1556.04 Q1236.03 1556.04 1232.02 1551.05 Q1228.01 1546.05 1228.01 1537.81 Q1228.01 1529.53 1232.02 1524.53 Q1236.03 1519.54 1242.59 1519.54 Q1246.53 1519.54 1249.37 1521.1 Q1252.2 1522.66 1254.01 1525.81 L1254.01 1520.4 L1259.87 1520.4 L1259.87 1551.62 Z" fill="#000000" fill-rule="evenodd" fill-opacity="1" /><path clip-path="url(#clip100)" d="M 0 0 M1286.67 1525.87 Q1285.68 1525.3 1284.51 1525.04 Q1283.36 1524.76 1281.96 1524.76 Q1276.99 1524.76 1274.32 1528 Q1271.68 1531.22 1271.68 1537.27 L1271.68 1556.04 L1265.79 1556.04 L1265.79 1520.4 L1271.68 1520.4 L1271.68 1525.93 Q1273.53 1522.69 1276.49 1521.13 Q1279.45 1519.54 1283.68 1519.54 Q1284.28 1519.54 1285.02 1519.63 Q1285.75 1519.7 1286.64 1519.85 L1286.67 1525.87 Z" fill="#000000" fill-rule="evenodd" fill-opacity="1" /><path clip-path="url(#clip100)" d="M 0 0 M1292.81 1520.4 L1298.67 1520.4 L1298.67 1556.04 L1292.81 1556.04 L1292.81 1520.4 M1292.81 1506.52 L1298.67 1506.52 L1298.67 1513.93 L1292.81 1513.93 L1292.81 1506.52 Z" fill="#000000" fill-rule="evenodd" fill-opacity="1" /><path clip-path="url(#clip100)" d="M 0 0 M1328.27 1525.81 L1328.27 1506.52 L1334.13 1506.52 L1334.13 1556.04 L1328.27 1556.04 L1328.27 1550.7 Q1326.42 1553.88 1323.59 1555.44 Q1320.79 1556.97 1316.84 1556.97 Q1310.38 1556.97 1306.31 1551.81 Q1302.27 1546.65 1302.27 1538.25 Q1302.27 1529.85 1306.31 1524.69 Q1310.38 1519.54 1316.84 1519.54 Q1320.79 1519.54 1323.59 1521.1 Q1326.42 1522.62 1328.27 1525.81 M1308.31 1538.25 Q1308.31 1544.71 1310.96 1548.4 Q1313.63 1552.07 1318.28 1552.07 Q1322.92 1552.07 1325.6 1548.4 Q1328.27 1544.71 1328.27 1538.25 Q1328.27 1531.79 1325.6 1528.13 Q1322.92 1524.44 1318.28 1524.44 Q1313.63 1524.44 1310.96 1528.13 Q1308.31 1531.79 1308.31 1538.25 Z" fill="#000000" fill-rule="evenodd" fill-opacity="1" /><polyline clip-path="url(#clip102)" style="stroke:#0000ff; stroke-width:4.6; stroke-opacity:1; fill:none" points="
  214.188,1347.01 318.002,1283.16 421.816,1206.53 525.63,1124.89 629.444,1041.94 733.258,959.246 837.072,877.589 940.886,797.6 1044.7,720.154 1148.51,646.443 
  1252.33,584.471 1356.14,526.236 1459.96,470.172 1563.77,415.545 1667.58,362.062 1771.4,309.668 1875.21,258.487 1979.03,208.904 2082.84,161.836 2186.65,119.47 
  2290.47,86.1857 
  "/>
<polyline clip-path="url(#clip102)" style="stroke:#800080; stroke-width:6; stroke-opacity:1; fill:none" stroke-dasharray="3, 6" points="
  214.188,1384.24 318.002,1297.88 421.816,1211.78 525.63,1126.27 629.444,1041.77 733.258,958.715 837.072,877.591 940.886,798.917 1044.7,723.23 1148.51,651.071 
  1252.33,582.965 1356.14,519.394 1459.96,460.777 1563.77,407.441 1667.58,359.606 1771.4,317.372 1875.21,280.71 1979.03,249.475 2082.84,223.408 2186.65,202.168 
  2290.47,185.345 
  "/>
<polyline clip-path="url(#clip102)" style="stroke:#ff0000; stroke-width:4.6; stroke-opacity:1; fill:none" stroke-dasharray="18, 12" points="
  214.188,1367.16 318.002,1294.09 421.816,1210.91 525.63,1126.06 629.444,1041.97 733.258,959.163 837.072,877.971 940.886,798.714 1044.7,721.721 1148.51,647.322 
  1252.33,583.251 1356.14,522.566 1459.96,465.159 1563.77,411.239 1667.58,360.952 1771.4,314.383 1875.21,271.546 1979.03,232.391 2082.84,196.881 2186.65,165.511 
  2290.47,140.587 
  "/>
<path clip-path="url(#clip100)" d="
M1788.49 1279.18 L2280.76 1279.18 L2280.76 1037.26 L1788.49 1037.26  Z
  " fill="#ffffff" fill-rule="evenodd" fill-opacity="1"/>
<polyline clip-path="url(#clip100)" style="stroke:#000000; stroke-width:4; stroke-opacity:0; fill:none" points="
  1788.49,1279.18 2280.76,1279.18 2280.76,1037.26 1788.49,1037.26 1788.49,1279.18 
  "/>
<polyline clip-path="url(#clip100)" style="stroke:#0000ff; stroke-width:4; stroke-opacity:1; fill:none" points="
  1812.49,1097.74 1956.49,1097.74 
  "/>
<path clip-path="url(#clip100)" d="M 0 0 M1993.89 1101.99 Q1988.73 1101.99 1986.74 1103.17 Q1984.75 1104.35 1984.75 1107.2 Q1984.75 1109.46 1986.23 1110.81 Q1987.73 1112.13 1990.3 1112.13 Q1993.85 1112.13 1995.97 1109.63 Q1998.13 1107.1 1998.13 1102.94 L1998.13 1101.99 L1993.89 1101.99 M2002.39 1100.23 L2002.39 1115.02 L1998.13 1115.02 L1998.13 1111.08 Q1996.67 1113.45 1994.49 1114.58 Q1992.32 1115.69 1989.17 1115.69 Q1985.19 1115.69 1982.83 1113.47 Q1980.49 1111.22 1980.49 1107.47 Q1980.49 1103.1 1983.41 1100.88 Q1986.35 1098.65 1992.16 1098.65 L1998.13 1098.65 L1998.13 1098.24 Q1998.13 1095.3 1996.18 1093.7 Q1994.26 1092.08 1990.77 1092.08 Q1988.54 1092.08 1986.44 1092.61 Q1984.33 1093.14 1982.39 1094.21 L1982.39 1090.27 Q1984.72 1089.37 1986.92 1088.93 Q1989.12 1088.47 1991.21 1088.47 Q1996.83 1088.47 1999.61 1091.39 Q2002.39 1094.3 2002.39 1100.23 Z" fill="#000000" fill-rule="evenodd" fill-opacity="1" /><path clip-path="url(#clip100)" d="M 0 0 M2025.51 1090.09 L2025.51 1094.07 Q2023.71 1093.08 2021.88 1092.59 Q2020.07 1092.08 2018.22 1092.08 Q2014.08 1092.08 2011.78 1094.72 Q2009.49 1097.33 2009.49 1102.08 Q2009.49 1106.83 2011.78 1109.46 Q2014.08 1112.08 2018.22 1112.08 Q2020.07 1112.08 2021.88 1111.59 Q2023.71 1111.08 2025.51 1110.09 L2025.51 1114.02 Q2023.73 1114.86 2021.81 1115.27 Q2019.91 1115.69 2017.76 1115.69 Q2011.9 1115.69 2008.45 1112.01 Q2005 1108.33 2005 1102.08 Q2005 1095.74 2008.47 1092.1 Q2011.97 1088.47 2018.03 1088.47 Q2020 1088.47 2021.88 1088.89 Q2023.75 1089.28 2025.51 1090.09 Z" fill="#000000" fill-rule="evenodd" fill-opacity="1" /><path clip-path="url(#clip100)" d="M 0 0 M2034.19 1081.73 L2034.19 1089.09 L2042.97 1089.09 L2042.97 1092.4 L2034.19 1092.4 L2034.19 1106.48 Q2034.19 1109.65 2035.05 1110.55 Q2035.93 1111.46 2038.59 1111.46 L2042.97 1111.46 L2042.97 1115.02 L2038.59 1115.02 Q2033.66 1115.02 2031.78 1113.19 Q2029.91 1111.34 2029.91 1106.48 L2029.91 1092.4 L2026.78 1092.4 L2026.78 1089.09 L2029.91 1089.09 L2029.91 1081.73 L2034.19 1081.73 Z" fill="#000000" fill-rule="evenodd" fill-opacity="1" /><path clip-path="url(#clip100)" d="M 0 0 M2046.99 1104.79 L2046.99 1089.09 L2051.25 1089.09 L2051.25 1104.63 Q2051.25 1108.31 2052.69 1110.16 Q2054.12 1111.99 2056.99 1111.99 Q2060.44 1111.99 2062.43 1109.79 Q2064.45 1107.59 2064.45 1103.79 L2064.45 1089.09 L2068.71 1089.09 L2068.71 1115.02 L2064.45 1115.02 L2064.45 1111.04 Q2062.9 1113.4 2060.84 1114.56 Q2058.8 1115.69 2056.09 1115.69 Q2051.62 1115.69 2049.31 1112.91 Q2046.99 1110.14 2046.99 1104.79 M2057.71 1088.47 L2057.71 1088.47 Z" fill="#000000" fill-rule="evenodd" fill-opacity="1" /><path clip-path="url(#clip100)" d="M 0 0 M2084.96 1101.99 Q2079.79 1101.99 2077.8 1103.17 Q2075.81 1104.35 2075.81 1107.2 Q2075.81 1109.46 2077.29 1110.81 Q2078.8 1112.13 2081.37 1112.13 Q2084.91 1112.13 2087.04 1109.63 Q2089.19 1107.1 2089.19 1102.94 L2089.19 1101.99 L2084.96 1101.99 M2093.45 1100.23 L2093.45 1115.02 L2089.19 1115.02 L2089.19 1111.08 Q2087.73 1113.45 2085.56 1114.58 Q2083.38 1115.69 2080.23 1115.69 Q2076.25 1115.69 2073.89 1113.47 Q2071.55 1111.22 2071.55 1107.47 Q2071.55 1103.1 2074.47 1100.88 Q2077.41 1098.65 2083.22 1098.65 L2089.19 1098.65 L2089.19 1098.24 Q2089.19 1095.3 2087.25 1093.7 Q2085.33 1092.08 2081.83 1092.08 Q2079.61 1092.08 2077.5 1092.61 Q2075.4 1093.14 2073.45 1094.21 L2073.45 1090.27 Q2075.79 1089.37 2077.99 1088.93 Q2080.19 1088.47 2082.27 1088.47 Q2087.9 1088.47 2090.67 1091.39 Q2093.45 1094.3 2093.45 1100.23 Z" fill="#000000" fill-rule="evenodd" fill-opacity="1" /><path clip-path="url(#clip100)" d="M 0 0 M2097.92 1079 L2102.18 1079 L2102.18 1115.02 L2097.92 1115.02 L2097.92 1079 Z" fill="#000000" fill-rule="evenodd" fill-opacity="1" /><polyline clip-path="url(#clip100)" style="stroke:#800080; stroke-width:4; stroke-opacity:1; fill:none" stroke-dasharray="2, 4" points="
  1812.49,1158.22 1956.49,1158.22 
  "/>
<path clip-path="url(#clip100)" d="M 0 0 M1980.49 1140.94 L1986.79 1140.94 L2002.11 1169.85 L2002.11 1140.94 L2006.65 1140.94 L2006.65 1175.5 L2000.35 1175.5 L1985.03 1146.59 L1985.03 1175.5 L1980.49 1175.5 L1980.49 1140.94 Z" fill="#000000" fill-rule="evenodd" fill-opacity="1" /><path clip-path="url(#clip100)" d="M 0 0 M2011.3 1140.94 L2017.6 1140.94 L2032.92 1169.85 L2032.92 1140.94 L2037.46 1140.94 L2037.46 1175.5 L2031.16 1175.5 L2015.84 1146.59 L2015.84 1175.5 L2011.3 1175.5 L2011.3 1140.94 Z" fill="#000000" fill-rule="evenodd" fill-opacity="1" /><path clip-path="url(#clip100)" d="M 0 0 M2043.34 1171.56 L2050.97 1171.56 L2050.97 1145.2 L2042.66 1146.87 L2042.66 1142.61 L2050.93 1140.94 L2055.6 1140.94 L2055.6 1171.56 L2063.24 1171.56 L2063.24 1175.5 L2043.34 1175.5 L2043.34 1171.56 Z" fill="#000000" fill-rule="evenodd" fill-opacity="1" /><path clip-path="url(#clip100)" d="M 0 0 M2065.56 1160.62 L2078.03 1160.62 L2078.03 1164.41 L2065.56 1164.41 L2065.56 1160.62 Z" fill="#000000" fill-rule="evenodd" fill-opacity="1" /><path clip-path="url(#clip100)" d="M 0 0 M2097.57 1149.57 L2101.83 1149.57 L2101.83 1175.5 L2097.57 1175.5 L2097.57 1149.57 M2097.57 1139.48 L2101.83 1139.48 L2101.83 1144.88 L2097.57 1144.88 L2097.57 1139.48 Z" fill="#000000" fill-rule="evenodd" fill-opacity="1" /><path clip-path="url(#clip100)" d="M 0 0 M2127.85 1159.85 L2127.85 1175.5 L2123.59 1175.5 L2123.59 1159.99 Q2123.59 1156.31 2122.15 1154.48 Q2120.72 1152.65 2117.85 1152.65 Q2114.4 1152.65 2112.41 1154.85 Q2110.42 1157.05 2110.42 1160.85 L2110.42 1175.5 L2106.14 1175.5 L2106.14 1149.57 L2110.42 1149.57 L2110.42 1153.6 Q2111.95 1151.26 2114.01 1150.11 Q2116.09 1148.95 2118.8 1148.95 Q2123.27 1148.95 2125.56 1151.73 Q2127.85 1154.48 2127.85 1159.85 Z" fill="#000000" fill-rule="evenodd" fill-opacity="1" /><path clip-path="url(#clip100)" d="M 0 0 M2136.53 1142.21 L2136.53 1149.57 L2145.3 1149.57 L2145.3 1152.88 L2136.53 1152.88 L2136.53 1166.96 Q2136.53 1170.13 2137.39 1171.03 Q2138.27 1171.94 2140.93 1171.94 L2145.3 1171.94 L2145.3 1175.5 L2140.93 1175.5 Q2136 1175.5 2134.12 1173.67 Q2132.25 1171.82 2132.25 1166.96 L2132.25 1152.88 L2129.12 1152.88 L2129.12 1149.57 L2132.25 1149.57 L2132.25 1142.21 L2136.53 1142.21 Z" fill="#000000" fill-rule="evenodd" fill-opacity="1" /><path clip-path="url(#clip100)" d="M 0 0 M2171.95 1161.47 L2171.95 1163.56 L2152.36 1163.56 Q2152.64 1167.95 2155 1170.27 Q2157.39 1172.56 2161.62 1172.56 Q2164.08 1172.56 2166.37 1171.96 Q2168.68 1171.36 2170.95 1170.15 L2170.95 1174.18 Q2168.66 1175.15 2166.25 1175.66 Q2163.84 1176.17 2161.37 1176.17 Q2155.16 1176.17 2151.53 1172.56 Q2147.92 1168.95 2147.92 1162.79 Q2147.92 1156.43 2151.34 1152.7 Q2154.79 1148.95 2160.63 1148.95 Q2165.86 1148.95 2168.89 1152.33 Q2171.95 1155.69 2171.95 1161.47 M2167.69 1160.22 Q2167.64 1156.73 2165.72 1154.64 Q2163.82 1152.56 2160.67 1152.56 Q2157.11 1152.56 2154.96 1154.57 Q2152.83 1156.59 2152.5 1160.25 L2167.69 1160.22 Z" fill="#000000" fill-rule="evenodd" fill-opacity="1" /><path clip-path="url(#clip100)" d="M 0 0 M2191.44 1153.56 Q2190.72 1153.14 2189.86 1152.95 Q2189.03 1152.75 2188.01 1152.75 Q2184.4 1152.75 2182.46 1155.11 Q2180.53 1157.44 2180.53 1161.84 L2180.53 1175.5 L2176.25 1175.5 L2176.25 1149.57 L2180.53 1149.57 L2180.53 1153.6 Q2181.88 1151.24 2184.03 1150.11 Q2186.18 1148.95 2189.26 1148.95 Q2189.7 1148.95 2190.23 1149.02 Q2190.77 1149.06 2191.41 1149.18 L2191.44 1153.56 Z" fill="#000000" fill-rule="evenodd" fill-opacity="1" /><path clip-path="url(#clip100)" d="M 0 0 M2215.26 1154.55 Q2216.85 1151.68 2219.08 1150.31 Q2221.3 1148.95 2224.31 1148.95 Q2228.36 1148.95 2230.56 1151.8 Q2232.76 1154.62 2232.76 1159.85 L2232.76 1175.5 L2228.47 1175.5 L2228.47 1159.99 Q2228.47 1156.26 2227.15 1154.46 Q2225.83 1152.65 2223.13 1152.65 Q2219.82 1152.65 2217.89 1154.85 Q2215.97 1157.05 2215.97 1160.85 L2215.97 1175.5 L2211.69 1175.5 L2211.69 1159.99 Q2211.69 1156.24 2210.37 1154.46 Q2209.05 1152.65 2206.3 1152.65 Q2203.03 1152.65 2201.11 1154.87 Q2199.19 1157.07 2199.19 1160.85 L2199.19 1175.5 L2194.91 1175.5 L2194.91 1149.57 L2199.19 1149.57 L2199.19 1153.6 Q2200.65 1151.22 2202.69 1150.08 Q2204.72 1148.95 2207.52 1148.95 Q2210.35 1148.95 2212.32 1150.38 Q2214.31 1151.82 2215.26 1154.55 Z" fill="#000000" fill-rule="evenodd" fill-opacity="1" /><polyline clip-path="url(#clip100)" style="stroke:#ff0000; stroke-width:4; stroke-opacity:1; fill:none" stroke-dasharray="16, 10" points="
  1812.49,1218.7 1956.49,1218.7 
  "/>
<path clip-path="url(#clip100)" d="M 0 0 M1980.49 1201.42 L1986.79 1201.42 L2002.11 1230.33 L2002.11 1201.42 L2006.65 1201.42 L2006.65 1235.98 L2000.35 1235.98 L1985.03 1207.07 L1985.03 1235.98 L1980.49 1235.98 L1980.49 1201.42 Z" fill="#000000" fill-rule="evenodd" fill-opacity="1" /><path clip-path="url(#clip100)" d="M 0 0 M2011.3 1201.42 L2017.6 1201.42 L2032.92 1230.33 L2032.92 1201.42 L2037.46 1201.42 L2037.46 1235.98 L2031.16 1235.98 L2015.84 1207.07 L2015.84 1235.98 L2011.3 1235.98 L2011.3 1201.42 Z" fill="#000000" fill-rule="evenodd" fill-opacity="1" /><path clip-path="url(#clip100)" d="M 0 0 M2043.34 1232.04 L2050.97 1232.04 L2050.97 1205.68 L2042.66 1207.35 L2042.66 1203.09 L2050.93 1201.42 L2055.6 1201.42 L2055.6 1232.04 L2063.24 1232.04 L2063.24 1235.98 L2043.34 1235.98 L2043.34 1232.04 Z" fill="#000000" fill-rule="evenodd" fill-opacity="1" /></svg>
