<?xml version="1.0" encoding="utf-8"?>
<svg xmlns="http://www.w3.org/2000/svg" xmlns:xlink="http://www.w3.org/1999/xlink" width="600" height="400" viewBox="0 0 2400 1600">
<defs>
  <clipPath id="clip050">
    <rect x="0" y="0" width="2400" height="1600"/>
  </clipPath>
</defs>
<path clip-path="url(#clip050)" d="
M0 1600 L2400 1600 L2400 0 L0 0  Z
  " fill="#ffffff" fill-rule="evenodd" fill-opacity="1"/>
<defs>
  <clipPath id="clip051">
    <rect x="480" y="0" width="1681" height="1600"/>
  </clipPath>
</defs>
<path clip-path="url(#clip050)" d="
M216.482 1423.18 L2352.76 1423.18 L2352.76 114.832 L216.482 114.832  Z
  " fill="#ffffff" fill-rule="evenodd" fill-opacity="1"/>
<defs>
  <clipPath id="clip052">
    <rect x="216" y="114" width="2137" height="1309"/>
  </clipPath>
</defs>
<polyline clip-path="url(#clip052)" style="stroke:#000000; stroke-width:2; stroke-opacity:0.1; fill:none" points="
  271.554,1423.18 271.554,114.832 
  "/>
<polyline clip-path="url(#clip052)" style="stroke:#000000; stroke-width:2; stroke-opacity:0.1; fill:none" points="
  945.135,1423.18 945.135,114.832 
  "/>
<polyline clip-path="url(#clip052)" style="stroke:#000000; stroke-width:2; stroke-opacity:0.1; fill:none" points="
  1618.71,1423.18 1618.71,114.832 
  "/>
<polyline clip-path="url(#clip052)" style="stroke:#000000; stroke-width:2; stroke-opacity:0.1; fill:none" points="
  2292.3,1423.18 2292.3,114.832 
  "/>
<polyline clip-path="url(#clip052)" style="stroke:#000000; stroke-width:2; stroke-opacity:0.1; fill:none" points="
  216.482,1244.42 2352.76,1244.42 
  "/>
<polyline clip-path="url(#clip052)" style="stroke:#000000; stroke-width:2; stroke-opacity:0.1; fill:none" points="
  216.482,1020.17 2352.76,1020.17 
  "/>
<polyline clip-path="url(#clip052)" style="stroke:#000000; stroke-width:2; stroke-opacity:0.1; fill:none" points="
  216.482,795.916 2352.76,795.916 
  "/>
<polyline clip-path="url(#clip052)" style="stroke:#000000; stroke-width:2; stroke-opacity:0.1; fill:none" points="
  216.482,571.663 2352.76,571.663 
  "/>
<polyline clip-path="url(#clip052)" style="stroke:#000000; stroke-width:2; stroke-opacity:0.1; fill:none" points="
  216.482,347.41 2352.76,347.41 
  "/>
<polyline clip-path="url(#clip052)" style="stroke:#000000; stroke-width:2; stroke-opacity:0.1; fill:none" points="
  216.482,123.156 2352.76,123.156 
  "/>
<polyline clip-path="url(#clip050)" style="stroke:#000000; stroke-width:4; stroke-opacity:1; fill:none" points="
  216.482,1423.18 2352.76,1423.18 
  "/>
<polyline clip-path="url(#clip050)" style="stroke:#000000; stroke-width:4; stroke-opacity:1; fill:none" points="
  216.482,1423.18 216.482,114.832 
  "/>
<polyline clip-path="url(#clip050)" style="stroke:#000000; stroke-width:4; stroke-opacity:1; fill:none" points="
  271.554,1423.18 271.554,1407.48 
  "/>
<polyline clip-path="url(#clip050)" style="stroke:#000000; stroke-width:4; stroke-opacity:1; fill:none" points="
  945.135,1423.18 945.135,1407.48 
  "/>
<polyline clip-path="url(#clip050)" style="stroke:#000000; stroke-width:4; stroke-opacity:1; fill:none" points="
  1618.71,1423.18 1618.71,1407.48 
  "/>
<polyline clip-path="url(#clip050)" style="stroke:#000000; stroke-width:4; stroke-opacity:1; fill:none" points="
  2292.3,1423.18 2292.3,1407.48 
  "/>
<polyline clip-path="url(#clip050)" style="stroke:#000000; stroke-width:4; stroke-opacity:1; fill:none" points="
  216.482,1244.42 242.117,1244.42 
  "/>
<polyline clip-path="url(#clip050)" style="stroke:#000000; stroke-width:4; stroke-opacity:1; fill:none" points="
  216.482,1020.17 242.117,1020.17 
  "/>
<polyline clip-path="url(#clip050)" style="stroke:#000000; stroke-width:4; stroke-opacity:1; fill:none" points="
  216.482,795.916 242.117,795.916 
  "/>
<polyline clip-path="url(#clip050)" style="stroke:#000000; stroke-width:4; stroke-opacity:1; fill:none" points="
  216.482,571.663 242.117,571.663 
  "/>
<polyline clip-path="url(#clip050)" style="stroke:#000000; stroke-width:4; stroke-opacity:1; fill:none" points="
  216.482,347.41 242.117,347.41 
  "/>
<polyline clip-path="url(#clip050)" style="stroke:#000000; stroke-width:4; stroke-opacity:1; fill:none" points="
  216.482,123.156 242.117,123.156 
  "/>
<path clip-path="url(#clip050)" d="M 0 0 M233.649 1461.77 L246.126 1461.77 L246.126 1465.56 L233.649 1465.56 L233.649 1461.77 Z" fill="#000000" fill-rule="evenodd" fill-opacity="1" /><path clip-path="url(#clip050)" d="M 0 0 M261.195 1445.17 Q257.584 1445.17 255.756 1448.74 Q253.95 1452.28 253.95 1459.41 Q253.95 1466.51 255.756 1470.08 Q257.584 1473.62 261.195 1473.62 Q264.83 1473.62 266.635 1470.08 Q268.464 1466.51 268.464 1459.41 Q268.464 1452.28 266.635 1448.74 Q264.83 1445.17 261.195 1445.17 M261.195 1441.47 Q267.006 1441.47 270.061 1446.07 Q273.14 1450.66 273.14 1459.41 Q273.14 1468.13 270.061 1472.74 Q267.006 1477.32 261.195 1477.32 Q255.385 1477.32 252.307 1472.74 Q249.251 1468.13 249.251 1459.41 Q249.251 1450.66 252.307 1446.07 Q255.385 1441.47 261.195 1441.47 Z" fill="#000000" fill-rule="evenodd" fill-opacity="1" /><path clip-path="url(#clip050)" d="M 0 0 M278.209 1470.77 L283.093 1470.77 L283.093 1476.65 L278.209 1476.65 L278.209 1470.77 Z" fill="#000000" fill-rule="evenodd" fill-opacity="1" /><path clip-path="url(#clip050)" d="M 0 0 M302.329 1458.02 Q305.686 1458.74 307.561 1461 Q309.459 1463.27 309.459 1466.61 Q309.459 1471.72 305.94 1474.52 Q302.422 1477.32 295.941 1477.32 Q293.765 1477.32 291.45 1476.88 Q289.158 1476.47 286.704 1475.61 L286.704 1471.1 Q288.649 1472.23 290.964 1472.81 Q293.279 1473.39 295.802 1473.39 Q300.2 1473.39 302.491 1471.65 Q304.806 1469.92 304.806 1466.61 Q304.806 1463.55 302.653 1461.84 Q300.524 1460.1 296.704 1460.1 L292.677 1460.1 L292.677 1456.26 L296.89 1456.26 Q300.339 1456.26 302.167 1454.89 Q303.996 1453.5 303.996 1450.91 Q303.996 1448.25 302.098 1446.84 Q300.223 1445.4 296.704 1445.4 Q294.783 1445.4 292.584 1445.82 Q290.385 1446.24 287.746 1447.11 L287.746 1442.95 Q290.408 1442.21 292.723 1441.84 Q295.061 1441.47 297.121 1441.47 Q302.445 1441.47 305.547 1443.9 Q308.649 1446.3 308.649 1450.43 Q308.649 1453.3 307.005 1455.29 Q305.362 1457.25 302.329 1458.02 Z" fill="#000000" fill-rule="evenodd" fill-opacity="1" /><path clip-path="url(#clip050)" d="M 0 0 M907.704 1461.77 L920.181 1461.77 L920.181 1465.56 L907.704 1465.56 L907.704 1461.77 Z" fill="#000000" fill-rule="evenodd" fill-opacity="1" /><path clip-path="url(#clip050)" d="M 0 0 M935.25 1445.17 Q931.639 1445.17 929.811 1448.74 Q928.005 1452.28 928.005 1459.41 Q928.005 1466.51 929.811 1470.08 Q931.639 1473.62 935.25 1473.62 Q938.885 1473.62 940.69 1470.08 Q942.519 1466.51 942.519 1459.41 Q942.519 1452.28 940.69 1448.74 Q938.885 1445.17 935.25 1445.17 M935.25 1441.47 Q941.06 1441.47 944.116 1446.07 Q947.195 1450.66 947.195 1459.41 Q947.195 1468.13 944.116 1472.74 Q941.06 1477.32 935.25 1477.32 Q929.44 1477.32 926.361 1472.74 Q923.306 1468.13 923.306 1459.41 Q923.306 1450.66 926.361 1446.07 Q929.44 1441.47 935.25 1441.47 Z" fill="#000000" fill-rule="evenodd" fill-opacity="1" /><path clip-path="url(#clip050)" d="M 0 0 M952.264 1470.77 L957.148 1470.77 L957.148 1476.65 L952.264 1476.65 L952.264 1470.77 Z" fill="#000000" fill-rule="evenodd" fill-opacity="1" /><path clip-path="url(#clip050)" d="M 0 0 M966.246 1472.72 L982.565 1472.72 L982.565 1476.65 L960.621 1476.65 L960.621 1472.72 Q963.283 1469.96 967.866 1465.33 Q972.472 1460.68 973.653 1459.34 Q975.898 1456.81 976.778 1455.08 Q977.681 1453.32 977.681 1451.63 Q977.681 1448.87 975.736 1447.14 Q973.815 1445.4 970.713 1445.4 Q968.514 1445.4 966.06 1446.17 Q963.63 1446.93 960.852 1448.48 L960.852 1443.76 Q963.676 1442.62 966.13 1442.05 Q968.583 1441.47 970.62 1441.47 Q975.991 1441.47 979.185 1444.15 Q982.38 1446.84 982.38 1451.33 Q982.38 1453.46 981.57 1455.38 Q980.782 1457.28 978.676 1459.87 Q978.097 1460.54 974.995 1463.76 Q971.894 1466.95 966.246 1472.72 Z" fill="#000000" fill-rule="evenodd" fill-opacity="1" /><path clip-path="url(#clip050)" d="M 0 0 M1581.1 1461.77 L1593.58 1461.77 L1593.58 1465.56 L1581.1 1465.56 L1581.1 1461.77 Z" fill="#000000" fill-rule="evenodd" fill-opacity="1" /><path clip-path="url(#clip050)" d="M 0 0 M1608.65 1445.17 Q1605.03 1445.17 1603.21 1448.74 Q1601.4 1452.28 1601.4 1459.41 Q1601.4 1466.51 1603.21 1470.08 Q1605.03 1473.62 1608.65 1473.62 Q1612.28 1473.62 1614.09 1470.08 Q1615.91 1466.51 1615.91 1459.41 Q1615.91 1452.28 1614.09 1448.74 Q1612.28 1445.17 1608.65 1445.17 M1608.65 1441.47 Q1614.46 1441.47 1617.51 1446.07 Q1620.59 1450.66 1620.59 1459.41 Q1620.59 1468.13 1617.51 1472.74 Q1614.46 1477.32 1608.65 1477.32 Q1602.84 1477.32 1599.76 1472.74 Q1596.7 1468.13 1596.7 1459.41 Q1596.7 1450.66 1599.76 1446.07 Q1602.84 1441.47 1608.65 1441.47 Z" fill="#000000" fill-rule="evenodd" fill-opacity="1" /><path clip-path="url(#clip050)" d="M 0 0 M1625.66 1470.77 L1630.54 1470.77 L1630.54 1476.65 L1625.66 1476.65 L1625.66 1470.77 Z" fill="#000000" fill-rule="evenodd" fill-opacity="1" /><path clip-path="url(#clip050)" d="M 0 0 M1636.42 1472.72 L1644.06 1472.72 L1644.06 1446.35 L1635.75 1448.02 L1635.75 1443.76 L1644.02 1442.09 L1648.69 1442.09 L1648.69 1472.72 L1656.33 1472.72 L1656.33 1476.65 L1636.42 1476.65 L1636.42 1472.72 Z" fill="#000000" fill-rule="evenodd" fill-opacity="1" /><path clip-path="url(#clip050)" d="M 0 0 M2273.81 1445.17 Q2270.2 1445.17 2268.37 1448.74 Q2266.57 1452.28 2266.57 1459.41 Q2266.57 1466.51 2268.37 1470.08 Q2270.2 1473.62 2273.81 1473.62 Q2277.45 1473.62 2279.25 1470.08 Q2281.08 1466.51 2281.08 1459.41 Q2281.08 1452.28 2279.25 1448.74 Q2277.45 1445.17 2273.81 1445.17 M2273.81 1441.47 Q2279.62 1441.47 2282.68 1446.07 Q2285.76 1450.66 2285.76 1459.41 Q2285.76 1468.13 2282.68 1472.74 Q2279.62 1477.32 2273.81 1477.32 Q2268 1477.32 2264.92 1472.74 Q2261.87 1468.13 2261.87 1459.41 Q2261.87 1450.66 2264.92 1446.07 Q2268 1441.47 2273.81 1441.47 Z" fill="#000000" fill-rule="evenodd" fill-opacity="1" /><path clip-path="url(#clip050)" d="M 0 0 M2290.83 1470.77 L2295.71 1470.77 L2295.71 1476.65 L2290.83 1476.65 L2290.83 1470.77 Z" fill="#000000" fill-rule="evenodd" fill-opacity="1" /><path clip-path="url(#clip050)" d="M 0 0 M2310.78 1445.17 Q2307.17 1445.17 2305.34 1448.74 Q2303.53 1452.28 2303.53 1459.41 Q2303.53 1466.51 2305.34 1470.08 Q2307.17 1473.62 2310.78 1473.62 Q2314.41 1473.62 2316.22 1470.08 Q2318.05 1466.51 2318.05 1459.41 Q2318.05 1452.28 2316.22 1448.74 Q2314.41 1445.17 2310.78 1445.17 M2310.78 1441.47 Q2316.59 1441.47 2319.64 1446.07 Q2322.72 1450.66 2322.72 1459.41 Q2322.72 1468.13 2319.64 1472.74 Q2316.59 1477.32 2310.78 1477.32 Q2304.97 1477.32 2301.89 1472.74 Q2298.83 1468.13 2298.83 1459.41 Q2298.83 1450.66 2301.89 1446.07 Q2304.97 1441.47 2310.78 1441.47 Z" fill="#000000" fill-rule="evenodd" fill-opacity="1" /><path clip-path="url(#clip050)" d="M 0 0 M65.8162 1246.82 L78.293 1246.82 L78.293 1250.62 L65.8162 1250.62 L65.8162 1246.82 Z" fill="#000000" fill-rule="evenodd" fill-opacity="1" /><path clip-path="url(#clip050)" d="M 0 0 M93.3623 1230.22 Q89.7512 1230.22 87.9225 1233.79 Q86.117 1237.33 86.117 1244.46 Q86.117 1251.56 87.9225 1255.13 Q89.7512 1258.67 93.3623 1258.67 Q96.9966 1258.67 98.8021 1255.13 Q100.631 1251.56 100.631 1244.46 Q100.631 1237.33 98.8021 1233.79 Q96.9966 1230.22 93.3623 1230.22 M93.3623 1226.52 Q99.1725 1226.52 102.228 1231.12 Q105.307 1235.71 105.307 1244.46 Q105.307 1253.18 102.228 1257.79 Q99.1725 1262.37 93.3623 1262.37 Q87.5522 1262.37 84.4735 1257.79 Q81.418 1253.18 81.418 1244.46 Q81.418 1235.71 84.4735 1231.12 Q87.5522 1226.52 93.3623 1226.52 Z" fill="#000000" fill-rule="evenodd" fill-opacity="1" /><path clip-path="url(#clip050)" d="M 0 0 M110.376 1255.82 L115.26 1255.82 L115.26 1261.7 L110.376 1261.7 L110.376 1255.82 Z" fill="#000000" fill-rule="evenodd" fill-opacity="1" /><path clip-path="url(#clip050)" d="M 0 0 M121.14 1257.77 L128.779 1257.77 L128.779 1231.4 L120.469 1233.07 L120.469 1228.81 L128.733 1227.14 L133.408 1227.14 L133.408 1257.77 L141.047 1257.77 L141.047 1261.7 L121.14 1261.7 L121.14 1257.77 Z" fill="#000000" fill-rule="evenodd" fill-opacity="1" /><path clip-path="url(#clip050)" d="M 0 0 M150.144 1257.77 L166.464 1257.77 L166.464 1261.7 L144.519 1261.7 L144.519 1257.77 Q147.181 1255.01 151.765 1250.38 Q156.371 1245.73 157.552 1244.39 Q159.797 1241.87 160.677 1240.13 Q161.58 1238.37 161.58 1236.68 Q161.58 1233.93 159.635 1232.19 Q157.714 1230.45 154.612 1230.45 Q152.413 1230.45 149.959 1231.22 Q147.529 1231.98 144.751 1233.53 L144.751 1228.81 Q147.575 1227.68 150.029 1227.1 Q152.482 1226.52 154.519 1226.52 Q159.89 1226.52 163.084 1229.2 Q166.279 1231.89 166.279 1236.38 Q166.279 1238.51 165.468 1240.43 Q164.681 1242.33 162.575 1244.92 Q161.996 1245.59 158.894 1248.81 Q155.793 1252 150.144 1257.77 Z" fill="#000000" fill-rule="evenodd" fill-opacity="1" /><path clip-path="url(#clip050)" d="M 0 0 M171.58 1227.14 L189.936 1227.14 L189.936 1231.08 L175.862 1231.08 L175.862 1239.55 Q176.88 1239.2 177.899 1239.04 Q178.917 1238.86 179.936 1238.86 Q185.723 1238.86 189.103 1242.03 Q192.482 1245.2 192.482 1250.62 Q192.482 1256.19 189.01 1259.3 Q185.538 1262.37 179.218 1262.37 Q177.042 1262.37 174.774 1262 Q172.529 1261.63 170.121 1260.89 L170.121 1256.19 Q172.205 1257.33 174.427 1257.88 Q176.649 1258.44 179.126 1258.44 Q183.13 1258.44 185.468 1256.33 Q187.806 1254.23 187.806 1250.62 Q187.806 1247 185.468 1244.9 Q183.13 1242.79 179.126 1242.79 Q177.251 1242.79 175.376 1243.21 Q173.524 1243.62 171.58 1244.5 L171.58 1227.14 Z" fill="#000000" fill-rule="evenodd" fill-opacity="1" /><path clip-path="url(#clip050)" d="M 0 0 M63.2236 1022.57 L75.7004 1022.57 L75.7004 1026.36 L63.2236 1026.36 L63.2236 1022.57 Z" fill="#000000" fill-rule="evenodd" fill-opacity="1" /><path clip-path="url(#clip050)" d="M 0 0 M90.7698 1005.97 Q87.1587 1005.97 85.33 1009.53 Q83.5244 1013.07 83.5244 1020.2 Q83.5244 1027.31 85.33 1030.88 Q87.1587 1034.42 90.7698 1034.42 Q94.404 1034.42 96.2095 1030.88 Q98.0382 1027.31 98.0382 1020.2 Q98.0382 1013.07 96.2095 1009.53 Q94.404 1005.97 90.7698 1005.97 M90.7698 1002.26 Q96.5799 1002.26 99.6354 1006.87 Q102.714 1011.45 102.714 1020.2 Q102.714 1028.93 99.6354 1033.54 Q96.5799 1038.12 90.7698 1038.12 Q84.9596 1038.12 81.8809 1033.54 Q78.8254 1028.93 78.8254 1020.2 Q78.8254 1011.45 81.8809 1006.87 Q84.9596 1002.26 90.7698 1002.26 Z" fill="#000000" fill-rule="evenodd" fill-opacity="1" /><path clip-path="url(#clip050)" d="M 0 0 M107.784 1031.57 L112.668 1031.57 L112.668 1037.45 L107.784 1037.45 L107.784 1031.57 Z" fill="#000000" fill-rule="evenodd" fill-opacity="1" /><path clip-path="url(#clip050)" d="M 0 0 M118.547 1033.51 L126.186 1033.51 L126.186 1007.15 L117.876 1008.82 L117.876 1004.56 L126.14 1002.89 L130.816 1002.89 L130.816 1033.51 L138.455 1033.51 L138.455 1037.45 L118.547 1037.45 L118.547 1033.51 Z" fill="#000000" fill-rule="evenodd" fill-opacity="1" /><path clip-path="url(#clip050)" d="M 0 0 M153.524 1005.97 Q149.913 1005.97 148.084 1009.53 Q146.279 1013.07 146.279 1020.2 Q146.279 1027.31 148.084 1030.88 Q149.913 1034.42 153.524 1034.42 Q157.158 1034.42 158.964 1030.88 Q160.793 1027.31 160.793 1020.2 Q160.793 1013.07 158.964 1009.53 Q157.158 1005.97 153.524 1005.97 M153.524 1002.26 Q159.334 1002.26 162.39 1006.87 Q165.468 1011.45 165.468 1020.2 Q165.468 1028.93 162.39 1033.54 Q159.334 1038.12 153.524 1038.12 Q147.714 1038.12 144.635 1033.54 Q141.58 1028.93 141.58 1020.2 Q141.58 1011.45 144.635 1006.87 Q147.714 1002.26 153.524 1002.26 Z" fill="#000000" fill-rule="evenodd" fill-opacity="1" /><path clip-path="url(#clip050)" d="M 0 0 M180.538 1005.97 Q176.927 1005.97 175.098 1009.53 Q173.292 1013.07 173.292 1020.2 Q173.292 1027.31 175.098 1030.88 Q176.927 1034.42 180.538 1034.42 Q184.172 1034.42 185.978 1030.88 Q187.806 1027.31 187.806 1020.2 Q187.806 1013.07 185.978 1009.53 Q184.172 1005.97 180.538 1005.97 M180.538 1002.26 Q186.348 1002.26 189.403 1006.87 Q192.482 1011.45 192.482 1020.2 Q192.482 1028.93 189.403 1033.54 Q186.348 1038.12 180.538 1038.12 Q174.728 1038.12 171.649 1033.54 Q168.593 1028.93 168.593 1020.2 Q168.593 1011.45 171.649 1006.87 Q174.728 1002.26 180.538 1002.26 Z" fill="#000000" fill-rule="evenodd" fill-opacity="1" /><path clip-path="url(#clip050)" d="M 0 0 M63.8949 798.312 L76.3717 798.312 L76.3717 802.108 L63.8949 802.108 L63.8949 798.312 Z" fill="#000000" fill-rule="evenodd" fill-opacity="1" /><path clip-path="url(#clip050)" d="M 0 0 M91.441 781.715 Q87.83 781.715 86.0013 785.28 Q84.1957 788.822 84.1957 795.951 Q84.1957 803.058 86.0013 806.622 Q87.83 810.164 91.441 810.164 Q95.0753 810.164 96.8808 806.622 Q98.7095 803.058 98.7095 795.951 Q98.7095 788.822 96.8808 785.28 Q95.0753 781.715 91.441 781.715 M91.441 778.011 Q97.2512 778.011 100.307 782.618 Q103.385 787.201 103.385 795.951 Q103.385 804.678 100.307 809.284 Q97.2512 813.868 91.441 813.868 Q85.6309 813.868 82.5522 809.284 Q79.4967 804.678 79.4967 795.951 Q79.4967 787.201 82.5522 782.618 Q85.6309 778.011 91.441 778.011 Z" fill="#000000" fill-rule="evenodd" fill-opacity="1" /><path clip-path="url(#clip050)" d="M 0 0 M108.455 807.317 L113.339 807.317 L113.339 813.196 L108.455 813.196 L108.455 807.317 Z" fill="#000000" fill-rule="evenodd" fill-opacity="1" /><path clip-path="url(#clip050)" d="M 0 0 M128.408 781.715 Q124.797 781.715 122.969 785.28 Q121.163 788.822 121.163 795.951 Q121.163 803.058 122.969 806.622 Q124.797 810.164 128.408 810.164 Q132.043 810.164 133.848 806.622 Q135.677 803.058 135.677 795.951 Q135.677 788.822 133.848 785.28 Q132.043 781.715 128.408 781.715 M128.408 778.011 Q134.219 778.011 137.274 782.618 Q140.353 787.201 140.353 795.951 Q140.353 804.678 137.274 809.284 Q134.219 813.868 128.408 813.868 Q122.598 813.868 119.52 809.284 Q116.464 804.678 116.464 795.951 Q116.464 787.201 119.52 782.618 Q122.598 778.011 128.408 778.011 Z" fill="#000000" fill-rule="evenodd" fill-opacity="1" /><path clip-path="url(#clip050)" d="M 0 0 M144.242 778.636 L166.464 778.636 L166.464 780.627 L153.918 813.196 L149.033 813.196 L160.839 782.572 L144.242 782.572 L144.242 778.636 Z" fill="#000000" fill-rule="evenodd" fill-opacity="1" /><path clip-path="url(#clip050)" d="M 0 0 M171.58 778.636 L189.936 778.636 L189.936 782.572 L175.862 782.572 L175.862 791.044 Q176.88 790.697 177.899 790.534 Q178.917 790.349 179.936 790.349 Q185.723 790.349 189.103 793.521 Q192.482 796.692 192.482 802.108 Q192.482 807.687 189.01 810.789 Q185.538 813.868 179.218 813.868 Q177.042 813.868 174.774 813.497 Q172.529 813.127 170.121 812.386 L170.121 807.687 Q172.205 808.821 174.427 809.377 Q176.649 809.933 179.126 809.933 Q183.13 809.933 185.468 807.826 Q187.806 805.72 187.806 802.108 Q187.806 798.497 185.468 796.391 Q183.13 794.284 179.126 794.284 Q177.251 794.284 175.376 794.701 Q173.524 795.118 171.58 795.997 L171.58 778.636 Z" fill="#000000" fill-rule="evenodd" fill-opacity="1" /><path clip-path="url(#clip050)" d="M 0 0 M62.9921 574.059 L75.4689 574.059 L75.4689 577.855 L62.9921 577.855 L62.9921 574.059 Z" fill="#000000" fill-rule="evenodd" fill-opacity="1" /><path clip-path="url(#clip050)" d="M 0 0 M90.5383 557.462 Q86.9272 557.462 85.0985 561.027 Q83.2929 564.568 83.2929 571.698 Q83.2929 578.804 85.0985 582.369 Q86.9272 585.911 90.5383 585.911 Q94.1725 585.911 95.9781 582.369 Q97.8068 578.804 97.8068 571.698 Q97.8068 564.568 95.9781 561.027 Q94.1725 557.462 90.5383 557.462 M90.5383 553.758 Q96.3484 553.758 99.404 558.365 Q102.483 562.948 102.483 571.698 Q102.483 580.425 99.404 585.031 Q96.3484 589.614 90.5383 589.614 Q84.7281 589.614 81.6494 585.031 Q78.5939 580.425 78.5939 571.698 Q78.5939 562.948 81.6494 558.365 Q84.7281 553.758 90.5383 553.758 Z" fill="#000000" fill-rule="evenodd" fill-opacity="1" /><path clip-path="url(#clip050)" d="M 0 0 M107.552 583.063 L112.436 583.063 L112.436 588.943 L107.552 588.943 L107.552 583.063 Z" fill="#000000" fill-rule="evenodd" fill-opacity="1" /><path clip-path="url(#clip050)" d="M 0 0 M127.506 557.462 Q123.895 557.462 122.066 561.027 Q120.26 564.568 120.26 571.698 Q120.26 578.804 122.066 582.369 Q123.895 585.911 127.506 585.911 Q131.14 585.911 132.945 582.369 Q134.774 578.804 134.774 571.698 Q134.774 564.568 132.945 561.027 Q131.14 557.462 127.506 557.462 M127.506 553.758 Q133.316 553.758 136.371 558.365 Q139.45 562.948 139.45 571.698 Q139.45 580.425 136.371 585.031 Q133.316 589.614 127.506 589.614 Q121.696 589.614 118.617 585.031 Q115.561 580.425 115.561 571.698 Q115.561 562.948 118.617 558.365 Q121.696 553.758 127.506 553.758 Z" fill="#000000" fill-rule="evenodd" fill-opacity="1" /><path clip-path="url(#clip050)" d="M 0 0 M144.566 554.383 L162.922 554.383 L162.922 558.318 L148.848 558.318 L148.848 566.79 Q149.867 566.443 150.885 566.281 Q151.904 566.096 152.922 566.096 Q158.709 566.096 162.089 569.267 Q165.468 572.439 165.468 577.855 Q165.468 583.434 161.996 586.536 Q158.524 589.614 152.205 589.614 Q150.029 589.614 147.76 589.244 Q145.515 588.874 143.107 588.133 L143.107 583.434 Q145.191 584.568 147.413 585.124 Q149.635 585.679 152.112 585.679 Q156.117 585.679 158.455 583.573 Q160.793 581.466 160.793 577.855 Q160.793 574.244 158.455 572.138 Q156.117 570.031 152.112 570.031 Q150.237 570.031 148.362 570.448 Q146.51 570.864 144.566 571.744 L144.566 554.383 Z" fill="#000000" fill-rule="evenodd" fill-opacity="1" /><path clip-path="url(#clip050)" d="M 0 0 M180.538 557.462 Q176.927 557.462 175.098 561.027 Q173.292 564.568 173.292 571.698 Q173.292 578.804 175.098 582.369 Q176.927 585.911 180.538 585.911 Q184.172 585.911 185.978 582.369 Q187.806 578.804 187.806 571.698 Q187.806 564.568 185.978 561.027 Q184.172 557.462 180.538 557.462 M180.538 553.758 Q186.348 553.758 189.403 558.365 Q192.482 562.948 192.482 571.698 Q192.482 580.425 189.403 585.031 Q186.348 589.614 180.538 589.614 Q174.728 589.614 171.649 585.031 Q168.593 580.425 168.593 571.698 Q168.593 562.948 171.649 558.365 Q174.728 553.758 180.538 553.758 Z" fill="#000000" fill-rule="evenodd" fill-opacity="1" /><path clip-path="url(#clip050)" d="M 0 0 M64.5893 349.806 L77.0661 349.806 L77.0661 353.602 L64.5893 353.602 L64.5893 349.806 Z" fill="#000000" fill-rule="evenodd" fill-opacity="1" /><path clip-path="url(#clip050)" d="M 0 0 M92.1355 333.208 Q88.5244 333.208 86.6957 336.773 Q84.8902 340.315 84.8902 347.444 Q84.8902 354.551 86.6957 358.116 Q88.5244 361.657 92.1355 361.657 Q95.7697 361.657 97.5753 358.116 Q99.404 354.551 99.404 347.444 Q99.404 340.315 97.5753 336.773 Q95.7697 333.208 92.1355 333.208 M92.1355 329.505 Q97.9456 329.505 101.001 334.111 Q104.08 338.695 104.08 347.444 Q104.08 356.171 101.001 360.778 Q97.9456 365.361 92.1355 365.361 Q86.3253 365.361 83.2466 360.778 Q80.1911 356.171 80.1911 347.444 Q80.1911 338.695 83.2466 334.111 Q86.3253 329.505 92.1355 329.505 Z" fill="#000000" fill-rule="evenodd" fill-opacity="1" /><path clip-path="url(#clip050)" d="M 0 0 M109.149 358.81 L114.034 358.81 L114.034 364.69 L109.149 364.69 L109.149 358.81 Z" fill="#000000" fill-rule="evenodd" fill-opacity="1" /><path clip-path="url(#clip050)" d="M 0 0 M129.103 333.208 Q125.492 333.208 123.663 336.773 Q121.858 340.315 121.858 347.444 Q121.858 354.551 123.663 358.116 Q125.492 361.657 129.103 361.657 Q132.737 361.657 134.543 358.116 Q136.371 354.551 136.371 347.444 Q136.371 340.315 134.543 336.773 Q132.737 333.208 129.103 333.208 M129.103 329.505 Q134.913 329.505 137.969 334.111 Q141.047 338.695 141.047 347.444 Q141.047 356.171 137.969 360.778 Q134.913 365.361 129.103 365.361 Q123.293 365.361 120.214 360.778 Q117.159 356.171 117.159 347.444 Q117.159 338.695 120.214 334.111 Q123.293 329.505 129.103 329.505 Z" fill="#000000" fill-rule="evenodd" fill-opacity="1" /><path clip-path="url(#clip050)" d="M 0 0 M150.144 360.755 L166.464 360.755 L166.464 364.69 L144.519 364.69 L144.519 360.755 Q147.181 358 151.765 353.37 Q156.371 348.718 157.552 347.375 Q159.797 344.852 160.677 343.116 Q161.58 341.357 161.58 339.667 Q161.58 336.912 159.635 335.176 Q157.714 333.44 154.612 333.44 Q152.413 333.44 149.959 334.204 Q147.529 334.968 144.751 336.519 L144.751 331.796 Q147.575 330.662 150.029 330.083 Q152.482 329.505 154.519 329.505 Q159.89 329.505 163.084 332.19 Q166.279 334.875 166.279 339.366 Q166.279 341.495 165.468 343.417 Q164.681 345.315 162.575 347.907 Q161.996 348.579 158.894 351.796 Q155.793 354.991 150.144 360.755 Z" fill="#000000" fill-rule="evenodd" fill-opacity="1" /><path clip-path="url(#clip050)" d="M 0 0 M171.58 330.13 L189.936 330.13 L189.936 334.065 L175.862 334.065 L175.862 342.537 Q176.88 342.19 177.899 342.028 Q178.917 341.843 179.936 341.843 Q185.723 341.843 189.103 345.014 Q192.482 348.185 192.482 353.602 Q192.482 359.181 189.01 362.282 Q185.538 365.361 179.218 365.361 Q177.042 365.361 174.774 364.991 Q172.529 364.62 170.121 363.88 L170.121 359.181 Q172.205 360.315 174.427 360.87 Q176.649 361.426 179.126 361.426 Q183.13 361.426 185.468 359.319 Q187.806 357.213 187.806 353.602 Q187.806 349.991 185.468 347.884 Q183.13 345.778 179.126 345.778 Q177.251 345.778 175.376 346.194 Q173.524 346.611 171.58 347.491 L171.58 330.13 Z" fill="#000000" fill-rule="evenodd" fill-opacity="1" /><path clip-path="url(#clip050)" d="M 0 0 M89.5429 108.955 Q85.9318 108.955 84.1031 112.52 Q82.2976 116.062 82.2976 123.191 Q82.2976 130.298 84.1031 133.862 Q85.9318 137.404 89.5429 137.404 Q93.1771 137.404 94.9827 133.862 Q96.8114 130.298 96.8114 123.191 Q96.8114 116.062 94.9827 112.52 Q93.1771 108.955 89.5429 108.955 M89.5429 105.251 Q95.3531 105.251 98.4086 109.858 Q101.487 114.441 101.487 123.191 Q101.487 131.918 98.4086 136.524 Q95.3531 141.108 89.5429 141.108 Q83.7328 141.108 80.6541 136.524 Q77.5985 131.918 77.5985 123.191 Q77.5985 114.441 80.6541 109.858 Q83.7328 105.251 89.5429 105.251 Z" fill="#000000" fill-rule="evenodd" fill-opacity="1" /><path clip-path="url(#clip050)" d="M 0 0 M106.557 134.557 L111.441 134.557 L111.441 140.436 L106.557 140.436 L106.557 134.557 Z" fill="#000000" fill-rule="evenodd" fill-opacity="1" /><path clip-path="url(#clip050)" d="M 0 0 M126.51 108.955 Q122.899 108.955 121.071 112.52 Q119.265 116.062 119.265 123.191 Q119.265 130.298 121.071 133.862 Q122.899 137.404 126.51 137.404 Q130.145 137.404 131.95 133.862 Q133.779 130.298 133.779 123.191 Q133.779 116.062 131.95 112.52 Q130.145 108.955 126.51 108.955 M126.51 105.251 Q132.32 105.251 135.376 109.858 Q138.455 114.441 138.455 123.191 Q138.455 131.918 135.376 136.524 Q132.32 141.108 126.51 141.108 Q120.7 141.108 117.621 136.524 Q114.566 131.918 114.566 123.191 Q114.566 114.441 117.621 109.858 Q120.7 105.251 126.51 105.251 Z" fill="#000000" fill-rule="evenodd" fill-opacity="1" /><path clip-path="url(#clip050)" d="M 0 0 M153.524 108.955 Q149.913 108.955 148.084 112.52 Q146.279 116.062 146.279 123.191 Q146.279 130.298 148.084 133.862 Q149.913 137.404 153.524 137.404 Q157.158 137.404 158.964 133.862 Q160.793 130.298 160.793 123.191 Q160.793 116.062 158.964 112.52 Q157.158 108.955 153.524 108.955 M153.524 105.251 Q159.334 105.251 162.39 109.858 Q165.468 114.441 165.468 123.191 Q165.468 131.918 162.39 136.524 Q159.334 141.108 153.524 141.108 Q147.714 141.108 144.635 136.524 Q141.58 131.918 141.58 123.191 Q141.58 114.441 144.635 109.858 Q147.714 105.251 153.524 105.251 Z" fill="#000000" fill-rule="evenodd" fill-opacity="1" /><path clip-path="url(#clip050)" d="M 0 0 M180.538 108.955 Q176.927 108.955 175.098 112.52 Q173.292 116.062 173.292 123.191 Q173.292 130.298 175.098 133.862 Q176.927 137.404 180.538 137.404 Q184.172 137.404 185.978 133.862 Q187.806 130.298 187.806 123.191 Q187.806 116.062 185.978 112.52 Q184.172 108.955 180.538 108.955 M180.538 105.251 Q186.348 105.251 189.403 109.858 Q192.482 114.441 192.482 123.191 Q192.482 131.918 189.403 136.524 Q186.348 141.108 180.538 141.108 Q174.728 141.108 171.649 136.524 Q168.593 131.918 168.593 123.191 Q168.593 114.441 171.649 109.858 Q174.728 105.251 180.538 105.251 Z" fill="#000000" fill-rule="evenodd" fill-opacity="1" /><path clip-path="url(#clip050)" d="M 0 0 M948.319 12.0694 L948.319 18.9096 Q944.326 16.9999 940.784 16.0624 Q937.242 15.1249 933.944 15.1249 Q928.215 15.1249 925.09 17.3471 Q921.999 19.5693 921.999 23.6665 Q921.999 27.104 924.048 28.8748 Q926.131 30.6109 931.895 31.6873 L936.131 32.5554 Q943.979 34.0484 947.694 37.8331 Q951.444 41.5831 951.444 47.9025 Q951.444 55.4372 946.374 59.3261 Q941.34 63.2149 931.583 63.2149 Q927.902 63.2149 923.736 62.3816 Q919.604 61.5483 915.159 59.9163 L915.159 52.6942 Q919.43 55.09 923.527 56.3053 Q927.624 57.5205 931.583 57.5205 Q937.59 57.5205 940.854 55.1594 Q944.117 52.7983 944.117 48.4234 Q944.117 44.6039 941.756 42.4512 Q939.43 40.2984 934.083 39.222 L929.812 38.3887 Q921.965 36.8262 918.458 33.4929 Q914.951 30.1596 914.951 24.2221 Q914.951 17.3471 919.777 13.3888 Q924.638 9.43051 933.145 9.43051 Q936.791 9.43051 940.576 10.0902 Q944.36 10.7499 948.319 12.0694 Z" fill="#000000" fill-rule="evenodd" fill-opacity="1" /><path clip-path="url(#clip050)" d="M 0 0 M975.819 42.6595 Q968.076 42.6595 965.09 44.4303 Q962.103 46.2011 962.103 50.472 Q962.103 53.8747 964.326 55.8886 Q966.583 57.8677 970.437 57.8677 Q975.749 57.8677 978.944 54.1178 Q982.173 50.3331 982.173 44.0831 L982.173 42.6595 L975.819 42.6595 M988.562 40.0206 L988.562 62.208 L982.173 62.208 L982.173 56.3053 Q979.985 59.8469 976.721 61.5483 Q973.458 63.2149 968.735 63.2149 Q962.763 63.2149 959.221 59.8816 Q955.715 56.5136 955.715 50.8886 Q955.715 44.3262 960.09 40.9928 Q964.499 37.6595 973.214 37.6595 L982.173 37.6595 L982.173 37.0345 Q982.173 32.6248 979.256 30.229 Q976.374 27.7985 971.131 27.7985 Q967.798 27.7985 964.638 28.5971 Q961.478 29.3957 958.562 30.9929 L958.562 25.0901 Q962.069 23.736 965.367 23.0763 Q968.666 22.3818 971.791 22.3818 Q980.228 22.3818 984.395 26.7568 Q988.562 31.1318 988.562 40.0206 Z" fill="#000000" fill-rule="evenodd" fill-opacity="1" /><path clip-path="url(#clip050)" d="M 0 0 M990.68 23.3193 L997.45 23.3193 L1009.6 55.958 L1021.76 23.3193 L1028.53 23.3193 L1013.94 62.208 L1005.26 62.208 L990.68 23.3193 Z" fill="#000000" fill-rule="evenodd" fill-opacity="1" /><path clip-path="url(#clip050)" d="M 0 0 M1035.23 23.3193 L1041.62 23.3193 L1041.62 62.208 L1035.23 62.208 L1035.23 23.3193 M1035.23 8.18051 L1041.62 8.18051 L1041.62 16.2707 L1035.23 16.2707 L1035.23 8.18051 Z" fill="#000000" fill-rule="evenodd" fill-opacity="1" /><path clip-path="url(#clip050)" d="M 0 0 M1080.64 38.7359 L1080.64 62.208 L1074.26 62.208 L1074.26 38.9442 Q1074.26 33.4234 1072.1 30.6804 Q1069.95 27.9374 1065.64 27.9374 Q1060.47 27.9374 1057.48 31.2359 Q1054.5 34.5345 1054.5 40.229 L1054.5 62.208 L1048.08 62.208 L1048.08 23.3193 L1054.5 23.3193 L1054.5 29.361 Q1056.79 25.854 1059.88 24.1179 Q1063.01 22.3818 1067.07 22.3818 Q1073.77 22.3818 1077.21 26.5485 Q1080.64 30.6804 1080.64 38.7359 Z" fill="#000000" fill-rule="evenodd" fill-opacity="1" /><path clip-path="url(#clip050)" d="M 0 0 M1112.94 42.3123 Q1112.94 35.3679 1110.05 31.5484 Q1107.21 27.729 1102.03 27.729 Q1096.89 27.729 1094.01 31.5484 Q1091.17 35.3679 1091.17 42.3123 Q1091.17 49.222 1094.01 53.0414 Q1096.89 56.8608 1102.03 56.8608 Q1107.21 56.8608 1110.05 53.0414 Q1112.94 49.222 1112.94 42.3123 M1119.32 57.3816 Q1119.32 67.3121 1114.92 72.1385 Q1110.51 76.9996 1101.41 76.9996 Q1098.04 76.9996 1095.05 76.4788 Q1092.07 75.9926 1089.26 74.951 L1089.26 68.7357 Q1092.07 70.2635 1094.81 70.9927 Q1097.55 71.7218 1100.4 71.7218 Q1106.69 71.7218 1109.81 68.4232 Q1112.94 65.1594 1112.94 58.5275 L1112.94 55.3678 Q1110.96 58.8052 1107.87 60.5066 Q1104.78 62.208 1100.47 62.208 Q1093.32 62.208 1088.94 56.7566 Q1084.57 51.3053 1084.57 42.3123 Q1084.57 33.2845 1088.94 27.8332 Q1093.32 22.3818 1100.47 22.3818 Q1104.78 22.3818 1107.87 24.0832 Q1110.96 25.7846 1112.94 29.2221 L1112.94 23.3193 L1119.32 23.3193 L1119.32 57.3816 Z" fill="#000000" fill-rule="evenodd" fill-opacity="1" /><path clip-path="url(#clip050)" d="M 0 0 M1150.82 24.4651 L1150.82 30.5068 Q1148.11 29.1179 1145.19 28.4235 Q1142.28 27.729 1139.15 27.729 Q1134.39 27.729 1132 29.1873 Q1129.64 30.6457 1129.64 33.5623 Q1129.64 35.7845 1131.34 37.0692 Q1133.04 38.3192 1138.18 39.4651 L1140.37 39.9512 Q1147.17 41.4095 1150.02 44.0831 Q1152.9 46.722 1152.9 51.4789 Q1152.9 56.8955 1148.6 60.0552 Q1144.32 63.2149 1136.82 63.2149 Q1133.7 63.2149 1130.3 62.5899 Q1126.93 61.9997 1123.18 60.7844 L1123.18 54.1872 Q1126.72 56.0275 1130.16 56.965 Q1133.6 57.8677 1136.96 57.8677 Q1141.48 57.8677 1143.91 56.34 Q1146.34 54.7775 1146.34 51.965 Q1146.34 49.3608 1144.57 47.972 Q1142.83 46.5831 1136.89 45.2984 L1134.67 44.7775 Q1128.73 43.5275 1126.1 40.9581 Q1123.46 38.354 1123.46 33.8401 Q1123.46 28.354 1127.35 25.3679 Q1131.23 22.3818 1138.39 22.3818 Q1141.93 22.3818 1145.05 22.9027 Q1148.18 23.4235 1150.82 24.4651 Z" fill="#000000" fill-rule="evenodd" fill-opacity="1" /><path clip-path="url(#clip050)" d="M 0 0 M1201.89 8.18051 L1201.89 13.493 L1195.78 13.493 Q1192.35 13.493 1190.99 14.8819 Q1189.67 16.2707 1189.67 19.8818 L1189.67 23.3193 L1200.19 23.3193 L1200.19 28.2846 L1189.67 28.2846 L1189.67 62.208 L1183.25 62.208 L1183.25 28.2846 L1177.14 28.2846 L1177.14 23.3193 L1183.25 23.3193 L1183.25 20.611 Q1183.25 14.118 1186.27 11.1666 Q1189.29 8.18051 1195.85 8.18051 L1201.89 8.18051 Z" fill="#000000" fill-rule="evenodd" fill-opacity="1" /><path clip-path="url(#clip050)" d="M 0 0 M1207.94 46.8609 L1207.94 23.3193 L1214.32 23.3193 L1214.32 46.6178 Q1214.32 52.1386 1216.48 54.9164 Q1218.63 57.6594 1222.94 57.6594 Q1228.11 57.6594 1231.1 54.3608 Q1234.12 51.0622 1234.12 45.3678 L1234.12 23.3193 L1240.5 23.3193 L1240.5 62.208 L1234.12 62.208 L1234.12 56.2358 Q1231.79 59.7775 1228.7 61.5136 Q1225.64 63.2149 1221.58 63.2149 Q1214.88 63.2149 1211.41 59.0483 Q1207.94 54.8817 1207.94 46.8609 M1224.01 22.3818 L1224.01 22.3818 Z" fill="#000000" fill-rule="evenodd" fill-opacity="1" /><path clip-path="url(#clip050)" d="M 0 0 M1279.53 38.7359 L1279.53 62.208 L1273.14 62.208 L1273.14 38.9442 Q1273.14 33.4234 1270.99 30.6804 Q1268.84 27.9374 1264.53 27.9374 Q1259.36 27.9374 1256.37 31.2359 Q1253.39 34.5345 1253.39 40.229 L1253.39 62.208 L1246.96 62.208 L1246.96 23.3193 L1253.39 23.3193 L1253.39 29.361 Q1255.68 25.854 1258.77 24.1179 Q1261.89 22.3818 1265.96 22.3818 Q1272.66 22.3818 1276.09 26.5485 Q1279.53 30.6804 1279.53 38.7359 Z" fill="#000000" fill-rule="evenodd" fill-opacity="1" /><path clip-path="url(#clip050)" d="M 0 0 M1314.22 24.8124 L1314.22 30.7846 Q1311.51 29.2915 1308.77 28.5623 Q1306.06 27.7985 1303.28 27.7985 Q1297.07 27.7985 1293.63 31.7568 Q1290.19 35.6804 1290.19 42.7984 Q1290.19 49.9164 1293.63 53.8747 Q1297.07 57.7983 1303.28 57.7983 Q1306.06 57.7983 1308.77 57.0691 Q1311.51 56.3053 1314.22 54.8122 L1314.22 60.715 Q1311.55 61.9649 1308.66 62.5899 Q1305.82 63.2149 1302.59 63.2149 Q1293.8 63.2149 1288.63 57.6941 Q1283.46 52.1733 1283.46 42.7984 Q1283.46 33.2845 1288.66 27.8332 Q1293.91 22.3818 1303 22.3818 Q1305.96 22.3818 1308.77 23.0068 Q1311.58 23.5971 1314.22 24.8124 Z" fill="#000000" fill-rule="evenodd" fill-opacity="1" /><path clip-path="url(#clip050)" d="M 0 0 M1327.24 12.2777 L1327.24 23.3193 L1340.4 23.3193 L1340.4 28.2846 L1327.24 28.2846 L1327.24 49.3956 Q1327.24 54.1525 1328.53 55.5066 Q1329.84 56.8608 1333.84 56.8608 L1340.4 56.8608 L1340.4 62.208 L1333.84 62.208 Q1326.44 62.208 1323.63 59.465 Q1320.82 56.6872 1320.82 49.3956 L1320.82 28.2846 L1316.13 28.2846 L1316.13 23.3193 L1320.82 23.3193 L1320.82 12.2777 L1327.24 12.2777 Z" fill="#000000" fill-rule="evenodd" fill-opacity="1" /><path clip-path="url(#clip050)" d="M 0 0 M1347.1 23.3193 L1353.49 23.3193 L1353.49 62.208 L1347.1 62.208 L1347.1 23.3193 M1347.1 8.18051 L1353.49 8.18051 L1353.49 16.2707 L1347.1 16.2707 L1347.1 8.18051 Z" fill="#000000" fill-rule="evenodd" fill-opacity="1" /><path clip-path="url(#clip050)" d="M 0 0 M1375.26 27.7985 Q1370.12 27.7985 1367.14 31.8262 Q1364.15 35.8193 1364.15 42.7984 Q1364.15 49.7775 1367.1 53.8053 Q1370.09 57.7983 1375.26 57.7983 Q1380.37 57.7983 1383.35 53.7705 Q1386.34 49.7428 1386.34 42.7984 Q1386.34 35.8887 1383.35 31.8609 Q1380.37 27.7985 1375.26 27.7985 M1375.26 22.3818 Q1383.59 22.3818 1388.35 27.7985 Q1393.11 33.2151 1393.11 42.7984 Q1393.11 52.3469 1388.35 57.7983 Q1383.59 63.2149 1375.26 63.2149 Q1366.89 63.2149 1362.14 57.7983 Q1357.41 52.3469 1357.41 42.7984 Q1357.41 33.2151 1362.14 27.7985 Q1366.89 22.3818 1375.26 22.3818 Z" fill="#000000" fill-rule="evenodd" fill-opacity="1" /><path clip-path="url(#clip050)" d="M 0 0 M1432.14 38.7359 L1432.14 62.208 L1425.75 62.208 L1425.75 38.9442 Q1425.75 33.4234 1423.59 30.6804 Q1421.44 27.9374 1417.14 27.9374 Q1411.96 27.9374 1408.98 31.2359 Q1405.99 34.5345 1405.99 40.229 L1405.99 62.208 L1399.57 62.208 L1399.57 23.3193 L1405.99 23.3193 L1405.99 29.361 Q1408.28 25.854 1411.37 24.1179 Q1414.5 22.3818 1418.56 22.3818 Q1425.26 22.3818 1428.7 26.5485 Q1432.14 30.6804 1432.14 38.7359 Z" fill="#000000" fill-rule="evenodd" fill-opacity="1" /><path clip-path="url(#clip050)" d="M 0 0 M1468.73 37.4512 L1468.73 56.4441 L1479.98 56.4441 Q1485.64 56.4441 1488.35 54.1178 Q1491.09 51.7567 1491.09 46.9303 Q1491.09 42.0692 1488.35 39.7776 Q1485.64 37.4512 1479.98 37.4512 L1468.73 37.4512 M1468.73 16.1319 L1468.73 31.7568 L1479.11 31.7568 Q1484.25 31.7568 1486.75 29.8471 Q1489.29 27.9026 1489.29 23.9443 Q1489.29 20.0207 1486.75 18.0763 Q1484.25 16.1319 1479.11 16.1319 L1468.73 16.1319 M1461.72 10.368 L1479.64 10.368 Q1487.66 10.368 1492 13.7013 Q1496.34 17.0346 1496.34 23.1804 Q1496.34 27.9374 1494.11 30.7498 Q1491.89 33.5623 1487.59 34.2568 Q1492.76 35.3679 1495.61 38.9095 Q1498.49 42.4164 1498.49 47.6942 Q1498.49 54.6386 1493.77 58.4233 Q1489.05 62.208 1480.33 62.208 L1461.72 62.208 L1461.72 10.368 Z" fill="#000000" fill-rule="evenodd" fill-opacity="1" /><path clip-path="url(#clip050)" d="M 0 0 M1511.23 10.368 L1511.23 29.6387 L1505.33 29.6387 L1505.33 10.368 L1511.23 10.368 Z" fill="#000000" fill-rule="evenodd" fill-opacity="1" /><path clip-path="url(#clip050)" d="M 0 0 M1533.28 8.24996 Q1528.63 16.236 1526.37 24.0485 Q1524.11 31.8609 1524.11 39.8817 Q1524.11 47.9025 1526.37 55.7844 Q1528.66 63.6316 1533.28 71.5829 L1527.73 71.5829 Q1522.52 63.4233 1519.91 55.5414 Q1517.34 47.6595 1517.34 39.8817 Q1517.34 32.1387 1519.91 24.2915 Q1522.48 16.4444 1527.73 8.24996 L1533.28 8.24996 Z" fill="#000000" fill-rule="evenodd" fill-opacity="1" /><path clip-path="url(#clip050)" d="M 0 0 M1547.27 37.4512 L1547.27 56.4441 L1558.52 56.4441 Q1564.18 56.4441 1566.89 54.1178 Q1569.63 51.7567 1569.63 46.9303 Q1569.63 42.0692 1566.89 39.7776 Q1564.18 37.4512 1558.52 37.4512 L1547.27 37.4512 M1547.27 16.1319 L1547.27 31.7568 L1557.66 31.7568 Q1562.79 31.7568 1565.29 29.8471 Q1567.83 27.9026 1567.83 23.9443 Q1567.83 20.0207 1565.29 18.0763 Q1562.79 16.1319 1557.66 16.1319 L1547.27 16.1319 M1540.26 10.368 L1558.18 10.368 Q1566.2 10.368 1570.54 13.7013 Q1574.88 17.0346 1574.88 23.1804 Q1574.88 27.9374 1572.66 30.7498 Q1570.43 33.5623 1566.13 34.2568 Q1571.3 35.3679 1574.15 38.9095 Q1577.03 42.4164 1577.03 47.6942 Q1577.03 54.6386 1572.31 58.4233 Q1567.59 62.208 1558.87 62.208 L1540.26 62.208 L1540.26 10.368 Z" fill="#000000" fill-rule="evenodd" fill-opacity="1" /><path clip-path="url(#clip050)" d="M 0 0 M1585.36 53.3886 L1592.69 53.3886 L1592.69 59.3608 L1587 70.4718 L1582.52 70.4718 L1585.36 59.3608 L1585.36 53.3886 Z" fill="#000000" fill-rule="evenodd" fill-opacity="1" /><path clip-path="url(#clip050)" d="M 0 0 M1615.57 65.8191 Q1612.86 72.7635 1610.29 74.8815 Q1607.72 76.9996 1603.42 76.9996 L1598.32 76.9996 L1598.32 71.6524 L1602.07 71.6524 Q1604.7 71.6524 1606.16 70.4024 Q1607.62 69.1524 1609.39 64.4997 L1610.54 61.583 L1594.81 23.3193 L1601.58 23.3193 L1613.73 53.7358 L1625.88 23.3193 L1632.66 23.3193 L1615.57 65.8191 Z" fill="#000000" fill-rule="evenodd" fill-opacity="1" /><path clip-path="url(#clip050)" d="M 0 0 M1638.35 8.24996 L1643.91 8.24996 Q1649.11 16.4444 1651.68 24.2915 Q1654.29 32.1387 1654.29 39.8817 Q1654.29 47.6595 1651.68 55.5414 Q1649.11 63.4233 1643.91 71.5829 L1638.35 71.5829 Q1642.97 63.6316 1645.22 55.7844 Q1647.52 47.9025 1647.52 39.8817 Q1647.52 31.8609 1645.22 24.0485 Q1642.97 16.236 1638.35 8.24996 Z" fill="#000000" fill-rule="evenodd" fill-opacity="1" /><path clip-path="url(#clip050)" d="M 0 0 M1274.2 1533.35 L1274.2 1550.76 L1284.51 1550.76 Q1289.7 1550.76 1292.18 1548.63 Q1294.69 1546.46 1294.69 1542.04 Q1294.69 1537.58 1292.18 1535.48 Q1289.7 1533.35 1284.51 1533.35 L1274.2 1533.35 M1274.2 1513.81 L1274.2 1528.13 L1283.71 1528.13 Q1288.42 1528.13 1290.71 1526.38 Q1293.04 1524.6 1293.04 1520.97 Q1293.04 1517.37 1290.71 1515.59 Q1288.42 1513.81 1283.71 1513.81 L1274.2 1513.81 M1267.77 1508.52 L1284.19 1508.52 Q1291.54 1508.52 1295.52 1511.58 Q1299.5 1514.63 1299.5 1520.27 Q1299.5 1524.63 1297.46 1527.21 Q1295.42 1529.79 1291.48 1530.42 Q1296.22 1531.44 1298.83 1534.69 Q1301.47 1537.9 1301.47 1542.74 Q1301.47 1549.11 1297.14 1552.57 Q1292.81 1556.04 1284.83 1556.04 L1267.77 1556.04 L1267.77 1508.52 Z" fill="#000000" fill-rule="evenodd" fill-opacity="1" /><polyline clip-path="url(#clip052)" style="stroke:#ff0000; stroke-width:4.6; stroke-opacity:1; fill:none" points="
  276.943,281.031 287.72,281.031 298.497,281.031 309.275,281.031 320.052,281.031 330.829,281.031 341.606,281.031 352.384,281.031 363.161,281.031 373.938,281.031 
  384.716,281.031 395.493,281.031 406.27,281.031 417.047,281.031 427.825,281.031 438.602,281.031 449.379,281.031 460.157,281.031 470.934,281.031 481.711,281.031 
  492.488,281.031 503.266,281.031 514.043,281.031 524.82,281.031 535.598,281.031 546.375,281.031 557.152,281.031 567.929,281.031 578.707,281.031 589.484,281.031 
  600.261,281.031 611.039,281.031 621.816,281.031 632.593,281.031 643.37,281.031 654.148,281.031 664.925,281.031 675.702,281.031 686.48,281.031 697.257,281.031 
  708.034,281.031 718.811,281.031 729.589,281.031 740.366,281.031 751.143,281.031 761.921,281.031 772.698,281.031 783.475,281.031 794.253,281.031 805.03,281.031 
  815.807,281.031 826.584,281.031 837.362,281.031 848.139,281.031 858.916,281.031 869.694,281.031 880.471,281.031 891.248,281.031 902.025,281.031 912.803,281.031 
  923.58,281.031 934.357,281.031 945.135,281.031 955.912,281.031 966.689,281.031 977.466,281.031 988.244,281.031 999.021,281.031 1009.8,281.031 1020.58,281.031 
  1031.35,281.031 1042.13,281.031 1052.91,281.031 1063.68,281.031 1074.46,281.031 1085.24,281.031 1096.02,281.031 1106.79,281.031 1117.57,281.031 1128.35,281.031 
  1139.13,281.031 1149.9,281.031 1160.68,281.031 1171.46,281.031 1182.23,281.031 1193.01,281.031 1203.79,281.031 1214.57,281.031 1225.34,281.031 1236.12,281.031 
  1246.9,281.031 1257.68,281.031 1268.45,281.031 1279.23,281.031 1290.01,281.031 1300.78,281.031 1311.56,281.031 1322.34,281.031 1333.12,281.031 1343.89,281.031 
  1354.67,281.031 1365.45,281.031 1376.23,194.917 1387,194.917 1397.78,194.917 1408.56,194.917 1419.34,194.917 1430.11,194.917 1440.89,194.917 1451.67,194.917 
  1462.44,194.917 1473.22,194.917 1484,194.917 1494.78,194.917 1505.55,194.917 1516.33,194.917 1527.11,194.917 1537.89,194.917 1548.66,194.917 1559.44,194.917 
  1570.22,194.917 1580.99,194.917 1591.77,194.917 1602.55,194.917 1613.33,194.917 1624.1,194.917 1634.88,194.917 1645.66,194.917 1656.44,194.917 1667.21,194.917 
  1677.99,194.917 1688.77,194.917 1699.54,194.917 1710.32,194.917 1721.1,194.917 1731.88,194.917 1742.65,194.917 1753.43,194.917 1764.21,194.917 1774.99,194.917 
  1785.76,194.917 1796.54,194.917 1807.32,194.917 1818.09,194.917 1828.87,194.917 1839.65,194.917 1850.43,194.917 1861.2,194.917 1871.98,194.917 1882.76,194.917 
  1893.54,194.917 1904.31,194.917 1915.09,194.917 1925.87,194.917 1936.64,194.917 1947.42,194.917 1958.2,194.917 1968.98,194.917 1979.75,194.917 1990.53,194.917 
  2001.31,194.917 2012.09,194.917 2022.86,194.917 2033.64,194.917 2044.42,194.917 2055.2,194.917 2065.97,194.917 2076.75,194.917 2087.53,194.917 2098.3,194.917 
  2109.08,194.917 2119.86,194.917 2130.64,194.917 2141.41,194.917 2152.19,194.917 2162.97,194.917 2173.75,151.861 2184.52,151.861 2195.3,151.861 2206.08,151.861 
  2216.85,151.861 2227.63,151.861 2238.41,151.861 2249.19,151.861 2259.96,151.861 2270.74,151.861 2281.52,151.861 2292.3,151.861 
  "/>
<polyline clip-path="url(#clip052)" style="stroke:#0000ff; stroke-width:4.6; stroke-opacity:1; fill:none" stroke-dasharray="18, 12" points="
  276.943,1386.15 287.72,1386.15 298.497,1386.15 309.275,1386.15 320.052,1386.15 330.829,1386.15 341.606,1386.15 352.384,1386.15 363.161,1386.15 373.938,1386.15 
  384.716,1386.15 395.493,1386.15 406.27,1386.15 417.047,1386.15 427.825,1386.15 438.602,1386.15 449.379,1386.15 460.157,1386.15 470.934,1386.15 481.711,1386.15 
  492.488,1386.15 503.266,1386.15 514.043,1386.15 524.82,1386.15 535.598,1386.15 546.375,1386.15 557.152,1386.15 567.929,1386.15 578.707,1386.15 589.484,1386.15 
  600.261,1386.15 611.039,1386.15 621.816,1386.15 632.593,1386.15 643.37,1386.15 654.148,1386.15 664.925,1386.15 675.702,1386.15 686.48,1386.15 697.257,1386.15 
  708.034,1386.15 718.811,1386.15 729.589,1386.15 740.366,1386.15 751.143,1386.15 761.921,1386.15 772.698,1386.15 783.475,1386.15 794.253,1386.15 805.03,1386.15 
  815.807,1386.15 826.584,1386.15 837.362,1386.15 848.139,1386.15 858.916,1386.15 869.694,1386.15 880.471,1386.15 891.248,1386.15 902.025,1386.15 912.803,1386.15 
  923.58,1386.15 934.357,1386.15 945.135,1386.15 955.912,1386.15 966.689,1386.15 977.466,1386.15 988.244,1386.15 999.021,1386.15 1009.8,1386.15 1020.58,1386.15 
  1031.35,1386.15 1042.13,1386.15 1052.91,1386.15 1063.68,1386.15 1074.46,1386.15 1085.24,1386.15 1096.02,1386.15 1106.79,1386.15 1117.57,1386.15 1128.35,1386.15 
  1139.13,1386.15 1149.9,1386.15 1160.68,1386.15 1171.46,1386.15 1182.23,1386.15 1193.01,1386.15 1203.79,1386.15 1214.57,1386.15 1225.34,1386.15 1236.12,1386.15 
  1246.9,1386.15 1257.68,1371.8 1268.45,1371.8 1279.23,1357.45 1290.01,1357.45 1300.78,1343.09 1311.56,1328.74 1322.34,1328.74 1333.12,1314.39 1343.89,1314.39 
  1354.67,1300.04 1365.45,1300.04 1376.23,1285.69 1387,1271.33 1397.78,1271.33 1408.56,1256.98 1419.34,1242.63 1430.11,1242.63 1440.89,1228.28 1451.67,1213.92 
  1462.44,1199.57 1473.22,1185.22 1484,1127.81 1494.78,1127.81 1505.55,1113.46 1516.33,855.119 1527.11,855.119 1537.89,855.119 1548.66,855.119 1559.44,855.119 
  1570.22,855.119 1580.99,855.119 1591.77,855.119 1602.55,855.119 1613.33,855.119 1624.1,855.119 1634.88,855.119 1645.66,855.119 1656.44,855.119 1667.21,855.119 
  1677.99,855.119 1688.77,855.119 1699.54,855.119 1710.32,855.119 1721.1,855.119 1731.88,855.119 1742.65,855.119 1753.43,855.119 1764.21,855.119 1774.99,855.119 
  1785.76,855.119 1796.54,855.119 1807.32,840.767 1818.09,840.767 1828.87,826.415 1839.65,826.415 1850.43,812.063 1861.2,797.71 1871.98,783.358 1882.76,783.358 
  1893.54,769.006 1904.31,754.654 1915.09,754.654 1925.87,740.302 1936.64,740.302 1947.42,725.949 1958.2,711.597 1968.98,711.597 1979.75,697.245 1990.53,682.893 
  2001.31,682.893 2012.09,668.54 2022.86,654.188 2033.64,654.188 2044.42,639.836 2055.2,625.484 2065.97,611.132 2076.75,611.132 2087.53,596.779 2098.3,582.427 
  2109.08,568.075 2119.86,568.075 2130.64,553.723 2141.41,539.371 2152.19,539.371 2162.97,525.018 2173.75,510.666 2184.52,496.314 2195.3,424.553 2206.08,424.553 
  2216.85,424.553 2227.63,424.553 2238.41,424.553 2249.19,410.201 2259.96,410.201 2270.74,395.848 2281.52,381.496 2292.3,381.496 
  "/>
<path clip-path="url(#clip050)" d="
M288.482 379.792 L654.222 379.792 L654.222 198.352 L288.482 198.352  Z
  " fill="#000000" fill-rule="evenodd" fill-opacity="0"/>
<polyline clip-path="url(#clip050)" style="stroke:#000000; stroke-width:4; stroke-opacity:0; fill:none" points="
  288.482,379.792 654.222,379.792 654.222,198.352 288.482,198.352 288.482,379.792 
  "/>
<polyline clip-path="url(#clip050)" style="stroke:#ff0000; stroke-width:4; stroke-opacity:1; fill:none" points="
  312.482,258.832 456.482,258.832 
  "/>
<path clip-path="url(#clip050)" d="M 0 0 M494.325 278.52 Q492.519 283.149 490.806 284.561 Q489.093 285.973 486.223 285.973 L482.82 285.973 L482.82 282.408 L485.32 282.408 Q487.079 282.408 488.052 281.575 Q489.024 280.742 490.204 277.64 L490.968 275.695 L480.482 250.186 L484.996 250.186 L493.098 270.464 L501.2 250.186 L505.714 250.186 L494.325 278.52 Z" fill="#000000" fill-rule="evenodd" fill-opacity="1" /><path clip-path="url(#clip050)" d="M 0 0 M507.195 261.228 L519.672 261.228 L519.672 265.024 L507.195 265.024 L507.195 261.228 Z" fill="#000000" fill-rule="evenodd" fill-opacity="1" /><path clip-path="url(#clip050)" d="M 0 0 M524.139 240.094 L528.399 240.094 L528.399 276.112 L524.139 276.112 L524.139 240.094 Z" fill="#000000" fill-rule="evenodd" fill-opacity="1" /><path clip-path="url(#clip050)" d="M 0 0 M542.912 253.172 Q539.486 253.172 537.496 255.858 Q535.505 258.52 535.505 263.172 Q535.505 267.825 537.473 270.51 Q539.463 273.172 542.912 273.172 Q546.315 273.172 548.306 270.487 Q550.297 267.802 550.297 263.172 Q550.297 258.566 548.306 255.881 Q546.315 253.172 542.912 253.172 M542.912 249.561 Q548.468 249.561 551.639 253.172 Q554.81 256.784 554.81 263.172 Q554.81 269.538 551.639 273.172 Q548.468 276.783 542.912 276.783 Q537.334 276.783 534.162 273.172 Q531.014 269.538 531.014 263.172 Q531.014 256.784 534.162 253.172 Q537.334 249.561 542.912 249.561 Z" fill="#000000" fill-rule="evenodd" fill-opacity="1" /><path clip-path="url(#clip050)" d="M 0 0 M556.801 250.186 L561.06 250.186 L566.384 270.418 L571.685 250.186 L576.709 250.186 L582.033 270.418 L587.333 250.186 L591.593 250.186 L584.81 276.112 L579.787 276.112 L574.209 254.862 L568.607 276.112 L563.584 276.112 L556.801 250.186 Z" fill="#000000" fill-rule="evenodd" fill-opacity="1" /><path clip-path="url(#clip050)" d="M 0 0 M592.31 270.233 L597.195 270.233 L597.195 276.112 L592.31 276.112 L592.31 270.233 Z" fill="#000000" fill-rule="evenodd" fill-opacity="1" /><polyline clip-path="url(#clip050)" style="stroke:#0000ff; stroke-width:4; stroke-opacity:1; fill:none" stroke-dasharray="16, 10" points="
  312.482,319.312 456.482,319.312 
  "/>
<path clip-path="url(#clip050)" d="M 0 0 M494.325 339 Q492.519 343.629 490.806 345.041 Q489.093 346.453 486.223 346.453 L482.82 346.453 L482.82 342.888 L485.32 342.888 Q487.079 342.888 488.052 342.055 Q489.024 341.222 490.204 338.12 L490.968 336.175 L480.482 310.666 L484.996 310.666 L493.098 330.944 L501.2 310.666 L505.714 310.666 L494.325 339 Z" fill="#000000" fill-rule="evenodd" fill-opacity="1" /><path clip-path="url(#clip050)" d="M 0 0 M507.195 321.708 L519.672 321.708 L519.672 325.504 L507.195 325.504 L507.195 321.708 Z" fill="#000000" fill-rule="evenodd" fill-opacity="1" /><path clip-path="url(#clip050)" d="M 0 0 M545.69 320.944 L545.69 336.592 L541.431 336.592 L541.431 321.083 Q541.431 317.402 539.996 315.574 Q538.561 313.745 535.69 313.745 Q532.241 313.745 530.25 315.944 Q528.26 318.143 528.26 321.939 L528.26 336.592 L523.977 336.592 L523.977 300.574 L528.26 300.574 L528.26 314.694 Q529.787 312.356 531.848 311.199 Q533.931 310.041 536.639 310.041 Q541.107 310.041 543.399 312.819 Q545.69 315.574 545.69 320.944 Z" fill="#000000" fill-rule="evenodd" fill-opacity="1" /><path clip-path="url(#clip050)" d="M 0 0 M550.158 310.666 L554.417 310.666 L554.417 336.592 L550.158 336.592 L550.158 310.666 M550.158 300.574 L554.417 300.574 L554.417 305.967 L550.158 305.967 L550.158 300.574 Z" fill="#000000" fill-rule="evenodd" fill-opacity="1" /><path clip-path="url(#clip050)" d="M 0 0 M575.945 323.328 Q575.945 318.699 574.023 316.152 Q572.125 313.606 568.676 313.606 Q565.25 313.606 563.329 316.152 Q561.431 318.699 561.431 323.328 Q561.431 327.935 563.329 330.481 Q565.25 333.027 568.676 333.027 Q572.125 333.027 574.023 330.481 Q575.945 327.935 575.945 323.328 M580.204 333.375 Q580.204 339.995 577.264 343.212 Q574.324 346.453 568.259 346.453 Q566.014 346.453 564.023 346.106 Q562.033 345.782 560.158 345.087 L560.158 340.944 Q562.033 341.962 563.861 342.449 Q565.69 342.935 567.588 342.935 Q571.778 342.935 573.861 340.736 Q575.945 338.56 575.945 334.138 L575.945 332.032 Q574.625 334.324 572.565 335.458 Q570.505 336.592 567.634 336.592 Q562.866 336.592 559.949 332.958 Q557.033 329.324 557.033 323.328 Q557.033 317.31 559.949 313.676 Q562.866 310.041 567.634 310.041 Q570.505 310.041 572.565 311.176 Q574.625 312.31 575.945 314.602 L575.945 310.666 L580.204 310.666 L580.204 333.375 Z" fill="#000000" fill-rule="evenodd" fill-opacity="1" /><path clip-path="url(#clip050)" d="M 0 0 M606.222 320.944 L606.222 336.592 L601.963 336.592 L601.963 321.083 Q601.963 317.402 600.528 315.574 Q599.093 313.745 596.222 313.745 Q592.773 313.745 590.783 315.944 Q588.792 318.143 588.792 321.939 L588.792 336.592 L584.509 336.592 L584.509 300.574 L588.792 300.574 L588.792 314.694 Q590.32 312.356 592.38 311.199 Q594.463 310.041 597.171 310.041 Q601.639 310.041 603.931 312.819 Q606.222 315.574 606.222 320.944 Z" fill="#000000" fill-rule="evenodd" fill-opacity="1" /></svg>
