<?xml version="1.0" encoding="utf-8"?>
<svg xmlns="http://www.w3.org/2000/svg" xmlns:xlink="http://www.w3.org/1999/xlink" width="600" height="400" viewBox="0 0 2400 1600">
<defs>
  <clipPath id="clip330">
    <rect x="0" y="0" width="2400" height="1600"/>
  </clipPath>
</defs>
<path clip-path="url(#clip330)" d="
M0 1600 L2400 1600 L2400 0 L0 0  Z
  " fill="#ffffff" fill-rule="evenodd" fill-opacity="1"/>
<defs>
  <clipPath id="clip331">
    <rect x="480" y="0" width="1681" height="1600"/>
  </clipPath>
</defs>
<path clip-path="url(#clip330)" d="
M243.496 1486.45 L2352.76 1486.45 L2352.76 47.2441 L243.496 47.2441  Z
  " fill="#ffffff" fill-rule="evenodd" fill-opacity="1"/>
<defs>
  <clipPath id="clip332">
    <rect x="243" y="47" width="2110" height="1440"/>
  </clipPath>
</defs>
<polyline clip-path="url(#clip332)" style="stroke:#000000; stroke-width:2; stroke-opacity:0.1; fill:none" points="
  303.192,1486.45 303.192,47.2441 
  "/>
<polyline clip-path="url(#clip332)" style="stroke:#000000; stroke-width:2; stroke-opacity:0.1; fill:none" points="
  833.823,1486.45 833.823,47.2441 
  "/>
<polyline clip-path="url(#clip332)" style="stroke:#000000; stroke-width:2; stroke-opacity:0.1; fill:none" points="
  1364.45,1486.45 1364.45,47.2441 
  "/>
<polyline clip-path="url(#clip332)" style="stroke:#000000; stroke-width:2; stroke-opacity:0.1; fill:none" points="
  1895.09,1486.45 1895.09,47.2441 
  "/>
<polyline clip-path="url(#clip332)" style="stroke:#000000; stroke-width:2; stroke-opacity:0.1; fill:none" points="
  243.496,1219.18 2352.76,1219.18 
  "/>
<polyline clip-path="url(#clip332)" style="stroke:#000000; stroke-width:2; stroke-opacity:0.1; fill:none" points="
  243.496,884.664 2352.76,884.664 
  "/>
<polyline clip-path="url(#clip332)" style="stroke:#000000; stroke-width:2; stroke-opacity:0.1; fill:none" points="
  243.496,550.15 2352.76,550.15 
  "/>
<polyline clip-path="url(#clip332)" style="stroke:#000000; stroke-width:2; stroke-opacity:0.1; fill:none" points="
  243.496,215.635 2352.76,215.635 
  "/>
<polyline clip-path="url(#clip330)" style="stroke:#000000; stroke-width:4; stroke-opacity:1; fill:none" points="
  243.496,550.15 2352.76,550.15 
  "/>
<polyline clip-path="url(#clip330)" style="stroke:#000000; stroke-width:4; stroke-opacity:1; fill:none" points="
  303.192,1486.45 303.192,47.2441 
  "/>
<polyline clip-path="url(#clip330)" style="stroke:#000000; stroke-width:4; stroke-opacity:0; fill:none" points="
  303.192,550.15 303.192,550.15 
  "/>
<polyline clip-path="url(#clip330)" style="stroke:#000000; stroke-width:4; stroke-opacity:0; fill:none" points="
  833.823,550.15 833.823,550.15 
  "/>
<polyline clip-path="url(#clip330)" style="stroke:#000000; stroke-width:4; stroke-opacity:0; fill:none" points="
  1364.45,550.15 1364.45,550.15 
  "/>
<polyline clip-path="url(#clip330)" style="stroke:#000000; stroke-width:4; stroke-opacity:0; fill:none" points="
  1895.09,550.15 1895.09,550.15 
  "/>
<polyline clip-path="url(#clip330)" style="stroke:#000000; stroke-width:4; stroke-opacity:0; fill:none" points="
  303.192,1219.18 303.192,1219.18 
  "/>
<polyline clip-path="url(#clip330)" style="stroke:#000000; stroke-width:4; stroke-opacity:0; fill:none" points="
  303.192,884.664 303.192,884.664 
  "/>
<polyline clip-path="url(#clip330)" style="stroke:#000000; stroke-width:4; stroke-opacity:0; fill:none" points="
  303.192,550.15 303.192,550.15 
  "/>
<polyline clip-path="url(#clip330)" style="stroke:#000000; stroke-width:4; stroke-opacity:0; fill:none" points="
  303.192,215.635 303.192,215.635 
  "/>
<path clip-path="url(#clip330)" d="M 0 0 M303.192 1508.44 Q299.581 1508.44 297.752 1512 Q295.947 1515.55 295.947 1522.67 Q295.947 1529.78 297.752 1533.35 Q299.581 1536.89 303.192 1536.89 Q306.826 1536.89 308.632 1533.35 Q310.46 1529.78 310.46 1522.67 Q310.46 1515.55 308.632 1512 Q306.826 1508.44 303.192 1508.44 M303.192 1504.73 Q309.002 1504.73 312.058 1509.34 Q315.136 1513.92 315.136 1522.67 Q315.136 1531.4 312.058 1536.01 Q309.002 1540.59 303.192 1540.59 Q297.382 1540.59 294.303 1536.01 Q291.248 1531.4 291.248 1522.67 Q291.248 1513.92 294.303 1509.34 Q297.382 1504.73 303.192 1504.73 Z" fill="#000000" fill-rule="evenodd" fill-opacity="1" /><path clip-path="url(#clip330)" d="M 0 0 M814.969 1535.98 L831.289 1535.98 L831.289 1539.92 L809.344 1539.92 L809.344 1535.98 Q812.006 1533.23 816.59 1528.6 Q821.196 1523.95 822.377 1522.61 Q824.622 1520.08 825.502 1518.35 Q826.404 1516.59 826.404 1514.9 Q826.404 1512.14 824.46 1510.41 Q822.539 1508.67 819.437 1508.67 Q817.238 1508.67 814.784 1509.43 Q812.354 1510.2 809.576 1511.75 L809.576 1507.03 Q812.4 1505.89 814.854 1505.31 Q817.307 1504.73 819.344 1504.73 Q824.715 1504.73 827.909 1507.42 Q831.104 1510.11 831.104 1514.6 Q831.104 1516.73 830.293 1518.65 Q829.506 1520.54 827.4 1523.14 Q826.821 1523.81 823.719 1527.03 Q820.617 1530.22 814.969 1535.98 Z" fill="#000000" fill-rule="evenodd" fill-opacity="1" /><path clip-path="url(#clip330)" d="M 0 0 M846.358 1508.44 Q842.747 1508.44 840.918 1512 Q839.113 1515.55 839.113 1522.67 Q839.113 1529.78 840.918 1533.35 Q842.747 1536.89 846.358 1536.89 Q849.992 1536.89 851.798 1533.35 Q853.627 1529.78 853.627 1522.67 Q853.627 1515.55 851.798 1512 Q849.992 1508.44 846.358 1508.44 M846.358 1504.73 Q852.168 1504.73 855.224 1509.34 Q858.302 1513.92 858.302 1522.67 Q858.302 1531.4 855.224 1536.01 Q852.168 1540.59 846.358 1540.59 Q840.548 1540.59 837.469 1536.01 Q834.414 1531.4 834.414 1522.67 Q834.414 1513.92 837.469 1509.34 Q840.548 1504.73 846.358 1504.73 Z" fill="#000000" fill-rule="evenodd" fill-opacity="1" /><path clip-path="url(#clip330)" d="M 0 0 M1353.96 1509.43 L1342.15 1527.88 L1353.96 1527.88 L1353.96 1509.43 M1352.73 1505.36 L1358.61 1505.36 L1358.61 1527.88 L1363.54 1527.88 L1363.54 1531.77 L1358.61 1531.77 L1358.61 1539.92 L1353.96 1539.92 L1353.96 1531.77 L1338.36 1531.77 L1338.36 1527.26 L1352.73 1505.36 Z" fill="#000000" fill-rule="evenodd" fill-opacity="1" /><path clip-path="url(#clip330)" d="M 0 0 M1378.61 1508.44 Q1375 1508.44 1373.17 1512 Q1371.36 1515.55 1371.36 1522.67 Q1371.36 1529.78 1373.17 1533.35 Q1375 1536.89 1378.61 1536.89 Q1382.24 1536.89 1384.05 1533.35 Q1385.88 1529.78 1385.88 1522.67 Q1385.88 1515.55 1384.05 1512 Q1382.24 1508.44 1378.61 1508.44 M1378.61 1504.73 Q1384.42 1504.73 1387.48 1509.34 Q1390.55 1513.92 1390.55 1522.67 Q1390.55 1531.4 1387.48 1536.01 Q1384.42 1540.59 1378.61 1540.59 Q1372.8 1540.59 1369.72 1536.01 Q1366.67 1531.4 1366.67 1522.67 Q1366.67 1513.92 1369.72 1509.34 Q1372.8 1504.73 1378.61 1504.73 Z" fill="#000000" fill-rule="evenodd" fill-opacity="1" /><path clip-path="url(#clip330)" d="M 0 0 M1881.98 1520.78 Q1878.84 1520.78 1876.98 1522.93 Q1875.16 1525.08 1875.16 1528.83 Q1875.16 1532.56 1876.98 1534.73 Q1878.84 1536.89 1881.98 1536.89 Q1885.13 1536.89 1886.96 1534.73 Q1888.81 1532.56 1888.81 1528.83 Q1888.81 1525.08 1886.96 1522.93 Q1885.13 1520.78 1881.98 1520.78 M1891.27 1506.12 L1891.27 1510.38 Q1889.51 1509.55 1887.7 1509.11 Q1885.92 1508.67 1884.16 1508.67 Q1879.53 1508.67 1877.08 1511.8 Q1874.65 1514.92 1874.3 1521.24 Q1875.67 1519.23 1877.73 1518.16 Q1879.79 1517.07 1882.26 1517.07 Q1887.47 1517.07 1890.48 1520.24 Q1893.51 1523.39 1893.51 1528.83 Q1893.51 1534.16 1890.36 1537.37 Q1887.22 1540.59 1881.98 1540.59 Q1875.99 1540.59 1872.82 1536.01 Q1869.65 1531.4 1869.65 1522.67 Q1869.65 1514.48 1873.54 1509.62 Q1877.42 1504.73 1883.98 1504.73 Q1885.73 1504.73 1887.52 1505.08 Q1889.32 1505.43 1891.27 1506.12 Z" fill="#000000" fill-rule="evenodd" fill-opacity="1" /><path clip-path="url(#clip330)" d="M 0 0 M1908.58 1508.44 Q1904.97 1508.44 1903.14 1512 Q1901.34 1515.55 1901.34 1522.67 Q1901.34 1529.78 1903.14 1533.35 Q1904.97 1536.89 1908.58 1536.89 Q1912.22 1536.89 1914.02 1533.35 Q1915.85 1529.78 1915.85 1522.67 Q1915.85 1515.55 1914.02 1512 Q1912.22 1508.44 1908.58 1508.44 M1908.58 1504.73 Q1914.39 1504.73 1917.45 1509.34 Q1920.53 1513.92 1920.53 1522.67 Q1920.53 1531.4 1917.45 1536.01 Q1914.39 1540.59 1908.58 1540.59 Q1902.77 1540.59 1899.69 1536.01 Q1896.64 1531.4 1896.64 1522.67 Q1896.64 1513.92 1899.69 1509.34 Q1902.77 1504.73 1908.58 1504.73 Z" fill="#000000" fill-rule="evenodd" fill-opacity="1" /><path clip-path="url(#clip330)" d="M 0 0 M63.2236 1221.57 L75.7004 1221.57 L75.7004 1225.37 L63.2236 1225.37 L63.2236 1221.57 Z" fill="#000000" fill-rule="evenodd" fill-opacity="1" /><path clip-path="url(#clip330)" d="M 0 0 M90.7698 1204.98 Q87.1587 1204.98 85.33 1208.54 Q83.5244 1212.08 83.5244 1219.21 Q83.5244 1226.32 85.33 1229.88 Q87.1587 1233.43 90.7698 1233.43 Q94.404 1233.43 96.2095 1229.88 Q98.0382 1226.32 98.0382 1219.21 Q98.0382 1212.08 96.2095 1208.54 Q94.404 1204.98 90.7698 1204.98 M90.7698 1201.27 Q96.5799 1201.27 99.6354 1205.88 Q102.714 1210.46 102.714 1219.21 Q102.714 1227.94 99.6354 1232.55 Q96.5799 1237.13 90.7698 1237.13 Q84.9596 1237.13 81.8809 1232.55 Q78.8254 1227.94 78.8254 1219.21 Q78.8254 1210.46 81.8809 1205.88 Q84.9596 1201.27 90.7698 1201.27 Z" fill="#000000" fill-rule="evenodd" fill-opacity="1" /><path clip-path="url(#clip330)" d="M 0 0 M107.784 1230.58 L112.668 1230.58 L112.668 1236.46 L107.784 1236.46 L107.784 1230.58 Z" fill="#000000" fill-rule="evenodd" fill-opacity="1" /><path clip-path="url(#clip330)" d="M 0 0 M127.737 1204.98 Q124.126 1204.98 122.297 1208.54 Q120.492 1212.08 120.492 1219.21 Q120.492 1226.32 122.297 1229.88 Q124.126 1233.43 127.737 1233.43 Q131.371 1233.43 133.177 1229.88 Q135.006 1226.32 135.006 1219.21 Q135.006 1212.08 133.177 1208.54 Q131.371 1204.98 127.737 1204.98 M127.737 1201.27 Q133.547 1201.27 136.603 1205.88 Q139.682 1210.46 139.682 1219.21 Q139.682 1227.94 136.603 1232.55 Q133.547 1237.13 127.737 1237.13 Q121.927 1237.13 118.848 1232.55 Q115.793 1227.94 115.793 1219.21 Q115.793 1210.46 118.848 1205.88 Q121.927 1201.27 127.737 1201.27 Z" fill="#000000" fill-rule="evenodd" fill-opacity="1" /><path clip-path="url(#clip330)" d="M 0 0 M154.751 1204.98 Q151.14 1204.98 149.311 1208.54 Q147.506 1212.08 147.506 1219.21 Q147.506 1226.32 149.311 1229.88 Q151.14 1233.43 154.751 1233.43 Q158.385 1233.43 160.191 1229.88 Q162.019 1226.32 162.019 1219.21 Q162.019 1212.08 160.191 1208.54 Q158.385 1204.98 154.751 1204.98 M154.751 1201.27 Q160.561 1201.27 163.617 1205.88 Q166.695 1210.46 166.695 1219.21 Q166.695 1227.94 163.617 1232.55 Q160.561 1237.13 154.751 1237.13 Q148.941 1237.13 145.862 1232.55 Q142.807 1227.94 142.807 1219.21 Q142.807 1210.46 145.862 1205.88 Q148.941 1201.27 154.751 1201.27 Z" fill="#000000" fill-rule="evenodd" fill-opacity="1" /><path clip-path="url(#clip330)" d="M 0 0 M172.575 1232.52 L180.214 1232.52 L180.214 1206.16 L171.904 1207.82 L171.904 1203.57 L180.167 1201.9 L184.843 1201.9 L184.843 1232.52 L192.482 1232.52 L192.482 1236.46 L172.575 1236.46 L172.575 1232.52 Z" fill="#000000" fill-rule="evenodd" fill-opacity="1" /><path clip-path="url(#clip330)" d="M 0 0 M207.552 1204.98 Q203.94 1204.98 202.112 1208.54 Q200.306 1212.08 200.306 1219.21 Q200.306 1226.32 202.112 1229.88 Q203.94 1233.43 207.552 1233.43 Q211.186 1233.43 212.991 1229.88 Q214.82 1226.32 214.82 1219.21 Q214.82 1212.08 212.991 1208.54 Q211.186 1204.98 207.552 1204.98 M207.552 1201.27 Q213.362 1201.27 216.417 1205.88 Q219.496 1210.46 219.496 1219.21 Q219.496 1227.94 216.417 1232.55 Q213.362 1237.13 207.552 1237.13 Q201.741 1237.13 198.663 1232.55 Q195.607 1227.94 195.607 1219.21 Q195.607 1210.46 198.663 1205.88 Q201.741 1201.27 207.552 1201.27 Z" fill="#000000" fill-rule="evenodd" fill-opacity="1" /><path clip-path="url(#clip330)" d="M 0 0 M62.9921 887.06 L75.4689 887.06 L75.4689 890.856 L62.9921 890.856 L62.9921 887.06 Z" fill="#000000" fill-rule="evenodd" fill-opacity="1" /><path clip-path="url(#clip330)" d="M 0 0 M90.5383 870.463 Q86.9272 870.463 85.0985 874.028 Q83.2929 877.569 83.2929 884.699 Q83.2929 891.805 85.0985 895.37 Q86.9272 898.912 90.5383 898.912 Q94.1725 898.912 95.9781 895.37 Q97.8068 891.805 97.8068 884.699 Q97.8068 877.569 95.9781 874.028 Q94.1725 870.463 90.5383 870.463 M90.5383 866.759 Q96.3484 866.759 99.404 871.366 Q102.483 875.949 102.483 884.699 Q102.483 893.426 99.404 898.032 Q96.3484 902.615 90.5383 902.615 Q84.7281 902.615 81.6494 898.032 Q78.5939 893.426 78.5939 884.699 Q78.5939 875.949 81.6494 871.366 Q84.7281 866.759 90.5383 866.759 Z" fill="#000000" fill-rule="evenodd" fill-opacity="1" /><path clip-path="url(#clip330)" d="M 0 0 M107.552 896.065 L112.436 896.065 L112.436 901.944 L107.552 901.944 L107.552 896.065 Z" fill="#000000" fill-rule="evenodd" fill-opacity="1" /><path clip-path="url(#clip330)" d="M 0 0 M127.506 870.463 Q123.895 870.463 122.066 874.028 Q120.26 877.569 120.26 884.699 Q120.26 891.805 122.066 895.37 Q123.895 898.912 127.506 898.912 Q131.14 898.912 132.945 895.37 Q134.774 891.805 134.774 884.699 Q134.774 877.569 132.945 874.028 Q131.14 870.463 127.506 870.463 M127.506 866.759 Q133.316 866.759 136.371 871.366 Q139.45 875.949 139.45 884.699 Q139.45 893.426 136.371 898.032 Q133.316 902.615 127.506 902.615 Q121.696 902.615 118.617 898.032 Q115.561 893.426 115.561 884.699 Q115.561 875.949 118.617 871.366 Q121.696 866.759 127.506 866.759 Z" fill="#000000" fill-rule="evenodd" fill-opacity="1" /><path clip-path="url(#clip330)" d="M 0 0 M154.519 870.463 Q150.908 870.463 149.08 874.028 Q147.274 877.569 147.274 884.699 Q147.274 891.805 149.08 895.37 Q150.908 898.912 154.519 898.912 Q158.154 898.912 159.959 895.37 Q161.788 891.805 161.788 884.699 Q161.788 877.569 159.959 874.028 Q158.154 870.463 154.519 870.463 M154.519 866.759 Q160.33 866.759 163.385 871.366 Q166.464 875.949 166.464 884.699 Q166.464 893.426 163.385 898.032 Q160.33 902.615 154.519 902.615 Q148.709 902.615 145.631 898.032 Q142.575 893.426 142.575 884.699 Q142.575 875.949 145.631 871.366 Q148.709 866.759 154.519 866.759 Z" fill="#000000" fill-rule="evenodd" fill-opacity="1" /><path clip-path="url(#clip330)" d="M 0 0 M181.533 870.463 Q177.922 870.463 176.093 874.028 Q174.288 877.569 174.288 884.699 Q174.288 891.805 176.093 895.37 Q177.922 898.912 181.533 898.912 Q185.167 898.912 186.973 895.37 Q188.802 891.805 188.802 884.699 Q188.802 877.569 186.973 874.028 Q185.167 870.463 181.533 870.463 M181.533 866.759 Q187.343 866.759 190.399 871.366 Q193.478 875.949 193.478 884.699 Q193.478 893.426 190.399 898.032 Q187.343 902.615 181.533 902.615 Q175.723 902.615 172.644 898.032 Q169.589 893.426 169.589 884.699 Q169.589 875.949 172.644 871.366 Q175.723 866.759 181.533 866.759 Z" fill="#000000" fill-rule="evenodd" fill-opacity="1" /><path clip-path="url(#clip330)" d="M 0 0 M198.593 867.384 L216.95 867.384 L216.95 871.319 L202.876 871.319 L202.876 879.791 Q203.894 879.444 204.913 879.282 Q205.931 879.097 206.95 879.097 Q212.737 879.097 216.116 882.268 Q219.496 885.44 219.496 890.856 Q219.496 896.435 216.024 899.537 Q212.552 902.615 206.232 902.615 Q204.056 902.615 201.788 902.245 Q199.542 901.875 197.135 901.134 L197.135 896.435 Q199.218 897.569 201.44 898.125 Q203.663 898.68 206.14 898.68 Q210.144 898.68 212.482 896.574 Q214.82 894.467 214.82 890.856 Q214.82 887.245 212.482 885.139 Q210.144 883.032 206.14 883.032 Q204.265 883.032 202.39 883.449 Q200.538 883.866 198.593 884.745 L198.593 867.384 Z" fill="#000000" fill-rule="evenodd" fill-opacity="1" /><path clip-path="url(#clip330)" d="M 0 0 M89.5429 535.948 Q85.9318 535.948 84.1031 539.513 Q82.2976 543.055 82.2976 550.184 Q82.2976 557.291 84.1031 560.856 Q85.9318 564.397 89.5429 564.397 Q93.1771 564.397 94.9827 560.856 Q96.8114 557.291 96.8114 550.184 Q96.8114 543.055 94.9827 539.513 Q93.1771 535.948 89.5429 535.948 M89.5429 532.245 Q95.3531 532.245 98.4086 536.851 Q101.487 541.434 101.487 550.184 Q101.487 558.911 98.4086 563.518 Q95.3531 568.101 89.5429 568.101 Q83.7328 568.101 80.6541 563.518 Q77.5985 558.911 77.5985 550.184 Q77.5985 541.434 80.6541 536.851 Q83.7328 532.245 89.5429 532.245 Z" fill="#000000" fill-rule="evenodd" fill-opacity="1" /><path clip-path="url(#clip330)" d="M 0 0 M106.557 561.55 L111.441 561.55 L111.441 567.43 L106.557 567.43 L106.557 561.55 Z" fill="#000000" fill-rule="evenodd" fill-opacity="1" /><path clip-path="url(#clip330)" d="M 0 0 M126.51 535.948 Q122.899 535.948 121.071 539.513 Q119.265 543.055 119.265 550.184 Q119.265 557.291 121.071 560.856 Q122.899 564.397 126.51 564.397 Q130.145 564.397 131.95 560.856 Q133.779 557.291 133.779 550.184 Q133.779 543.055 131.95 539.513 Q130.145 535.948 126.51 535.948 M126.51 532.245 Q132.32 532.245 135.376 536.851 Q138.455 541.434 138.455 550.184 Q138.455 558.911 135.376 563.518 Q132.32 568.101 126.51 568.101 Q120.7 568.101 117.621 563.518 Q114.566 558.911 114.566 550.184 Q114.566 541.434 117.621 536.851 Q120.7 532.245 126.51 532.245 Z" fill="#000000" fill-rule="evenodd" fill-opacity="1" /><path clip-path="url(#clip330)" d="M 0 0 M153.524 535.948 Q149.913 535.948 148.084 539.513 Q146.279 543.055 146.279 550.184 Q146.279 557.291 148.084 560.856 Q149.913 564.397 153.524 564.397 Q157.158 564.397 158.964 560.856 Q160.793 557.291 160.793 550.184 Q160.793 543.055 158.964 539.513 Q157.158 535.948 153.524 535.948 M153.524 532.245 Q159.334 532.245 162.39 536.851 Q165.468 541.434 165.468 550.184 Q165.468 558.911 162.39 563.518 Q159.334 568.101 153.524 568.101 Q147.714 568.101 144.635 563.518 Q141.58 558.911 141.58 550.184 Q141.58 541.434 144.635 536.851 Q147.714 532.245 153.524 532.245 Z" fill="#000000" fill-rule="evenodd" fill-opacity="1" /><path clip-path="url(#clip330)" d="M 0 0 M180.538 535.948 Q176.927 535.948 175.098 539.513 Q173.292 543.055 173.292 550.184 Q173.292 557.291 175.098 560.856 Q176.927 564.397 180.538 564.397 Q184.172 564.397 185.978 560.856 Q187.806 557.291 187.806 550.184 Q187.806 543.055 185.978 539.513 Q184.172 535.948 180.538 535.948 M180.538 532.245 Q186.348 532.245 189.403 536.851 Q192.482 541.434 192.482 550.184 Q192.482 558.911 189.403 563.518 Q186.348 568.101 180.538 568.101 Q174.728 568.101 171.649 563.518 Q168.593 558.911 168.593 550.184 Q168.593 541.434 171.649 536.851 Q174.728 532.245 180.538 532.245 Z" fill="#000000" fill-rule="evenodd" fill-opacity="1" /><path clip-path="url(#clip330)" d="M 0 0 M207.552 535.948 Q203.94 535.948 202.112 539.513 Q200.306 543.055 200.306 550.184 Q200.306 557.291 202.112 560.856 Q203.94 564.397 207.552 564.397 Q211.186 564.397 212.991 560.856 Q214.82 557.291 214.82 550.184 Q214.82 543.055 212.991 539.513 Q211.186 535.948 207.552 535.948 M207.552 532.245 Q213.362 532.245 216.417 536.851 Q219.496 541.434 219.496 550.184 Q219.496 558.911 216.417 563.518 Q213.362 568.101 207.552 568.101 Q201.741 568.101 198.663 563.518 Q195.607 558.911 195.607 550.184 Q195.607 541.434 198.663 536.851 Q201.741 532.245 207.552 532.245 Z" fill="#000000" fill-rule="evenodd" fill-opacity="1" /><path clip-path="url(#clip330)" d="M 0 0 M90.5383 201.434 Q86.9272 201.434 85.0985 204.998 Q83.2929 208.54 83.2929 215.67 Q83.2929 222.776 85.0985 226.341 Q86.9272 229.883 90.5383 229.883 Q94.1725 229.883 95.9781 226.341 Q97.8068 222.776 97.8068 215.67 Q97.8068 208.54 95.9781 204.998 Q94.1725 201.434 90.5383 201.434 M90.5383 197.73 Q96.3484 197.73 99.404 202.336 Q102.483 206.92 102.483 215.67 Q102.483 224.397 99.404 229.003 Q96.3484 233.586 90.5383 233.586 Q84.7281 233.586 81.6494 229.003 Q78.5939 224.397 78.5939 215.67 Q78.5939 206.92 81.6494 202.336 Q84.7281 197.73 90.5383 197.73 Z" fill="#000000" fill-rule="evenodd" fill-opacity="1" /><path clip-path="url(#clip330)" d="M 0 0 M107.552 227.035 L112.436 227.035 L112.436 232.915 L107.552 232.915 L107.552 227.035 Z" fill="#000000" fill-rule="evenodd" fill-opacity="1" /><path clip-path="url(#clip330)" d="M 0 0 M127.506 201.434 Q123.895 201.434 122.066 204.998 Q120.26 208.54 120.26 215.67 Q120.26 222.776 122.066 226.341 Q123.895 229.883 127.506 229.883 Q131.14 229.883 132.945 226.341 Q134.774 222.776 134.774 215.67 Q134.774 208.54 132.945 204.998 Q131.14 201.434 127.506 201.434 M127.506 197.73 Q133.316 197.73 136.371 202.336 Q139.45 206.92 139.45 215.67 Q139.45 224.397 136.371 229.003 Q133.316 233.586 127.506 233.586 Q121.696 233.586 118.617 229.003 Q115.561 224.397 115.561 215.67 Q115.561 206.92 118.617 202.336 Q121.696 197.73 127.506 197.73 Z" fill="#000000" fill-rule="evenodd" fill-opacity="1" /><path clip-path="url(#clip330)" d="M 0 0 M154.519 201.434 Q150.908 201.434 149.08 204.998 Q147.274 208.54 147.274 215.67 Q147.274 222.776 149.08 226.341 Q150.908 229.883 154.519 229.883 Q158.154 229.883 159.959 226.341 Q161.788 222.776 161.788 215.67 Q161.788 208.54 159.959 204.998 Q158.154 201.434 154.519 201.434 M154.519 197.73 Q160.33 197.73 163.385 202.336 Q166.464 206.92 166.464 215.67 Q166.464 224.397 163.385 229.003 Q160.33 233.586 154.519 233.586 Q148.709 233.586 145.631 229.003 Q142.575 224.397 142.575 215.67 Q142.575 206.92 145.631 202.336 Q148.709 197.73 154.519 197.73 Z" fill="#000000" fill-rule="evenodd" fill-opacity="1" /><path clip-path="url(#clip330)" d="M 0 0 M181.533 201.434 Q177.922 201.434 176.093 204.998 Q174.288 208.54 174.288 215.67 Q174.288 222.776 176.093 226.341 Q177.922 229.883 181.533 229.883 Q185.167 229.883 186.973 226.341 Q188.802 222.776 188.802 215.67 Q188.802 208.54 186.973 204.998 Q185.167 201.434 181.533 201.434 M181.533 197.73 Q187.343 197.73 190.399 202.336 Q193.478 206.92 193.478 215.67 Q193.478 224.397 190.399 229.003 Q187.343 233.586 181.533 233.586 Q175.723 233.586 172.644 229.003 Q169.589 224.397 169.589 215.67 Q169.589 206.92 172.644 202.336 Q175.723 197.73 181.533 197.73 Z" fill="#000000" fill-rule="evenodd" fill-opacity="1" /><path clip-path="url(#clip330)" d="M 0 0 M198.593 198.355 L216.95 198.355 L216.95 202.29 L202.876 202.29 L202.876 210.762 Q203.894 210.415 204.913 210.253 Q205.931 210.068 206.95 210.068 Q212.737 210.068 216.116 213.239 Q219.496 216.41 219.496 221.827 Q219.496 227.406 216.024 230.508 Q212.552 233.586 206.232 233.586 Q204.056 233.586 201.788 233.216 Q199.542 232.846 197.135 232.105 L197.135 227.406 Q199.218 228.54 201.44 229.096 Q203.663 229.651 206.14 229.651 Q210.144 229.651 212.482 227.545 Q214.82 225.438 214.82 221.827 Q214.82 218.216 212.482 216.11 Q210.144 214.003 206.14 214.003 Q204.265 214.003 202.39 214.42 Q200.538 214.836 198.593 215.716 L198.593 198.355 Z" fill="#000000" fill-rule="evenodd" fill-opacity="1" /><circle clip-path="url(#clip332)" cx="329.724" cy="423.196" r="14" fill="#ff0000" fill-rule="evenodd" fill-opacity="1" stroke="#000000" stroke-opacity="1" stroke-width="0.32"/>
<circle clip-path="url(#clip332)" cx="356.255" cy="730.801" r="14" fill="#ff0000" fill-rule="evenodd" fill-opacity="1" stroke="#000000" stroke-opacity="1" stroke-width="0.32"/>
<circle clip-path="url(#clip332)" cx="382.787" cy="383.602" r="14" fill="#ff0000" fill-rule="evenodd" fill-opacity="1" stroke="#000000" stroke-opacity="1" stroke-width="0.32"/>
<circle clip-path="url(#clip332)" cx="409.318" cy="673.334" r="14" fill="#ff0000" fill-rule="evenodd" fill-opacity="1" stroke="#000000" stroke-opacity="1" stroke-width="0.32"/>
<circle clip-path="url(#clip332)" cx="435.85" cy="321.765" r="14" fill="#ff0000" fill-rule="evenodd" fill-opacity="1" stroke="#000000" stroke-opacity="1" stroke-width="0.32"/>
<circle clip-path="url(#clip332)" cx="462.381" cy="631.144" r="14" fill="#ff0000" fill-rule="evenodd" fill-opacity="1" stroke="#000000" stroke-opacity="1" stroke-width="0.32"/>
<circle clip-path="url(#clip332)" cx="488.913" cy="482.267" r="14" fill="#ff0000" fill-rule="evenodd" fill-opacity="1" stroke="#000000" stroke-opacity="1" stroke-width="0.32"/>
<circle clip-path="url(#clip332)" cx="515.445" cy="487.246" r="14" fill="#ff0000" fill-rule="evenodd" fill-opacity="1" stroke="#000000" stroke-opacity="1" stroke-width="0.32"/>
<circle clip-path="url(#clip332)" cx="541.976" cy="579.32" r="14" fill="#ff0000" fill-rule="evenodd" fill-opacity="1" stroke="#000000" stroke-opacity="1" stroke-width="0.32"/>
<circle clip-path="url(#clip332)" cx="568.508" cy="482.809" r="14" fill="#ff0000" fill-rule="evenodd" fill-opacity="1" stroke="#000000" stroke-opacity="1" stroke-width="0.32"/>
<circle clip-path="url(#clip332)" cx="595.039" cy="795.438" r="14" fill="#ff0000" fill-rule="evenodd" fill-opacity="1" stroke="#000000" stroke-opacity="1" stroke-width="0.32"/>
<circle clip-path="url(#clip332)" cx="621.571" cy="631.421" r="14" fill="#ff0000" fill-rule="evenodd" fill-opacity="1" stroke="#000000" stroke-opacity="1" stroke-width="0.32"/>
<circle clip-path="url(#clip332)" cx="648.102" cy="360.744" r="14" fill="#ff0000" fill-rule="evenodd" fill-opacity="1" stroke="#000000" stroke-opacity="1" stroke-width="0.32"/>
<circle clip-path="url(#clip332)" cx="674.634" cy="1008.75" r="14" fill="#ff0000" fill-rule="evenodd" fill-opacity="1" stroke="#000000" stroke-opacity="1" stroke-width="0.32"/>
<circle clip-path="url(#clip332)" cx="701.166" cy="289.32" r="14" fill="#ff0000" fill-rule="evenodd" fill-opacity="1" stroke="#000000" stroke-opacity="1" stroke-width="0.32"/>
<circle clip-path="url(#clip332)" cx="727.697" cy="505.619" r="14" fill="#ff0000" fill-rule="evenodd" fill-opacity="1" stroke="#000000" stroke-opacity="1" stroke-width="0.32"/>
<circle clip-path="url(#clip332)" cx="754.229" cy="522.937" r="14" fill="#ff0000" fill-rule="evenodd" fill-opacity="1" stroke="#000000" stroke-opacity="1" stroke-width="0.32"/>
<circle clip-path="url(#clip332)" cx="780.76" cy="593.002" r="14" fill="#ff0000" fill-rule="evenodd" fill-opacity="1" stroke="#000000" stroke-opacity="1" stroke-width="0.32"/>
<circle clip-path="url(#clip332)" cx="807.292" cy="512.959" r="14" fill="#ff0000" fill-rule="evenodd" fill-opacity="1" stroke="#000000" stroke-opacity="1" stroke-width="0.32"/>
<circle clip-path="url(#clip332)" cx="833.823" cy="576.924" r="14" fill="#ff0000" fill-rule="evenodd" fill-opacity="1" stroke="#000000" stroke-opacity="1" stroke-width="0.32"/>
<circle clip-path="url(#clip332)" cx="860.355" cy="489.201" r="14" fill="#ff0000" fill-rule="evenodd" fill-opacity="1" stroke="#000000" stroke-opacity="1" stroke-width="0.32"/>
<circle clip-path="url(#clip332)" cx="886.887" cy="570.238" r="14" fill="#ff0000" fill-rule="evenodd" fill-opacity="1" stroke="#000000" stroke-opacity="1" stroke-width="0.32"/>
<circle clip-path="url(#clip332)" cx="913.418" cy="533.369" r="14" fill="#ff0000" fill-rule="evenodd" fill-opacity="1" stroke="#000000" stroke-opacity="1" stroke-width="0.32"/>
<circle clip-path="url(#clip332)" cx="939.95" cy="534.518" r="14" fill="#ff0000" fill-rule="evenodd" fill-opacity="1" stroke="#000000" stroke-opacity="1" stroke-width="0.32"/>
<circle clip-path="url(#clip332)" cx="966.481" cy="557.83" r="14" fill="#ff0000" fill-rule="evenodd" fill-opacity="1" stroke="#000000" stroke-opacity="1" stroke-width="0.32"/>
<circle clip-path="url(#clip332)" cx="993.013" cy="532.675" r="14" fill="#ff0000" fill-rule="evenodd" fill-opacity="1" stroke="#000000" stroke-opacity="1" stroke-width="0.32"/>
<circle clip-path="url(#clip332)" cx="1019.54" cy="617.542" r="14" fill="#ff0000" fill-rule="evenodd" fill-opacity="1" stroke="#000000" stroke-opacity="1" stroke-width="0.32"/>
<circle clip-path="url(#clip332)" cx="1046.08" cy="569.386" r="14" fill="#ff0000" fill-rule="evenodd" fill-opacity="1" stroke="#000000" stroke-opacity="1" stroke-width="0.32"/>
<circle clip-path="url(#clip332)" cx="1072.61" cy="503.936" r="14" fill="#ff0000" fill-rule="evenodd" fill-opacity="1" stroke="#000000" stroke-opacity="1" stroke-width="0.32"/>
<circle clip-path="url(#clip332)" cx="1099.14" cy="655.218" r="14" fill="#ff0000" fill-rule="evenodd" fill-opacity="1" stroke="#000000" stroke-opacity="1" stroke-width="0.32"/>
<circle clip-path="url(#clip332)" cx="1125.67" cy="491.749" r="14" fill="#ff0000" fill-rule="evenodd" fill-opacity="1" stroke="#000000" stroke-opacity="1" stroke-width="0.32"/>
<circle clip-path="url(#clip332)" cx="1152.2" cy="540.421" r="14" fill="#ff0000" fill-rule="evenodd" fill-opacity="1" stroke="#000000" stroke-opacity="1" stroke-width="0.32"/>
<circle clip-path="url(#clip332)" cx="1178.73" cy="666.982" r="14" fill="#ff0000" fill-rule="evenodd" fill-opacity="1" stroke="#000000" stroke-opacity="1" stroke-width="0.32"/>
<circle clip-path="url(#clip332)" cx="1205.27" cy="393.591" r="14" fill="#ff0000" fill-rule="evenodd" fill-opacity="1" stroke="#000000" stroke-opacity="1" stroke-width="0.32"/>
<circle clip-path="url(#clip332)" cx="1231.8" cy="695.279" r="14" fill="#ff0000" fill-rule="evenodd" fill-opacity="1" stroke="#000000" stroke-opacity="1" stroke-width="0.32"/>
<circle clip-path="url(#clip332)" cx="1258.33" cy="438.15" r="14" fill="#ff0000" fill-rule="evenodd" fill-opacity="1" stroke="#000000" stroke-opacity="1" stroke-width="0.32"/>
<circle clip-path="url(#clip332)" cx="1284.86" cy="683.97" r="14" fill="#ff0000" fill-rule="evenodd" fill-opacity="1" stroke="#000000" stroke-opacity="1" stroke-width="0.32"/>
<circle clip-path="url(#clip332)" cx="1311.39" cy="486.717" r="14" fill="#ff0000" fill-rule="evenodd" fill-opacity="1" stroke="#000000" stroke-opacity="1" stroke-width="0.32"/>
<circle clip-path="url(#clip332)" cx="1337.92" cy="603.828" r="14" fill="#ff0000" fill-rule="evenodd" fill-opacity="1" stroke="#000000" stroke-opacity="1" stroke-width="0.32"/>
<circle clip-path="url(#clip332)" cx="1364.45" cy="596.511" r="14" fill="#ff0000" fill-rule="evenodd" fill-opacity="1" stroke="#000000" stroke-opacity="1" stroke-width="0.32"/>
<circle clip-path="url(#clip332)" cx="1390.99" cy="528.197" r="14" fill="#ff0000" fill-rule="evenodd" fill-opacity="1" stroke="#000000" stroke-opacity="1" stroke-width="0.32"/>
<circle clip-path="url(#clip332)" cx="1417.52" cy="593.476" r="14" fill="#ff0000" fill-rule="evenodd" fill-opacity="1" stroke="#000000" stroke-opacity="1" stroke-width="0.32"/>
<circle clip-path="url(#clip332)" cx="1444.05" cy="350.317" r="14" fill="#ff0000" fill-rule="evenodd" fill-opacity="1" stroke="#000000" stroke-opacity="1" stroke-width="0.32"/>
<circle clip-path="url(#clip332)" cx="1470.58" cy="478.733" r="14" fill="#ff0000" fill-rule="evenodd" fill-opacity="1" stroke="#000000" stroke-opacity="1" stroke-width="0.32"/>
<circle clip-path="url(#clip332)" cx="1497.11" cy="692.866" r="14" fill="#ff0000" fill-rule="evenodd" fill-opacity="1" stroke="#000000" stroke-opacity="1" stroke-width="0.32"/>
<circle clip-path="url(#clip332)" cx="1523.64" cy="87.9763" r="14" fill="#ff0000" fill-rule="evenodd" fill-opacity="1" stroke="#000000" stroke-opacity="1" stroke-width="0.32"/>
<circle clip-path="url(#clip332)" cx="1550.18" cy="769.698" r="14" fill="#ff0000" fill-rule="evenodd" fill-opacity="1" stroke="#000000" stroke-opacity="1" stroke-width="0.32"/>
<circle clip-path="url(#clip332)" cx="1576.71" cy="589.245" r="14" fill="#ff0000" fill-rule="evenodd" fill-opacity="1" stroke="#000000" stroke-opacity="1" stroke-width="0.32"/>
<circle clip-path="url(#clip332)" cx="1603.24" cy="1330.26" r="14" fill="#ff0000" fill-rule="evenodd" fill-opacity="1" stroke="#000000" stroke-opacity="1" stroke-width="0.32"/>
<circle clip-path="url(#clip332)" cx="1629.77" cy="1095.88" r="14" fill="#ff0000" fill-rule="evenodd" fill-opacity="1" stroke="#000000" stroke-opacity="1" stroke-width="0.32"/>
<circle clip-path="url(#clip332)" cx="1656.3" cy="1200.31" r="14" fill="#ff0000" fill-rule="evenodd" fill-opacity="1" stroke="#000000" stroke-opacity="1" stroke-width="0.32"/>
<circle clip-path="url(#clip332)" cx="1682.83" cy="1266.69" r="14" fill="#ff0000" fill-rule="evenodd" fill-opacity="1" stroke="#000000" stroke-opacity="1" stroke-width="0.32"/>
<circle clip-path="url(#clip332)" cx="1709.37" cy="806.161" r="14" fill="#ff0000" fill-rule="evenodd" fill-opacity="1" stroke="#000000" stroke-opacity="1" stroke-width="0.32"/>
<circle clip-path="url(#clip332)" cx="1735.9" cy="982.953" r="14" fill="#ff0000" fill-rule="evenodd" fill-opacity="1" stroke="#000000" stroke-opacity="1" stroke-width="0.32"/>
<circle clip-path="url(#clip332)" cx="1762.43" cy="988.187" r="14" fill="#ff0000" fill-rule="evenodd" fill-opacity="1" stroke="#000000" stroke-opacity="1" stroke-width="0.32"/>
<circle clip-path="url(#clip332)" cx="1788.96" cy="955.35" r="14" fill="#ff0000" fill-rule="evenodd" fill-opacity="1" stroke="#000000" stroke-opacity="1" stroke-width="0.32"/>
<circle clip-path="url(#clip332)" cx="1815.49" cy="909.446" r="14" fill="#ff0000" fill-rule="evenodd" fill-opacity="1" stroke="#000000" stroke-opacity="1" stroke-width="0.32"/>
<circle clip-path="url(#clip332)" cx="1842.02" cy="853.262" r="14" fill="#ff0000" fill-rule="evenodd" fill-opacity="1" stroke="#000000" stroke-opacity="1" stroke-width="0.32"/>
<circle clip-path="url(#clip332)" cx="1868.55" cy="943.259" r="14" fill="#ff0000" fill-rule="evenodd" fill-opacity="1" stroke="#000000" stroke-opacity="1" stroke-width="0.32"/>
<circle clip-path="url(#clip332)" cx="1895.09" cy="1133.49" r="14" fill="#ff0000" fill-rule="evenodd" fill-opacity="1" stroke="#000000" stroke-opacity="1" stroke-width="0.32"/>
<circle clip-path="url(#clip332)" cx="1921.62" cy="982.152" r="14" fill="#ff0000" fill-rule="evenodd" fill-opacity="1" stroke="#000000" stroke-opacity="1" stroke-width="0.32"/>
<circle clip-path="url(#clip332)" cx="1948.15" cy="1417.24" r="14" fill="#ff0000" fill-rule="evenodd" fill-opacity="1" stroke="#000000" stroke-opacity="1" stroke-width="0.32"/>
<circle clip-path="url(#clip332)" cx="1974.68" cy="1175.54" r="14" fill="#ff0000" fill-rule="evenodd" fill-opacity="1" stroke="#000000" stroke-opacity="1" stroke-width="0.32"/>
<circle clip-path="url(#clip332)" cx="2001.21" cy="1239.25" r="14" fill="#ff0000" fill-rule="evenodd" fill-opacity="1" stroke="#000000" stroke-opacity="1" stroke-width="0.32"/>
<circle clip-path="url(#clip332)" cx="2027.74" cy="1445.72" r="14" fill="#ff0000" fill-rule="evenodd" fill-opacity="1" stroke="#000000" stroke-opacity="1" stroke-width="0.32"/>
<circle clip-path="url(#clip332)" cx="2054.28" cy="537.779" r="14" fill="#ff0000" fill-rule="evenodd" fill-opacity="1" stroke="#000000" stroke-opacity="1" stroke-width="0.32"/>
<circle clip-path="url(#clip332)" cx="2080.81" cy="539.766" r="14" fill="#ff0000" fill-rule="evenodd" fill-opacity="1" stroke="#000000" stroke-opacity="1" stroke-width="0.32"/>
<circle clip-path="url(#clip332)" cx="2107.34" cy="593.616" r="14" fill="#ff0000" fill-rule="evenodd" fill-opacity="1" stroke="#000000" stroke-opacity="1" stroke-width="0.32"/>
<circle clip-path="url(#clip332)" cx="2133.87" cy="557.947" r="14" fill="#ff0000" fill-rule="evenodd" fill-opacity="1" stroke="#000000" stroke-opacity="1" stroke-width="0.32"/>
<circle clip-path="url(#clip332)" cx="2160.4" cy="557.943" r="14" fill="#ff0000" fill-rule="evenodd" fill-opacity="1" stroke="#000000" stroke-opacity="1" stroke-width="0.32"/>
<circle clip-path="url(#clip332)" cx="2186.93" cy="511.955" r="14" fill="#ff0000" fill-rule="evenodd" fill-opacity="1" stroke="#000000" stroke-opacity="1" stroke-width="0.32"/>
<circle clip-path="url(#clip332)" cx="2213.47" cy="569.195" r="14" fill="#ff0000" fill-rule="evenodd" fill-opacity="1" stroke="#000000" stroke-opacity="1" stroke-width="0.32"/>
<circle clip-path="url(#clip332)" cx="2240" cy="583.547" r="14" fill="#ff0000" fill-rule="evenodd" fill-opacity="1" stroke="#000000" stroke-opacity="1" stroke-width="0.32"/>
<circle clip-path="url(#clip332)" cx="2266.53" cy="611.975" r="14" fill="#ff0000" fill-rule="evenodd" fill-opacity="1" stroke="#000000" stroke-opacity="1" stroke-width="0.32"/>
<circle clip-path="url(#clip332)" cx="2293.06" cy="580.373" r="14" fill="#ff0000" fill-rule="evenodd" fill-opacity="1" stroke="#000000" stroke-opacity="1" stroke-width="0.32"/>
<path clip-path="url(#clip330)" d="
M1825.72 236.604 L2280.76 236.604 L2280.76 145.884 L1825.72 145.884  Z
  " fill="#000000" fill-rule="evenodd" fill-opacity="0"/>
<polyline clip-path="url(#clip330)" style="stroke:#000000; stroke-width:4; stroke-opacity:0; fill:none" points="
  1825.72,236.604 2280.76,236.604 2280.76,145.884 1825.72,145.884 1825.72,236.604 
  "/>
<circle clip-path="url(#clip330)" cx="1933.72" cy="191.244" r="17" fill="#ff0000" fill-rule="evenodd" fill-opacity="1" stroke="#000000" stroke-opacity="1" stroke-width="0.384"/>
<path clip-path="url(#clip330)" d="M 0 0 M2027.98 204.204 Q2028 201.878 2027.98 198.822 Q2024.27 198.822 2021 195.176 Q2017.81 191.635 2017.72 185.385 L2017.72 178.284 L2021.42 178.284 L2021.42 185.385 Q2021.42 190.281 2023.68 193.128 Q2025.59 195.558 2027.98 195.801 L2027.98 178.284 L2031.49 178.284 L2031.49 195.801 Q2033.89 195.558 2035.8 193.128 Q2038.05 190.281 2038.05 185.385 L2038.05 178.284 L2041.75 178.284 L2041.75 185.385 Q2041.66 191.635 2038.47 195.176 Q2035.2 198.822 2031.49 198.822 Q2031.47 200.072 2031.49 204.204 L2027.98 204.204 Z" fill="#000000" fill-rule="evenodd" fill-opacity="1" /><path clip-path="url(#clip330)" d="M 0 0 M2069.2 187.711 L2069.2 177.19 L2072.39 177.19 L2072.39 204.204 L2069.2 204.204 L2069.2 201.287 Q2068.19 203.024 2066.65 203.874 Q2065.12 204.708 2062.97 204.708 Q2059.44 204.708 2057.22 201.895 Q2055.01 199.083 2055.01 194.499 Q2055.01 189.916 2057.22 187.103 Q2059.44 184.291 2062.97 184.291 Q2065.12 184.291 2066.65 185.142 Q2068.19 185.975 2069.2 187.711 M2058.31 194.499 Q2058.31 198.024 2059.75 200.037 Q2061.21 202.034 2063.75 202.034 Q2066.28 202.034 2067.74 200.037 Q2069.2 198.024 2069.2 194.499 Q2069.2 190.975 2067.74 188.978 Q2066.28 186.965 2063.75 186.965 Q2061.21 186.965 2059.75 188.978 Q2058.31 190.975 2058.31 194.499 Z" fill="#000000" fill-rule="evenodd" fill-opacity="1" /><path clip-path="url(#clip330)" d="M 0 0 M2075.74 184.76 L2078.94 184.76 L2078.94 204.204 L2075.74 204.204 L2075.74 184.76 M2075.74 177.19 L2078.94 177.19 L2078.94 181.235 L2075.74 181.235 L2075.74 177.19 Z" fill="#000000" fill-rule="evenodd" fill-opacity="1" /><path clip-path="url(#clip330)" d="M 0 0 M2092.13 177.19 L2092.13 179.847 L2089.08 179.847 Q2087.36 179.847 2086.68 180.541 Q2086.02 181.235 2086.02 183.041 L2086.02 184.76 L2091.28 184.76 L2091.28 187.242 L2086.02 187.242 L2086.02 204.204 L2082.81 204.204 L2082.81 187.242 L2079.75 187.242 L2079.75 184.76 L2082.81 184.76 L2082.81 183.406 Q2082.81 180.159 2084.32 178.683 Q2085.83 177.19 2089.11 177.19 L2092.13 177.19 Z" fill="#000000" fill-rule="evenodd" fill-opacity="1" /><path clip-path="url(#clip330)" d="M 0 0 M2105.33 177.19 L2105.33 179.847 L2102.27 179.847 Q2100.55 179.847 2099.87 180.541 Q2099.21 181.235 2099.21 183.041 L2099.21 184.76 L2104.48 184.76 L2104.48 187.242 L2099.21 187.242 L2099.21 204.204 L2096 204.204 L2096 187.242 L2092.95 187.242 L2092.95 184.76 L2096 184.76 L2096 183.406 Q2096 180.159 2097.51 178.683 Q2099.02 177.19 2102.31 177.19 L2105.33 177.19 Z" fill="#000000" fill-rule="evenodd" fill-opacity="1" /><path clip-path="url(#clip330)" d="M 0 0 M2125.31 193.683 L2125.31 195.246 L2110.62 195.246 Q2110.83 198.544 2112.6 200.281 Q2114.39 201.999 2117.57 201.999 Q2119.41 201.999 2121.12 201.548 Q2122.86 201.096 2124.56 200.194 L2124.56 203.215 Q2122.84 203.944 2121.04 204.326 Q2119.23 204.708 2117.37 204.708 Q2112.72 204.708 2110 201.999 Q2107.29 199.291 2107.29 194.673 Q2107.29 189.899 2109.86 187.103 Q2112.44 184.291 2116.82 184.291 Q2120.74 184.291 2123.02 186.826 Q2125.31 189.343 2125.31 193.683 M2122.11 192.746 Q2122.08 190.124 2120.64 188.562 Q2119.21 186.999 2116.85 186.999 Q2114.18 186.999 2112.57 188.51 Q2110.97 190.02 2110.73 192.763 L2122.11 192.746 Z" fill="#000000" fill-rule="evenodd" fill-opacity="1" /><path clip-path="url(#clip330)" d="M 0 0 M2139.93 187.746 Q2139.39 187.433 2138.75 187.294 Q2138.12 187.138 2137.36 187.138 Q2134.65 187.138 2133.19 188.909 Q2131.75 190.663 2131.75 193.961 L2131.75 204.204 L2128.54 204.204 L2128.54 184.76 L2131.75 184.76 L2131.75 187.781 Q2132.76 186.01 2134.37 185.159 Q2135.99 184.291 2138.29 184.291 Q2138.62 184.291 2139.02 184.343 Q2139.42 184.378 2139.91 184.465 L2139.93 187.746 Z" fill="#000000" fill-rule="evenodd" fill-opacity="1" /><path clip-path="url(#clip330)" d="M 0 0 M2159.13 193.683 L2159.13 195.246 L2144.44 195.246 Q2144.65 198.544 2146.42 200.281 Q2148.21 201.999 2151.38 201.999 Q2153.23 201.999 2154.94 201.548 Q2156.68 201.096 2158.38 200.194 L2158.38 203.215 Q2156.66 203.944 2154.86 204.326 Q2153.05 204.708 2151.19 204.708 Q2146.54 204.708 2143.82 201.999 Q2141.11 199.291 2141.11 194.673 Q2141.11 189.899 2143.68 187.103 Q2146.26 184.291 2150.64 184.291 Q2154.56 184.291 2156.84 186.826 Q2159.13 189.343 2159.13 193.683 M2155.93 192.746 Q2155.9 190.124 2154.46 188.562 Q2153.03 186.999 2150.67 186.999 Q2148 186.999 2146.38 188.51 Q2144.79 190.02 2144.54 192.763 L2155.93 192.746 Z" fill="#000000" fill-rule="evenodd" fill-opacity="1" /><path clip-path="url(#clip330)" d="M 0 0 M2178.64 192.468 L2178.64 204.204 L2175.45 204.204 L2175.45 192.572 Q2175.45 189.812 2174.37 188.44 Q2173.29 187.069 2171.14 187.069 Q2168.55 187.069 2167.06 188.718 Q2165.57 190.367 2165.57 193.215 L2165.57 204.204 L2162.36 204.204 L2162.36 184.76 L2165.57 184.76 L2165.57 187.781 Q2166.71 186.027 2168.26 185.159 Q2169.82 184.291 2171.85 184.291 Q2175.2 184.291 2176.92 186.374 Q2178.64 188.44 2178.64 192.468 Z" fill="#000000" fill-rule="evenodd" fill-opacity="1" /><path clip-path="url(#clip330)" d="M 0 0 M2195.99 185.506 L2195.99 188.492 Q2194.63 187.746 2193.26 187.381 Q2191.91 186.999 2190.52 186.999 Q2187.41 186.999 2185.69 188.978 Q2183.97 190.94 2183.97 194.499 Q2183.97 198.058 2185.69 200.037 Q2187.41 201.999 2190.52 201.999 Q2191.91 201.999 2193.26 201.635 Q2194.63 201.253 2195.99 200.506 L2195.99 203.458 Q2194.65 204.083 2193.21 204.395 Q2191.78 204.708 2190.17 204.708 Q2185.78 204.708 2183.19 201.947 Q2180.6 199.187 2180.6 194.499 Q2180.6 189.742 2183.21 187.017 Q2185.83 184.291 2190.38 184.291 Q2191.85 184.291 2193.26 184.604 Q2194.67 184.899 2195.99 185.506 Z" fill="#000000" fill-rule="evenodd" fill-opacity="1" /><path clip-path="url(#clip330)" d="M 0 0 M2215.97 193.683 L2215.97 195.246 L2201.28 195.246 Q2201.49 198.544 2203.26 200.281 Q2205.05 201.999 2208.22 201.999 Q2210.07 201.999 2211.78 201.548 Q2213.52 201.096 2215.22 200.194 L2215.22 203.215 Q2213.5 203.944 2211.7 204.326 Q2209.89 204.708 2208.03 204.708 Q2203.38 204.708 2200.66 201.999 Q2197.95 199.291 2197.95 194.673 Q2197.95 189.899 2200.52 187.103 Q2203.1 184.291 2207.48 184.291 Q2211.4 184.291 2213.68 186.826 Q2215.97 189.343 2215.97 193.683 M2212.77 192.746 Q2212.74 190.124 2211.3 188.562 Q2209.87 186.999 2207.51 186.999 Q2204.84 186.999 2203.22 188.51 Q2201.63 190.02 2201.38 192.763 L2212.77 192.746 Z" fill="#000000" fill-rule="evenodd" fill-opacity="1" /><path clip-path="url(#clip330)" d="M 0 0 M2231.71 185.333 L2231.71 188.353 Q2230.36 187.659 2228.9 187.312 Q2227.44 186.965 2225.88 186.965 Q2223.5 186.965 2222.3 187.694 Q2221.12 188.423 2221.12 189.881 Q2221.12 190.992 2221.97 191.635 Q2222.83 192.26 2225.39 192.833 L2226.49 193.076 Q2229.89 193.805 2231.31 195.142 Q2232.76 196.461 2232.76 198.84 Q2232.76 201.548 2230.6 203.128 Q2228.47 204.708 2224.72 204.708 Q2223.16 204.708 2221.45 204.395 Q2219.77 204.1 2217.89 203.492 L2217.89 200.194 Q2219.67 201.114 2221.38 201.583 Q2223.1 202.034 2224.79 202.034 Q2227.04 202.034 2228.26 201.27 Q2229.47 200.489 2229.47 199.083 Q2229.47 197.781 2228.59 197.086 Q2227.72 196.392 2224.75 195.749 L2223.64 195.489 Q2220.67 194.864 2219.35 193.579 Q2218.03 192.277 2218.03 190.02 Q2218.03 187.277 2219.98 185.784 Q2221.92 184.291 2225.5 184.291 Q2227.27 184.291 2228.83 184.551 Q2230.39 184.812 2231.71 185.333 Z" fill="#000000" fill-rule="evenodd" fill-opacity="1" /></svg>
