<?xml version="1.0" encoding="utf-8"?>
<svg xmlns="http://www.w3.org/2000/svg" xmlns:xlink="http://www.w3.org/1999/xlink" width="600" height="400" viewBox="0 0 2400 1600">
<defs>
  <clipPath id="clip960">
    <rect x="0" y="0" width="2400" height="1600"/>
  </clipPath>
</defs>
<path clip-path="url(#clip960)" d="
M0 1600 L2400 1600 L2400 0 L0 0  Z
  " fill="#ffffff" fill-rule="evenodd" fill-opacity="1"/>
<defs>
  <clipPath id="clip961">
    <rect x="480" y="0" width="1681" height="1600"/>
  </clipPath>
</defs>
<path clip-path="url(#clip960)" d="
M216.251 1486.45 L2352.76 1486.45 L2352.76 47.2441 L216.251 47.2441  Z
  " fill="#ffffff" fill-rule="evenodd" fill-opacity="1"/>
<defs>
  <clipPath id="clip962">
    <rect x="216" y="47" width="2138" height="1440"/>
  </clipPath>
</defs>
<polyline clip-path="url(#clip962)" style="stroke:#000000; stroke-width:2; stroke-opacity:0.1; fill:none" points="
  276.718,1486.45 276.718,47.2441 
  "/>
<polyline clip-path="url(#clip962)" style="stroke:#000000; stroke-width:2; stroke-opacity:0.1; fill:none" points="
  814.203,1486.45 814.203,47.2441 
  "/>
<polyline clip-path="url(#clip962)" style="stroke:#000000; stroke-width:2; stroke-opacity:0.1; fill:none" points="
  1351.69,1486.45 1351.69,47.2441 
  "/>
<polyline clip-path="url(#clip962)" style="stroke:#000000; stroke-width:2; stroke-opacity:0.1; fill:none" points="
  1889.17,1486.45 1889.17,47.2441 
  "/>
<polyline clip-path="url(#clip962)" style="stroke:#000000; stroke-width:2; stroke-opacity:0.1; fill:none" points="
  216.251,1300.43 2352.76,1300.43 
  "/>
<polyline clip-path="url(#clip962)" style="stroke:#000000; stroke-width:2; stroke-opacity:0.1; fill:none" points="
  216.251,897.299 2352.76,897.299 
  "/>
<polyline clip-path="url(#clip962)" style="stroke:#000000; stroke-width:2; stroke-opacity:0.1; fill:none" points="
  216.251,494.167 2352.76,494.167 
  "/>
<polyline clip-path="url(#clip962)" style="stroke:#000000; stroke-width:2; stroke-opacity:0.1; fill:none" points="
  216.251,91.0347 2352.76,91.0347 
  "/>
<polyline clip-path="url(#clip960)" style="stroke:#000000; stroke-width:4; stroke-opacity:1; fill:none" points="
  216.251,494.167 2352.76,494.167 
  "/>
<polyline clip-path="url(#clip960)" style="stroke:#000000; stroke-width:4; stroke-opacity:1; fill:none" points="
  276.718,1486.45 276.718,47.2441 
  "/>
<polyline clip-path="url(#clip960)" style="stroke:#000000; stroke-width:4; stroke-opacity:0; fill:none" points="
  276.718,494.167 276.718,494.167 
  "/>
<polyline clip-path="url(#clip960)" style="stroke:#000000; stroke-width:4; stroke-opacity:0; fill:none" points="
  814.203,494.167 814.203,494.167 
  "/>
<polyline clip-path="url(#clip960)" style="stroke:#000000; stroke-width:4; stroke-opacity:0; fill:none" points="
  1351.69,494.167 1351.69,494.167 
  "/>
<polyline clip-path="url(#clip960)" style="stroke:#000000; stroke-width:4; stroke-opacity:0; fill:none" points="
  1889.17,494.167 1889.17,494.167 
  "/>
<polyline clip-path="url(#clip960)" style="stroke:#000000; stroke-width:4; stroke-opacity:0; fill:none" points="
  276.718,1300.43 276.718,1300.43 
  "/>
<polyline clip-path="url(#clip960)" style="stroke:#000000; stroke-width:4; stroke-opacity:0; fill:none" points="
  276.718,897.299 276.718,897.299 
  "/>
<polyline clip-path="url(#clip960)" style="stroke:#000000; stroke-width:4; stroke-opacity:0; fill:none" points="
  276.718,494.167 276.718,494.167 
  "/>
<polyline clip-path="url(#clip960)" style="stroke:#000000; stroke-width:4; stroke-opacity:0; fill:none" points="
  276.718,91.0347 276.718,91.0347 
  "/>
<path clip-path="url(#clip960)" d="M 0 0 M276.718 1508.44 Q273.107 1508.44 271.278 1512 Q269.472 1515.55 269.472 1522.67 Q269.472 1529.78 271.278 1533.35 Q273.107 1536.89 276.718 1536.89 Q280.352 1536.89 282.158 1533.35 Q283.986 1529.78 283.986 1522.67 Q283.986 1515.55 282.158 1512 Q280.352 1508.44 276.718 1508.44 M276.718 1504.73 Q282.528 1504.73 285.584 1509.34 Q288.662 1513.92 288.662 1522.67 Q288.662 1531.4 285.584 1536.01 Q282.528 1540.59 276.718 1540.59 Q270.908 1540.59 267.829 1536.01 Q264.773 1531.4 264.773 1522.67 Q264.773 1513.92 267.829 1509.34 Q270.908 1504.73 276.718 1504.73 Z" fill="#000000" fill-rule="evenodd" fill-opacity="1" /><path clip-path="url(#clip960)" d="M 0 0 M795.349 1535.98 L811.669 1535.98 L811.669 1539.92 L789.724 1539.92 L789.724 1535.98 Q792.386 1533.23 796.97 1528.6 Q801.576 1523.95 802.757 1522.61 Q805.002 1520.08 805.882 1518.35 Q806.784 1516.59 806.784 1514.9 Q806.784 1512.14 804.84 1510.41 Q802.919 1508.67 799.817 1508.67 Q797.618 1508.67 795.164 1509.43 Q792.734 1510.2 789.956 1511.75 L789.956 1507.03 Q792.78 1505.89 795.234 1505.31 Q797.687 1504.73 799.724 1504.73 Q805.095 1504.73 808.289 1507.42 Q811.484 1510.11 811.484 1514.6 Q811.484 1516.73 810.673 1518.65 Q809.886 1520.54 807.78 1523.14 Q807.201 1523.81 804.099 1527.03 Q800.997 1530.22 795.349 1535.98 Z" fill="#000000" fill-rule="evenodd" fill-opacity="1" /><path clip-path="url(#clip960)" d="M 0 0 M826.738 1508.44 Q823.127 1508.44 821.298 1512 Q819.493 1515.55 819.493 1522.67 Q819.493 1529.78 821.298 1533.35 Q823.127 1536.89 826.738 1536.89 Q830.372 1536.89 832.178 1533.35 Q834.007 1529.78 834.007 1522.67 Q834.007 1515.55 832.178 1512 Q830.372 1508.44 826.738 1508.44 M826.738 1504.73 Q832.548 1504.73 835.604 1509.34 Q838.682 1513.92 838.682 1522.67 Q838.682 1531.4 835.604 1536.01 Q832.548 1540.59 826.738 1540.59 Q820.928 1540.59 817.849 1536.01 Q814.794 1531.4 814.794 1522.67 Q814.794 1513.92 817.849 1509.34 Q820.928 1504.73 826.738 1504.73 Z" fill="#000000" fill-rule="evenodd" fill-opacity="1" /><path clip-path="url(#clip960)" d="M 0 0 M1341.19 1509.43 L1329.39 1527.88 L1341.19 1527.88 L1341.19 1509.43 M1339.96 1505.36 L1345.84 1505.36 L1345.84 1527.88 L1350.77 1527.88 L1350.77 1531.77 L1345.84 1531.77 L1345.84 1539.92 L1341.19 1539.92 L1341.19 1531.77 L1325.59 1531.77 L1325.59 1527.26 L1339.96 1505.36 Z" fill="#000000" fill-rule="evenodd" fill-opacity="1" /><path clip-path="url(#clip960)" d="M 0 0 M1365.84 1508.44 Q1362.23 1508.44 1360.4 1512 Q1358.6 1515.55 1358.6 1522.67 Q1358.6 1529.78 1360.4 1533.35 Q1362.23 1536.89 1365.84 1536.89 Q1369.48 1536.89 1371.28 1533.35 Q1373.11 1529.78 1373.11 1522.67 Q1373.11 1515.55 1371.28 1512 Q1369.48 1508.44 1365.84 1508.44 M1365.84 1504.73 Q1371.65 1504.73 1374.71 1509.34 Q1377.79 1513.92 1377.79 1522.67 Q1377.79 1531.4 1374.71 1536.01 Q1371.65 1540.59 1365.84 1540.59 Q1360.03 1540.59 1356.96 1536.01 Q1353.9 1531.4 1353.9 1522.67 Q1353.9 1513.92 1356.96 1509.34 Q1360.03 1504.73 1365.84 1504.73 Z" fill="#000000" fill-rule="evenodd" fill-opacity="1" /><path clip-path="url(#clip960)" d="M 0 0 M1876.07 1520.78 Q1872.92 1520.78 1871.07 1522.93 Q1869.24 1525.08 1869.24 1528.83 Q1869.24 1532.56 1871.07 1534.73 Q1872.92 1536.89 1876.07 1536.89 Q1879.22 1536.89 1881.05 1534.73 Q1882.9 1532.56 1882.9 1528.83 Q1882.9 1525.08 1881.05 1522.93 Q1879.22 1520.78 1876.07 1520.78 M1885.36 1506.12 L1885.36 1510.38 Q1883.6 1509.55 1881.79 1509.11 Q1880.01 1508.67 1878.25 1508.67 Q1873.62 1508.67 1871.17 1511.8 Q1868.73 1514.92 1868.39 1521.24 Q1869.75 1519.23 1871.81 1518.16 Q1873.87 1517.07 1876.35 1517.07 Q1881.56 1517.07 1884.57 1520.24 Q1887.6 1523.39 1887.6 1528.83 Q1887.6 1534.16 1884.45 1537.37 Q1881.3 1540.59 1876.07 1540.59 Q1870.08 1540.59 1866.91 1536.01 Q1863.73 1531.4 1863.73 1522.67 Q1863.73 1514.48 1867.62 1509.62 Q1871.51 1504.73 1878.06 1504.73 Q1879.82 1504.73 1881.61 1505.08 Q1883.41 1505.43 1885.36 1506.12 Z" fill="#000000" fill-rule="evenodd" fill-opacity="1" /><path clip-path="url(#clip960)" d="M 0 0 M1902.67 1508.44 Q1899.06 1508.44 1897.23 1512 Q1895.42 1515.55 1895.42 1522.67 Q1895.42 1529.78 1897.23 1533.35 Q1899.06 1536.89 1902.67 1536.89 Q1906.3 1536.89 1908.11 1533.35 Q1909.94 1529.78 1909.94 1522.67 Q1909.94 1515.55 1908.11 1512 Q1906.3 1508.44 1902.67 1508.44 M1902.67 1504.73 Q1908.48 1504.73 1911.54 1509.34 Q1914.61 1513.92 1914.61 1522.67 Q1914.61 1531.4 1911.54 1536.01 Q1908.48 1540.59 1902.67 1540.59 Q1896.86 1540.59 1893.78 1536.01 Q1890.73 1531.4 1890.73 1522.67 Q1890.73 1513.92 1893.78 1509.34 Q1896.86 1504.73 1902.67 1504.73 Z" fill="#000000" fill-rule="evenodd" fill-opacity="1" /><path clip-path="url(#clip960)" d="M 0 0 M63.3625 1302.83 L75.8393 1302.83 L75.8393 1306.62 L63.3625 1306.62 L63.3625 1302.83 Z" fill="#000000" fill-rule="evenodd" fill-opacity="1" /><path clip-path="url(#clip960)" d="M 0 0 M90.9086 1286.23 Q87.2976 1286.23 85.4689 1289.79 Q83.6633 1293.34 83.6633 1300.47 Q83.6633 1307.57 85.4689 1311.14 Q87.2976 1314.68 90.9086 1314.68 Q94.5429 1314.68 96.3484 1311.14 Q98.1771 1307.57 98.1771 1300.47 Q98.1771 1293.34 96.3484 1289.79 Q94.5429 1286.23 90.9086 1286.23 M90.9086 1282.53 Q96.7188 1282.53 99.7743 1287.13 Q102.853 1291.72 102.853 1300.47 Q102.853 1309.19 99.7743 1313.8 Q96.7188 1318.38 90.9086 1318.38 Q85.0985 1318.38 82.0198 1313.8 Q78.9643 1309.19 78.9643 1300.47 Q78.9643 1291.72 82.0198 1287.13 Q85.0985 1282.53 90.9086 1282.53 Z" fill="#000000" fill-rule="evenodd" fill-opacity="1" /><path clip-path="url(#clip960)" d="M 0 0 M107.922 1311.83 L112.807 1311.83 L112.807 1317.71 L107.922 1317.71 L107.922 1311.83 Z" fill="#000000" fill-rule="evenodd" fill-opacity="1" /><path clip-path="url(#clip960)" d="M 0 0 M127.876 1286.23 Q124.265 1286.23 122.436 1289.79 Q120.631 1293.34 120.631 1300.47 Q120.631 1307.57 122.436 1311.14 Q124.265 1314.68 127.876 1314.68 Q131.51 1314.68 133.316 1311.14 Q135.145 1307.57 135.145 1300.47 Q135.145 1293.34 133.316 1289.79 Q131.51 1286.23 127.876 1286.23 M127.876 1282.53 Q133.686 1282.53 136.742 1287.13 Q139.82 1291.72 139.82 1300.47 Q139.82 1309.19 136.742 1313.8 Q133.686 1318.38 127.876 1318.38 Q122.066 1318.38 118.987 1313.8 Q115.932 1309.19 115.932 1300.47 Q115.932 1291.72 118.987 1287.13 Q122.066 1282.53 127.876 1282.53 Z" fill="#000000" fill-rule="evenodd" fill-opacity="1" /><path clip-path="url(#clip960)" d="M 0 0 M154.89 1286.23 Q151.279 1286.23 149.45 1289.79 Q147.644 1293.34 147.644 1300.47 Q147.644 1307.57 149.45 1311.14 Q151.279 1314.68 154.89 1314.68 Q158.524 1314.68 160.33 1311.14 Q162.158 1307.57 162.158 1300.47 Q162.158 1293.34 160.33 1289.79 Q158.524 1286.23 154.89 1286.23 M154.89 1282.53 Q160.7 1282.53 163.755 1287.13 Q166.834 1291.72 166.834 1300.47 Q166.834 1309.19 163.755 1313.8 Q160.7 1318.38 154.89 1318.38 Q149.08 1318.38 146.001 1313.8 Q142.945 1309.19 142.945 1300.47 Q142.945 1291.72 146.001 1287.13 Q149.08 1282.53 154.89 1282.53 Z" fill="#000000" fill-rule="evenodd" fill-opacity="1" /><path clip-path="url(#clip960)" d="M 0 0 M175.931 1313.78 L192.251 1313.78 L192.251 1317.71 L170.306 1317.71 L170.306 1313.78 Q172.968 1311.02 177.552 1306.39 Q182.158 1301.74 183.339 1300.4 Q185.584 1297.87 186.464 1296.14 Q187.366 1294.38 187.366 1292.69 Q187.366 1289.93 185.422 1288.2 Q183.501 1286.46 180.399 1286.46 Q178.2 1286.46 175.746 1287.23 Q173.316 1287.99 170.538 1289.54 L170.538 1284.82 Q173.362 1283.68 175.816 1283.11 Q178.269 1282.53 180.306 1282.53 Q185.677 1282.53 188.871 1285.21 Q192.066 1287.9 192.066 1292.39 Q192.066 1294.52 191.255 1296.44 Q190.468 1298.34 188.362 1300.93 Q187.783 1301.6 184.681 1304.82 Q181.579 1308.01 175.931 1313.78 Z" fill="#000000" fill-rule="evenodd" fill-opacity="1" /><path clip-path="url(#clip960)" d="M 0 0 M62.9921 899.695 L75.4689 899.695 L75.4689 903.491 L62.9921 903.491 L62.9921 899.695 Z" fill="#000000" fill-rule="evenodd" fill-opacity="1" /><path clip-path="url(#clip960)" d="M 0 0 M90.5383 883.098 Q86.9272 883.098 85.0985 886.663 Q83.2929 890.204 83.2929 897.334 Q83.2929 904.44 85.0985 908.005 Q86.9272 911.547 90.5383 911.547 Q94.1725 911.547 95.9781 908.005 Q97.8068 904.44 97.8068 897.334 Q97.8068 890.204 95.9781 886.663 Q94.1725 883.098 90.5383 883.098 M90.5383 879.394 Q96.3484 879.394 99.404 884.001 Q102.483 888.584 102.483 897.334 Q102.483 906.061 99.404 910.667 Q96.3484 915.25 90.5383 915.25 Q84.7281 915.25 81.6494 910.667 Q78.5939 906.061 78.5939 897.334 Q78.5939 888.584 81.6494 884.001 Q84.7281 879.394 90.5383 879.394 Z" fill="#000000" fill-rule="evenodd" fill-opacity="1" /><path clip-path="url(#clip960)" d="M 0 0 M107.552 908.7 L112.436 908.7 L112.436 914.579 L107.552 914.579 L107.552 908.7 Z" fill="#000000" fill-rule="evenodd" fill-opacity="1" /><path clip-path="url(#clip960)" d="M 0 0 M127.506 883.098 Q123.895 883.098 122.066 886.663 Q120.26 890.204 120.26 897.334 Q120.26 904.44 122.066 908.005 Q123.895 911.547 127.506 911.547 Q131.14 911.547 132.945 908.005 Q134.774 904.44 134.774 897.334 Q134.774 890.204 132.945 886.663 Q131.14 883.098 127.506 883.098 M127.506 879.394 Q133.316 879.394 136.371 884.001 Q139.45 888.584 139.45 897.334 Q139.45 906.061 136.371 910.667 Q133.316 915.25 127.506 915.25 Q121.696 915.25 118.617 910.667 Q115.561 906.061 115.561 897.334 Q115.561 888.584 118.617 884.001 Q121.696 879.394 127.506 879.394 Z" fill="#000000" fill-rule="evenodd" fill-opacity="1" /><path clip-path="url(#clip960)" d="M 0 0 M154.519 883.098 Q150.908 883.098 149.08 886.663 Q147.274 890.204 147.274 897.334 Q147.274 904.44 149.08 908.005 Q150.908 911.547 154.519 911.547 Q158.154 911.547 159.959 908.005 Q161.788 904.44 161.788 897.334 Q161.788 890.204 159.959 886.663 Q158.154 883.098 154.519 883.098 M154.519 879.394 Q160.33 879.394 163.385 884.001 Q166.464 888.584 166.464 897.334 Q166.464 906.061 163.385 910.667 Q160.33 915.25 154.519 915.25 Q148.709 915.25 145.631 910.667 Q142.575 906.061 142.575 897.334 Q142.575 888.584 145.631 884.001 Q148.709 879.394 154.519 879.394 Z" fill="#000000" fill-rule="evenodd" fill-opacity="1" /><path clip-path="url(#clip960)" d="M 0 0 M172.343 910.644 L179.982 910.644 L179.982 884.278 L171.672 885.945 L171.672 881.686 L179.936 880.019 L184.612 880.019 L184.612 910.644 L192.251 910.644 L192.251 914.579 L172.343 914.579 L172.343 910.644 Z" fill="#000000" fill-rule="evenodd" fill-opacity="1" /><path clip-path="url(#clip960)" d="M 0 0 M89.3114 479.966 Q85.7003 479.966 83.8716 483.53 Q82.0661 487.072 82.0661 494.202 Q82.0661 501.308 83.8716 504.873 Q85.7003 508.415 89.3114 508.415 Q92.9457 508.415 94.7512 504.873 Q96.5799 501.308 96.5799 494.202 Q96.5799 487.072 94.7512 483.53 Q92.9457 479.966 89.3114 479.966 M89.3114 476.262 Q95.1216 476.262 98.1771 480.868 Q101.256 485.452 101.256 494.202 Q101.256 502.928 98.1771 507.535 Q95.1216 512.118 89.3114 512.118 Q83.5013 512.118 80.4226 507.535 Q77.367 502.928 77.367 494.202 Q77.367 485.452 80.4226 480.868 Q83.5013 476.262 89.3114 476.262 Z" fill="#000000" fill-rule="evenodd" fill-opacity="1" /><path clip-path="url(#clip960)" d="M 0 0 M106.325 505.567 L111.209 505.567 L111.209 511.447 L106.325 511.447 L106.325 505.567 Z" fill="#000000" fill-rule="evenodd" fill-opacity="1" /><path clip-path="url(#clip960)" d="M 0 0 M126.279 479.966 Q122.668 479.966 120.839 483.53 Q119.033 487.072 119.033 494.202 Q119.033 501.308 120.839 504.873 Q122.668 508.415 126.279 508.415 Q129.913 508.415 131.719 504.873 Q133.547 501.308 133.547 494.202 Q133.547 487.072 131.719 483.53 Q129.913 479.966 126.279 479.966 M126.279 476.262 Q132.089 476.262 135.145 480.868 Q138.223 485.452 138.223 494.202 Q138.223 502.928 135.145 507.535 Q132.089 512.118 126.279 512.118 Q120.469 512.118 117.39 507.535 Q114.334 502.928 114.334 494.202 Q114.334 485.452 117.39 480.868 Q120.469 476.262 126.279 476.262 Z" fill="#000000" fill-rule="evenodd" fill-opacity="1" /><path clip-path="url(#clip960)" d="M 0 0 M153.293 479.966 Q149.681 479.966 147.853 483.53 Q146.047 487.072 146.047 494.202 Q146.047 501.308 147.853 504.873 Q149.681 508.415 153.293 508.415 Q156.927 508.415 158.732 504.873 Q160.561 501.308 160.561 494.202 Q160.561 487.072 158.732 483.53 Q156.927 479.966 153.293 479.966 M153.293 476.262 Q159.103 476.262 162.158 480.868 Q165.237 485.452 165.237 494.202 Q165.237 502.928 162.158 507.535 Q159.103 512.118 153.293 512.118 Q147.482 512.118 144.404 507.535 Q141.348 502.928 141.348 494.202 Q141.348 485.452 144.404 480.868 Q147.482 476.262 153.293 476.262 Z" fill="#000000" fill-rule="evenodd" fill-opacity="1" /><path clip-path="url(#clip960)" d="M 0 0 M180.306 479.966 Q176.695 479.966 174.867 483.53 Q173.061 487.072 173.061 494.202 Q173.061 501.308 174.867 504.873 Q176.695 508.415 180.306 508.415 Q183.941 508.415 185.746 504.873 Q187.575 501.308 187.575 494.202 Q187.575 487.072 185.746 483.53 Q183.941 479.966 180.306 479.966 M180.306 476.262 Q186.116 476.262 189.172 480.868 Q192.251 485.452 192.251 494.202 Q192.251 502.928 189.172 507.535 Q186.116 512.118 180.306 512.118 Q174.496 512.118 171.417 507.535 Q168.362 502.928 168.362 494.202 Q168.362 485.452 171.417 480.868 Q174.496 476.262 180.306 476.262 Z" fill="#000000" fill-rule="evenodd" fill-opacity="1" /><path clip-path="url(#clip960)" d="M 0 0 M90.5383 76.8334 Q86.9272 76.8334 85.0985 80.3982 Q83.2929 83.9399 83.2929 91.0694 Q83.2929 98.1759 85.0985 101.741 Q86.9272 105.282 90.5383 105.282 Q94.1725 105.282 95.9781 101.741 Q97.8068 98.1759 97.8068 91.0694 Q97.8068 83.9399 95.9781 80.3982 Q94.1725 76.8334 90.5383 76.8334 M90.5383 73.1297 Q96.3484 73.1297 99.404 77.7362 Q102.483 82.3195 102.483 91.0694 Q102.483 99.7963 99.404 104.403 Q96.3484 108.986 90.5383 108.986 Q84.7281 108.986 81.6494 104.403 Q78.5939 99.7963 78.5939 91.0694 Q78.5939 82.3195 81.6494 77.7362 Q84.7281 73.1297 90.5383 73.1297 Z" fill="#000000" fill-rule="evenodd" fill-opacity="1" /><path clip-path="url(#clip960)" d="M 0 0 M107.552 102.435 L112.436 102.435 L112.436 108.315 L107.552 108.315 L107.552 102.435 Z" fill="#000000" fill-rule="evenodd" fill-opacity="1" /><path clip-path="url(#clip960)" d="M 0 0 M127.506 76.8334 Q123.895 76.8334 122.066 80.3982 Q120.26 83.9399 120.26 91.0694 Q120.26 98.1759 122.066 101.741 Q123.895 105.282 127.506 105.282 Q131.14 105.282 132.945 101.741 Q134.774 98.1759 134.774 91.0694 Q134.774 83.9399 132.945 80.3982 Q131.14 76.8334 127.506 76.8334 M127.506 73.1297 Q133.316 73.1297 136.371 77.7362 Q139.45 82.3195 139.45 91.0694 Q139.45 99.7963 136.371 104.403 Q133.316 108.986 127.506 108.986 Q121.696 108.986 118.617 104.403 Q115.561 99.7963 115.561 91.0694 Q115.561 82.3195 118.617 77.7362 Q121.696 73.1297 127.506 73.1297 Z" fill="#000000" fill-rule="evenodd" fill-opacity="1" /><path clip-path="url(#clip960)" d="M 0 0 M154.519 76.8334 Q150.908 76.8334 149.08 80.3982 Q147.274 83.9399 147.274 91.0694 Q147.274 98.1759 149.08 101.741 Q150.908 105.282 154.519 105.282 Q158.154 105.282 159.959 101.741 Q161.788 98.1759 161.788 91.0694 Q161.788 83.9399 159.959 80.3982 Q158.154 76.8334 154.519 76.8334 M154.519 73.1297 Q160.33 73.1297 163.385 77.7362 Q166.464 82.3195 166.464 91.0694 Q166.464 99.7963 163.385 104.403 Q160.33 108.986 154.519 108.986 Q148.709 108.986 145.631 104.403 Q142.575 99.7963 142.575 91.0694 Q142.575 82.3195 145.631 77.7362 Q148.709 73.1297 154.519 73.1297 Z" fill="#000000" fill-rule="evenodd" fill-opacity="1" /><path clip-path="url(#clip960)" d="M 0 0 M172.343 104.38 L179.982 104.38 L179.982 78.014 L171.672 79.6806 L171.672 75.4214 L179.936 73.7547 L184.612 73.7547 L184.612 104.38 L192.251 104.38 L192.251 108.315 L172.343 108.315 L172.343 104.38 Z" fill="#000000" fill-rule="evenodd" fill-opacity="1" /><circle clip-path="url(#clip962)" cx="303.592" cy="394.029" r="14" fill="#ff0000" fill-rule="evenodd" fill-opacity="1" stroke="#000000" stroke-opacity="1" stroke-width="0.32"/>
<circle clip-path="url(#clip962)" cx="330.466" cy="486.958" r="14" fill="#ff0000" fill-rule="evenodd" fill-opacity="1" stroke="#000000" stroke-opacity="1" stroke-width="0.32"/>
<circle clip-path="url(#clip962)" cx="357.341" cy="476.788" r="14" fill="#ff0000" fill-rule="evenodd" fill-opacity="1" stroke="#000000" stroke-opacity="1" stroke-width="0.32"/>
<circle clip-path="url(#clip962)" cx="384.215" cy="392.875" r="14" fill="#ff0000" fill-rule="evenodd" fill-opacity="1" stroke="#000000" stroke-opacity="1" stroke-width="0.32"/>
<circle clip-path="url(#clip962)" cx="411.089" cy="377.543" r="14" fill="#ff0000" fill-rule="evenodd" fill-opacity="1" stroke="#000000" stroke-opacity="1" stroke-width="0.32"/>
<circle clip-path="url(#clip962)" cx="437.963" cy="414.542" r="14" fill="#ff0000" fill-rule="evenodd" fill-opacity="1" stroke="#000000" stroke-opacity="1" stroke-width="0.32"/>
<circle clip-path="url(#clip962)" cx="464.838" cy="442.806" r="14" fill="#ff0000" fill-rule="evenodd" fill-opacity="1" stroke="#000000" stroke-opacity="1" stroke-width="0.32"/>
<circle clip-path="url(#clip962)" cx="491.712" cy="513.606" r="14" fill="#ff0000" fill-rule="evenodd" fill-opacity="1" stroke="#000000" stroke-opacity="1" stroke-width="0.32"/>
<circle clip-path="url(#clip962)" cx="518.586" cy="583.731" r="14" fill="#ff0000" fill-rule="evenodd" fill-opacity="1" stroke="#000000" stroke-opacity="1" stroke-width="0.32"/>
<circle clip-path="url(#clip962)" cx="545.461" cy="394.569" r="14" fill="#ff0000" fill-rule="evenodd" fill-opacity="1" stroke="#000000" stroke-opacity="1" stroke-width="0.32"/>
<circle clip-path="url(#clip962)" cx="572.335" cy="402.786" r="14" fill="#ff0000" fill-rule="evenodd" fill-opacity="1" stroke="#000000" stroke-opacity="1" stroke-width="0.32"/>
<circle clip-path="url(#clip962)" cx="599.209" cy="588.587" r="14" fill="#ff0000" fill-rule="evenodd" fill-opacity="1" stroke="#000000" stroke-opacity="1" stroke-width="0.32"/>
<circle clip-path="url(#clip962)" cx="626.083" cy="580.487" r="14" fill="#ff0000" fill-rule="evenodd" fill-opacity="1" stroke="#000000" stroke-opacity="1" stroke-width="0.32"/>
<circle clip-path="url(#clip962)" cx="652.958" cy="598.09" r="14" fill="#ff0000" fill-rule="evenodd" fill-opacity="1" stroke="#000000" stroke-opacity="1" stroke-width="0.32"/>
<circle clip-path="url(#clip962)" cx="679.832" cy="547.402" r="14" fill="#ff0000" fill-rule="evenodd" fill-opacity="1" stroke="#000000" stroke-opacity="1" stroke-width="0.32"/>
<circle clip-path="url(#clip962)" cx="706.706" cy="471.039" r="14" fill="#ff0000" fill-rule="evenodd" fill-opacity="1" stroke="#000000" stroke-opacity="1" stroke-width="0.32"/>
<circle clip-path="url(#clip962)" cx="733.581" cy="410.079" r="14" fill="#ff0000" fill-rule="evenodd" fill-opacity="1" stroke="#000000" stroke-opacity="1" stroke-width="0.32"/>
<circle clip-path="url(#clip962)" cx="760.455" cy="488.566" r="14" fill="#ff0000" fill-rule="evenodd" fill-opacity="1" stroke="#000000" stroke-opacity="1" stroke-width="0.32"/>
<circle clip-path="url(#clip962)" cx="787.329" cy="479.071" r="14" fill="#ff0000" fill-rule="evenodd" fill-opacity="1" stroke="#000000" stroke-opacity="1" stroke-width="0.32"/>
<circle clip-path="url(#clip962)" cx="814.203" cy="404.793" r="14" fill="#ff0000" fill-rule="evenodd" fill-opacity="1" stroke="#000000" stroke-opacity="1" stroke-width="0.32"/>
<circle clip-path="url(#clip962)" cx="841.078" cy="399.086" r="14" fill="#ff0000" fill-rule="evenodd" fill-opacity="1" stroke="#000000" stroke-opacity="1" stroke-width="0.32"/>
<circle clip-path="url(#clip962)" cx="867.952" cy="427.68" r="14" fill="#ff0000" fill-rule="evenodd" fill-opacity="1" stroke="#000000" stroke-opacity="1" stroke-width="0.32"/>
<circle clip-path="url(#clip962)" cx="894.826" cy="447.933" r="14" fill="#ff0000" fill-rule="evenodd" fill-opacity="1" stroke="#000000" stroke-opacity="1" stroke-width="0.32"/>
<circle clip-path="url(#clip962)" cx="921.701" cy="512.809" r="14" fill="#ff0000" fill-rule="evenodd" fill-opacity="1" stroke="#000000" stroke-opacity="1" stroke-width="0.32"/>
<circle clip-path="url(#clip962)" cx="948.575" cy="606.452" r="14" fill="#ff0000" fill-rule="evenodd" fill-opacity="1" stroke="#000000" stroke-opacity="1" stroke-width="0.32"/>
<circle clip-path="url(#clip962)" cx="975.449" cy="408.519" r="14" fill="#ff0000" fill-rule="evenodd" fill-opacity="1" stroke="#000000" stroke-opacity="1" stroke-width="0.32"/>
<circle clip-path="url(#clip962)" cx="1002.32" cy="425.217" r="14" fill="#ff0000" fill-rule="evenodd" fill-opacity="1" stroke="#000000" stroke-opacity="1" stroke-width="0.32"/>
<circle clip-path="url(#clip962)" cx="1029.2" cy="636.728" r="14" fill="#ff0000" fill-rule="evenodd" fill-opacity="1" stroke="#000000" stroke-opacity="1" stroke-width="0.32"/>
<circle clip-path="url(#clip962)" cx="1056.07" cy="595.976" r="14" fill="#ff0000" fill-rule="evenodd" fill-opacity="1" stroke="#000000" stroke-opacity="1" stroke-width="0.32"/>
<circle clip-path="url(#clip962)" cx="1082.95" cy="638.627" r="14" fill="#ff0000" fill-rule="evenodd" fill-opacity="1" stroke="#000000" stroke-opacity="1" stroke-width="0.32"/>
<circle clip-path="url(#clip962)" cx="1109.82" cy="546.91" r="14" fill="#ff0000" fill-rule="evenodd" fill-opacity="1" stroke="#000000" stroke-opacity="1" stroke-width="0.32"/>
<circle clip-path="url(#clip962)" cx="1136.69" cy="472.613" r="14" fill="#ff0000" fill-rule="evenodd" fill-opacity="1" stroke="#000000" stroke-opacity="1" stroke-width="0.32"/>
<circle clip-path="url(#clip962)" cx="1163.57" cy="631.442" r="14" fill="#ff0000" fill-rule="evenodd" fill-opacity="1" stroke="#000000" stroke-opacity="1" stroke-width="0.32"/>
<circle clip-path="url(#clip962)" cx="1190.44" cy="508.668" r="14" fill="#ff0000" fill-rule="evenodd" fill-opacity="1" stroke="#000000" stroke-opacity="1" stroke-width="0.32"/>
<circle clip-path="url(#clip962)" cx="1217.32" cy="518.712" r="14" fill="#ff0000" fill-rule="evenodd" fill-opacity="1" stroke="#000000" stroke-opacity="1" stroke-width="0.32"/>
<circle clip-path="url(#clip962)" cx="1244.19" cy="603.245" r="14" fill="#ff0000" fill-rule="evenodd" fill-opacity="1" stroke="#000000" stroke-opacity="1" stroke-width="0.32"/>
<circle clip-path="url(#clip962)" cx="1271.07" cy="645.931" r="14" fill="#ff0000" fill-rule="evenodd" fill-opacity="1" stroke="#000000" stroke-opacity="1" stroke-width="0.32"/>
<circle clip-path="url(#clip962)" cx="1297.94" cy="588.647" r="14" fill="#ff0000" fill-rule="evenodd" fill-opacity="1" stroke="#000000" stroke-opacity="1" stroke-width="0.32"/>
<circle clip-path="url(#clip962)" cx="1324.81" cy="586.689" r="14" fill="#ff0000" fill-rule="evenodd" fill-opacity="1" stroke="#000000" stroke-opacity="1" stroke-width="0.32"/>
<circle clip-path="url(#clip962)" cx="1351.69" cy="464.732" r="14" fill="#ff0000" fill-rule="evenodd" fill-opacity="1" stroke="#000000" stroke-opacity="1" stroke-width="0.32"/>
<circle clip-path="url(#clip962)" cx="1378.56" cy="250.001" r="14" fill="#ff0000" fill-rule="evenodd" fill-opacity="1" stroke="#000000" stroke-opacity="1" stroke-width="0.32"/>
<circle clip-path="url(#clip962)" cx="1405.44" cy="657.081" r="14" fill="#ff0000" fill-rule="evenodd" fill-opacity="1" stroke="#000000" stroke-opacity="1" stroke-width="0.32"/>
<circle clip-path="url(#clip962)" cx="1432.31" cy="648.202" r="14" fill="#ff0000" fill-rule="evenodd" fill-opacity="1" stroke="#000000" stroke-opacity="1" stroke-width="0.32"/>
<circle clip-path="url(#clip962)" cx="1459.19" cy="222.933" r="14" fill="#ff0000" fill-rule="evenodd" fill-opacity="1" stroke="#000000" stroke-opacity="1" stroke-width="0.32"/>
<circle clip-path="url(#clip962)" cx="1486.06" cy="256.705" r="14" fill="#ff0000" fill-rule="evenodd" fill-opacity="1" stroke="#000000" stroke-opacity="1" stroke-width="0.32"/>
<circle clip-path="url(#clip962)" cx="1512.93" cy="87.9763" r="14" fill="#ff0000" fill-rule="evenodd" fill-opacity="1" stroke="#000000" stroke-opacity="1" stroke-width="0.32"/>
<circle clip-path="url(#clip962)" cx="1539.81" cy="366.707" r="14" fill="#ff0000" fill-rule="evenodd" fill-opacity="1" stroke="#000000" stroke-opacity="1" stroke-width="0.32"/>
<circle clip-path="url(#clip962)" cx="1566.68" cy="552.172" r="14" fill="#ff0000" fill-rule="evenodd" fill-opacity="1" stroke="#000000" stroke-opacity="1" stroke-width="0.32"/>
<circle clip-path="url(#clip962)" cx="1593.56" cy="947.646" r="14" fill="#ff0000" fill-rule="evenodd" fill-opacity="1" stroke="#000000" stroke-opacity="1" stroke-width="0.32"/>
<circle clip-path="url(#clip962)" cx="1620.43" cy="1129.78" r="14" fill="#ff0000" fill-rule="evenodd" fill-opacity="1" stroke="#000000" stroke-opacity="1" stroke-width="0.32"/>
<circle clip-path="url(#clip962)" cx="1647.31" cy="956.104" r="14" fill="#ff0000" fill-rule="evenodd" fill-opacity="1" stroke="#000000" stroke-opacity="1" stroke-width="0.32"/>
<circle clip-path="url(#clip962)" cx="1674.18" cy="832.958" r="14" fill="#ff0000" fill-rule="evenodd" fill-opacity="1" stroke="#000000" stroke-opacity="1" stroke-width="0.32"/>
<circle clip-path="url(#clip962)" cx="1701.05" cy="926.957" r="14" fill="#ff0000" fill-rule="evenodd" fill-opacity="1" stroke="#000000" stroke-opacity="1" stroke-width="0.32"/>
<circle clip-path="url(#clip962)" cx="1727.93" cy="889.989" r="14" fill="#ff0000" fill-rule="evenodd" fill-opacity="1" stroke="#000000" stroke-opacity="1" stroke-width="0.32"/>
<circle clip-path="url(#clip962)" cx="1754.8" cy="1055.75" r="14" fill="#ff0000" fill-rule="evenodd" fill-opacity="1" stroke="#000000" stroke-opacity="1" stroke-width="0.32"/>
<circle clip-path="url(#clip962)" cx="1781.68" cy="957.939" r="14" fill="#ff0000" fill-rule="evenodd" fill-opacity="1" stroke="#000000" stroke-opacity="1" stroke-width="0.32"/>
<circle clip-path="url(#clip962)" cx="1808.55" cy="1133.73" r="14" fill="#ff0000" fill-rule="evenodd" fill-opacity="1" stroke="#000000" stroke-opacity="1" stroke-width="0.32"/>
<circle clip-path="url(#clip962)" cx="1835.43" cy="1014.61" r="14" fill="#ff0000" fill-rule="evenodd" fill-opacity="1" stroke="#000000" stroke-opacity="1" stroke-width="0.32"/>
<circle clip-path="url(#clip962)" cx="1862.3" cy="1043" r="14" fill="#ff0000" fill-rule="evenodd" fill-opacity="1" stroke="#000000" stroke-opacity="1" stroke-width="0.32"/>
<circle clip-path="url(#clip962)" cx="1889.17" cy="1110.31" r="14" fill="#ff0000" fill-rule="evenodd" fill-opacity="1" stroke="#000000" stroke-opacity="1" stroke-width="0.32"/>
<circle clip-path="url(#clip962)" cx="1916.05" cy="1156.36" r="14" fill="#ff0000" fill-rule="evenodd" fill-opacity="1" stroke="#000000" stroke-opacity="1" stroke-width="0.32"/>
<circle clip-path="url(#clip962)" cx="1942.92" cy="1301.65" r="14" fill="#ff0000" fill-rule="evenodd" fill-opacity="1" stroke="#000000" stroke-opacity="1" stroke-width="0.32"/>
<circle clip-path="url(#clip962)" cx="1969.8" cy="1153.92" r="14" fill="#ff0000" fill-rule="evenodd" fill-opacity="1" stroke="#000000" stroke-opacity="1" stroke-width="0.32"/>
<circle clip-path="url(#clip962)" cx="1996.67" cy="1189.84" r="14" fill="#ff0000" fill-rule="evenodd" fill-opacity="1" stroke="#000000" stroke-opacity="1" stroke-width="0.32"/>
<circle clip-path="url(#clip962)" cx="2023.55" cy="1445.72" r="14" fill="#ff0000" fill-rule="evenodd" fill-opacity="1" stroke="#000000" stroke-opacity="1" stroke-width="0.32"/>
<circle clip-path="url(#clip962)" cx="2050.42" cy="433.951" r="14" fill="#ff0000" fill-rule="evenodd" fill-opacity="1" stroke="#000000" stroke-opacity="1" stroke-width="0.32"/>
<circle clip-path="url(#clip962)" cx="2077.29" cy="423.307" r="14" fill="#ff0000" fill-rule="evenodd" fill-opacity="1" stroke="#000000" stroke-opacity="1" stroke-width="0.32"/>
<circle clip-path="url(#clip962)" cx="2104.17" cy="809.806" r="14" fill="#ff0000" fill-rule="evenodd" fill-opacity="1" stroke="#000000" stroke-opacity="1" stroke-width="0.32"/>
<circle clip-path="url(#clip962)" cx="2131.04" cy="544.74" r="14" fill="#ff0000" fill-rule="evenodd" fill-opacity="1" stroke="#000000" stroke-opacity="1" stroke-width="0.32"/>
<circle clip-path="url(#clip962)" cx="2157.92" cy="551.188" r="14" fill="#ff0000" fill-rule="evenodd" fill-opacity="1" stroke="#000000" stroke-opacity="1" stroke-width="0.32"/>
<circle clip-path="url(#clip962)" cx="2184.79" cy="200.415" r="14" fill="#ff0000" fill-rule="evenodd" fill-opacity="1" stroke="#000000" stroke-opacity="1" stroke-width="0.32"/>
<circle clip-path="url(#clip962)" cx="2211.67" cy="791.124" r="14" fill="#ff0000" fill-rule="evenodd" fill-opacity="1" stroke="#000000" stroke-opacity="1" stroke-width="0.32"/>
<circle clip-path="url(#clip962)" cx="2238.54" cy="737.937" r="14" fill="#ff0000" fill-rule="evenodd" fill-opacity="1" stroke="#000000" stroke-opacity="1" stroke-width="0.32"/>
<circle clip-path="url(#clip962)" cx="2265.41" cy="1095.07" r="14" fill="#ff0000" fill-rule="evenodd" fill-opacity="1" stroke="#000000" stroke-opacity="1" stroke-width="0.32"/>
<circle clip-path="url(#clip962)" cx="2292.29" cy="764.957" r="14" fill="#ff0000" fill-rule="evenodd" fill-opacity="1" stroke="#000000" stroke-opacity="1" stroke-width="0.32"/>
<path clip-path="url(#clip960)" d="
M1825.72 236.604 L2280.76 236.604 L2280.76 145.884 L1825.72 145.884  Z
  " fill="#000000" fill-rule="evenodd" fill-opacity="0"/>
<polyline clip-path="url(#clip960)" style="stroke:#000000; stroke-width:4; stroke-opacity:0; fill:none" points="
  1825.72,236.604 2280.76,236.604 2280.76,145.884 1825.72,145.884 1825.72,236.604 
  "/>
<circle clip-path="url(#clip960)" cx="1933.72" cy="191.244" r="17" fill="#ff0000" fill-rule="evenodd" fill-opacity="1" stroke="#000000" stroke-opacity="1" stroke-width="0.384"/>
<path clip-path="url(#clip960)" d="M 0 0 M2027.98 204.204 Q2028 201.878 2027.98 198.822 Q2024.27 198.822 2021 195.176 Q2017.81 191.635 2017.72 185.385 L2017.72 178.284 L2021.42 178.284 L2021.42 185.385 Q2021.42 190.281 2023.68 193.128 Q2025.59 195.558 2027.98 195.801 L2027.98 178.284 L2031.49 178.284 L2031.49 195.801 Q2033.89 195.558 2035.8 193.128 Q2038.05 190.281 2038.05 185.385 L2038.05 178.284 L2041.75 178.284 L2041.75 185.385 Q2041.66 191.635 2038.47 195.176 Q2035.2 198.822 2031.49 198.822 Q2031.47 200.072 2031.49 204.204 L2027.98 204.204 Z" fill="#000000" fill-rule="evenodd" fill-opacity="1" /><path clip-path="url(#clip960)" d="M 0 0 M2069.2 187.711 L2069.2 177.19 L2072.39 177.19 L2072.39 204.204 L2069.2 204.204 L2069.2 201.287 Q2068.19 203.024 2066.65 203.874 Q2065.12 204.708 2062.97 204.708 Q2059.44 204.708 2057.22 201.895 Q2055.01 199.083 2055.01 194.499 Q2055.01 189.916 2057.22 187.103 Q2059.44 184.291 2062.97 184.291 Q2065.12 184.291 2066.65 185.142 Q2068.19 185.975 2069.2 187.711 M2058.31 194.499 Q2058.31 198.024 2059.75 200.037 Q2061.21 202.034 2063.75 202.034 Q2066.28 202.034 2067.74 200.037 Q2069.2 198.024 2069.2 194.499 Q2069.2 190.975 2067.74 188.978 Q2066.28 186.965 2063.75 186.965 Q2061.21 186.965 2059.75 188.978 Q2058.31 190.975 2058.31 194.499 Z" fill="#000000" fill-rule="evenodd" fill-opacity="1" /><path clip-path="url(#clip960)" d="M 0 0 M2075.74 184.76 L2078.94 184.76 L2078.94 204.204 L2075.74 204.204 L2075.74 184.76 M2075.74 177.19 L2078.94 177.19 L2078.94 181.235 L2075.74 181.235 L2075.74 177.19 Z" fill="#000000" fill-rule="evenodd" fill-opacity="1" /><path clip-path="url(#clip960)" d="M 0 0 M2092.13 177.19 L2092.13 179.847 L2089.08 179.847 Q2087.36 179.847 2086.68 180.541 Q2086.02 181.235 2086.02 183.041 L2086.02 184.76 L2091.28 184.76 L2091.28 187.242 L2086.02 187.242 L2086.02 204.204 L2082.81 204.204 L2082.81 187.242 L2079.75 187.242 L2079.75 184.76 L2082.81 184.76 L2082.81 183.406 Q2082.81 180.159 2084.32 178.683 Q2085.83 177.19 2089.11 177.19 L2092.13 177.19 Z" fill="#000000" fill-rule="evenodd" fill-opacity="1" /><path clip-path="url(#clip960)" d="M 0 0 M2105.33 177.19 L2105.33 179.847 L2102.27 179.847 Q2100.55 179.847 2099.87 180.541 Q2099.21 181.235 2099.21 183.041 L2099.21 184.76 L2104.48 184.76 L2104.48 187.242 L2099.21 187.242 L2099.21 204.204 L2096 204.204 L2096 187.242 L2092.95 187.242 L2092.95 184.76 L2096 184.76 L2096 183.406 Q2096 180.159 2097.51 178.683 Q2099.02 177.19 2102.31 177.19 L2105.33 177.19 Z" fill="#000000" fill-rule="evenodd" fill-opacity="1" /><path clip-path="url(#clip960)" d="M 0 0 M2125.31 193.683 L2125.31 195.246 L2110.62 195.246 Q2110.83 198.544 2112.6 200.281 Q2114.39 201.999 2117.57 201.999 Q2119.41 201.999 2121.12 201.548 Q2122.86 201.096 2124.56 200.194 L2124.56 203.215 Q2122.84 203.944 2121.04 204.326 Q2119.23 204.708 2117.37 204.708 Q2112.72 204.708 2110 201.999 Q2107.29 199.291 2107.29 194.673 Q2107.29 189.899 2109.86 187.103 Q2112.44 184.291 2116.82 184.291 Q2120.74 184.291 2123.02 186.826 Q2125.31 189.343 2125.31 193.683 M2122.11 192.746 Q2122.08 190.124 2120.64 188.562 Q2119.21 186.999 2116.85 186.999 Q2114.18 186.999 2112.57 188.51 Q2110.97 190.02 2110.73 192.763 L2122.11 192.746 Z" fill="#000000" fill-rule="evenodd" fill-opacity="1" /><path clip-path="url(#clip960)" d="M 0 0 M2139.93 187.746 Q2139.39 187.433 2138.75 187.294 Q2138.12 187.138 2137.36 187.138 Q2134.65 187.138 2133.19 188.909 Q2131.75 190.663 2131.75 193.961 L2131.75 204.204 L2128.54 204.204 L2128.54 184.76 L2131.75 184.76 L2131.75 187.781 Q2132.76 186.01 2134.37 185.159 Q2135.99 184.291 2138.29 184.291 Q2138.62 184.291 2139.02 184.343 Q2139.42 184.378 2139.91 184.465 L2139.93 187.746 Z" fill="#000000" fill-rule="evenodd" fill-opacity="1" /><path clip-path="url(#clip960)" d="M 0 0 M2159.13 193.683 L2159.13 195.246 L2144.44 195.246 Q2144.65 198.544 2146.42 200.281 Q2148.21 201.999 2151.38 201.999 Q2153.23 201.999 2154.94 201.548 Q2156.68 201.096 2158.38 200.194 L2158.38 203.215 Q2156.66 203.944 2154.86 204.326 Q2153.05 204.708 2151.19 204.708 Q2146.54 204.708 2143.82 201.999 Q2141.11 199.291 2141.11 194.673 Q2141.11 189.899 2143.68 187.103 Q2146.26 184.291 2150.64 184.291 Q2154.56 184.291 2156.84 186.826 Q2159.13 189.343 2159.13 193.683 M2155.93 192.746 Q2155.9 190.124 2154.46 188.562 Q2153.03 186.999 2150.67 186.999 Q2148 186.999 2146.38 188.51 Q2144.79 190.02 2144.54 192.763 L2155.93 192.746 Z" fill="#000000" fill-rule="evenodd" fill-opacity="1" /><path clip-path="url(#clip960)" d="M 0 0 M2178.64 192.468 L2178.64 204.204 L2175.45 204.204 L2175.45 192.572 Q2175.45 189.812 2174.37 188.44 Q2173.29 187.069 2171.14 187.069 Q2168.55 187.069 2167.06 188.718 Q2165.57 190.367 2165.57 193.215 L2165.57 204.204 L2162.36 204.204 L2162.36 184.76 L2165.57 184.76 L2165.57 187.781 Q2166.71 186.027 2168.26 185.159 Q2169.82 184.291 2171.85 184.291 Q2175.2 184.291 2176.92 186.374 Q2178.64 188.44 2178.64 192.468 Z" fill="#000000" fill-rule="evenodd" fill-opacity="1" /><path clip-path="url(#clip960)" d="M 0 0 M2195.99 185.506 L2195.99 188.492 Q2194.63 187.746 2193.26 187.381 Q2191.91 186.999 2190.52 186.999 Q2187.41 186.999 2185.69 188.978 Q2183.97 190.94 2183.97 194.499 Q2183.97 198.058 2185.69 200.037 Q2187.41 201.999 2190.52 201.999 Q2191.91 201.999 2193.26 201.635 Q2194.63 201.253 2195.99 200.506 L2195.99 203.458 Q2194.65 204.083 2193.21 204.395 Q2191.78 204.708 2190.17 204.708 Q2185.78 204.708 2183.19 201.947 Q2180.6 199.187 2180.6 194.499 Q2180.6 189.742 2183.21 187.017 Q2185.83 184.291 2190.38 184.291 Q2191.85 184.291 2193.26 184.604 Q2194.67 184.899 2195.99 185.506 Z" fill="#000000" fill-rule="evenodd" fill-opacity="1" /><path clip-path="url(#clip960)" d="M 0 0 M2215.97 193.683 L2215.97 195.246 L2201.28 195.246 Q2201.49 198.544 2203.26 200.281 Q2205.05 201.999 2208.22 201.999 Q2210.07 201.999 2211.78 201.548 Q2213.52 201.096 2215.22 200.194 L2215.22 203.215 Q2213.5 203.944 2211.7 204.326 Q2209.89 204.708 2208.03 204.708 Q2203.38 204.708 2200.66 201.999 Q2197.95 199.291 2197.95 194.673 Q2197.95 189.899 2200.52 187.103 Q2203.1 184.291 2207.48 184.291 Q2211.4 184.291 2213.68 186.826 Q2215.97 189.343 2215.97 193.683 M2212.77 192.746 Q2212.74 190.124 2211.3 188.562 Q2209.87 186.999 2207.51 186.999 Q2204.84 186.999 2203.22 188.51 Q2201.63 190.02 2201.38 192.763 L2212.77 192.746 Z" fill="#000000" fill-rule="evenodd" fill-opacity="1" /><path clip-path="url(#clip960)" d="M 0 0 M2231.71 185.333 L2231.71 188.353 Q2230.36 187.659 2228.9 187.312 Q2227.44 186.965 2225.88 186.965 Q2223.5 186.965 2222.3 187.694 Q2221.12 188.423 2221.12 189.881 Q2221.12 190.992 2221.97 191.635 Q2222.83 192.26 2225.39 192.833 L2226.49 193.076 Q2229.89 193.805 2231.31 195.142 Q2232.76 196.461 2232.76 198.84 Q2232.76 201.548 2230.6 203.128 Q2228.47 204.708 2224.72 204.708 Q2223.16 204.708 2221.45 204.395 Q2219.77 204.1 2217.89 203.492 L2217.89 200.194 Q2219.67 201.114 2221.38 201.583 Q2223.1 202.034 2224.79 202.034 Q2227.04 202.034 2228.26 201.27 Q2229.47 200.489 2229.47 199.083 Q2229.47 197.781 2228.59 197.086 Q2227.72 196.392 2224.75 195.749 L2223.64 195.489 Q2220.67 194.864 2219.35 193.579 Q2218.03 192.277 2218.03 190.02 Q2218.03 187.277 2219.98 185.784 Q2221.92 184.291 2225.5 184.291 Q2227.27 184.291 2228.83 184.551 Q2230.39 184.812 2231.71 185.333 Z" fill="#000000" fill-rule="evenodd" fill-opacity="1" /></svg>
