<?xml version="1.0" encoding="utf-8"?>
<svg xmlns="http://www.w3.org/2000/svg" xmlns:xlink="http://www.w3.org/1999/xlink" width="600" height="400" viewBox="0 0 2400 1600">
<defs>
  <clipPath id="clip470">
    <rect x="0" y="0" width="2400" height="1600"/>
  </clipPath>
</defs>
<path clip-path="url(#clip470)" d="
M0 1600 L2400 1600 L2400 0 L0 0  Z
  " fill="#ffffff" fill-rule="evenodd" fill-opacity="1"/>
<defs>
  <clipPath id="clip471">
    <rect x="480" y="0" width="1681" height="1600"/>
  </clipPath>
</defs>
<path clip-path="url(#clip470)" d="
M151.899 1423.18 L2352.76 1423.18 L2352.76 47.2441 L151.899 47.2441  Z
  " fill="#ffffff" fill-rule="evenodd" fill-opacity="1"/>
<defs>
  <clipPath id="clip472">
    <rect x="151" y="47" width="2202" height="1377"/>
  </clipPath>
</defs>
<polyline clip-path="url(#clip472)" style="stroke:#000000; stroke-width:2; stroke-opacity:0.1; fill:none" points="
  629.444,1423.18 629.444,47.2441 
  "/>
<polyline clip-path="url(#clip472)" style="stroke:#000000; stroke-width:2; stroke-opacity:0.1; fill:none" points="
  1148.51,1423.18 1148.51,47.2441 
  "/>
<polyline clip-path="url(#clip472)" style="stroke:#000000; stroke-width:2; stroke-opacity:0.1; fill:none" points="
  1667.58,1423.18 1667.58,47.2441 
  "/>
<polyline clip-path="url(#clip472)" style="stroke:#000000; stroke-width:2; stroke-opacity:0.1; fill:none" points="
  2186.65,1423.18 2186.65,47.2441 
  "/>
<polyline clip-path="url(#clip472)" style="stroke:#000000; stroke-width:2; stroke-opacity:0.1; fill:none" points="
  151.899,1128.64 2352.76,1128.64 
  "/>
<polyline clip-path="url(#clip472)" style="stroke:#000000; stroke-width:2; stroke-opacity:0.1; fill:none" points="
  151.899,790.852 2352.76,790.852 
  "/>
<polyline clip-path="url(#clip472)" style="stroke:#000000; stroke-width:2; stroke-opacity:0.1; fill:none" points="
  151.899,453.065 2352.76,453.065 
  "/>
<polyline clip-path="url(#clip472)" style="stroke:#000000; stroke-width:2; stroke-opacity:0.1; fill:none" points="
  151.899,115.279 2352.76,115.279 
  "/>
<polyline clip-path="url(#clip470)" style="stroke:#000000; stroke-width:4; stroke-opacity:1; fill:none" points="
  151.899,1423.18 2352.76,1423.18 
  "/>
<polyline clip-path="url(#clip470)" style="stroke:#000000; stroke-width:4; stroke-opacity:1; fill:none" points="
  151.899,1423.18 151.899,47.2441 
  "/>
<polyline clip-path="url(#clip470)" style="stroke:#000000; stroke-width:4; stroke-opacity:1; fill:none" points="
  629.444,1423.18 629.444,1406.67 
  "/>
<polyline clip-path="url(#clip470)" style="stroke:#000000; stroke-width:4; stroke-opacity:1; fill:none" points="
  1148.51,1423.18 1148.51,1406.67 
  "/>
<polyline clip-path="url(#clip470)" style="stroke:#000000; stroke-width:4; stroke-opacity:1; fill:none" points="
  1667.58,1423.18 1667.58,1406.67 
  "/>
<polyline clip-path="url(#clip470)" style="stroke:#000000; stroke-width:4; stroke-opacity:1; fill:none" points="
  2186.65,1423.18 2186.65,1406.67 
  "/>
<polyline clip-path="url(#clip470)" style="stroke:#000000; stroke-width:4; stroke-opacity:1; fill:none" points="
  151.899,1128.64 178.309,1128.64 
  "/>
<polyline clip-path="url(#clip470)" style="stroke:#000000; stroke-width:4; stroke-opacity:1; fill:none" points="
  151.899,790.852 178.309,790.852 
  "/>
<polyline clip-path="url(#clip470)" style="stroke:#000000; stroke-width:4; stroke-opacity:1; fill:none" points="
  151.899,453.065 178.309,453.065 
  "/>
<polyline clip-path="url(#clip470)" style="stroke:#000000; stroke-width:4; stroke-opacity:1; fill:none" points="
  151.899,115.279 178.309,115.279 
  "/>
<path clip-path="url(#clip470)" d="M 0 0 M619.721 1442.09 L638.078 1442.09 L638.078 1446.03 L624.004 1446.03 L624.004 1454.5 Q625.022 1454.15 626.041 1453.99 Q627.059 1453.8 628.078 1453.8 Q633.865 1453.8 637.244 1456.98 Q640.624 1460.15 640.624 1465.56 Q640.624 1471.14 637.152 1474.24 Q633.68 1477.32 627.36 1477.32 Q625.184 1477.32 622.916 1476.95 Q620.67 1476.58 618.263 1475.84 L618.263 1471.14 Q620.346 1472.28 622.569 1472.83 Q624.791 1473.39 627.268 1473.39 Q631.272 1473.39 633.61 1471.28 Q635.948 1469.18 635.948 1465.56 Q635.948 1461.95 633.61 1459.85 Q631.272 1457.74 627.268 1457.74 Q625.393 1457.74 623.518 1458.16 Q621.666 1458.57 619.721 1459.45 L619.721 1442.09 Z" fill="#000000" fill-rule="evenodd" fill-opacity="1" /><path clip-path="url(#clip470)" d="M 0 0 M1125.39 1472.72 L1133.03 1472.72 L1133.03 1446.35 L1124.72 1448.02 L1124.72 1443.76 L1132.98 1442.09 L1137.66 1442.09 L1137.66 1472.72 L1145.3 1472.72 L1145.3 1476.65 L1125.39 1476.65 L1125.39 1472.72 Z" fill="#000000" fill-rule="evenodd" fill-opacity="1" /><path clip-path="url(#clip470)" d="M 0 0 M1160.37 1445.17 Q1156.75 1445.17 1154.93 1448.74 Q1153.12 1452.28 1153.12 1459.41 Q1153.12 1466.51 1154.93 1470.08 Q1156.75 1473.62 1160.37 1473.62 Q1164 1473.62 1165.81 1470.08 Q1167.63 1466.51 1167.63 1459.41 Q1167.63 1452.28 1165.81 1448.74 Q1164 1445.17 1160.37 1445.17 M1160.37 1441.47 Q1166.18 1441.47 1169.23 1446.07 Q1172.31 1450.66 1172.31 1459.41 Q1172.31 1468.13 1169.23 1472.74 Q1166.18 1477.32 1160.37 1477.32 Q1154.56 1477.32 1151.48 1472.74 Q1148.42 1468.13 1148.42 1459.41 Q1148.42 1450.66 1151.48 1446.07 Q1154.56 1441.47 1160.37 1441.47 Z" fill="#000000" fill-rule="evenodd" fill-opacity="1" /><path clip-path="url(#clip470)" d="M 0 0 M1644.96 1472.72 L1652.6 1472.72 L1652.6 1446.35 L1644.29 1448.02 L1644.29 1443.76 L1652.55 1442.09 L1657.22 1442.09 L1657.22 1472.72 L1664.86 1472.72 L1664.86 1476.65 L1644.96 1476.65 L1644.96 1472.72 Z" fill="#000000" fill-rule="evenodd" fill-opacity="1" /><path clip-path="url(#clip470)" d="M 0 0 M1669.98 1442.09 L1688.34 1442.09 L1688.34 1446.03 L1674.26 1446.03 L1674.26 1454.5 Q1675.28 1454.15 1676.3 1453.99 Q1677.32 1453.8 1678.34 1453.8 Q1684.12 1453.8 1687.5 1456.98 Q1690.88 1460.15 1690.88 1465.56 Q1690.88 1471.14 1687.41 1474.24 Q1683.94 1477.32 1677.62 1477.32 Q1675.44 1477.32 1673.17 1476.95 Q1670.93 1476.58 1668.52 1475.84 L1668.52 1471.14 Q1670.6 1472.28 1672.83 1472.83 Q1675.05 1473.39 1677.53 1473.39 Q1681.53 1473.39 1683.87 1471.28 Q1686.21 1469.18 1686.21 1465.56 Q1686.21 1461.95 1683.87 1459.85 Q1681.53 1457.74 1677.53 1457.74 Q1675.65 1457.74 1673.78 1458.16 Q1671.92 1458.57 1669.98 1459.45 L1669.98 1442.09 Z" fill="#000000" fill-rule="evenodd" fill-opacity="1" /><path clip-path="url(#clip470)" d="M 0 0 M2167.8 1472.72 L2184.12 1472.72 L2184.12 1476.65 L2162.17 1476.65 L2162.17 1472.72 Q2164.84 1469.96 2169.42 1465.33 Q2174.03 1460.68 2175.21 1459.34 Q2177.45 1456.81 2178.33 1455.08 Q2179.23 1453.32 2179.23 1451.63 Q2179.23 1448.87 2177.29 1447.14 Q2175.37 1445.4 2172.27 1445.4 Q2170.07 1445.4 2167.61 1446.17 Q2165.18 1446.93 2162.41 1448.48 L2162.41 1443.76 Q2165.23 1442.62 2167.68 1442.05 Q2170.14 1441.47 2172.17 1441.47 Q2177.54 1441.47 2180.74 1444.15 Q2183.93 1446.84 2183.93 1451.33 Q2183.93 1453.46 2183.12 1455.38 Q2182.34 1457.28 2180.23 1459.87 Q2179.65 1460.54 2176.55 1463.76 Q2173.45 1466.95 2167.8 1472.72 Z" fill="#000000" fill-rule="evenodd" fill-opacity="1" /><path clip-path="url(#clip470)" d="M 0 0 M2199.19 1445.17 Q2195.58 1445.17 2193.75 1448.74 Q2191.94 1452.28 2191.94 1459.41 Q2191.94 1466.51 2193.75 1470.08 Q2195.58 1473.62 2199.19 1473.62 Q2202.82 1473.62 2204.63 1470.08 Q2206.46 1466.51 2206.46 1459.41 Q2206.46 1452.28 2204.63 1448.74 Q2202.82 1445.17 2199.19 1445.17 M2199.19 1441.47 Q2205 1441.47 2208.05 1446.07 Q2211.13 1450.66 2211.13 1459.41 Q2211.13 1468.13 2208.05 1472.74 Q2205 1477.32 2199.19 1477.32 Q2193.38 1477.32 2190.3 1472.74 Q2187.24 1468.13 2187.24 1459.41 Q2187.24 1450.66 2190.3 1446.07 Q2193.38 1441.47 2199.19 1441.47 Z" fill="#000000" fill-rule="evenodd" fill-opacity="1" /><path clip-path="url(#clip470)" d="M 0 0 M63.6403 1131.03 L76.1171 1131.03 L76.1171 1134.83 L63.6403 1134.83 L63.6403 1131.03 Z" fill="#000000" fill-rule="evenodd" fill-opacity="1" /><path clip-path="url(#clip470)" d="M 0 0 M85.2142 1141.98 L101.534 1141.98 L101.534 1145.92 L79.5893 1145.92 L79.5893 1141.98 Q82.2513 1139.23 86.8346 1134.6 Q91.441 1129.95 92.6216 1128.6 Q94.867 1126.08 95.7466 1124.35 Q96.6494 1122.59 96.6494 1120.9 Q96.6494 1118.14 94.7049 1116.41 Q92.7836 1114.67 89.6818 1114.67 Q87.4827 1114.67 85.029 1115.43 Q82.5985 1116.2 79.8207 1117.75 L79.8207 1113.03 Q82.6448 1111.89 85.0985 1111.31 Q87.5522 1110.73 89.5892 1110.73 Q94.9595 1110.73 98.154 1113.42 Q101.348 1116.1 101.348 1120.6 Q101.348 1122.72 100.538 1124.65 Q99.7512 1126.54 97.6447 1129.14 Q97.066 1129.81 93.9642 1133.03 Q90.8623 1136.22 85.2142 1141.98 Z" fill="#000000" fill-rule="evenodd" fill-opacity="1" /><path clip-path="url(#clip470)" d="M 0 0 M120.77 1127.28 Q124.126 1128 126.001 1130.27 Q127.899 1132.54 127.899 1135.87 Q127.899 1140.99 124.381 1143.79 Q120.862 1146.59 114.381 1146.59 Q112.205 1146.59 109.89 1146.15 Q107.598 1145.73 105.145 1144.88 L105.145 1140.36 Q107.089 1141.5 109.404 1142.08 Q111.719 1142.66 114.242 1142.66 Q118.64 1142.66 120.932 1140.92 Q123.246 1139.18 123.246 1135.87 Q123.246 1132.82 121.094 1131.1 Q118.964 1129.37 115.145 1129.37 L111.117 1129.37 L111.117 1125.53 L115.33 1125.53 Q118.779 1125.53 120.608 1124.16 Q122.436 1122.77 122.436 1120.18 Q122.436 1117.52 120.538 1116.1 Q118.663 1114.67 115.145 1114.67 Q113.223 1114.67 111.024 1115.09 Q108.825 1115.5 106.186 1116.38 L106.186 1112.22 Q108.848 1111.47 111.163 1111.1 Q113.501 1110.73 115.561 1110.73 Q120.885 1110.73 123.987 1113.16 Q127.089 1115.57 127.089 1119.69 Q127.089 1122.56 125.445 1124.55 Q123.802 1126.52 120.77 1127.28 Z" fill="#000000" fill-rule="evenodd" fill-opacity="1" /><path clip-path="url(#clip470)" d="M 0 0 M64.5893 793.248 L77.0661 793.248 L77.0661 797.044 L64.5893 797.044 L64.5893 793.248 Z" fill="#000000" fill-rule="evenodd" fill-opacity="1" /><path clip-path="url(#clip470)" d="M 0 0 M86.1633 804.197 L102.483 804.197 L102.483 808.132 L80.5383 808.132 L80.5383 804.197 Q83.2004 801.442 87.7837 796.813 Q92.3901 792.16 93.5707 790.817 Q95.816 788.294 96.6956 786.558 Q97.5984 784.799 97.5984 783.109 Q97.5984 780.355 95.654 778.618 Q93.7327 776.882 90.6309 776.882 Q88.4318 776.882 85.9781 777.646 Q83.5476 778.41 80.7698 779.961 L80.7698 775.239 Q83.5939 774.105 86.0476 773.526 Q88.5012 772.947 90.5383 772.947 Q95.9086 772.947 99.103 775.632 Q102.297 778.317 102.297 782.808 Q102.297 784.938 101.487 786.859 Q100.7 788.757 98.5938 791.35 Q98.0151 792.021 94.9133 795.239 Q91.8114 798.433 86.1633 804.197 Z" fill="#000000" fill-rule="evenodd" fill-opacity="1" /><path clip-path="url(#clip470)" d="M 0 0 M111.58 804.197 L127.899 804.197 L127.899 808.132 L105.955 808.132 L105.955 804.197 Q108.617 801.442 113.2 796.813 Q117.807 792.16 118.987 790.817 Q121.233 788.294 122.112 786.558 Q123.015 784.799 123.015 783.109 Q123.015 780.355 121.071 778.618 Q119.149 776.882 116.047 776.882 Q113.848 776.882 111.395 777.646 Q108.964 778.41 106.186 779.961 L106.186 775.239 Q109.01 774.105 111.464 773.526 Q113.918 772.947 115.955 772.947 Q121.325 772.947 124.52 775.632 Q127.714 778.317 127.714 782.808 Q127.714 784.938 126.904 786.859 Q126.117 788.757 124.01 791.35 Q123.432 792.021 120.33 795.239 Q117.228 798.433 111.58 804.197 Z" fill="#000000" fill-rule="evenodd" fill-opacity="1" /><path clip-path="url(#clip470)" d="M 0 0 M64.219 455.461 L76.6958 455.461 L76.6958 459.257 L64.219 459.257 L64.219 455.461 Z" fill="#000000" fill-rule="evenodd" fill-opacity="1" /><path clip-path="url(#clip470)" d="M 0 0 M85.7929 466.41 L102.112 466.41 L102.112 470.345 L80.168 470.345 L80.168 466.41 Q82.83 463.656 87.4133 459.026 Q92.0197 454.373 93.2003 453.031 Q95.4457 450.507 96.3253 448.771 Q97.2281 447.012 97.2281 445.322 Q97.2281 442.568 95.2836 440.832 Q93.3623 439.096 90.2605 439.096 Q88.0614 439.096 85.6077 439.859 Q83.1772 440.623 80.3994 442.174 L80.3994 437.452 Q83.2235 436.318 85.6772 435.739 Q88.1309 435.16 90.1679 435.16 Q95.5382 435.16 98.7327 437.846 Q101.927 440.531 101.927 445.021 Q101.927 447.151 101.117 449.072 Q100.33 450.97 98.2234 453.563 Q97.6447 454.234 94.5429 457.452 Q91.441 460.646 85.7929 466.41 Z" fill="#000000" fill-rule="evenodd" fill-opacity="1" /><path clip-path="url(#clip470)" d="M 0 0 M107.992 466.41 L115.631 466.41 L115.631 440.045 L107.321 441.711 L107.321 437.452 L115.584 435.785 L120.26 435.785 L120.26 466.41 L127.899 466.41 L127.899 470.345 L107.992 470.345 L107.992 466.41 Z" fill="#000000" fill-rule="evenodd" fill-opacity="1" /><path clip-path="url(#clip470)" d="M 0 0 M62.9921 117.674 L75.4689 117.674 L75.4689 121.471 L62.9921 121.471 L62.9921 117.674 Z" fill="#000000" fill-rule="evenodd" fill-opacity="1" /><path clip-path="url(#clip470)" d="M 0 0 M84.5661 128.623 L100.885 128.623 L100.885 132.559 L78.9411 132.559 L78.9411 128.623 Q81.6031 125.869 86.1864 121.239 Q90.7929 116.586 91.9735 115.244 Q94.2188 112.721 95.0984 110.985 Q96.0012 109.225 96.0012 107.536 Q96.0012 104.781 94.0568 103.045 Q92.1355 101.309 89.0337 101.309 Q86.8346 101.309 84.3809 102.073 Q81.9504 102.836 79.1726 104.387 L79.1726 99.6652 Q81.9967 98.5309 84.4503 97.9522 Q86.904 97.3735 88.9411 97.3735 Q94.3114 97.3735 97.5058 100.059 Q100.7 102.744 100.7 107.235 Q100.7 109.364 99.8901 111.285 Q99.103 113.184 96.9966 115.776 Q96.4179 116.447 93.316 119.665 Q90.2142 122.859 84.5661 128.623 Z" fill="#000000" fill-rule="evenodd" fill-opacity="1" /><path clip-path="url(#clip470)" d="M 0 0 M115.955 101.077 Q112.344 101.077 110.515 104.642 Q108.709 108.184 108.709 115.313 Q108.709 122.42 110.515 125.984 Q112.344 129.526 115.955 129.526 Q119.589 129.526 121.395 125.984 Q123.223 122.42 123.223 115.313 Q123.223 108.184 121.395 104.642 Q119.589 101.077 115.955 101.077 M115.955 97.3735 Q121.765 97.3735 124.82 101.98 Q127.899 106.563 127.899 115.313 Q127.899 124.04 124.82 128.647 Q121.765 133.23 115.955 133.23 Q110.145 133.23 107.066 128.647 Q104.01 124.04 104.01 115.313 Q104.01 106.563 107.066 101.98 Q110.145 97.3735 115.955 97.3735 Z" fill="#000000" fill-rule="evenodd" fill-opacity="1" /><path clip-path="url(#clip470)" d="M 0 0 M1189.56 1559.35 Q1187.08 1565.72 1184.72 1567.66 Q1182.37 1569.6 1178.42 1569.6 L1173.74 1569.6 L1173.74 1564.7 L1177.18 1564.7 Q1179.6 1564.7 1180.94 1563.56 Q1182.27 1562.41 1183.9 1558.14 L1184.95 1555.47 L1170.53 1520.4 L1176.73 1520.4 L1187.87 1548.28 L1199.01 1520.4 L1205.22 1520.4 L1189.56 1559.35 Z" fill="#000000" fill-rule="evenodd" fill-opacity="1" /><path clip-path="url(#clip470)" d="M 0 0 M1207.26 1535.58 L1224.41 1535.58 L1224.41 1540.8 L1207.26 1540.8 L1207.26 1535.58 Z" fill="#000000" fill-rule="evenodd" fill-opacity="1" /><path clip-path="url(#clip470)" d="M 0 0 M1254.01 1537.81 Q1254.01 1531.44 1251.37 1527.94 Q1248.76 1524.44 1244.02 1524.44 Q1239.31 1524.44 1236.67 1527.94 Q1234.06 1531.44 1234.06 1537.81 Q1234.06 1544.14 1236.67 1547.64 Q1239.31 1551.14 1244.02 1551.14 Q1248.76 1551.14 1251.37 1547.64 Q1254.01 1544.14 1254.01 1537.81 M1259.87 1551.62 Q1259.87 1560.72 1255.83 1565.15 Q1251.79 1569.6 1243.45 1569.6 Q1240.36 1569.6 1237.62 1569.13 Q1234.89 1568.68 1232.31 1567.72 L1232.31 1562.03 Q1234.89 1563.43 1237.4 1564.1 Q1239.91 1564.76 1242.52 1564.76 Q1248.29 1564.76 1251.15 1561.74 Q1254.01 1558.75 1254.01 1552.67 L1254.01 1549.77 Q1252.2 1552.92 1249.37 1554.48 Q1246.53 1556.04 1242.59 1556.04 Q1236.03 1556.04 1232.02 1551.05 Q1228.01 1546.05 1228.01 1537.81 Q1228.01 1529.53 1232.02 1524.53 Q1236.03 1519.54 1242.59 1519.54 Q1246.53 1519.54 1249.37 1521.1 Q1252.2 1522.66 1254.01 1525.81 L1254.01 1520.4 L1259.87 1520.4 L1259.87 1551.62 Z" fill="#000000" fill-rule="evenodd" fill-opacity="1" /><path clip-path="url(#clip470)" d="M 0 0 M1286.67 1525.87 Q1285.68 1525.3 1284.51 1525.04 Q1283.36 1524.76 1281.96 1524.76 Q1276.99 1524.76 1274.32 1528 Q1271.68 1531.22 1271.68 1537.27 L1271.68 1556.04 L1265.79 1556.04 L1265.79 1520.4 L1271.68 1520.4 L1271.68 1525.93 Q1273.53 1522.69 1276.49 1521.13 Q1279.45 1519.54 1283.68 1519.54 Q1284.28 1519.54 1285.02 1519.63 Q1285.75 1519.7 1286.64 1519.85 L1286.67 1525.87 Z" fill="#000000" fill-rule="evenodd" fill-opacity="1" /><path clip-path="url(#clip470)" d="M 0 0 M1292.81 1520.4 L1298.67 1520.4 L1298.67 1556.04 L1292.81 1556.04 L1292.81 1520.4 M1292.81 1506.52 L1298.67 1506.52 L1298.67 1513.93 L1292.81 1513.93 L1292.81 1506.52 Z" fill="#000000" fill-rule="evenodd" fill-opacity="1" /><path clip-path="url(#clip470)" d="M 0 0 M1328.27 1525.81 L1328.27 1506.52 L1334.13 1506.52 L1334.13 1556.04 L1328.27 1556.04 L1328.27 1550.7 Q1326.42 1553.88 1323.59 1555.44 Q1320.79 1556.97 1316.84 1556.97 Q1310.38 1556.97 1306.31 1551.81 Q1302.27 1546.65 1302.27 1538.25 Q1302.27 1529.85 1306.31 1524.69 Q1310.38 1519.54 1316.84 1519.54 Q1320.79 1519.54 1323.59 1521.1 Q1326.42 1522.62 1328.27 1525.81 M1308.31 1538.25 Q1308.31 1544.71 1310.96 1548.4 Q1313.63 1552.07 1318.28 1552.07 Q1322.92 1552.07 1325.6 1548.4 Q1328.27 1544.71 1328.27 1538.25 Q1328.27 1531.79 1325.6 1528.13 Q1322.92 1524.44 1318.28 1524.44 Q1313.63 1524.44 1310.96 1528.13 Q1308.31 1531.79 1308.31 1538.25 Z" fill="#000000" fill-rule="evenodd" fill-opacity="1" /><polyline clip-path="url(#clip472)" style="stroke:#0000ff; stroke-width:4.6; stroke-opacity:1; fill:none" points="
  214.188,1355.21 318.002,1290.95 421.816,1213.82 525.63,1131.64 629.444,1048.16 733.258,964.926 837.072,882.737 940.886,802.228 1044.7,724.278 1148.51,650.087 
  1252.33,587.712 1356.14,529.099 1459.96,472.67 1563.77,417.688 1667.58,363.857 1771.4,311.121 1875.21,259.608 1979.03,209.702 2082.84,162.328 2186.65,119.686 
  2290.47,86.1857 
  "/>
<polyline clip-path="url(#clip472)" style="stroke:#800080; stroke-width:6; stroke-opacity:1; fill:none" stroke-dasharray="3, 6" points="
  214.188,1384.24 318.002,1298.56 421.816,1213.3 525.63,1128.79 629.444,1045.34 733.258,963.333 837.072,883.137 940.886,805.153 1044.7,729.784 1148.51,657.43 
  1252.33,588.471 1356.14,523.259 1459.96,462.101 1563.77,405.247 1667.58,352.878 1771.4,305.098 1875.21,261.932 1979.03,223.324 2082.84,189.142 2186.65,159.185 
  2290.47,133.2 
  "/>
<polyline clip-path="url(#clip472)" style="stroke:#ff0000; stroke-width:4.6; stroke-opacity:1; fill:none" stroke-dasharray="18, 12" points="
  214.188,1370.26 318.002,1297.44 421.816,1214.59 525.63,1130.16 629.444,1046.57 733.258,964.254 837.072,883.418 940.886,804.31 1044.7,727.207 1148.51,652.368 
  1252.33,587.498 1356.14,525.534 1459.96,466.299 1563.77,409.951 1667.58,356.606 1771.4,306.336 1875.21,259.164 1979.03,215.071 2082.84,174.091 2186.65,136.976 
  2290.47,106.852 
  "/>
<path clip-path="url(#clip470)" d="
M1788.49 1279.18 L2280.76 1279.18 L2280.76 1037.26 L1788.49 1037.26  Z
  " fill="#ffffff" fill-rule="evenodd" fill-opacity="1"/>
<polyline clip-path="url(#clip470)" style="stroke:#000000; stroke-width:4; stroke-opacity:0; fill:none" points="
  1788.49,1279.18 2280.76,1279.18 2280.76,1037.26 1788.49,1037.26 1788.49,1279.18 
  "/>
<polyline clip-path="url(#clip470)" style="stroke:#0000ff; stroke-width:4; stroke-opacity:1; fill:none" points="
  1812.49,1097.74 1956.49,1097.74 
  "/>
<path clip-path="url(#clip470)" d="M 0 0 M1993.89 1101.99 Q1988.73 1101.99 1986.74 1103.17 Q1984.75 1104.35 1984.75 1107.2 Q1984.75 1109.46 1986.23 1110.81 Q1987.73 1112.13 1990.3 1112.13 Q1993.85 1112.13 1995.97 1109.63 Q1998.13 1107.1 1998.13 1102.94 L1998.13 1101.99 L1993.89 1101.99 M2002.39 1100.23 L2002.39 1115.02 L1998.13 1115.02 L1998.13 1111.08 Q1996.67 1113.45 1994.49 1114.58 Q1992.32 1115.69 1989.17 1115.69 Q1985.19 1115.69 1982.83 1113.47 Q1980.49 1111.22 1980.49 1107.47 Q1980.49 1103.1 1983.41 1100.88 Q1986.35 1098.65 1992.16 1098.65 L1998.13 1098.65 L1998.13 1098.24 Q1998.13 1095.3 1996.18 1093.7 Q1994.26 1092.08 1990.77 1092.08 Q1988.54 1092.08 1986.44 1092.61 Q1984.33 1093.14 1982.39 1094.21 L1982.39 1090.27 Q1984.72 1089.37 1986.92 1088.93 Q1989.12 1088.47 1991.21 1088.47 Q1996.83 1088.47 1999.61 1091.39 Q2002.39 1094.3 2002.39 1100.23 Z" fill="#000000" fill-rule="evenodd" fill-opacity="1" /><path clip-path="url(#clip470)" d="M 0 0 M2025.51 1090.09 L2025.51 1094.07 Q2023.71 1093.08 2021.88 1092.59 Q2020.07 1092.08 2018.22 1092.08 Q2014.08 1092.08 2011.78 1094.72 Q2009.49 1097.33 2009.49 1102.08 Q2009.49 1106.83 2011.78 1109.46 Q2014.08 1112.08 2018.22 1112.08 Q2020.07 1112.08 2021.88 1111.59 Q2023.71 1111.08 2025.51 1110.09 L2025.51 1114.02 Q2023.73 1114.86 2021.81 1115.27 Q2019.91 1115.69 2017.76 1115.69 Q2011.9 1115.69 2008.45 1112.01 Q2005 1108.33 2005 1102.08 Q2005 1095.74 2008.47 1092.1 Q2011.97 1088.47 2018.03 1088.47 Q2020 1088.47 2021.88 1088.89 Q2023.75 1089.28 2025.51 1090.09 Z" fill="#000000" fill-rule="evenodd" fill-opacity="1" /><path clip-path="url(#clip470)" d="M 0 0 M2034.19 1081.73 L2034.19 1089.09 L2042.97 1089.09 L2042.97 1092.4 L2034.19 1092.4 L2034.19 1106.48 Q2034.19 1109.65 2035.05 1110.55 Q2035.93 1111.46 2038.59 1111.46 L2042.97 1111.46 L2042.97 1115.02 L2038.59 1115.02 Q2033.66 1115.02 2031.78 1113.19 Q2029.91 1111.34 2029.91 1106.48 L2029.91 1092.4 L2026.78 1092.4 L2026.78 1089.09 L2029.91 1089.09 L2029.91 1081.73 L2034.19 1081.73 Z" fill="#000000" fill-rule="evenodd" fill-opacity="1" /><path clip-path="url(#clip470)" d="M 0 0 M2046.99 1104.79 L2046.99 1089.09 L2051.25 1089.09 L2051.25 1104.63 Q2051.25 1108.31 2052.69 1110.16 Q2054.12 1111.99 2056.99 1111.99 Q2060.44 1111.99 2062.43 1109.79 Q2064.45 1107.59 2064.45 1103.79 L2064.45 1089.09 L2068.71 1089.09 L2068.71 1115.02 L2064.45 1115.02 L2064.45 1111.04 Q2062.9 1113.4 2060.84 1114.56 Q2058.8 1115.69 2056.09 1115.69 Q2051.62 1115.69 2049.31 1112.91 Q2046.99 1110.14 2046.99 1104.79 M2057.71 1088.47 L2057.71 1088.47 Z" fill="#000000" fill-rule="evenodd" fill-opacity="1" /><path clip-path="url(#clip470)" d="M 0 0 M2084.96 1101.99 Q2079.79 1101.99 2077.8 1103.17 Q2075.81 1104.35 2075.81 1107.2 Q2075.81 1109.46 2077.29 1110.81 Q2078.8 1112.13 2081.37 1112.13 Q2084.91 1112.13 2087.04 1109.63 Q2089.19 1107.1 2089.19 1102.94 L2089.19 1101.99 L2084.96 1101.99 M2093.45 1100.23 L2093.45 1115.02 L2089.19 1115.02 L2089.19 1111.08 Q2087.73 1113.45 2085.56 1114.58 Q2083.38 1115.69 2080.23 1115.69 Q2076.25 1115.69 2073.89 1113.47 Q2071.55 1111.22 2071.55 1107.47 Q2071.55 1103.1 2074.47 1100.88 Q2077.41 1098.65 2083.22 1098.65 L2089.19 1098.65 L2089.19 1098.24 Q2089.19 1095.3 2087.25 1093.7 Q2085.33 1092.08 2081.83 1092.08 Q2079.61 1092.08 2077.5 1092.61 Q2075.4 1093.14 2073.45 1094.21 L2073.45 1090.27 Q2075.79 1089.37 2077.99 1088.93 Q2080.19 1088.47 2082.27 1088.47 Q2087.9 1088.47 2090.67 1091.39 Q2093.45 1094.3 2093.45 1100.23 Z" fill="#000000" fill-rule="evenodd" fill-opacity="1" /><path clip-path="url(#clip470)" d="M 0 0 M2097.92 1079 L2102.18 1079 L2102.18 1115.02 L2097.92 1115.02 L2097.92 1079 Z" fill="#000000" fill-rule="evenodd" fill-opacity="1" /><polyline clip-path="url(#clip470)" style="stroke:#800080; stroke-width:4; stroke-opacity:1; fill:none" stroke-dasharray="2, 4" points="
  1812.49,1158.22 1956.49,1158.22 
  "/>
<path clip-path="url(#clip470)" d="M 0 0 M1980.49 1140.94 L1986.79 1140.94 L2002.11 1169.85 L2002.11 1140.94 L2006.65 1140.94 L2006.65 1175.5 L2000.35 1175.5 L1985.03 1146.59 L1985.03 1175.5 L1980.49 1175.5 L1980.49 1140.94 Z" fill="#000000" fill-rule="evenodd" fill-opacity="1" /><path clip-path="url(#clip470)" d="M 0 0 M2011.3 1140.94 L2017.6 1140.94 L2032.92 1169.85 L2032.92 1140.94 L2037.46 1140.94 L2037.46 1175.5 L2031.16 1175.5 L2015.84 1146.59 L2015.84 1175.5 L2011.3 1175.5 L2011.3 1140.94 Z" fill="#000000" fill-rule="evenodd" fill-opacity="1" /><path clip-path="url(#clip470)" d="M 0 0 M2043.34 1171.56 L2050.97 1171.56 L2050.97 1145.2 L2042.66 1146.87 L2042.66 1142.61 L2050.93 1140.94 L2055.6 1140.94 L2055.6 1171.56 L2063.24 1171.56 L2063.24 1175.5 L2043.34 1175.5 L2043.34 1171.56 Z" fill="#000000" fill-rule="evenodd" fill-opacity="1" /><path clip-path="url(#clip470)" d="M 0 0 M2065.56 1160.62 L2078.03 1160.62 L2078.03 1164.41 L2065.56 1164.41 L2065.56 1160.62 Z" fill="#000000" fill-rule="evenodd" fill-opacity="1" /><path clip-path="url(#clip470)" d="M 0 0 M2097.57 1149.57 L2101.83 1149.57 L2101.83 1175.5 L2097.57 1175.5 L2097.57 1149.57 M2097.57 1139.48 L2101.83 1139.48 L2101.83 1144.88 L2097.57 1144.88 L2097.57 1139.48 Z" fill="#000000" fill-rule="evenodd" fill-opacity="1" /><path clip-path="url(#clip470)" d="M 0 0 M2127.85 1159.85 L2127.85 1175.5 L2123.59 1175.5 L2123.59 1159.99 Q2123.59 1156.31 2122.15 1154.48 Q2120.72 1152.65 2117.85 1152.65 Q2114.4 1152.65 2112.41 1154.85 Q2110.42 1157.05 2110.42 1160.85 L2110.42 1175.5 L2106.14 1175.5 L2106.14 1149.57 L2110.42 1149.57 L2110.42 1153.6 Q2111.95 1151.26 2114.01 1150.11 Q2116.09 1148.95 2118.8 1148.95 Q2123.27 1148.95 2125.56 1151.73 Q2127.85 1154.48 2127.85 1159.85 Z" fill="#000000" fill-rule="evenodd" fill-opacity="1" /><path clip-path="url(#clip470)" d="M 0 0 M2136.53 1142.21 L2136.53 1149.57 L2145.3 1149.57 L2145.3 1152.88 L2136.53 1152.88 L2136.53 1166.96 Q2136.53 1170.13 2137.39 1171.03 Q2138.27 1171.94 2140.93 1171.94 L2145.3 1171.94 L2145.3 1175.5 L2140.93 1175.5 Q2136 1175.5 2134.12 1173.67 Q2132.25 1171.82 2132.25 1166.96 L2132.25 1152.88 L2129.12 1152.88 L2129.12 1149.57 L2132.25 1149.57 L2132.25 1142.21 L2136.53 1142.21 Z" fill="#000000" fill-rule="evenodd" fill-opacity="1" /><path clip-path="url(#clip470)" d="M 0 0 M2171.95 1161.47 L2171.95 1163.56 L2152.36 1163.56 Q2152.64 1167.95 2155 1170.27 Q2157.39 1172.56 2161.62 1172.56 Q2164.08 1172.56 2166.37 1171.96 Q2168.68 1171.36 2170.95 1170.15 L2170.95 1174.18 Q2168.66 1175.15 2166.25 1175.66 Q2163.84 1176.17 2161.37 1176.17 Q2155.16 1176.17 2151.53 1172.56 Q2147.92 1168.95 2147.92 1162.79 Q2147.92 1156.43 2151.34 1152.7 Q2154.79 1148.95 2160.63 1148.95 Q2165.86 1148.95 2168.89 1152.33 Q2171.95 1155.69 2171.95 1161.47 M2167.69 1160.22 Q2167.64 1156.73 2165.72 1154.64 Q2163.82 1152.56 2160.67 1152.56 Q2157.11 1152.56 2154.96 1154.57 Q2152.83 1156.59 2152.5 1160.25 L2167.69 1160.22 Z" fill="#000000" fill-rule="evenodd" fill-opacity="1" /><path clip-path="url(#clip470)" d="M 0 0 M2191.44 1153.56 Q2190.72 1153.14 2189.86 1152.95 Q2189.03 1152.75 2188.01 1152.75 Q2184.4 1152.75 2182.46 1155.11 Q2180.53 1157.44 2180.53 1161.84 L2180.53 1175.5 L2176.25 1175.5 L2176.25 1149.57 L2180.53 1149.57 L2180.53 1153.6 Q2181.88 1151.24 2184.03 1150.11 Q2186.18 1148.95 2189.26 1148.95 Q2189.7 1148.95 2190.23 1149.02 Q2190.77 1149.06 2191.41 1149.18 L2191.44 1153.56 Z" fill="#000000" fill-rule="evenodd" fill-opacity="1" /><path clip-path="url(#clip470)" d="M 0 0 M2215.26 1154.55 Q2216.85 1151.68 2219.08 1150.31 Q2221.3 1148.95 2224.31 1148.95 Q2228.36 1148.95 2230.56 1151.8 Q2232.76 1154.62 2232.76 1159.85 L2232.76 1175.5 L2228.47 1175.5 L2228.47 1159.99 Q2228.47 1156.26 2227.15 1154.46 Q2225.83 1152.65 2223.13 1152.65 Q2219.82 1152.65 2217.89 1154.85 Q2215.97 1157.05 2215.97 1160.85 L2215.97 1175.5 L2211.69 1175.5 L2211.69 1159.99 Q2211.69 1156.24 2210.37 1154.46 Q2209.05 1152.65 2206.3 1152.65 Q2203.03 1152.65 2201.11 1154.87 Q2199.19 1157.07 2199.19 1160.85 L2199.19 1175.5 L2194.91 1175.5 L2194.91 1149.57 L2199.19 1149.57 L2199.19 1153.6 Q2200.65 1151.22 2202.69 1150.08 Q2204.72 1148.95 2207.52 1148.95 Q2210.35 1148.95 2212.32 1150.38 Q2214.31 1151.82 2215.26 1154.55 Z" fill="#000000" fill-rule="evenodd" fill-opacity="1" /><polyline clip-path="url(#clip470)" style="stroke:#ff0000; stroke-width:4; stroke-opacity:1; fill:none" stroke-dasharray="16, 10" points="
  1812.49,1218.7 1956.49,1218.7 
  "/>
<path clip-path="url(#clip470)" d="M 0 0 M1980.49 1201.42 L1986.79 1201.42 L2002.11 1230.33 L2002.11 1201.42 L2006.65 1201.42 L2006.65 1235.98 L2000.35 1235.98 L1985.03 1207.07 L1985.03 1235.98 L1980.49 1235.98 L1980.49 1201.42 Z" fill="#000000" fill-rule="evenodd" fill-opacity="1" /><path clip-path="url(#clip470)" d="M 0 0 M2011.3 1201.42 L2017.6 1201.42 L2032.92 1230.33 L2032.92 1201.42 L2037.46 1201.42 L2037.46 1235.98 L2031.16 1235.98 L2015.84 1207.07 L2015.84 1235.98 L2011.3 1235.98 L2011.3 1201.42 Z" fill="#000000" fill-rule="evenodd" fill-opacity="1" /><path clip-path="url(#clip470)" d="M 0 0 M2043.34 1232.04 L2050.97 1232.04 L2050.97 1205.68 L2042.66 1207.35 L2042.66 1203.09 L2050.93 1201.42 L2055.6 1201.42 L2055.6 1232.04 L2063.24 1232.04 L2063.24 1235.98 L2043.34 1235.98 L2043.34 1232.04 Z" fill="#000000" fill-rule="evenodd" fill-opacity="1" /></svg>
